<?xml version="1.0" encoding="utf-8"?>
<!-- Generator: Adobe Illustrator 22.0.1, SVG Export Plug-In . SVG Version: 6.00 Build 0)  -->
<!DOCTYPE svg PUBLIC "-//W3C//DTD SVG 1.1//EN" "http://www.w3.org/Graphics/SVG/1.1/DTD/svg11.dtd">
<svg version="1.1" id="Layer_1" xmlns="http://www.w3.org/2000/svg" xmlns:xlink="http://www.w3.org/1999/xlink" x="0px" y="0px"
	 viewBox="0 0 750 350.1" style="enable-background:new 0 0 750 350.1;" xml:space="preserve">
<style type="text/css">
	.st0{clip-path:url(#SVGID_2_);}
	.st1{opacity:0.7;clip-path:url(#SVGID_4_);fill:#010101;}
	.st2{clip-path:url(#SVGID_6_);}
	.st3{clip-path:url(#SVGID_8_);fill:#FFFFFF;}
	.st4{clip-path:url(#SVGID_10_);}
	.st5{clip-path:url(#SVGID_12_);fill:#FFFFFF;}
	.st6{clip-path:url(#SVGID_14_);}
	.st7{clip-path:url(#SVGID_16_);fill:none;stroke:#CCCCCC;stroke-width:2;stroke-miterlimit:10;}
	.st8{clip-path:url(#SVGID_18_);}
	.st9{clip-path:url(#SVGID_20_);fill:#FFFFFF;}
	.st10{clip-path:url(#SVGID_22_);}
	.st11{clip-path:url(#SVGID_24_);fill:#20B24B;}
	.st12{clip-path:url(#SVGID_26_);}
	.st13{clip-path:url(#SVGID_28_);fill:#20B24B;}
</style>
<g>
	<defs>
		<rect id="SVGID_1_" x="15" y="16.1" width="720" height="320"/>
	</defs>
	<clipPath id="SVGID_2_">
		<use xlink:href="#SVGID_1_"  style="overflow:visible;"/>
	</clipPath>
	<g class="st0">
		<defs>
			<rect id="SVGID_3_" x="-509" y="-7282.9" width="1800" height="16000"/>
		</defs>
		<clipPath id="SVGID_4_">
			<use xlink:href="#SVGID_3_"  style="overflow:visible;"/>
		</clipPath>
		<rect x="10" y="11.1" class="st1" width="730" height="330"/>
	</g>
</g>
<g>
	<defs>
		<path id="SVGID_5_" d="M154.6,184.5c0,2.8,0.9,5,2.6,6.9s4,2.7,6.8,2.7c2.8,0,5-0.9,6.8-2.7c1.8-1.8,2.6-4.1,2.6-6.9v-78.6
			c0-2.8-0.9-5-2.6-6.9c-1.8-1.8-4-2.7-6.8-2.7c-2.8,0-5,0.9-6.8,2.7s-2.6,4.1-2.6,6.9V184.5z M135.4,105.9c0-4.5,0.8-8.5,2.4-12
			c1.6-3.5,3.7-6.5,6.3-9s5.7-4.4,9.1-5.7c3.4-1.3,7-2,10.8-2c3.8,0,7.4,0.7,10.8,2c3.4,1.3,6.5,3.2,9.1,5.7c2.6,2.5,4.7,5.5,6.3,9
			s2.4,7.5,2.4,12v78.6c0,4.5-0.8,8.5-2.4,12s-3.7,6.5-6.3,9c-2.6,2.5-5.7,4.4-9.1,5.7s-7.1,2-10.8,2c-3.8,0-7.4-0.7-10.8-2
			s-6.5-3.2-9.1-5.7c-2.6-2.5-4.7-5.5-6.3-9c-1.6-3.5-2.4-7.5-2.4-12V105.9z M106.6,159.7c0-2.9-0.9-5.2-2.8-7
			c-1.9-1.8-4.1-2.6-6.6-2.6c-2.5,0-4.7,0.9-6.6,2.6s-2.8,4.1-2.8,7v24.8c0,2.9,0.9,5.2,2.8,7s4.1,2.6,6.6,2.6
			c2.5,0,4.7-0.9,6.6-2.6c1.9-1.8,2.8-4.1,2.8-7V159.7z M118.9,78.3L97,134.5l0.4,0.4c0.6-0.5,1.6-0.9,2.9-1.2s3-0.5,5.2-0.5
			c3.4,0,6.5,0.8,9.4,2.4c2.9,1.6,5.1,3.7,6.8,6.2c0.9,1.4,1.6,2.8,2.1,4.1c0.5,1.4,0.9,3.2,1.3,5.5c0.3,2.3,0.4,5.1,0.6,8.6
			c0.1,3.4,0.2,7.8,0.2,13.1c0,4.4-0.1,8-0.2,10.8c-0.1,2.8-0.3,5.2-0.6,7.1c-0.4,2-0.8,3.7-1.4,5.1c-0.6,1.4-1.3,2.8-2.2,4.3
			c-2.5,4.1-5.9,7.3-10.1,9.6c-4.2,2.3-8.9,3.4-14.2,3.4s-10-1.2-14.1-3.5c-4.1-2.3-7.5-5.5-10-9.5c-1-1.5-1.8-2.9-2.3-4.3
			s-1-3.1-1.2-5.1c-0.4-1.9-0.6-4.2-0.8-7.1c-0.1-2.8-0.2-6.4-0.2-10.8c0-4.1,0.1-7.6,0.2-10.2c0.1-2.7,0.3-5,0.6-7
			c0.3-1.9,0.6-3.6,1.1-5.2c0.5-1.6,1.1-3.2,1.7-5l25.2-67.3H118.9z"/>
	</defs>
	<clipPath id="SVGID_6_">
		<use xlink:href="#SVGID_5_"  style="overflow:visible;"/>
	</clipPath>
	<g class="st2">
		<defs>
			<rect id="SVGID_7_" x="-509" y="-7282.9" width="1800" height="16000"/>
		</defs>
		<clipPath id="SVGID_8_">
			<use xlink:href="#SVGID_7_"  style="overflow:visible;"/>
		</clipPath>
		<rect x="63.7" y="72.2" class="st3" width="133.9" height="146.1"/>
	</g>
</g>
<g>
	<defs>
		<path id="SVGID_9_" d="M177.2,260.3v18.9h-11.6v-18.9l-13.2-33.5h12.8l6.3,21.7h0.1l6.4-21.7h12.6L177.2,260.3z M133.1,238.1h-0.3
			l-4.4,22.3h9L133.1,238.1z M140.9,279.1l-2.1-9.5H127l-2.1,9.5H113l12.7-52.4h14.9l12.7,52.4H140.9z M98.6,253.1
			c0-5.3-0.9-9.3-2.7-12s-4.1-4-7-4H86v31.7h2.9c2.9,0,5.2-1.3,7-4C97.7,262.1,98.6,258.2,98.6,253.1z M110.5,253.1
			c0,3.9-0.4,7.5-1.3,10.7s-2.2,5.9-4,8.2c-1.8,2.3-4,4-6.8,5.3c-2.7,1.2-6,1.8-9.7,1.8H74v-52.4h14.7c3.7,0,7,0.6,9.7,1.9
			c2.7,1.2,5,3,6.8,5.3c1.8,2.3,3.1,5.1,4,8.3C110.1,245.4,110.5,249.1,110.5,253.1z"/>
	</defs>
	<clipPath id="SVGID_10_">
		<use xlink:href="#SVGID_9_"  style="overflow:visible;"/>
	</clipPath>
	<g class="st4">
		<defs>
			<rect id="SVGID_11_" x="-509" y="-7282.9" width="1800" height="16000"/>
		</defs>
		<clipPath id="SVGID_12_">
			<use xlink:href="#SVGID_11_"  style="overflow:visible;"/>
		</clipPath>
		<rect x="69" y="221.8" class="st5" width="126.5" height="62.4"/>
	</g>
</g>
<g>
	<defs>
		<rect id="SVGID_13_" x="26" y="26.1" width="700" height="300"/>
	</defs>
	<clipPath id="SVGID_14_">
		<use xlink:href="#SVGID_13_"  style="overflow:visible;"/>
	</clipPath>
	<g class="st6">
		<defs>
			<rect id="SVGID_15_" x="-509" y="-7282.9" width="1800" height="16000"/>
		</defs>
		<clipPath id="SVGID_16_">
			<use xlink:href="#SVGID_15_"  style="overflow:visible;"/>
		</clipPath>
		<rect x="26" y="26.1" class="st7" width="700" height="300"/>
	</g>
</g>
<g>
	<defs>
		<path id="SVGID_17_" d="M667.8,210.1l-12.8-28h-0.3v28H641V150h13.7V175h0.3l12.4-25.1h15.2l-15.5,27.5l16.4,32.6H667.8z
			 M635.1,203.6c-1.6,2.3-3.8,4.3-6.5,5.8c-2.7,1.6-6.1,2.3-10.2,2.3c-3.5,0-6.7-0.8-9.6-2.3c-2.9-1.6-5.3-3.7-7.4-6.5
			s-3.6-6.1-4.8-10c-1.1-3.9-1.7-8.1-1.7-12.8c0-4.7,0.6-9,1.7-12.9c1.1-3.9,2.7-7.3,4.8-10c2-2.8,4.5-4.9,7.4-6.5s6-2.3,9.6-2.3
			c4,0,7.4,0.7,10.1,2.2c2.7,1.4,4.9,3.2,6.5,5.4l-7.3,9.9c-1-1.4-2.2-2.4-3.4-3.2c-1.3-0.8-2.9-1.2-4.8-1.2c-1.8,0-3.4,0.5-4.7,1.4
			c-1.3,1-2.5,2.3-3.4,4s-1.6,3.7-2.1,5.9c-0.5,2.3-0.7,4.7-0.7,7.4s0.2,5,0.7,7.3s1.1,4.2,2.1,6c0.9,1.7,2.1,3,3.4,4
			s2.9,1.4,4.8,1.4s3.4-0.5,4.8-1.4c1.4-0.9,2.4-2,3.2-3.2L635.1,203.6z M569,163.1h-0.3l-5.1,25.6h10.3L569,163.1z M578,210.1
			l-2.5-11h-13.5l-2.5,11H546l14.6-60.2h17.1l14.5,60.2H578z M530,191.7c0-1.4-0.2-2.5-0.6-3.4s-1-1.7-1.7-2.3s-1.5-1-2.4-1.3
			c-0.9-0.3-1.7-0.4-2.6-0.4h-4.9v14.6h5.1c2,0,3.7-0.6,5.1-1.8S530,194.1,530,191.7z M528.9,167.6c0-2.3-0.7-4-2-4.9
			c-1.3-1-2.8-1.4-4.6-1.4h-4.6v13h4.7c1.6,0,3.1-0.5,4.5-1.5C528.2,171.7,528.9,170,528.9,167.6z M542.9,193c0,3.2-0.5,5.9-1.6,8.1
			c-1,2.2-2.4,3.9-4.1,5.3s-3.6,2.3-5.7,2.9s-4.3,0.9-6.4,0.9h-20V150h18c1.9,0,3.9,0.2,6,0.6s4,1.1,5.7,2.3
			c1.7,1.1,3.2,2.7,4.3,4.7c1.2,2,1.7,4.7,1.7,7.9c0,3.6-0.7,6.4-2.2,8.5s-3.2,3.7-5.3,4.6v0.2c1.1,0.3,2.3,0.8,3.4,1.5
			s2.2,1.7,3.1,2.8c0.9,1.2,1.6,2.6,2.2,4.2C542.7,189,542.9,190.9,542.9,193z M468.5,188.5v21.7h-13.3v-21.7L439.9,150h14.7
			l7.2,24.9h0.2l7.3-24.9h14.4L468.5,188.5z M408.2,210.1V150h29.1v12h-16.1v11.8H436V185h-14.8v13h17.1v12.2H408.2z M383,210.1
			L369,173.5h-0.3l0.3,36.6H357V150h15l13.9,37.1h0.3l-0.3-37.1h11.7v60.2H383z M334.8,179.9c0-2.6-0.2-5-0.6-7.3
			c-0.4-2.2-1-4.2-1.7-5.8c-0.8-1.6-1.7-2.9-2.8-3.9s-2.5-1.4-4-1.4s-2.9,0.5-4,1.4c-1.2,0.9-2.1,2.2-2.9,3.9
			c-0.8,1.6-1.3,3.6-1.7,5.8c-0.4,2.2-0.6,4.7-0.6,7.3c0,2.6,0.2,5,0.6,7.3c0.4,2.3,0.9,4.2,1.7,5.9c0.8,1.6,1.7,2.9,2.9,3.9
			c1.2,1,2.5,1.4,4,1.4s2.9-0.5,4-1.4c1.1-1,2.1-2.3,2.8-3.9c0.8-1.6,1.3-3.6,1.7-5.9C334.6,184.9,334.8,182.5,334.8,179.9z
			 M348.7,179.9c0,4.8-0.5,9.1-1.6,13c-1.1,3.9-2.6,7.3-4.6,10.1s-4.4,4.9-7.3,6.5c-2.9,1.5-6.1,2.3-9.6,2.3s-6.8-0.8-9.6-2.3
			s-5.3-3.7-7.3-6.5c-2-2.8-3.5-6.1-4.6-10.1c-1.1-3.9-1.6-8.3-1.6-13c0-4.8,0.5-9.1,1.6-13c1-3.9,2.6-7.2,4.5-9.9
			c2-2.7,4.4-4.9,7.3-6.4c2.9-1.5,6.1-2.3,9.7-2.3c3.6,0,6.8,0.8,9.6,2.3c2.9,1.5,5.3,3.6,7.3,6.4c2,2.7,3.5,6.1,4.6,9.9
			C348.2,170.8,348.7,175.1,348.7,179.9z M280.9,210.1l0.5-41.3h-0.3l-10.1,41.3h-9.6l-9.8-41.3h-0.3l0.4,41.3h-12.3V150h17.2
			l9.7,38.8h0.3L276,150h18.2v60.2H280.9z"/>
	</defs>
	<clipPath id="SVGID_18_">
		<use xlink:href="#SVGID_17_"  style="overflow:visible;"/>
	</clipPath>
	<g class="st8">
		<defs>
			<rect id="SVGID_19_" x="-509" y="-7282.9" width="1800" height="16000"/>
		</defs>
		<clipPath id="SVGID_20_">
			<use xlink:href="#SVGID_19_"  style="overflow:visible;"/>
		</clipPath>
		<rect x="234.4" y="143.3" class="st9" width="454.1" height="73.4"/>
	</g>
</g>
<g>
	<defs>
		<path id="SVGID_21_" d="M652.5,130.1V76.7h7.3l11.5,32.2h0.2V76.7h7.6v53.4H672L660.3,98h-0.2v32.1H652.5z M628,117.5
			c0,1.9,0.5,3.2,1.5,4.1c1,0.9,2.2,1.3,3.6,1.3s2.6-0.4,3.6-1.3c1-0.9,1.5-2.2,1.5-4.1V89.3c0-1.8-0.5-3.2-1.5-4.1
			c-1-0.9-2.2-1.3-3.6-1.3s-2.6,0.4-3.6,1.3c-1,0.9-1.5,2.2-1.5,4.1V117.5z M620.4,89.3c0-2.1,0.4-4.1,1.1-5.7s1.8-3,3-4.1
			c1.2-1,2.6-1.9,4.1-2.4c1.5-0.6,3.1-0.8,4.6-0.8s3.1,0.3,4.6,0.8c1.5,0.5,2.9,1.4,4.2,2.4c1.2,1.1,2.2,2.5,2.9,4.1
			s1.1,3.6,1.1,5.7v28.2c0,2.2-0.4,4.2-1.1,5.8c-0.8,1.6-1.7,2.9-2.9,4c-1.2,1.1-2.6,1.9-4.2,2.5c-1.5,0.6-3.1,0.8-4.6,0.8
			s-3.1-0.3-4.6-0.8c-1.5-0.5-2.9-1.4-4.1-2.5c-1.2-1-2.2-2.4-3-4c-0.8-1.6-1.1-3.5-1.1-5.8V89.3z M605.7,130.1V76.7h7.7v53.4H605.7
			z M585.6,130.1V83.9h-8.9v-7.2h25.4v7.2h-8.9v46.2H585.6z M574.4,114.9v3.3c0,1.7-0.3,3.2-0.9,4.7c-0.6,1.5-1.5,2.8-2.6,3.9
			c-1.1,1.2-2.4,2.1-3.9,2.7c-1.5,0.7-3.1,1-4.8,1c-1.5,0-2.9-0.2-4.4-0.6s-2.8-1.1-4-2.1c-1.2-1-2.2-2.3-3-3.9
			c-0.8-1.6-1.2-3.6-1.2-6V88.6c0-1.8,0.3-3.4,0.9-4.9c0.6-1.5,1.5-2.8,2.6-3.9c1.1-1.1,2.4-2,3.9-2.6c1.5-0.6,3.2-0.9,5.1-0.9
			c3.6,0,6.5,1.2,8.8,3.5c1.1,1.2,2,2.5,2.6,4.1s0.9,3.3,0.9,5.1v3h-7.7v-2.5c0-1.5-0.4-2.8-1.3-3.9c-0.9-1.1-2-1.6-3.5-1.6
			c-1.9,0-3.2,0.6-3.8,1.8s-0.9,2.7-0.9,4.5v27.3c0,1.6,0.3,2.9,1,3.9c0.7,1,1.9,1.6,3.6,1.6c0.5,0,1-0.1,1.6-0.3
			c0.6-0.2,1.1-0.5,1.6-0.9c0.5-0.4,0.8-0.9,1.1-1.7c0.3-0.7,0.5-1.6,0.5-2.6v-2.6H574.4z M516.1,130.1L528,76.7h6.4l11.9,53.4h-7.7
			l-2.2-11.5H526l-2.2,11.5H516.1z M535,111.5l-3.8-19.3h-0.2l-3.8,19.3H535z M491.8,130.1V76.7h22.8v7.2h-15.1v16.2h13.2v7.2h-13.2
			v22.8H491.8z M486.1,92.1h-7.6v-1.7c0-1.8-0.4-3.3-1.2-4.5c-0.8-1.3-2.2-1.9-4.2-1.9c-1,0-1.9,0.2-2.5,0.6
			c-0.7,0.4-1.2,0.9-1.6,1.5c-0.4,0.7-0.7,1.4-0.8,2.2c-0.1,0.8-0.2,1.7-0.2,2.6c0,1.1,0,1.9,0.1,2.6s0.3,1.3,0.6,1.9s0.7,1,1.3,1.4
			s1.4,0.8,2.4,1.2l5.9,2.3c1.7,0.7,3.1,1.4,4.1,2.3c1.1,0.9,1.9,1.9,2.5,3c0.5,1.2,0.9,2.6,1.1,4.1s0.3,3.3,0.3,5.2
			c0,2.2-0.2,4.3-0.7,6.3c-0.5,1.9-1.2,3.6-2.2,4.9c-1.1,1.4-2.4,2.5-4.1,3.3c-1.7,0.8-3.8,1.2-6.2,1.2c-1.9,0-3.6-0.3-5.2-1
			c-1.6-0.6-3-1.5-4.1-2.7c-1.1-1.1-2.1-2.5-2.7-4c-0.7-1.5-1-3.2-1-5v-2.8h7.7v2.4c0,1.4,0.4,2.7,1.2,3.8s2.2,1.7,4.2,1.7
			c1.3,0,2.3-0.2,3-0.6c0.7-0.4,1.3-0.9,1.7-1.6c0.4-0.7,0.6-1.5,0.7-2.5c0.1-1,0.1-2.1,0.1-3.3c0-1.4,0-2.6-0.1-3.5
			c-0.1-0.9-0.3-1.6-0.6-2.2c-0.4-0.6-0.8-1-1.4-1.4c-0.6-0.4-1.3-0.7-2.3-1.1l-5.5-2.2c-3.3-1.4-5.5-3.1-6.6-5.4
			c-1.1-2.2-1.7-5-1.7-8.4c0-2,0.3-3.9,0.8-5.7s1.4-3.3,2.5-4.6c1-1.3,2.4-2.3,4-3.1s3.6-1.2,5.8-1.2c1.9,0,3.6,0.4,5.2,1.1
			c1.6,0.7,2.9,1.6,4.1,2.8c2.3,2.4,3.4,5.1,3.4,8.2V92.1z M446.3,130.1V76.7h7.6v53.4H446.3z M426.2,130.1V83.9h-8.9v-7.2h25.4v7.2
			h-8.9v46.2H426.2z M387.2,130.1l11.9-53.4h6.4l11.9,53.4h-7.6l-2.2-11.5h-10.4l-2.2,11.5H387.2z M406.1,111.5l-3.8-19.3h-0.1
			l-3.8,19.3H406.1z M384.9,92.1h-7.6v-1.7c0-1.8-0.4-3.3-1.2-4.5c-0.8-1.3-2.2-1.9-4.2-1.9c-1.1,0-1.9,0.2-2.6,0.6
			c-0.6,0.4-1.2,0.9-1.6,1.5c-0.4,0.7-0.7,1.4-0.8,2.2s-0.2,1.7-0.2,2.6c0,1.1,0,1.9,0.1,2.6c0.1,0.7,0.3,1.3,0.6,1.9
			c0.3,0.6,0.7,1,1.3,1.4c0.6,0.4,1.4,0.8,2.4,1.2l5.9,2.3c1.7,0.7,3.1,1.4,4.1,2.3c1,0.9,1.9,1.9,2.5,3c0.5,1.2,0.9,2.6,1.1,4.1
			c0.2,1.5,0.3,3.3,0.3,5.2c0,2.2-0.2,4.3-0.7,6.3c-0.5,1.9-1.2,3.6-2.2,4.9c-1,1.4-2.4,2.5-4.1,3.3c-1.7,0.8-3.8,1.2-6.2,1.2
			c-1.8,0-3.6-0.3-5.2-1s-3-1.5-4.1-2.7c-1.1-1.1-2.1-2.5-2.7-4c-0.7-1.5-1-3.2-1-5v-2.8h7.6v2.4c0,1.4,0.4,2.7,1.2,3.8
			c0.8,1.1,2.2,1.7,4.2,1.7c1.3,0,2.3-0.2,3-0.6s1.3-0.9,1.7-1.6s0.6-1.5,0.7-2.5c0.1-1,0.1-2.1,0.1-3.3c0-1.4-0.1-2.6-0.1-3.5
			c-0.1-0.9-0.3-1.6-0.6-2.2c-0.4-0.6-0.8-1-1.4-1.4c-0.6-0.4-1.3-0.7-2.3-1.1l-5.5-2.2c-3.3-1.4-5.5-3.1-6.6-5.4
			c-1.1-2.2-1.7-5-1.7-8.4c0-2,0.3-3.9,0.8-5.7c0.5-1.8,1.4-3.3,2.5-4.6c1.1-1.3,2.4-2.3,4-3.1s3.6-1.2,5.8-1.2
			c1.9,0,3.6,0.4,5.2,1.1c1.6,0.7,2.9,1.6,4.1,2.8c2.3,2.4,3.5,5.1,3.5,8.2V92.1z M317.8,130.1l18.3-53.4h5l-18.3,53.4H317.8z
			 M335.6,130.6c-1.9,0-3.5-0.5-4.6-1.6c-1.1-1-1.7-2.4-1.7-4.1V120c0-1.9,0.6-3.4,1.7-4.5s2.7-1.6,4.6-1.6c2,0,3.5,0.5,4.6,1.6
			c1.2,1.1,1.7,2.6,1.7,4.5v4.9c0,1.7-0.6,3.1-1.7,4.1C339.1,130.1,337.5,130.6,335.6,130.6z M333.7,124.1c0,0.6,0.2,1,0.6,1.4
			s0.8,0.6,1.3,0.6s0.9-0.2,1.3-0.6s0.6-0.8,0.6-1.4v-3.8c0-0.6-0.2-1-0.6-1.4s-0.8-0.6-1.3-0.6s-0.9,0.2-1.3,0.6s-0.6,0.8-0.6,1.4
			V124.1z M323.3,93c-2,0-3.5-0.5-4.6-1.6c-1.2-1.1-1.7-2.4-1.7-4.1v-4.9c0-1.9,0.6-3.4,1.7-4.5c1.1-1.1,2.7-1.6,4.6-1.6
			c1.9,0,3.5,0.6,4.6,1.6c1.1,1.1,1.7,2.6,1.7,4.5v4.9c0,1.7-0.6,3.1-1.7,4.1S325.2,93,323.3,93z M323.3,88.5c0.5,0,0.9-0.2,1.3-0.6
			s0.6-0.8,0.6-1.4v-3.8c0-0.6-0.2-1-0.6-1.4s-0.8-0.6-1.3-0.6s-0.9,0.2-1.3,0.6s-0.6,0.8-0.6,1.4v3.8c0,0.6,0.2,1,0.6,1.4
			S322.8,88.5,323.3,88.5z M298.5,119.1c0,1.1,0.4,2,1,2.7c0.7,0.7,1.6,1.1,2.7,1.1s2-0.4,2.7-1.1c0.7-0.7,1.1-1.6,1.1-2.7V87.8
			c0-1.1-0.4-2-1.1-2.7c-0.7-0.7-1.6-1.1-2.7-1.1s-2,0.4-2.7,1.1c-0.7,0.7-1,1.6-1,2.7V119.1z M290.9,87.8c0-1.8,0.3-3.4,0.9-4.8
			c0.6-1.4,1.5-2.6,2.5-3.6c1.1-1,2.3-1.8,3.6-2.3s2.8-0.8,4.3-0.8s2.9,0.3,4.3,0.8s2.6,1.3,3.6,2.3c1.1,1,1.9,2.2,2.5,3.6
			c0.6,1.4,0.9,3,0.9,4.8v31.4c0,1.8-0.3,3.4-0.9,4.8c-0.6,1.4-1.5,2.6-2.5,3.6c-1,1-2.3,1.8-3.6,2.3s-2.8,0.8-4.3,0.8
			s-2.9-0.3-4.3-0.8s-2.6-1.3-3.6-2.3c-1-1-1.9-2.2-2.5-3.6c-0.6-1.4-0.9-3-0.9-4.8V87.8z M270.6,119.1c0,1.1,0.3,2,1,2.7
			c0.7,0.7,1.6,1.1,2.7,1.1c1.1,0,2-0.4,2.7-1.1c0.7-0.7,1.1-1.6,1.1-2.7V87.8c0-1.1-0.4-2-1.1-2.7c-0.7-0.7-1.6-1.1-2.7-1.1
			c-1.1,0-2,0.4-2.7,1.1c-0.7,0.7-1,1.6-1,2.7V119.1z M263,87.8c0-1.8,0.3-3.4,0.9-4.8c0.6-1.4,1.5-2.6,2.5-3.6s2.3-1.8,3.6-2.3
			s2.8-0.8,4.3-0.8s2.9,0.3,4.3,0.8s2.6,1.3,3.6,2.3c1.1,1,1.9,2.2,2.5,3.6c0.6,1.4,0.9,3,0.9,4.8v31.4c0,1.8-0.3,3.4-0.9,4.8
			c-0.6,1.4-1.5,2.6-2.5,3.6c-1,1-2.3,1.8-3.6,2.3s-2.8,0.8-4.3,0.8s-2.9-0.3-4.3-0.8s-2.6-1.3-3.6-2.3c-1-1-1.9-2.2-2.5-3.6
			c-0.6-1.4-0.9-3-0.9-4.8V87.8z M244.2,130.1V84.8l-7.7,5.6v-8.1l7.7-5.6h7.6v53.4H244.2z"/>
	</defs>
	<clipPath id="SVGID_22_">
		<use xlink:href="#SVGID_21_"  style="overflow:visible;"/>
	</clipPath>
	<g class="st10">
		<defs>
			<rect id="SVGID_23_" x="-509" y="-7282.9" width="1800" height="16000"/>
		</defs>
		<clipPath id="SVGID_24_">
			<use xlink:href="#SVGID_23_"  style="overflow:visible;"/>
		</clipPath>
		<rect x="231.5" y="71.3" class="st11" width="452.6" height="64.3"/>
	</g>
</g>
<g>
	<defs>
		<path id="SVGID_25_" d="M661.7,279.1v-50.6h21.6v6.8H669v14.8h12.5v6.8H669v14.8h14.3v7.2H661.7z M635.4,279.1v-50.6H657v6.8
			h-14.3v14.8h12.5v6.8h-12.5v14.8H657v7.2H635.4z M616.6,279.1v-43.7h-8.4v-6.8h24v6.8h-8.4v43.7H616.6z M580.1,279.1v-50.6h7
			l10.9,30.5h0.1v-30.5h7.2v50.6h-6.8l-11.1-30.4h-0.1v30.4H580.1z M548.2,279.1l11.3-50.6h6l11.3,50.6h-7.2l-2.1-10.9h-9.9
			l-2.1,10.9H548.2z M566.1,261.5l-3.6-18.3h-0.1l-3.5,18.3H566.1z M521.2,279.1v-50.6h11.6c8.5,0,12.8,4.9,12.8,14.8
			c0,3-0.5,5.5-1.4,7.6c-0.9,2.1-2.5,3.8-4.9,5l7.8,23.1h-7.7l-6.7-21.6h-4.3v21.6H521.2z M528.4,235.4v15.8h4.1
			c1.3,0,2.3-0.2,3.1-0.5c0.8-0.4,1.3-0.9,1.8-1.5c0.4-0.7,0.6-1.5,0.8-2.4c0.1-1,0.2-2.1,0.2-3.4c0-1.3-0.1-2.4-0.2-3.4
			c-0.1-1-0.4-1.8-0.9-2.5c-0.9-1.3-2.6-2-5.1-2H528.4z M489,279.1l11.3-50.6h6l11.3,50.6h-7.2l-2.1-10.9h-9.9l-2.1,10.9H489z
			 M506.9,261.5l-3.5-18.3h-0.1l-3.6,18.3H506.9z M485.5,228.6v39.2c0,1.7-0.3,3.2-0.9,4.6s-1.4,2.6-2.5,3.7
			c-1.1,1.1-2.3,1.9-3.8,2.6c-1.4,0.6-2.9,0.9-4.5,0.9c-1.6,0-3.1-0.3-4.5-0.9c-1.4-0.6-2.6-1.5-3.7-2.6c-1.1-1.1-1.9-2.3-2.6-3.7
			c-0.6-1.4-0.9-2.9-0.9-4.6v-39.2h7.2v38.5c0,1.8,0.4,3.1,1.3,4s1.9,1.3,3.2,1.3c1.3,0,2.3-0.4,3.2-1.3c0.9-0.9,1.3-2.2,1.3-4
			v-38.5H485.5z M431.4,240.5c0-2,0.4-3.8,1.1-5.4c0.7-1.6,1.7-2.9,2.8-3.9c1.1-1,2.4-1.8,3.9-2.3s2.9-0.8,4.4-0.8
			c1.5,0,2.9,0.3,4.4,0.8s2.8,1.3,3.9,2.3c1.1,1,2.1,2.3,2.8,3.9s1.1,3.4,1.1,5.4v2.6h-7.2v-2.6c0-1.8-0.5-3-1.5-3.9
			c-1-0.8-2.1-1.2-3.4-1.2c-1.3,0-2.5,0.4-3.4,1.2c-1,0.8-1.5,2.1-1.5,3.9v26.7c0,1.8,0.5,3,1.5,3.9s2.1,1.2,3.4,1.2
			c1.3,0,2.5-0.4,3.4-1.2c1-0.8,1.5-2.1,1.5-3.9v-9.5h-5.8v-6.4h13v15.9c0,2.1-0.4,4-1.1,5.5c-0.7,1.5-1.6,2.8-2.8,3.8
			c-1.2,1-2.5,1.8-3.9,2.3c-1.4,0.5-2.9,0.8-4.4,0.8c-1.5,0-2.9-0.3-4.4-0.8c-1.4-0.5-2.7-1.3-3.9-2.3c-1.2-1-2.1-2.2-2.8-3.8
			c-0.7-1.5-1.1-3.3-1.1-5.5V240.5z M388.4,279.1v-50.6h7.2v23.1h0.1l10.6-23.1h7.2l-9.9,20.2l11.7,30.3h-7.7l-8.2-22.4l-3.9,7.3
			v15.1H388.4z M383,243.1h-7.2v-1.6c0-1.7-0.4-3.1-1.2-4.3c-0.8-1.2-2.1-1.8-3.9-1.8c-1,0-1.8,0.2-2.4,0.6
			c-0.6,0.4-1.1,0.9-1.5,1.4c-0.4,0.6-0.6,1.3-0.8,2.1c-0.1,0.8-0.2,1.6-0.2,2.4c0,1,0,1.8,0.1,2.5c0.1,0.7,0.2,1.3,0.5,1.8
			c0.3,0.5,0.7,1,1.2,1.3c0.5,0.4,1.3,0.8,2.2,1.1l5.5,2.2c1.6,0.6,2.9,1.3,3.9,2.2s1.8,1.8,2.3,2.9c0.5,1.1,0.9,2.4,1.1,3.9
			c0.2,1.4,0.3,3.1,0.3,4.9c0,2.1-0.2,4.1-0.6,5.9c-0.4,1.8-1.1,3.4-2.1,4.7c-1,1.3-2.3,2.4-3.9,3.1c-1.6,0.8-3.6,1.1-5.9,1.1
			c-1.8,0-3.4-0.3-4.9-0.9c-1.5-0.6-2.8-1.5-3.9-2.6c-1.1-1.1-2-2.4-2.6-3.8s-1-3-1-4.7v-2.7h7.2v2.3c0,1.3,0.4,2.5,1.2,3.6
			c0.8,1.1,2.1,1.6,3.9,1.6c1.2,0,2.2-0.2,2.9-0.5c0.7-0.4,1.2-0.9,1.6-1.5s0.6-1.5,0.7-2.4c0.1-0.9,0.1-2,0.1-3.1
			c0-1.3,0-2.4-0.1-3.3c-0.1-0.9-0.3-1.5-0.6-2.1c-0.3-0.5-0.8-0.9-1.3-1.3c-0.5-0.3-1.3-0.7-2.2-1.1l-5.2-2.1
			c-3.1-1.3-5.2-3-6.3-5.1s-1.6-4.7-1.6-7.9c0-1.9,0.3-3.7,0.8-5.4s1.3-3.2,2.3-4.4c1-1.2,2.3-2.2,3.8-2.9c1.5-0.7,3.4-1.1,5.5-1.1
			c1.8,0,3.4,0.3,4.9,1s2.8,1.5,3.9,2.6c2.2,2.3,3.3,4.9,3.3,7.8V243.1z M345.3,279.1v-50.6h7.2v50.6H345.3z M314.8,279.1v-50.6
			h11.6c8.5,0,12.8,4.9,12.8,14.8c0,3-0.5,5.5-1.4,7.6c-0.9,2.1-2.5,3.8-4.9,5l7.8,23.1h-7.7l-6.7-21.6H322v21.6H314.8z M322,235.4
			v15.8h4.1c1.3,0,2.3-0.2,3.1-0.5c0.8-0.4,1.3-0.9,1.8-1.5c0.4-0.7,0.6-1.5,0.8-2.4c0.1-1,0.2-2.1,0.2-3.4c0-1.3-0.1-2.4-0.2-3.4
			c-0.1-1-0.4-1.8-0.9-2.5c-0.9-1.3-2.6-2-5.1-2H322z M278.2,267.2c0,1.8,0.5,3,1.5,3.9s2.1,1.2,3.4,1.2c1.3,0,2.5-0.4,3.4-1.2
			s1.5-2.1,1.5-3.9v-26.7c0-1.8-0.5-3-1.5-3.9c-1-0.8-2.1-1.2-3.4-1.2c-1.3,0-2.5,0.4-3.4,1.2c-1,0.8-1.5,2.1-1.5,3.9V267.2z
			 M270.9,240.5c0-2,0.4-3.8,1.1-5.4s1.7-2.9,2.8-3.9c1.1-1,2.4-1.8,3.9-2.3s2.9-0.8,4.4-0.8c1.5,0,2.9,0.3,4.4,0.8s2.8,1.3,3.9,2.3
			c1.1,1,2.1,2.3,2.8,3.9s1.1,3.4,1.1,5.4v26.7c0,2.1-0.4,4-1.1,5.5c-0.7,1.5-1.6,2.8-2.8,3.8c-1.2,1-2.5,1.8-3.9,2.3
			c-1.4,0.5-2.9,0.8-4.4,0.8c-1.5,0-2.9-0.3-4.4-0.8c-1.4-0.5-2.7-1.3-3.9-2.3c-1.2-1-2.1-2.2-2.8-3.8c-0.7-1.5-1.1-3.3-1.1-5.5
			V240.5z M239.5,279.1v-50.6h7l10.9,30.5h0.1v-30.5h7.2v50.6H258l-11.1-30.4h-0.1v30.4H239.5z"/>
	</defs>
	<clipPath id="SVGID_26_">
		<use xlink:href="#SVGID_25_"  style="overflow:visible;"/>
	</clipPath>
	<g class="st12">
		<defs>
			<rect id="SVGID_27_" x="-509" y="-7282.9" width="1800" height="16000"/>
		</defs>
		<clipPath id="SVGID_28_">
			<use xlink:href="#SVGID_27_"  style="overflow:visible;"/>
		</clipPath>
		<rect x="234.5" y="223.2" class="st13" width="453.7" height="61.4"/>
	</g>
</g>
</svg>
