<?xml version="1.0" encoding="utf-8"?>
<!-- Generator: Adobe Illustrator 22.0.1, SVG Export Plug-In . SVG Version: 6.00 Build 0)  -->
<!DOCTYPE svg PUBLIC "-//W3C//DTD SVG 1.1//EN" "http://www.w3.org/Graphics/SVG/1.1/DTD/svg11.dtd">
<svg version="1.1" id="Layer_1" xmlns="http://www.w3.org/2000/svg" xmlns:xlink="http://www.w3.org/1999/xlink" x="0px" y="0px"
	 viewBox="0 0 48 48" style="enable-background:new 0 0 48 48;" xml:space="preserve">
<style type="text/css">
	.st0{fill:#FFFFFF;}
</style>
<g transform="translate(0.5, 0.5)">
	<path class="st0" d="M40,17.5H24.5v-5.1c0-2,1.1-3.8,2.8-4.8l10-5.6c1.7-1,3.8-0.9,5.5,0.1c1.7,1,2.7,2.8,2.7,4.7V12
		C45.5,15,43,17.5,40,17.5z M27.5,14.5H40c1.4,0,2.5-1.1,2.5-2.5V6.8c0-0.9-0.5-1.7-1.2-2.2c-0.8-0.5-1.7-0.5-2.5,0l-10,5.6
		c-0.8,0.4-1.3,1.3-1.3,2.2V14.5z"/>
	<rect x="24.5" y="14.5" class="st0" width="3" height="15"/>
	<path class="st0" d="M19.5,21.5H6c-1.9,0-3.5-1.6-3.5-3.5v-7c0-1.2,0.6-2.3,1.6-2.9s2.2-0.8,3.3-0.3l10,4.3
		c1.3,0.6,2.1,1.8,2.1,3.2V21.5z M6,10.5c-0.1,0-0.2,0-0.3,0.1c-0.1,0.1-0.2,0.2-0.2,0.4v7c0,0.3,0.2,0.5,0.5,0.5h10.5v-3.2
		c0-0.2-0.1-0.4-0.3-0.5l-10-4.3C6.1,10.5,6.1,10.5,6,10.5z"/>
	<rect x="16.5" y="18.5" class="st0" width="3" height="11"/>
	<path class="st0" d="M37.5,37.5h-31v-11h31V37.5z M9.5,34.5h25v-5h-25V34.5z"/>
	<rect x="30.5" y="34.5" class="st0" width="3" height="13"/>
	<rect x="10.5" y="34.5" class="st0" width="3" height="13"/>
</g>
</svg>
