<?xml version="1.0" encoding="utf-8"?>
<!-- Generator: Adobe Illustrator 22.0.1, SVG Export Plug-In . SVG Version: 6.00 Build 0)  -->
<!DOCTYPE svg PUBLIC "-//W3C//DTD SVG 1.1//EN" "http://www.w3.org/Graphics/SVG/1.1/DTD/svg11.dtd">
<svg version="1.1" id="Layer_1" xmlns="http://www.w3.org/2000/svg" xmlns:xlink="http://www.w3.org/1999/xlink" x="0px" y="0px"
	 viewBox="0 0 48 48" style="enable-background:new 0 0 48 48;" xml:space="preserve">
<style type="text/css">
	.st0{fill:#FFFFFF;}
</style>
<g transform="translate(0.5, 0.5)">
	<polygon class="st0" points="47.5,39.5 17.5,39.5 17.5,36.5 44.5,36.5 44.5,10.5 38.5,10.5 38.5,7.5 47.5,7.5 	"/>
	<polygon class="st0" points="9.5,39.5 0.5,39.5 0.5,7.5 24.5,7.5 24.5,10.5 3.5,10.5 3.5,36.5 9.5,36.5 	"/>
	<path class="st0" d="M39,24.5H24c-1.4,0-2.5-1.1-2.5-2.5V4c0-1.4,1.1-2.5,2.5-2.5h15c1.4,0,2.5,1.1,2.5,2.5v18
		C41.5,23.4,40.4,24.5,39,24.5z M24.5,21.5h14v-17h-14V21.5z"/>
	<path class="st0" d="M18,46.5H9c-1.4,0-2.5-1.1-2.5-2.5V30c0-1.4,1.1-2.5,2.5-2.5h9c1.4,0,2.5,1.1,2.5,2.5v14
		C20.5,45.4,19.4,46.5,18,46.5z M9.5,43.5h8v-13h-8V43.5z"/>
	<rect x="21.5" y="41.5" class="st0" width="9" height="3"/>
	<rect x="11.5" y="38.5" class="st0" width="4" height="3"/>
	<rect x="28.5" y="16.5" class="st0" width="6" height="3"/>
</g>
</svg>
