<?xml version="1.0" encoding="utf-8"?>
<!-- Generator: Adobe Illustrator 22.0.1, SVG Export Plug-In . SVG Version: 6.00 Build 0)  -->
<!DOCTYPE svg PUBLIC "-//W3C//DTD SVG 1.1//EN" "http://www.w3.org/Graphics/SVG/1.1/DTD/svg11.dtd">
<svg version="1.1" id="Layer_1" xmlns="http://www.w3.org/2000/svg" xmlns:xlink="http://www.w3.org/1999/xlink" x="0px" y="0px"
	 viewBox="0 0 48 48" style="enable-background:new 0 0 48 48;" xml:space="preserve">
<style type="text/css">
	.st0{fill:#FFFFFF;}
</style>
<g transform="translate(0.5, 0.5)">
	<path class="st0" d="M24,33.5c-5.2,0-9.5-4.3-9.5-9.5v-4c0-5.2,4.3-9.5,9.5-9.5s9.5,4.3,9.5,9.5v4C33.5,29.2,29.2,33.5,24,33.5z
		 M24,13.5c-3.6,0-6.5,2.9-6.5,6.5v4c0,3.6,2.9,6.5,6.5,6.5s6.5-2.9,6.5-6.5v-4C30.5,16.4,27.6,13.5,24,13.5z"/>
	<path class="st0" d="M35.1,43.3c-2-2.4-5-3.8-8.1-3.8h-6c-3.1,0-6,1.4-8,3.8l-2.3-1.9c2.6-3.1,6.3-4.8,10.3-4.8h6
		c4,0,7.7,1.8,10.3,4.8L35.1,43.3z"/>
	<path class="st0" d="M24,47.5C11,47.5,0.5,37,0.5,24S11,0.5,24,0.5S47.5,11,47.5,24S37,47.5,24,47.5z M24,3.5
		C12.7,3.5,3.5,12.7,3.5,24S12.7,44.5,24,44.5S44.5,35.3,44.5,24S35.3,3.5,24,3.5z"/>
</g>
</svg>
