<?xml version="1.0" encoding="utf-8"?>
<!-- Generator: Adobe Illustrator 21.1.0, SVG Export Plug-In . SVG Version: 6.00 Build 0)  -->
<!DOCTYPE svg PUBLIC "-//W3C//DTD SVG 1.1//EN" "http://www.w3.org/Graphics/SVG/1.1/DTD/svg11.dtd">
<svg version="1.1" xmlns="http://www.w3.org/2000/svg" xmlns:xlink="http://www.w3.org/1999/xlink" x="0px" y="0px"
	 viewBox="0 0 250 250" style="enable-background:new 0 0 250 250;" xml:space="preserve">
<style type="text/css">
	.st0{display:none;}
	.st1{display:inline;}
	.st2{clip-path:url(#SVGID_2_);}
	.st3{clip-path:url(#SVGID_4_);fill:#B4B4B4;}
	.st4{clip-path:url(#SVGID_6_);}
	.st5{clip-path:url(#SVGID_8_);fill:#355363;}
	.st6{clip-path:url(#SVGID_10_);}
	.st7{clip-path:url(#SVGID_12_);fill:#355363;}
	.st8{clip-path:url(#SVGID_14_);}
	.st9{clip-path:url(#SVGID_16_);fill:#355363;}
	.st10{clip-path:url(#SVGID_18_);}
	.st11{clip-path:url(#SVGID_20_);fill:#355363;}
	.st12{clip-path:url(#SVGID_22_);}
	.st13{clip-path:url(#SVGID_24_);fill:#D2EEFC;}
	.st14{clip-path:url(#SVGID_26_);}
	.st15{clip-path:url(#SVGID_28_);fill:#B4B4B4;}
	.st16{clip-path:url(#SVGID_30_);}
	.st17{clip-path:url(#SVGID_32_);fill:#355363;}
	.st18{clip-path:url(#SVGID_34_);}
	.st19{clip-path:url(#SVGID_36_);fill:#BCBCBB;}
	.st20{clip-path:url(#SVGID_38_);}
	.st21{clip-path:url(#SVGID_40_);fill:#C2E1B5;}
	.st22{clip-path:url(#SVGID_42_);}
	.st23{clip-path:url(#SVGID_44_);fill:#3FB2E6;}
	.st24{clip-path:url(#SVGID_46_);}
	.st25{clip-path:url(#SVGID_48_);fill:#3FB2E6;}
	.st26{clip-path:url(#SVGID_50_);}
	.st27{clip-path:url(#SVGID_52_);fill:#355363;}
	.st28{clip-path:url(#SVGID_54_);}
	.st29{clip-path:url(#SVGID_56_);fill:#0CAE4B;}
	.st30{clip-path:url(#SVGID_58_);}
	.st31{clip-path:url(#SVGID_60_);fill:#E96C60;}
	.st32{clip-path:url(#SVGID_62_);}
	.st33{clip-path:url(#SVGID_64_);fill:#0CAE4B;}
	.st34{clip-path:url(#SVGID_66_);}
	.st35{clip-path:url(#SVGID_68_);fill:#3FB2E6;}
	.st36{clip-path:url(#SVGID_70_);}
	.st37{clip-path:url(#SVGID_72_);fill:#3FB2E6;}
	.st38{clip-path:url(#SVGID_74_);}
	.st39{clip-path:url(#SVGID_76_);fill:#3FB2E6;}
</style>
<g id="website-engineering" class="st0">
	<g class="st1">
		<defs>
			<polygon id="SVGID_1_" points="120.8,197.6 87.4,197.6 90.1,177.2 118,177.2 			"/>
		</defs>
		<clipPath id="SVGID_2_">
			<use xlink:href="#SVGID_1_"  style="overflow:visible;"/>
		</clipPath>
		<g class="st2">
			<defs>
				<rect id="SVGID_3_" x="-2854.5" y="-1766.3" width="3572.8" height="19382.2"/>
			</defs>
			<clipPath id="SVGID_4_">
				<use xlink:href="#SVGID_3_"  style="overflow:visible;"/>
			</clipPath>
			<rect x="76.2" y="166.1" class="st3" width="55.8" height="42.6"/>
		</g>
	</g>
	<g class="st1">
		<defs>
			<path id="SVGID_5_" d="M42.7,151.1v20c0,6.6,3.3,12,7.3,12h97c4,0,7.3-5.4,7.3-12v-20H42.7z"/>
		</defs>
		<clipPath id="SVGID_6_">
			<use xlink:href="#SVGID_5_"  style="overflow:visible;"/>
		</clipPath>
		<g class="st4">
			<defs>
				<rect id="SVGID_7_" x="-2854.5" y="-1766.3" width="3572.8" height="19382.2"/>
			</defs>
			<clipPath id="SVGID_8_">
				<use xlink:href="#SVGID_7_"  style="overflow:visible;"/>
			</clipPath>
			<rect x="31.6" y="140" class="st5" width="133.9" height="54.3"/>
		</g>
	</g>
	<g class="st1">
		<defs>
			<path id="SVGID_9_" d="M157.1,64V47.7c0-5.4-2.8-9.8-6.4-9.8H65.8c-3.5,0-6.4,4.4-6.4,9.8V64H157.1z"/>
		</defs>
		<clipPath id="SVGID_10_">
			<use xlink:href="#SVGID_9_"  style="overflow:visible;"/>
		</clipPath>
		<g class="st6">
			<defs>
				<rect id="SVGID_11_" x="-2854.5" y="-1766.3" width="3572.8" height="19382.2"/>
			</defs>
			<clipPath id="SVGID_12_">
				<use xlink:href="#SVGID_11_"  style="overflow:visible;"/>
			</clipPath>
			<rect x="48.3" y="26.8" class="st7" width="119.9" height="48.5"/>
		</g>
	</g>
	<g class="st1">
		<defs>
			<path id="SVGID_13_" d="M76.2,183.1H14.8c-6.2,0-11.2-5.7-11.2-12.6V50.5c0-7,5-12.6,11.2-12.6h61.4c6.2,0,11.2,5.7,11.2,12.6
				v119.9C87.4,177.4,82.4,183.1,76.2,183.1"/>
		</defs>
		<clipPath id="SVGID_14_">
			<use xlink:href="#SVGID_13_"  style="overflow:visible;"/>
		</clipPath>
		<g class="st8">
			<defs>
				<rect id="SVGID_15_" x="-2854.5" y="-1766.3" width="3572.8" height="19382.2"/>
			</defs>
			<clipPath id="SVGID_16_">
				<use xlink:href="#SVGID_15_"  style="overflow:visible;"/>
			</clipPath>
			<rect x="-7.5" y="26.8" class="st9" width="106" height="167.5"/>
		</g>
	</g>
	<g class="st1">
		<defs>
			<path id="SVGID_17_" d="M193.3,183.1H132c-6.2,0-11.2-5.7-11.2-12.6V50.5c0-7,5-12.6,11.2-12.6h61.4c6.2,0,11.2,5.7,11.2,12.6
				v119.9C204.5,177.4,199.5,183.1,193.3,183.1"/>
		</defs>
		<clipPath id="SVGID_18_">
			<use xlink:href="#SVGID_17_"  style="overflow:visible;"/>
		</clipPath>
		<g class="st10">
			<defs>
				<rect id="SVGID_19_" x="-2854.5" y="-1766.3" width="3572.8" height="19382.2"/>
			</defs>
			<clipPath id="SVGID_20_">
				<use xlink:href="#SVGID_19_"  style="overflow:visible;"/>
			</clipPath>
			<rect x="109.7" y="26.8" class="st11" width="106" height="167.5"/>
		</g>
	</g>
	<g class="st1">
		<defs>
			<path id="SVGID_21_" d="M181.7,49.5H26.5c-6.4,0-11.6,4.8-11.6,10.7v99.6h178.5V60.2C193.3,54.3,188.1,49.5,181.7,49.5"/>
		</defs>
		<clipPath id="SVGID_22_">
			<use xlink:href="#SVGID_21_"  style="overflow:visible;"/>
		</clipPath>
		<g class="st12">
			<defs>
				<rect id="SVGID_23_" x="-2854.5" y="-1766.3" width="3572.8" height="19382.2"/>
			</defs>
			<clipPath id="SVGID_24_">
				<use xlink:href="#SVGID_23_"  style="overflow:visible;"/>
			</clipPath>
			<rect x="3.7" y="38.4" class="st13" width="200.8" height="132.6"/>
		</g>
	</g>
	<g class="st1">
		<defs>
			<path id="SVGID_25_" d="M140.3,212.1H67.8c0-9.8,5.9-17.7,13.2-17.7h46.1C134.4,194.4,140.3,202.3,140.3,212.1"/>
		</defs>
		<clipPath id="SVGID_26_">
			<use xlink:href="#SVGID_25_"  style="overflow:visible;"/>
		</clipPath>
		<g class="st14">
			<defs>
				<rect id="SVGID_27_" x="-2854.5" y="-1766.3" width="3572.8" height="19382.2"/>
			</defs>
			<clipPath id="SVGID_28_">
				<use xlink:href="#SVGID_27_"  style="overflow:visible;"/>
			</clipPath>
			<rect x="56.7" y="183.2" class="st15" width="94.8" height="40"/>
		</g>
	</g>
	<g class="st1">
		<defs>
			<path id="SVGID_29_" d="M235.2,212.1h-61.4c-6.2,0-11.2-5.4-11.2-12.1V84.9c0-6.7,5-12.1,11.2-12.1h61.4
				c6.2,0,11.2,5.4,11.2,12.1V200C246.3,206.7,241.3,212.1,235.2,212.1"/>
		</defs>
		<clipPath id="SVGID_30_">
			<use xlink:href="#SVGID_29_"  style="overflow:visible;"/>
		</clipPath>
		<g class="st16">
			<defs>
				<rect id="SVGID_31_" x="-2854.5" y="-1766.3" width="3572.8" height="19382.2"/>
			</defs>
			<clipPath id="SVGID_32_">
				<use xlink:href="#SVGID_31_"  style="overflow:visible;"/>
			</clipPath>
			<rect x="151.5" y="61.6" class="st17" width="106" height="161.6"/>
		</g>
	</g>
	<g class="st1">
		<defs>
			<path id="SVGID_33_" d="M204.5,191.8c3.1,0,5.6,2.6,5.6,5.8c0,3.2-2.5,5.8-5.6,5.8c-3.1,0-5.6-2.6-5.6-5.8
				C198.9,194.4,201.4,191.8,204.5,191.8"/>
		</defs>
		<clipPath id="SVGID_34_">
			<use xlink:href="#SVGID_33_"  style="overflow:visible;"/>
		</clipPath>
		<g class="st18">
			<defs>
				<rect id="SVGID_35_" x="-2854.5" y="-1766.3" width="3572.8" height="19382.2"/>
			</defs>
			<clipPath id="SVGID_36_">
				<use xlink:href="#SVGID_35_"  style="overflow:visible;"/>
			</clipPath>
			<rect x="187.7" y="180.6" class="st19" width="33.5" height="33.9"/>
		</g>
	</g>
	<g class="st1">
		<defs>
			<path id="SVGID_37_" d="M232.6,183.1h-56.2c-1.4,0-2.6-1.5-2.6-3.3V87.7c0-1.8,1.1-3.3,2.6-3.3h56.2c1.4,0,2.6,1.5,2.6,3.3v92.1
				C235.2,181.6,234,183.1,232.6,183.1"/>
		</defs>
		<clipPath id="SVGID_38_">
			<use xlink:href="#SVGID_37_"  style="overflow:visible;"/>
		</clipPath>
		<g class="st20">
			<defs>
				<rect id="SVGID_39_" x="-2854.5" y="-1766.3" width="3572.8" height="19382.2"/>
			</defs>
			<clipPath id="SVGID_40_">
				<use xlink:href="#SVGID_39_"  style="overflow:visible;"/>
			</clipPath>
			<rect x="162.6" y="73.2" class="st21" width="83.7" height="121"/>
		</g>
	</g>
</g>
<g id="content-multiplier">
	<g>
		<defs>
			<path id="SVGID_41_" d="M173.9,169.8h40.7c2.2,0,4.1,1.8,4.1,4.1v40.7c0,2.2-1.8,4.1-4.1,4.1h-40.7c-2.2,0-4.1-1.8-4.1-4.1v-40.7
				C169.8,171.6,171.6,169.8,173.9,169.8"/>
		</defs>
		<clipPath id="SVGID_42_">
			<use xlink:href="#SVGID_41_"  style="overflow:visible;"/>
		</clipPath>
		<g class="st22">
			<defs>
				<rect id="SVGID_43_" x="-740.5" y="-3033.4" width="3996.4" height="4870.7"/>
			</defs>
			<clipPath id="SVGID_44_">
				<use xlink:href="#SVGID_43_"  style="overflow:visible;"/>
			</clipPath>
			<rect x="157.3" y="157.3" class="st23" width="73.8" height="73.8"/>
		</g>
	</g>
	<g>
		<defs>
			<path id="SVGID_45_" d="M104.6,169.8h40.7c2.2,0,4.1,1.8,4.1,4.1v40.7c0,2.2-1.8,4.1-4.1,4.1h-40.7c-2.2,0-4.1-1.8-4.1-4.1v-40.7
				C100.6,171.6,102.4,169.8,104.6,169.8"/>
		</defs>
		<clipPath id="SVGID_46_">
			<use xlink:href="#SVGID_45_"  style="overflow:visible;"/>
		</clipPath>
		<g class="st24">
			<defs>
				<rect id="SVGID_47_" x="-740.5" y="-3033.4" width="3996.4" height="4870.7"/>
			</defs>
			<clipPath id="SVGID_48_">
				<use xlink:href="#SVGID_47_"  style="overflow:visible;"/>
			</clipPath>
			<rect x="88.1" y="157.3" class="st25" width="73.8" height="73.8"/>
		</g>
	</g>
	<g>
		<defs>
			<path id="SVGID_49_" d="M104.6,100.6h40.7c2.2,0,4.1,1.8,4.1,4.1v40.7c0,2.2-1.8,4.1-4.1,4.1h-40.7c-2.2,0-4.1-1.8-4.1-4.1v-40.7
				C100.6,102.4,102.4,100.6,104.6,100.6"/>
		</defs>
		<clipPath id="SVGID_50_">
			<use xlink:href="#SVGID_49_"  style="overflow:visible;"/>
		</clipPath>
		<g class="st26">
			<defs>
				<rect id="SVGID_51_" x="-740.5" y="-3033.4" width="3996.4" height="4870.7"/>
			</defs>
			<clipPath id="SVGID_52_">
				<use xlink:href="#SVGID_51_"  style="overflow:visible;"/>
			</clipPath>
			<rect x="88.1" y="88.1" class="st27" width="73.8" height="73.8"/>
		</g>
	</g>
	<g>
		<defs>
			<path id="SVGID_53_" d="M112.8,39.5h24.4c2.2,0,4.1,1.8,4.1,4.1V68c0,2.2-1.8,4.1-4.1,4.1h-24.4c-2.2,0-4.1-1.8-4.1-4.1V43.6
				C108.7,41.3,110.5,39.5,112.8,39.5"/>
		</defs>
		<clipPath id="SVGID_54_">
			<use xlink:href="#SVGID_53_"  style="overflow:visible;"/>
		</clipPath>
		<g class="st28">
			<defs>
				<rect id="SVGID_55_" x="-740.5" y="-3033.4" width="3996.4" height="4870.7"/>
			</defs>
			<clipPath id="SVGID_56_">
				<use xlink:href="#SVGID_55_"  style="overflow:visible;"/>
			</clipPath>
			<rect x="96.2" y="27" class="st29" width="57.6" height="57.6"/>
		</g>
	</g>
	<g>
		<defs>
			<path id="SVGID_57_" d="M43.6,39.5H68c2.2,0,4.1,1.8,4.1,4.1V68c0,2.2-1.8,4.1-4.1,4.1H43.6c-2.2,0-4.1-1.8-4.1-4.1V43.6
				C39.5,41.3,41.3,39.5,43.6,39.5"/>
		</defs>
		<clipPath id="SVGID_58_">
			<use xlink:href="#SVGID_57_"  style="overflow:visible;"/>
		</clipPath>
		<g class="st30">
			<defs>
				<rect id="SVGID_59_" x="-740.5" y="-3033.4" width="3996.4" height="4870.7"/>
			</defs>
			<clipPath id="SVGID_60_">
				<use xlink:href="#SVGID_59_"  style="overflow:visible;"/>
			</clipPath>
			<rect x="27" y="27" class="st31" width="57.6" height="57.6"/>
		</g>
	</g>
	<g>
		<defs>
			<path id="SVGID_61_" d="M43.6,108.7H68c2.2,0,4.1,1.8,4.1,4.1v24.4c0,2.2-1.8,4.1-4.1,4.1H43.6c-2.2,0-4.1-1.8-4.1-4.1v-24.4
				C39.5,110.5,41.3,108.7,43.6,108.7"/>
		</defs>
		<clipPath id="SVGID_62_">
			<use xlink:href="#SVGID_61_"  style="overflow:visible;"/>
		</clipPath>
		<g class="st32">
			<defs>
				<rect id="SVGID_63_" x="-740.5" y="-3033.4" width="3996.4" height="4870.7"/>
			</defs>
			<clipPath id="SVGID_64_">
				<use xlink:href="#SVGID_63_"  style="overflow:visible;"/>
			</clipPath>
			<rect x="27" y="96.2" class="st33" width="57.6" height="57.6"/>
		</g>
	</g>
	<g>
		<defs>
			<path id="SVGID_65_" d="M35.4,169.8h40.7c2.2,0,4.1,1.8,4.1,4.1v40.7c0,2.2-1.8,4.1-4.1,4.1H35.4c-2.2,0-4.1-1.8-4.1-4.1v-40.7
				C31.3,171.6,33.2,169.8,35.4,169.8"/>
		</defs>
		<clipPath id="SVGID_66_">
			<use xlink:href="#SVGID_65_"  style="overflow:visible;"/>
		</clipPath>
		<g class="st34">
			<defs>
				<rect id="SVGID_67_" x="-740.5" y="-3033.4" width="3996.4" height="4870.7"/>
			</defs>
			<clipPath id="SVGID_68_">
				<use xlink:href="#SVGID_67_"  style="overflow:visible;"/>
			</clipPath>
			<rect x="18.8" y="157.3" class="st35" width="73.8" height="73.8"/>
		</g>
	</g>
	<g>
		<defs>
			<path id="SVGID_69_" d="M173.9,100.6h40.7c2.2,0,4.1,1.8,4.1,4.1v40.7c0,2.2-1.8,4.1-4.1,4.1h-40.7c-2.2,0-4.1-1.8-4.1-4.1v-40.7
				C169.8,102.4,171.6,100.6,173.9,100.6"/>
		</defs>
		<clipPath id="SVGID_70_">
			<use xlink:href="#SVGID_69_"  style="overflow:visible;"/>
		</clipPath>
		<g class="st36">
			<defs>
				<rect id="SVGID_71_" x="-740.5" y="-3033.4" width="3996.4" height="4870.7"/>
			</defs>
			<clipPath id="SVGID_72_">
				<use xlink:href="#SVGID_71_"  style="overflow:visible;"/>
			</clipPath>
			<rect x="157.3" y="88.1" class="st37" width="73.8" height="73.8"/>
		</g>
	</g>
	<g>
		<defs>
			<path id="SVGID_73_" d="M214.6,31.3c2.2,0,4.1,1.8,4.1,4.1v40.7c0,2.2-1.8,4.1-4.1,4.1h-40.7c-2.2,0-4.1-1.8-4.1-4.1V35.4
				c0-2.2,1.8-4.1,4.1-4.1H214.6z"/>
		</defs>
		<clipPath id="SVGID_74_">
			<use xlink:href="#SVGID_73_"  style="overflow:visible;"/>
		</clipPath>
		<g class="st38">
			<defs>
				<rect id="SVGID_75_" x="-740.5" y="-3033.4" width="3996.4" height="4870.7"/>
			</defs>
			<clipPath id="SVGID_76_">
				<use xlink:href="#SVGID_75_"  style="overflow:visible;"/>
			</clipPath>
			<rect x="157.3" y="18.8" class="st39" width="73.8" height="73.8"/>
		</g>
	</g>
</g>
</svg>
