<?xml version="1.0" encoding="utf-8"?>
<!-- Generator: Adobe Illustrator 21.1.0, SVG Export Plug-In . SVG Version: 6.00 Build 0)  -->
<!DOCTYPE svg PUBLIC "-//W3C//DTD SVG 1.1//EN" "http://www.w3.org/Graphics/SVG/1.1/DTD/svg11.dtd">
<svg version="1.1" xmlns="http://www.w3.org/2000/svg" xmlns:xlink="http://www.w3.org/1999/xlink" x="0px" y="0px"
	 viewBox="0 0 250 250" style="enable-background:new 0 0 250 250;" xml:space="preserve">
<style type="text/css">
	.st0{display:none;}
	.st1{display:inline;}
	.st2{clip-path:url(#SVGID_2_);}
	.st3{clip-path:url(#SVGID_4_);fill:#B4B4B4;}
	.st4{clip-path:url(#SVGID_6_);}
	.st5{clip-path:url(#SVGID_8_);fill:#355363;}
	.st6{clip-path:url(#SVGID_10_);}
	.st7{clip-path:url(#SVGID_12_);fill:#355363;}
	.st8{clip-path:url(#SVGID_14_);}
	.st9{clip-path:url(#SVGID_16_);fill:#355363;}
	.st10{clip-path:url(#SVGID_18_);}
	.st11{clip-path:url(#SVGID_20_);fill:#355363;}
	.st12{clip-path:url(#SVGID_22_);}
	.st13{clip-path:url(#SVGID_24_);fill:#D2EEFC;}
	.st14{clip-path:url(#SVGID_26_);}
	.st15{clip-path:url(#SVGID_28_);fill:#B4B4B4;}
	.st16{clip-path:url(#SVGID_30_);}
	.st17{clip-path:url(#SVGID_32_);fill:#355363;}
	.st18{clip-path:url(#SVGID_34_);}
	.st19{clip-path:url(#SVGID_36_);fill:#BCBCBB;}
	.st20{clip-path:url(#SVGID_38_);}
	.st21{clip-path:url(#SVGID_40_);fill:#C2E1B5;}
	.st22{clip-path:url(#SVGID_42_);}
	.st23{clip-path:url(#SVGID_44_);fill:#3FB2E6;}
	.st24{clip-path:url(#SVGID_46_);}
	.st25{clip-path:url(#SVGID_48_);fill:#3FB2E6;}
	.st26{clip-path:url(#SVGID_50_);}
	.st27{clip-path:url(#SVGID_52_);fill:#355363;}
	.st28{clip-path:url(#SVGID_54_);}
	.st29{clip-path:url(#SVGID_56_);fill:#0CAE4B;}
	.st30{clip-path:url(#SVGID_58_);}
	.st31{clip-path:url(#SVGID_60_);fill:#E96C60;}
	.st32{clip-path:url(#SVGID_62_);}
	.st33{clip-path:url(#SVGID_64_);fill:#0CAE4B;}
	.st34{clip-path:url(#SVGID_66_);}
	.st35{clip-path:url(#SVGID_68_);fill:#3FB2E6;}
	.st36{clip-path:url(#SVGID_70_);}
	.st37{clip-path:url(#SVGID_72_);fill:#3FB2E6;}
	.st38{clip-path:url(#SVGID_74_);}
	.st39{clip-path:url(#SVGID_76_);fill:#3FB2E6;}
	.st40{clip-path:url(#SVGID_78_);}
	.st41{clip-path:url(#SVGID_80_);fill:#FFFFFF;}
	.st42{clip-path:url(#SVGID_82_);}
	.st43{clip-path:url(#SVGID_84_);fill:#B4B4B4;}
	.st44{clip-path:url(#SVGID_86_);}
	.st45{clip-path:url(#SVGID_88_);fill:#0CAE4B;}
	.st46{clip-path:url(#SVGID_90_);}
	.st47{clip-path:url(#SVGID_92_);fill:#355363;}
	.st48{clip-path:url(#SVGID_94_);}
	.st49{clip-path:url(#SVGID_96_);fill:#E96C60;}
	.st50{clip-path:url(#SVGID_98_);}
	.st51{clip-path:url(#SVGID_100_);fill:#355363;}
	.st52{clip-path:url(#SVGID_102_);}
	.st53{clip-path:url(#SVGID_104_);fill:#355363;}
	.st54{clip-path:url(#SVGID_106_);}
	.st55{clip-path:url(#SVGID_108_);fill:#355363;}
	.st56{clip-path:url(#SVGID_110_);}
	.st57{clip-path:url(#SVGID_112_);fill:#355363;}
	.st58{clip-path:url(#SVGID_114_);}
	.st59{clip-path:url(#SVGID_116_);fill:#355363;}
	.st60{clip-path:url(#SVGID_118_);}
	.st61{clip-path:url(#SVGID_120_);fill:#355363;}
	.st62{clip-path:url(#SVGID_122_);}
	.st63{clip-path:url(#SVGID_124_);fill:#355363;}
	.st64{clip-path:url(#SVGID_126_);}
	.st65{clip-path:url(#SVGID_128_);fill:#355363;}
	.st66{clip-path:url(#SVGID_130_);}
	.st67{clip-path:url(#SVGID_132_);fill:#355363;}
	.st68{clip-path:url(#SVGID_134_);}
	.st69{clip-path:url(#SVGID_136_);fill:#355363;}
	.st70{clip-path:url(#SVGID_138_);}
	.st71{clip-path:url(#SVGID_140_);fill:#E96C60;}
	.st72{clip-path:url(#SVGID_142_);}
	.st73{clip-path:url(#SVGID_144_);fill:#3FB2E6;}
	.st74{clip-path:url(#SVGID_146_);}
	.st75{clip-path:url(#SVGID_148_);fill:#3FB2E6;}
	.st76{clip-path:url(#SVGID_150_);}
	.st77{clip-path:url(#SVGID_152_);fill:#3FB2E6;}
	.st78{clip-path:url(#SVGID_154_);}
	.st79{clip-path:url(#SVGID_156_);fill:#0CAE4B;}
	.st80{clip-path:url(#SVGID_158_);}
	.st81{clip-path:url(#SVGID_160_);fill:#0CAE4B;}
	.st82{clip-path:url(#SVGID_162_);}
	.st83{clip-path:url(#SVGID_164_);fill:#3FB2E6;}
	.st84{clip-path:url(#SVGID_166_);}
	.st85{clip-path:url(#SVGID_168_);fill:#3FB2E6;}
	.st86{clip-path:url(#SVGID_170_);}
	.st87{clip-path:url(#SVGID_172_);fill:#0CAE4B;}
</style>
<g id="website-engineering" class="st0">
	<g class="st1">
		<defs>
			<polygon id="SVGID_1_" points="120.8,197.6 87.4,197.6 90.1,177.2 118,177.2 			"/>
		</defs>
		<clipPath id="SVGID_2_">
			<use xlink:href="#SVGID_1_"  style="overflow:visible;"/>
		</clipPath>
		<g class="st2">
			<defs>
				<rect id="SVGID_3_" x="-2854.5" y="-1766.3" width="3572.8" height="19382.2"/>
			</defs>
			<clipPath id="SVGID_4_">
				<use xlink:href="#SVGID_3_"  style="overflow:visible;"/>
			</clipPath>
			<rect x="76.2" y="166.1" class="st3" width="55.8" height="42.6"/>
		</g>
	</g>
	<g class="st1">
		<defs>
			<path id="SVGID_5_" d="M42.7,151.1v20c0,6.6,3.3,12,7.3,12h97c4,0,7.3-5.4,7.3-12v-20H42.7z"/>
		</defs>
		<clipPath id="SVGID_6_">
			<use xlink:href="#SVGID_5_"  style="overflow:visible;"/>
		</clipPath>
		<g class="st4">
			<defs>
				<rect id="SVGID_7_" x="-2854.5" y="-1766.3" width="3572.8" height="19382.2"/>
			</defs>
			<clipPath id="SVGID_8_">
				<use xlink:href="#SVGID_7_"  style="overflow:visible;"/>
			</clipPath>
			<rect x="31.6" y="140" class="st5" width="133.9" height="54.3"/>
		</g>
	</g>
	<g class="st1">
		<defs>
			<path id="SVGID_9_" d="M157.1,64V47.7c0-5.4-2.8-9.8-6.4-9.8H65.8c-3.5,0-6.4,4.4-6.4,9.8V64H157.1z"/>
		</defs>
		<clipPath id="SVGID_10_">
			<use xlink:href="#SVGID_9_"  style="overflow:visible;"/>
		</clipPath>
		<g class="st6">
			<defs>
				<rect id="SVGID_11_" x="-2854.5" y="-1766.3" width="3572.8" height="19382.2"/>
			</defs>
			<clipPath id="SVGID_12_">
				<use xlink:href="#SVGID_11_"  style="overflow:visible;"/>
			</clipPath>
			<rect x="48.3" y="26.8" class="st7" width="119.9" height="48.5"/>
		</g>
	</g>
	<g class="st1">
		<defs>
			<path id="SVGID_13_" d="M76.2,183.1H14.8c-6.2,0-11.2-5.7-11.2-12.6V50.5c0-7,5-12.6,11.2-12.6h61.4c6.2,0,11.2,5.7,11.2,12.6
				v119.9C87.4,177.4,82.4,183.1,76.2,183.1"/>
		</defs>
		<clipPath id="SVGID_14_">
			<use xlink:href="#SVGID_13_"  style="overflow:visible;"/>
		</clipPath>
		<g class="st8">
			<defs>
				<rect id="SVGID_15_" x="-2854.5" y="-1766.3" width="3572.8" height="19382.2"/>
			</defs>
			<clipPath id="SVGID_16_">
				<use xlink:href="#SVGID_15_"  style="overflow:visible;"/>
			</clipPath>
			<rect x="-7.5" y="26.8" class="st9" width="106" height="167.5"/>
		</g>
	</g>
	<g class="st1">
		<defs>
			<path id="SVGID_17_" d="M193.3,183.1H132c-6.2,0-11.2-5.7-11.2-12.6V50.5c0-7,5-12.6,11.2-12.6h61.4c6.2,0,11.2,5.7,11.2,12.6
				v119.9C204.5,177.4,199.5,183.1,193.3,183.1"/>
		</defs>
		<clipPath id="SVGID_18_">
			<use xlink:href="#SVGID_17_"  style="overflow:visible;"/>
		</clipPath>
		<g class="st10">
			<defs>
				<rect id="SVGID_19_" x="-2854.5" y="-1766.3" width="3572.8" height="19382.2"/>
			</defs>
			<clipPath id="SVGID_20_">
				<use xlink:href="#SVGID_19_"  style="overflow:visible;"/>
			</clipPath>
			<rect x="109.7" y="26.8" class="st11" width="106" height="167.5"/>
		</g>
	</g>
	<g class="st1">
		<defs>
			<path id="SVGID_21_" d="M181.7,49.5H26.5c-6.4,0-11.6,4.8-11.6,10.7v99.6h178.5V60.2C193.3,54.3,188.1,49.5,181.7,49.5"/>
		</defs>
		<clipPath id="SVGID_22_">
			<use xlink:href="#SVGID_21_"  style="overflow:visible;"/>
		</clipPath>
		<g class="st12">
			<defs>
				<rect id="SVGID_23_" x="-2854.5" y="-1766.3" width="3572.8" height="19382.2"/>
			</defs>
			<clipPath id="SVGID_24_">
				<use xlink:href="#SVGID_23_"  style="overflow:visible;"/>
			</clipPath>
			<rect x="3.7" y="38.4" class="st13" width="200.8" height="132.6"/>
		</g>
	</g>
	<g class="st1">
		<defs>
			<path id="SVGID_25_" d="M140.3,212.1H67.8c0-9.8,5.9-17.7,13.2-17.7h46.1C134.4,194.4,140.3,202.3,140.3,212.1"/>
		</defs>
		<clipPath id="SVGID_26_">
			<use xlink:href="#SVGID_25_"  style="overflow:visible;"/>
		</clipPath>
		<g class="st14">
			<defs>
				<rect id="SVGID_27_" x="-2854.5" y="-1766.3" width="3572.8" height="19382.2"/>
			</defs>
			<clipPath id="SVGID_28_">
				<use xlink:href="#SVGID_27_"  style="overflow:visible;"/>
			</clipPath>
			<rect x="56.7" y="183.2" class="st15" width="94.8" height="40"/>
		</g>
	</g>
	<g class="st1">
		<defs>
			<path id="SVGID_29_" d="M235.2,212.1h-61.4c-6.2,0-11.2-5.4-11.2-12.1V84.9c0-6.7,5-12.1,11.2-12.1h61.4
				c6.2,0,11.2,5.4,11.2,12.1V200C246.3,206.7,241.3,212.1,235.2,212.1"/>
		</defs>
		<clipPath id="SVGID_30_">
			<use xlink:href="#SVGID_29_"  style="overflow:visible;"/>
		</clipPath>
		<g class="st16">
			<defs>
				<rect id="SVGID_31_" x="-2854.5" y="-1766.3" width="3572.8" height="19382.2"/>
			</defs>
			<clipPath id="SVGID_32_">
				<use xlink:href="#SVGID_31_"  style="overflow:visible;"/>
			</clipPath>
			<rect x="151.5" y="61.6" class="st17" width="106" height="161.6"/>
		</g>
	</g>
	<g class="st1">
		<defs>
			<path id="SVGID_33_" d="M204.5,191.8c3.1,0,5.6,2.6,5.6,5.8c0,3.2-2.5,5.8-5.6,5.8c-3.1,0-5.6-2.6-5.6-5.8
				C198.9,194.4,201.4,191.8,204.5,191.8"/>
		</defs>
		<clipPath id="SVGID_34_">
			<use xlink:href="#SVGID_33_"  style="overflow:visible;"/>
		</clipPath>
		<g class="st18">
			<defs>
				<rect id="SVGID_35_" x="-2854.5" y="-1766.3" width="3572.8" height="19382.2"/>
			</defs>
			<clipPath id="SVGID_36_">
				<use xlink:href="#SVGID_35_"  style="overflow:visible;"/>
			</clipPath>
			<rect x="187.7" y="180.6" class="st19" width="33.5" height="33.9"/>
		</g>
	</g>
	<g class="st1">
		<defs>
			<path id="SVGID_37_" d="M232.6,183.1h-56.2c-1.4,0-2.6-1.5-2.6-3.3V87.7c0-1.8,1.1-3.3,2.6-3.3h56.2c1.4,0,2.6,1.5,2.6,3.3v92.1
				C235.2,181.6,234,183.1,232.6,183.1"/>
		</defs>
		<clipPath id="SVGID_38_">
			<use xlink:href="#SVGID_37_"  style="overflow:visible;"/>
		</clipPath>
		<g class="st20">
			<defs>
				<rect id="SVGID_39_" x="-2854.5" y="-1766.3" width="3572.8" height="19382.2"/>
			</defs>
			<clipPath id="SVGID_40_">
				<use xlink:href="#SVGID_39_"  style="overflow:visible;"/>
			</clipPath>
			<rect x="162.6" y="73.2" class="st21" width="83.7" height="121"/>
		</g>
	</g>
</g>
<g id="content-multiplier" class="st0">
	<g class="st1">
		<defs>
			<path id="SVGID_41_" d="M173.9,169.8h40.7c2.2,0,4.1,1.8,4.1,4.1v40.7c0,2.2-1.8,4.1-4.1,4.1h-40.7c-2.2,0-4.1-1.8-4.1-4.1v-40.7
				C169.8,171.6,171.6,169.8,173.9,169.8"/>
		</defs>
		<clipPath id="SVGID_42_">
			<use xlink:href="#SVGID_41_"  style="overflow:visible;"/>
		</clipPath>
		<g class="st22">
			<defs>
				<rect id="SVGID_43_" x="-740.5" y="-3033.4" width="3996.4" height="4870.7"/>
			</defs>
			<clipPath id="SVGID_44_">
				<use xlink:href="#SVGID_43_"  style="overflow:visible;"/>
			</clipPath>
			<rect x="157.3" y="157.3" class="st23" width="73.8" height="73.8"/>
		</g>
	</g>
	<g class="st1">
		<defs>
			<path id="SVGID_45_" d="M104.6,169.8h40.7c2.2,0,4.1,1.8,4.1,4.1v40.7c0,2.2-1.8,4.1-4.1,4.1h-40.7c-2.2,0-4.1-1.8-4.1-4.1v-40.7
				C100.6,171.6,102.4,169.8,104.6,169.8"/>
		</defs>
		<clipPath id="SVGID_46_">
			<use xlink:href="#SVGID_45_"  style="overflow:visible;"/>
		</clipPath>
		<g class="st24">
			<defs>
				<rect id="SVGID_47_" x="-740.5" y="-3033.4" width="3996.4" height="4870.7"/>
			</defs>
			<clipPath id="SVGID_48_">
				<use xlink:href="#SVGID_47_"  style="overflow:visible;"/>
			</clipPath>
			<rect x="88.1" y="157.3" class="st25" width="73.8" height="73.8"/>
		</g>
	</g>
	<g class="st1">
		<defs>
			<path id="SVGID_49_" d="M104.6,100.6h40.7c2.2,0,4.1,1.8,4.1,4.1v40.7c0,2.2-1.8,4.1-4.1,4.1h-40.7c-2.2,0-4.1-1.8-4.1-4.1v-40.7
				C100.6,102.4,102.4,100.6,104.6,100.6"/>
		</defs>
		<clipPath id="SVGID_50_">
			<use xlink:href="#SVGID_49_"  style="overflow:visible;"/>
		</clipPath>
		<g class="st26">
			<defs>
				<rect id="SVGID_51_" x="-740.5" y="-3033.4" width="3996.4" height="4870.7"/>
			</defs>
			<clipPath id="SVGID_52_">
				<use xlink:href="#SVGID_51_"  style="overflow:visible;"/>
			</clipPath>
			<rect x="88.1" y="88.1" class="st27" width="73.8" height="73.8"/>
		</g>
	</g>
	<g class="st1">
		<defs>
			<path id="SVGID_53_" d="M112.8,39.5h24.4c2.2,0,4.1,1.8,4.1,4.1V68c0,2.2-1.8,4.1-4.1,4.1h-24.4c-2.2,0-4.1-1.8-4.1-4.1V43.6
				C108.7,41.3,110.5,39.5,112.8,39.5"/>
		</defs>
		<clipPath id="SVGID_54_">
			<use xlink:href="#SVGID_53_"  style="overflow:visible;"/>
		</clipPath>
		<g class="st28">
			<defs>
				<rect id="SVGID_55_" x="-740.5" y="-3033.4" width="3996.4" height="4870.7"/>
			</defs>
			<clipPath id="SVGID_56_">
				<use xlink:href="#SVGID_55_"  style="overflow:visible;"/>
			</clipPath>
			<rect x="96.2" y="27" class="st29" width="57.6" height="57.6"/>
		</g>
	</g>
	<g class="st1">
		<defs>
			<path id="SVGID_57_" d="M43.6,39.5H68c2.2,0,4.1,1.8,4.1,4.1V68c0,2.2-1.8,4.1-4.1,4.1H43.6c-2.2,0-4.1-1.8-4.1-4.1V43.6
				C39.5,41.3,41.3,39.5,43.6,39.5"/>
		</defs>
		<clipPath id="SVGID_58_">
			<use xlink:href="#SVGID_57_"  style="overflow:visible;"/>
		</clipPath>
		<g class="st30">
			<defs>
				<rect id="SVGID_59_" x="-740.5" y="-3033.4" width="3996.4" height="4870.7"/>
			</defs>
			<clipPath id="SVGID_60_">
				<use xlink:href="#SVGID_59_"  style="overflow:visible;"/>
			</clipPath>
			<rect x="27" y="27" class="st31" width="57.6" height="57.6"/>
		</g>
	</g>
	<g class="st1">
		<defs>
			<path id="SVGID_61_" d="M43.6,108.7H68c2.2,0,4.1,1.8,4.1,4.1v24.4c0,2.2-1.8,4.1-4.1,4.1H43.6c-2.2,0-4.1-1.8-4.1-4.1v-24.4
				C39.5,110.5,41.3,108.7,43.6,108.7"/>
		</defs>
		<clipPath id="SVGID_62_">
			<use xlink:href="#SVGID_61_"  style="overflow:visible;"/>
		</clipPath>
		<g class="st32">
			<defs>
				<rect id="SVGID_63_" x="-740.5" y="-3033.4" width="3996.4" height="4870.7"/>
			</defs>
			<clipPath id="SVGID_64_">
				<use xlink:href="#SVGID_63_"  style="overflow:visible;"/>
			</clipPath>
			<rect x="27" y="96.2" class="st33" width="57.6" height="57.6"/>
		</g>
	</g>
	<g class="st1">
		<defs>
			<path id="SVGID_65_" d="M35.4,169.8h40.7c2.2,0,4.1,1.8,4.1,4.1v40.7c0,2.2-1.8,4.1-4.1,4.1H35.4c-2.2,0-4.1-1.8-4.1-4.1v-40.7
				C31.3,171.6,33.2,169.8,35.4,169.8"/>
		</defs>
		<clipPath id="SVGID_66_">
			<use xlink:href="#SVGID_65_"  style="overflow:visible;"/>
		</clipPath>
		<g class="st34">
			<defs>
				<rect id="SVGID_67_" x="-740.5" y="-3033.4" width="3996.4" height="4870.7"/>
			</defs>
			<clipPath id="SVGID_68_">
				<use xlink:href="#SVGID_67_"  style="overflow:visible;"/>
			</clipPath>
			<rect x="18.8" y="157.3" class="st35" width="73.8" height="73.8"/>
		</g>
	</g>
	<g class="st1">
		<defs>
			<path id="SVGID_69_" d="M173.9,100.6h40.7c2.2,0,4.1,1.8,4.1,4.1v40.7c0,2.2-1.8,4.1-4.1,4.1h-40.7c-2.2,0-4.1-1.8-4.1-4.1v-40.7
				C169.8,102.4,171.6,100.6,173.9,100.6"/>
		</defs>
		<clipPath id="SVGID_70_">
			<use xlink:href="#SVGID_69_"  style="overflow:visible;"/>
		</clipPath>
		<g class="st36">
			<defs>
				<rect id="SVGID_71_" x="-740.5" y="-3033.4" width="3996.4" height="4870.7"/>
			</defs>
			<clipPath id="SVGID_72_">
				<use xlink:href="#SVGID_71_"  style="overflow:visible;"/>
			</clipPath>
			<rect x="157.3" y="88.1" class="st37" width="73.8" height="73.8"/>
		</g>
	</g>
	<g class="st1">
		<defs>
			<path id="SVGID_73_" d="M214.6,31.3c2.2,0,4.1,1.8,4.1,4.1v40.7c0,2.2-1.8,4.1-4.1,4.1h-40.7c-2.2,0-4.1-1.8-4.1-4.1V35.4
				c0-2.2,1.8-4.1,4.1-4.1H214.6z"/>
		</defs>
		<clipPath id="SVGID_74_">
			<use xlink:href="#SVGID_73_"  style="overflow:visible;"/>
		</clipPath>
		<g class="st38">
			<defs>
				<rect id="SVGID_75_" x="-740.5" y="-3033.4" width="3996.4" height="4870.7"/>
			</defs>
			<clipPath id="SVGID_76_">
				<use xlink:href="#SVGID_75_"  style="overflow:visible;"/>
			</clipPath>
			<rect x="157.3" y="18.8" class="st39" width="73.8" height="73.8"/>
		</g>
	</g>
</g>
<g id="search-amplifier" class="st0">
	<g class="st1">
		<defs>
			<path id="SVGID_77_" d="M134.7,63.9h-20.1c-55.6,0-100.6,46.2-100.6,103.2h221.4C235.3,110.1,190.2,63.9,134.7,63.9"/>
		</defs>
		<clipPath id="SVGID_78_">
			<use xlink:href="#SVGID_77_"  style="overflow:visible;"/>
		</clipPath>
		<g class="st40">
			<defs>
				<rect id="SVGID_79_" x="-2432.2" y="-2197.6" width="3303.7" height="4026.4"/>
			</defs>
			<clipPath id="SVGID_80_">
				<use xlink:href="#SVGID_79_"  style="overflow:visible;"/>
			</clipPath>
			<rect x="3.6" y="53.6" class="st41" width="242.1" height="123.9"/>
		</g>
	</g>
	<g class="st1">
		<defs>
			<path id="SVGID_81_" d="M201.9,144.7c-2,0-3.9-1.2-4.7-3.2c-6.5-16.4-18.3-30.1-33.4-38.7c-2.4-1.4-3.3-4.5-2-7
				c1.3-2.5,4.4-3.4,6.8-2c17.1,9.7,30.6,25.3,37.9,43.9c1,2.6-0.2,5.7-2.8,6.7C203.2,144.5,202.6,144.7,201.9,144.7"/>
		</defs>
		<clipPath id="SVGID_82_">
			<use xlink:href="#SVGID_81_"  style="overflow:visible;"/>
		</clipPath>
		<g class="st42">
			<defs>
				<rect id="SVGID_83_" x="-2432.2" y="-2197.6" width="3303.7" height="4026.4"/>
			</defs>
			<clipPath id="SVGID_84_">
				<use xlink:href="#SVGID_83_"  style="overflow:visible;"/>
			</clipPath>
			<rect x="150.9" y="82.7" class="st43" width="66.4" height="72.3"/>
		</g>
	</g>
	<g class="st1">
		<defs>
			<path id="SVGID_85_" d="M48.4,142.5c-2.6-1.1-3.8-4.1-2.8-6.7c13.1-33.3,44.3-54.8,79.3-54.8c14.5,0,28.8,3.8,41.4,11
				c2.4,1.4,3.3,4.5,2,7c-1.3,2.5-4.4,3.4-6.8,2c-11.1-6.3-23.8-9.7-36.6-9.7c-30.9,0-58.4,19-70,48.4c-0.8,2-2.7,3.2-4.7,3.2
				C49.7,142.8,49.1,142.7,48.4,142.5z"/>
		</defs>
		<clipPath id="SVGID_86_">
			<use xlink:href="#SVGID_85_"  style="overflow:visible;"/>
		</clipPath>
		<g class="st44">
			<defs>
				<rect id="SVGID_87_" x="-2432.2" y="-2197.6" width="3303.7" height="4026.4"/>
			</defs>
			<clipPath id="SVGID_88_">
				<use xlink:href="#SVGID_87_"  style="overflow:visible;"/>
			</clipPath>
			<rect x="35" y="70.6" class="st45" width="144.4" height="82.6"/>
		</g>
	</g>
	<g class="st1">
		<defs>
			<path id="SVGID_89_" d="M125,46.9C58.4,46.9,4.2,102.5,4.2,170.8c0,5.7,4.5,10.3,10.1,10.3h71.8c4.5,17.8,20.2,31,38.9,31
				s34.5-13.2,38.9-31h71.8c5.6,0,10.1-4.6,10.1-10.3C245.8,102.5,191.6,46.9,125,46.9z M24.9,160.5c5.1-52.1,48-92.9,100.1-92.9
				s95.1,40.8,100.1,92.9H24.9z"/>
		</defs>
		<clipPath id="SVGID_90_">
			<use xlink:href="#SVGID_89_"  style="overflow:visible;"/>
		</clipPath>
		<g class="st46">
			<defs>
				<rect id="SVGID_91_" x="-2432.2" y="-2197.6" width="3303.7" height="4026.4"/>
			</defs>
			<clipPath id="SVGID_92_">
				<use xlink:href="#SVGID_91_"  style="overflow:visible;"/>
			</clipPath>
			<rect x="-6.1" y="36.6" class="st47" width="262.2" height="185.8"/>
		</g>
	</g>
	<g class="st1">
		<defs>
			<path id="SVGID_93_" d="M114.9,191.1c-9.3-6.2-12-19-6-28.6c6-9.6,47.1-40.4,47.1-40.4s-7.3,53.3-13.3,62.8
				C136.7,194.6,124.2,197.3,114.9,191.1"/>
		</defs>
		<clipPath id="SVGID_94_">
			<use xlink:href="#SVGID_93_"  style="overflow:visible;"/>
		</clipPath>
		<g class="st48">
			<defs>
				<rect id="SVGID_95_" x="-2432.2" y="-2197.6" width="3303.7" height="4026.4"/>
			</defs>
			<clipPath id="SVGID_96_">
				<use xlink:href="#SVGID_95_"  style="overflow:visible;"/>
			</clipPath>
			<rect x="95.4" y="111.9" class="st49" width="71" height="92.9"/>
		</g>
	</g>
</g>
<g id="data-weaving">
	<g>
		<defs>
			<path id="SVGID_97_" d="M223,159.5c0-2.1,1.7-3.8,3.8-3.8c2.1,0,3.8,1.7,3.8,3.8v33.1c0,2.1-1.7,3.8-3.8,3.8
				c-2.1,0-3.8-1.7-3.8-3.8V159.5z"/>
		</defs>
		<clipPath id="SVGID_98_">
			<use xlink:href="#SVGID_97_"  style="overflow:visible;"/>
		</clipPath>
		<g class="st50">
			<defs>
				<rect id="SVGID_99_" x="-645.5" y="-2985.4" width="3540" height="4314.4"/>
			</defs>
			<clipPath id="SVGID_100_">
				<use xlink:href="#SVGID_99_"  style="overflow:visible;"/>
			</clipPath>
			<rect x="211.9" y="144.7" class="st51" width="29.7" height="62.8"/>
		</g>
	</g>
	<g>
		<defs>
			<path id="SVGID_101_" d="M20.2,159.5c0-2.1,1.7-3.8,3.8-3.8h202.7c2.1,0,3.8,1.7,3.8,3.8c0,2.1-1.7,3.8-3.8,3.8H24.1
				C21.9,163.4,20.2,161.7,20.2,159.5z"/>
		</defs>
		<clipPath id="SVGID_102_">
			<use xlink:href="#SVGID_101_"  style="overflow:visible;"/>
		</clipPath>
		<g class="st52">
			<defs>
				<rect id="SVGID_103_" x="-645.5" y="-2985.4" width="3540" height="4314.4"/>
			</defs>
			<clipPath id="SVGID_104_">
				<use xlink:href="#SVGID_103_"  style="overflow:visible;"/>
			</clipPath>
			<rect x="9.2" y="144.7" class="st53" width="232.5" height="29.8"/>
		</g>
	</g>
	<g>
		<defs>
			<path id="SVGID_105_" d="M20.2,159.5c0-2.1,1.7-3.8,3.8-3.8c2.1,0,3.8,1.7,3.8,3.8v33.1c0,2.1-1.7,3.8-3.8,3.8
				c-2.1,0-3.8-1.7-3.8-3.8V159.5z"/>
		</defs>
		<clipPath id="SVGID_106_">
			<use xlink:href="#SVGID_105_"  style="overflow:visible;"/>
		</clipPath>
		<g class="st54">
			<defs>
				<rect id="SVGID_107_" x="-645.5" y="-2985.4" width="3540" height="4314.4"/>
			</defs>
			<clipPath id="SVGID_108_">
				<use xlink:href="#SVGID_107_"  style="overflow:visible;"/>
			</clipPath>
			<rect x="9.2" y="144.7" class="st55" width="29.7" height="62.8"/>
		</g>
	</g>
	<g>
		<defs>
			<path id="SVGID_109_" d="M70.9,134.1c0-2.1,1.7-3.8,3.8-3.8c2.1,0,3.8,1.7,3.8,3.8v58.5c0,2.1-1.7,3.8-3.8,3.8
				c-2.1,0-3.8-1.7-3.8-3.8V134.1z"/>
		</defs>
		<clipPath id="SVGID_110_">
			<use xlink:href="#SVGID_109_"  style="overflow:visible;"/>
		</clipPath>
		<g class="st56">
			<defs>
				<rect id="SVGID_111_" x="-645.5" y="-2985.4" width="3540" height="4314.4"/>
			</defs>
			<clipPath id="SVGID_112_">
				<use xlink:href="#SVGID_111_"  style="overflow:visible;"/>
			</clipPath>
			<rect x="59.8" y="119.2" class="st57" width="29.7" height="88.2"/>
		</g>
	</g>
	<g>
		<defs>
			<path id="SVGID_113_" d="M121.6,134.1c0-2.1,1.7-3.8,3.8-3.8c2.1,0,3.8,1.7,3.8,3.8v58.5c0,2.1-1.7,3.8-3.8,3.8
				c-2.1,0-3.8-1.7-3.8-3.8V134.1z"/>
		</defs>
		<clipPath id="SVGID_114_">
			<use xlink:href="#SVGID_113_"  style="overflow:visible;"/>
		</clipPath>
		<g class="st58">
			<defs>
				<rect id="SVGID_115_" x="-645.5" y="-2985.4" width="3540" height="4314.4"/>
			</defs>
			<clipPath id="SVGID_116_">
				<use xlink:href="#SVGID_115_"  style="overflow:visible;"/>
			</clipPath>
			<rect x="110.5" y="119.2" class="st59" width="29.7" height="88.2"/>
		</g>
	</g>
	<g>
		<defs>
			<path id="SVGID_117_" d="M172.3,134.1c0-2.1,1.7-3.8,3.8-3.8c2.1,0,3.8,1.7,3.8,3.8v58.5c0,2.1-1.7,3.8-3.8,3.8
				c-2.1,0-3.8-1.7-3.8-3.8V134.1z"/>
		</defs>
		<clipPath id="SVGID_118_">
			<use xlink:href="#SVGID_117_"  style="overflow:visible;"/>
		</clipPath>
		<g class="st60">
			<defs>
				<rect id="SVGID_119_" x="-645.5" y="-2985.4" width="3540" height="4314.4"/>
			</defs>
			<clipPath id="SVGID_120_">
				<use xlink:href="#SVGID_119_"  style="overflow:visible;"/>
			</clipPath>
			<rect x="161.2" y="119.2" class="st61" width="29.7" height="88.2"/>
		</g>
	</g>
	<g>
		<defs>
			<path id="SVGID_121_" d="M70.9,93.4c0-2.1,1.7-3.8,3.8-3.8c2.1,0,3.8,1.7,3.8,3.8v33.1c0,2.1-1.7,3.8-3.8,3.8
				c-2.1,0-3.8-1.7-3.8-3.8V93.4z"/>
		</defs>
		<clipPath id="SVGID_122_">
			<use xlink:href="#SVGID_121_"  style="overflow:visible;"/>
		</clipPath>
		<g class="st62">
			<defs>
				<rect id="SVGID_123_" x="-645.5" y="-2985.4" width="3540" height="4314.4"/>
			</defs>
			<clipPath id="SVGID_124_">
				<use xlink:href="#SVGID_123_"  style="overflow:visible;"/>
			</clipPath>
			<rect x="59.8" y="78.6" class="st63" width="29.7" height="62.8"/>
		</g>
	</g>
	<g>
		<defs>
			<path id="SVGID_125_" d="M121.6,68c0-2.1,1.7-3.8,3.8-3.8c2.1,0,3.8,1.7,3.8,3.8v58.5c0,2.1-1.7,3.8-3.8,3.8
				c-2.1,0-3.8-1.7-3.8-3.8V68z"/>
		</defs>
		<clipPath id="SVGID_126_">
			<use xlink:href="#SVGID_125_"  style="overflow:visible;"/>
		</clipPath>
		<g class="st64">
			<defs>
				<rect id="SVGID_127_" x="-645.5" y="-2985.4" width="3540" height="4314.4"/>
			</defs>
			<clipPath id="SVGID_128_">
				<use xlink:href="#SVGID_127_"  style="overflow:visible;"/>
			</clipPath>
			<rect x="110.5" y="53.1" class="st65" width="29.7" height="88.2"/>
		</g>
	</g>
	<g>
		<defs>
			<path id="SVGID_129_" d="M172.3,93.4c0-2.1,1.7-3.8,3.8-3.8c2.1,0,3.8,1.7,3.8,3.8v33.1c0,2.1-1.7,3.8-3.8,3.8
				c-2.1,0-3.8-1.7-3.8-3.8V93.4z"/>
		</defs>
		<clipPath id="SVGID_130_">
			<use xlink:href="#SVGID_129_"  style="overflow:visible;"/>
		</clipPath>
		<g class="st66">
			<defs>
				<rect id="SVGID_131_" x="-645.5" y="-2985.4" width="3540" height="4314.4"/>
			</defs>
			<clipPath id="SVGID_132_">
				<use xlink:href="#SVGID_131_"  style="overflow:visible;"/>
			</clipPath>
			<rect x="161.2" y="78.6" class="st67" width="29.7" height="62.8"/>
		</g>
	</g>
	<g>
		<defs>
			<path id="SVGID_133_" d="M70.9,93.4c0-2.1,1.7-3.8,3.8-3.8h101.3c2.1,0,3.8,1.7,3.8,3.8c0,2.1-1.7,3.8-3.8,3.8H74.7
				C72.6,97.2,70.9,95.5,70.9,93.4z"/>
		</defs>
		<clipPath id="SVGID_134_">
			<use xlink:href="#SVGID_133_"  style="overflow:visible;"/>
		</clipPath>
		<g class="st68">
			<defs>
				<rect id="SVGID_135_" x="-645.5" y="-2985.4" width="3540" height="4314.4"/>
			</defs>
			<clipPath id="SVGID_136_">
				<use xlink:href="#SVGID_135_"  style="overflow:visible;"/>
			</clipPath>
			<rect x="59.8" y="78.6" class="st69" width="131.1" height="29.8"/>
		</g>
	</g>
	<g>
		<defs>
			<path id="SVGID_137_" d="M125.4,41.3c10.5,0,19,8.5,19,19.1c0,10.5-8.5,19.1-19,19.1s-19-8.5-19-19.1
				C106.4,49.8,114.9,41.3,125.4,41.3"/>
		</defs>
		<clipPath id="SVGID_138_">
			<use xlink:href="#SVGID_137_"  style="overflow:visible;"/>
		</clipPath>
		<g class="st70">
			<defs>
				<rect id="SVGID_139_" x="-645.5" y="-2985.4" width="3540" height="4314.4"/>
			</defs>
			<clipPath id="SVGID_140_">
				<use xlink:href="#SVGID_139_"  style="overflow:visible;"/>
			</clipPath>
			<rect x="95.3" y="30.2" class="st71" width="60.1" height="60.3"/>
		</g>
	</g>
	<g>
		<defs>
			<path id="SVGID_141_" d="M226.8,173.5c10.5,0,19,8.5,19,19.1c0,10.5-8.5,19.1-19,19.1c-10.5,0-19-8.5-19-19.1
				C207.8,182.1,216.3,173.5,226.8,173.5"/>
		</defs>
		<clipPath id="SVGID_142_">
			<use xlink:href="#SVGID_141_"  style="overflow:visible;"/>
		</clipPath>
		<g class="st72">
			<defs>
				<rect id="SVGID_143_" x="-645.5" y="-2985.4" width="3540" height="4314.4"/>
			</defs>
			<clipPath id="SVGID_144_">
				<use xlink:href="#SVGID_143_"  style="overflow:visible;"/>
			</clipPath>
			<rect x="196.7" y="162.5" class="st73" width="60.1" height="60.3"/>
		</g>
	</g>
	<g>
		<defs>
			<path id="SVGID_145_" d="M125.4,173.5c10.5,0,19,8.5,19,19.1c0,10.5-8.5,19.1-19,19.1s-19-8.5-19-19.1
				C106.4,182.1,114.9,173.5,125.4,173.5"/>
		</defs>
		<clipPath id="SVGID_146_">
			<use xlink:href="#SVGID_145_"  style="overflow:visible;"/>
		</clipPath>
		<g class="st74">
			<defs>
				<rect id="SVGID_147_" x="-645.5" y="-2985.4" width="3540" height="4314.4"/>
			</defs>
			<clipPath id="SVGID_148_">
				<use xlink:href="#SVGID_147_"  style="overflow:visible;"/>
			</clipPath>
			<rect x="95.3" y="162.5" class="st75" width="60.1" height="60.3"/>
		</g>
	</g>
	<g>
		<defs>
			<path id="SVGID_149_" d="M24,173.5c10.5,0,19,8.5,19,19.1c0,10.5-8.5,19.1-19,19.1s-19-8.5-19-19.1C5,182.1,13.5,173.5,24,173.5"
				/>
		</defs>
		<clipPath id="SVGID_150_">
			<use xlink:href="#SVGID_149_"  style="overflow:visible;"/>
		</clipPath>
		<g class="st76">
			<defs>
				<rect id="SVGID_151_" x="-645.5" y="-2985.4" width="3540" height="4314.4"/>
			</defs>
			<clipPath id="SVGID_152_">
				<use xlink:href="#SVGID_151_"  style="overflow:visible;"/>
			</clipPath>
			<rect x="-6" y="162.5" class="st77" width="60.1" height="60.3"/>
		</g>
	</g>
	<g>
		<defs>
			<path id="SVGID_153_" d="M176.1,107.4c10.5,0,19,8.5,19,19.1s-8.5,19.1-19,19.1c-10.5,0-19-8.5-19-19.1S165.6,107.4,176.1,107.4"
				/>
		</defs>
		<clipPath id="SVGID_154_">
			<use xlink:href="#SVGID_153_"  style="overflow:visible;"/>
		</clipPath>
		<g class="st78">
			<defs>
				<rect id="SVGID_155_" x="-645.5" y="-2985.4" width="3540" height="4314.4"/>
			</defs>
			<clipPath id="SVGID_156_">
				<use xlink:href="#SVGID_155_"  style="overflow:visible;"/>
			</clipPath>
			<rect x="146" y="96.3" class="st79" width="60.1" height="60.3"/>
		</g>
	</g>
	<g>
		<defs>
			<path id="SVGID_157_" d="M74.7,107.4c10.5,0,19,8.5,19,19.1s-8.5,19.1-19,19.1s-19-8.5-19-19.1S64.2,107.4,74.7,107.4"/>
		</defs>
		<clipPath id="SVGID_158_">
			<use xlink:href="#SVGID_157_"  style="overflow:visible;"/>
		</clipPath>
		<g class="st80">
			<defs>
				<rect id="SVGID_159_" x="-645.5" y="-2985.4" width="3540" height="4314.4"/>
			</defs>
			<clipPath id="SVGID_160_">
				<use xlink:href="#SVGID_159_"  style="overflow:visible;"/>
			</clipPath>
			<rect x="44.6" y="96.3" class="st81" width="60.1" height="60.3"/>
		</g>
	</g>
	<g>
		<defs>
			<path id="SVGID_161_" d="M74.7,173.5c10.5,0,19,8.5,19,19.1c0,10.5-8.5,19.1-19,19.1s-19-8.5-19-19.1
				C55.7,182.1,64.2,173.5,74.7,173.5"/>
		</defs>
		<clipPath id="SVGID_162_">
			<use xlink:href="#SVGID_161_"  style="overflow:visible;"/>
		</clipPath>
		<g class="st82">
			<defs>
				<rect id="SVGID_163_" x="-645.5" y="-2985.4" width="3540" height="4314.4"/>
			</defs>
			<clipPath id="SVGID_164_">
				<use xlink:href="#SVGID_163_"  style="overflow:visible;"/>
			</clipPath>
			<rect x="44.6" y="162.5" class="st83" width="60.1" height="60.3"/>
		</g>
	</g>
	<g>
		<defs>
			<path id="SVGID_165_" d="M176.1,173.5c10.5,0,19,8.5,19,19.1c0,10.5-8.5,19.1-19,19.1c-10.5,0-19-8.5-19-19.1
				C157.1,182.1,165.6,173.5,176.1,173.5"/>
		</defs>
		<clipPath id="SVGID_166_">
			<use xlink:href="#SVGID_165_"  style="overflow:visible;"/>
		</clipPath>
		<g class="st84">
			<defs>
				<rect id="SVGID_167_" x="-645.5" y="-2985.4" width="3540" height="4314.4"/>
			</defs>
			<clipPath id="SVGID_168_">
				<use xlink:href="#SVGID_167_"  style="overflow:visible;"/>
			</clipPath>
			<rect x="146" y="162.5" class="st85" width="60.1" height="60.3"/>
		</g>
	</g>
	<g>
		<defs>
			<path id="SVGID_169_" d="M125.4,107.4c10.5,0,19,8.5,19,19.1s-8.5,19.1-19,19.1s-19-8.5-19-19.1S114.9,107.4,125.4,107.4"/>
		</defs>
		<clipPath id="SVGID_170_">
			<use xlink:href="#SVGID_169_"  style="overflow:visible;"/>
		</clipPath>
		<g class="st86">
			<defs>
				<rect id="SVGID_171_" x="-645.5" y="-2985.4" width="3540" height="4314.4"/>
			</defs>
			<clipPath id="SVGID_172_">
				<use xlink:href="#SVGID_171_"  style="overflow:visible;"/>
			</clipPath>
			<rect x="95.3" y="96.3" class="st87" width="60.1" height="60.3"/>
		</g>
	</g>
</g>
</svg>
