<?xml version="1.0" encoding="utf-8"?>
<!-- Generator: Adobe Illustrator 21.1.0, SVG Export Plug-In . SVG Version: 6.00 Build 0)  -->
<!DOCTYPE svg PUBLIC "-//W3C//DTD SVG 1.1//EN" "http://www.w3.org/Graphics/SVG/1.1/DTD/svg11.dtd">
<svg version="1.1" id="Illustration" xmlns="http://www.w3.org/2000/svg" xmlns:xlink="http://www.w3.org/1999/xlink" x="0px"
	 y="0px" viewBox="0 0 1573.6 637.9" style="enable-background:new 0 0 1573.6 637.9;" xml:space="preserve">
<style type="text/css">
	.st0{opacity:0.4;}
	.st1{fill:#0084AD;}
</style>
<g class="st0">
	<g>
		<g>
			<path class="st1" d="M1096.2,475.6h-48.8c-0.6,0-1.2-0.2-1.7-0.6l-10.9-7.6h-54.4c-1.7,0-3-1.4-3-3c0-1.7,1.4-3,3-3h55.3
				c0.6,0,1.2,0.2,1.7,0.6l10.9,7.6h46.8l10.9-7.6c0.5-0.4,1.1-0.6,1.7-0.6h55.3c1.7,0,3,1.4,3,3c0,1.7-1.4,3-3,3h-54.4l-10.9,7.6
				C1097.4,475.4,1096.8,475.6,1096.2,475.6z"/>
		</g>
		<g>
			<path class="st1" d="M1096.2,513.2h-48.8c-0.6,0-1.2-0.2-1.7-0.6l-10.9-7.6h-54.4c-1.7,0-3-1.4-3-3c0-1.7,1.4-3,3-3h55.3
				c0.6,0,1.2,0.2,1.7,0.6l10.9,7.6h46.8l10.9-7.6c0.5-0.4,1.1-0.6,1.7-0.6h55.3c1.7,0,3,1.4,3,3c0,1.7-1.4,3-3,3h-54.4l-10.9,7.6
				C1097.4,513,1096.8,513.2,1096.2,513.2z"/>
		</g>
		<g>
			<path class="st1" d="M1096.2,550.8h-48.8c-0.6,0-1.2-0.2-1.7-0.6l-10.9-7.6h-54.4c-1.7,0-3-1.4-3-3c0-1.7,1.4-3,3-3h55.3
				c0.6,0,1.2,0.2,1.7,0.6l10.9,7.6h46.8l10.9-7.6c0.5-0.4,1.1-0.6,1.7-0.6h55.3c1.7,0,3,1.4,3,3c0,1.7-1.4,3-3,3h-54.4l-10.9,7.6
				C1097.4,550.6,1096.8,550.8,1096.2,550.8z"/>
		</g>
		<g>
			<g>
				<path class="st1" d="M599.6,584.2c-1.7,0-3-1.4-3-3v-48c0-1.7,1.4-3,3-3c1.7,0,3,1.4,3,3v48
					C602.7,582.9,601.3,584.2,599.6,584.2z"/>
			</g>
			<g>
				<path class="st1" d="M681.7,584.2c-1.7,0-3-1.4-3-3v-48c0-1.7,1.4-3,3-3c1.7,0,3,1.4,3,3v48
					C684.7,582.9,683.4,584.2,681.7,584.2z"/>
			</g>
		</g>
		<g>
			<path class="st1" d="M994.4,111.3c-1.1,0-2.1-0.6-2.6-1.6c-2.3-4.1-3.7-4.9-4-5.1c-0.3,0.1-1.7,0.9-4,5.1
				c-0.7,1.2-2.1,1.8-3.4,1.5c-1.3-0.3-2.3-1.6-2.3-2.9V90.6c0-5.3,4.3-9.6,9.6-9.6c5.3,0,9.6,4.3,9.6,9.6v17.6
				c0,1.4-0.9,2.6-2.3,2.9C994.9,111.2,994.6,111.3,994.4,111.3z M987.7,98.6c1.2,0,2.4,0.4,3.6,1.2v-9.1c0-2-1.6-3.6-3.6-3.6
				c-2,0-3.6,1.6-3.6,3.6v9.1C985.3,98.9,986.5,98.6,987.7,98.6z"/>
		</g>
		<g>
			<path class="st1" d="M633.3,167.2h-53.1c-1.7,0-3-1.4-3-3v-47.3c0-1.7,1.4-3,3-3h53.1c1.7,0,3,1.4,3,3v47.3
				C636.3,165.9,635,167.2,633.3,167.2z M583.2,161.2h47.1v-41.2h-47.1V161.2z"/>
		</g>
		<g>
			<path class="st1" d="M780.3,119.9H662.4c-1.7,0-3-1.4-3-3c0-1.7,1.4-3,3-3h117.9c1.7,0,3,1.4,3,3
				C783.3,118.6,782,119.9,780.3,119.9z"/>
		</g>
		<g>
			<path class="st1" d="M780.3,143.6H662.4c-1.7,0-3-1.4-3-3s1.4-3,3-3h117.9c1.7,0,3,1.4,3,3S782,143.6,780.3,143.6z"/>
		</g>
		<g>
			<path class="st1" d="M780.3,167.2H662.4c-1.7,0-3-1.4-3-3c0-1.7,1.4-3,3-3h117.9c1.7,0,3,1.4,3,3
				C783.3,165.9,782,167.2,780.3,167.2z"/>
		</g>
		<g>
			<path class="st1" d="M755.2,236.5h-37.1c-1.7,0-3-1.4-3-3v-47.9c0-1.7,1.4-3,3-3h35.7c1.7,0,3,1.4,3,3c0,1.7-1.4,3-3,3h-32.6
				v41.8h34.1c1.7,0,3,1.4,3,3C758.2,235.2,756.9,236.5,755.2,236.5z"/>
		</g>
		<g>
			<path class="st1" d="M693.3,188.7H580.2c-1.7,0-3-1.4-3-3c0-1.7,1.4-3,3-3h113.1c1.7,0,3,1.4,3,3
				C696.3,187.3,694.9,188.7,693.3,188.7z"/>
		</g>
		<g>
			<path class="st1" d="M693.3,211.3H580.2c-1.7,0-3-1.4-3-3c0-1.7,1.4-3,3-3h113.1c1.7,0,3,1.4,3,3
				C696.3,210,694.9,211.3,693.3,211.3z"/>
		</g>
		<g>
			<path class="st1" d="M693.3,234H580.2c-1.7,0-3-1.4-3-3s1.4-3,3-3h113.1c1.7,0,3,1.4,3,3S694.9,234,693.3,234z"/>
		</g>
		<g>
			<path class="st1" d="M693.3,256.6H580.2c-1.7,0-3-1.4-3-3c0-1.7,1.4-3,3-3h113.1c1.7,0,3,1.4,3,3
				C696.3,255.3,694.9,256.6,693.3,256.6z"/>
		</g>
		<g>
			<path class="st1" d="M601.8,292.7h-21.7c-1.7,0-3-1.4-3-3s1.4-3,3-3h21.7c1.7,0,3,1.4,3,3S603.5,292.7,601.8,292.7z"/>
		</g>
		<g>
			<path class="st1" d="M601.8,311h-21.7c-1.7,0-3-1.4-3-3c0-1.7,1.4-3,3-3h21.7c1.7,0,3,1.4,3,3C604.9,309.6,603.5,311,601.8,311z"
				/>
		</g>
		<g>
			<path class="st1" d="M601.8,354.1h-21.7c-1.7,0-3-1.4-3-3c0-1.7,1.4-3,3-3h21.7c1.7,0,3,1.4,3,3
				C604.9,352.7,603.5,354.1,601.8,354.1z"/>
		</g>
		<g>
			<path class="st1" d="M601.8,372.4h-21.7c-1.7,0-3-1.4-3-3s1.4-3,3-3h21.7c1.7,0,3,1.4,3,3S603.5,372.4,601.8,372.4z"/>
		</g>
		<g>
			<path class="st1" d="M601.8,390.9h-21.7c-1.7,0-3-1.4-3-3c0-1.7,1.4-3,3-3h21.7c1.7,0,3,1.4,3,3
				C604.9,389.6,603.5,390.9,601.8,390.9z"/>
		</g>
		<g>
			<g>
				<path class="st1" d="M159.1,336.3c-1.7,0-3-1.4-3-3v-7c0-1.7,1.4-3,3-3c1.7,0,3,1.4,3,3v7C162.1,334.9,160.8,336.3,159.1,336.3z
					"/>
			</g>
			<g>
				<path class="st1" d="M159.1,375.9c-1.7,0-3-1.4-3-3v-7c0-1.7,1.4-3,3-3c1.7,0,3,1.4,3,3v7C162.1,374.5,160.8,375.9,159.1,375.9z
					"/>
			</g>
			<g>
				<path class="st1" d="M182.4,352.6h-7c-1.7,0-3-1.4-3-3s1.4-3,3-3h7c1.7,0,3,1.4,3,3S184,352.6,182.4,352.6z"/>
			</g>
			<g>
				<path class="st1" d="M142.8,352.6h-7c-1.7,0-3-1.4-3-3s1.4-3,3-3h7c1.7,0,3,1.4,3,3S144.4,352.6,142.8,352.6z"/>
			</g>
		</g>
		<g>
			<g>
				<path class="st1" d="M388.1,303.6c-1.7,0-3-1.4-3-3v-6c0-1.7,1.4-3,3-3c1.7,0,3,1.4,3,3v6C391.1,302.3,389.8,303.6,388.1,303.6z
					"/>
			</g>
			<g>
				<path class="st1" d="M388.1,337.5c-1.7,0-3-1.4-3-3v-6c0-1.7,1.4-3,3-3c1.7,0,3,1.4,3,3v6C391.1,336.1,389.8,337.5,388.1,337.5z
					"/>
			</g>
			<g>
				<path class="st1" d="M408,317.6h-6c-1.7,0-3-1.4-3-3c0-1.7,1.4-3,3-3h6c1.7,0,3,1.4,3,3C411,316.2,409.6,317.6,408,317.6z"/>
			</g>
			<g>
				<path class="st1" d="M374.2,317.6h-6c-1.7,0-3-1.4-3-3c0-1.7,1.4-3,3-3h6c1.7,0,3,1.4,3,3C377.2,316.2,375.8,317.6,374.2,317.6z
					"/>
			</g>
		</g>
		<g>
			<g>
				<path class="st1" d="M850.2,69c-1.7,0-3-1.4-3-3v-6c0-1.7,1.4-3,3-3s3,1.4,3,3v6C853.2,67.7,851.9,69,850.2,69z"/>
			</g>
			<g>
				<path class="st1" d="M850.2,102.9c-1.7,0-3-1.4-3-3v-6c0-1.7,1.4-3,3-3s3,1.4,3,3v6C853.2,101.5,851.9,102.9,850.2,102.9z"/>
			</g>
			<g>
				<path class="st1" d="M870.1,83h-6c-1.7,0-3-1.4-3-3c0-1.7,1.4-3,3-3h6c1.7,0,3,1.4,3,3C873.1,81.6,871.7,83,870.1,83z"/>
			</g>
			<g>
				<path class="st1" d="M836.2,83h-6c-1.7,0-3-1.4-3-3c0-1.7,1.4-3,3-3h6c1.7,0,3,1.4,3,3C839.3,81.6,837.9,83,836.2,83z"/>
			</g>
		</g>
		<g>
			<g>
				<path class="st1" d="M1149.1,134.9c-1.7,0-3-1.4-3-3v-5.1c0-1.7,1.4-3,3-3s3,1.4,3,3v5.1
					C1152.1,133.6,1150.8,134.9,1149.1,134.9z"/>
			</g>
			<g>
				<path class="st1" d="M1149.1,163.7c-1.7,0-3-1.4-3-3v-5.1c0-1.7,1.4-3,3-3s3,1.4,3,3v5.1
					C1152.1,162.4,1150.8,163.7,1149.1,163.7z"/>
			</g>
			<g>
				<path class="st1" d="M1166,146.8h-5.1c-1.7,0-3-1.4-3-3c0-1.7,1.4-3,3-3h5.1c1.7,0,3,1.4,3,3
					C1169.1,145.5,1167.7,146.8,1166,146.8z"/>
			</g>
			<g>
				<path class="st1" d="M1137.3,146.8h-5.1c-1.7,0-3-1.4-3-3c0-1.7,1.4-3,3-3h5.1c1.7,0,3,1.4,3,3
					C1140.3,145.5,1138.9,146.8,1137.3,146.8z"/>
			</g>
		</g>
		<g>
			<g>
				<path class="st1" d="M1530.4,268c-1.7,0-3-1.4-3-3v-5.7c0-1.7,1.4-3,3-3s3,1.4,3,3v5.7C1533.4,266.7,1532.1,268,1530.4,268z"/>
			</g>
			<g>
				<path class="st1" d="M1530.4,300.3c-1.7,0-3-1.4-3-3v-5.7c0-1.7,1.4-3,3-3s3,1.4,3,3v5.7C1533.4,299,1532.1,300.3,1530.4,300.3z
					"/>
			</g>
			<g>
				<path class="st1" d="M1549.4,281.3h-5.7c-1.7,0-3-1.4-3-3s1.4-3,3-3h5.7c1.7,0,3,1.4,3,3S1551.1,281.3,1549.4,281.3z"/>
			</g>
			<g>
				<path class="st1" d="M1517.1,281.3h-5.7c-1.7,0-3-1.4-3-3s1.4-3,3-3h5.7c1.7,0,3,1.4,3,3S1518.8,281.3,1517.1,281.3z"/>
			</g>
		</g>
		<g>
			<path class="st1" d="M475.2,336.9c-0.5,0-1-0.1-1.4-0.3l-15.4-8.1l-15.4,8.1c-1,0.5-2.3,0.4-3.2-0.2c-0.9-0.7-1.4-1.8-1.2-3
				l2.9-17.1l-12.4-12.1c-0.8-0.8-1.1-2-0.8-3.1c0.4-1.1,1.3-1.9,2.4-2.1l17.2-2.5l7.7-15.6c0.5-1,1.6-1.7,2.7-1.7l0,0
				c1.2,0,2.2,0.7,2.7,1.7l7.7,15.6L486,299c1.1,0.2,2.1,1,2.4,2.1c0.4,1.1,0.1,2.3-0.8,3.1l-12.4,12.1l2.9,17.1
				c0.2,1.1-0.3,2.3-1.2,3C476.5,336.7,475.9,336.9,475.2,336.9z M458.5,322c0.5,0,1,0.1,1.4,0.3l11.3,6l-2.2-12.6
				c-0.2-1,0.2-2,0.9-2.7l9.2-8.9l-12.7-1.8c-1-0.1-1.8-0.8-2.3-1.7l-5.7-11.5l-5.7,11.5c-0.4,0.9-1.3,1.5-2.3,1.7l-12.7,1.8
				l9.2,8.9c0.7,0.7,1,1.7,0.9,2.7l-2.2,12.6l11.3-6C457.5,322.1,458,322,458.5,322z"/>
		</g>
		<g>
			<path class="st1" d="M550.7,337.1h-12c-11.4,0-20.6-9.2-20.6-20.6v-8.7c0-1.7,1.4-3,3-3h29.6c1.7,0,3,1.4,3,3V334
				C553.7,335.7,552.4,337.1,550.7,337.1z M524.2,310.8v5.7c0,8,6.5,14.5,14.5,14.5h9v-20.2H524.2z"/>
		</g>
		<g>
			<path class="st1" d="M550.7,274.6h-42.2c-1.7,0-3-1.4-3-3c0-12.9-6.1-25.1-16.4-32.7c-17.6-12.9-27.7-33.7-26.9-55.5
				c1.2-34.1,28.8-62,62.8-63.6c9.3-0.4,18.3,1,26.9,4.3c1.2,0.5,1.9,1.6,1.9,2.8v144.6C553.7,273.2,552.4,274.6,550.7,274.6z
				 M511.4,268.5h36.3V129c-7.2-2.5-14.7-3.6-22.5-3.2c-30.9,1.4-56,26.8-57,57.8c-0.7,19.8,8.5,38.7,24.5,50.4
				C503.6,242.1,510.5,254.8,511.4,268.5z"/>
		</g>
		<g>
			<path class="st1" d="M550.7,286.8h-41.9c-4.2,0-7.6-3.4-7.6-7.6v-3.1c0-4.2,3.4-7.6,7.6-7.6h41.9c1.7,0,3,1.4,3,3v12.2
				C553.7,285.4,552.4,286.8,550.7,286.8z M508.8,274.6c-0.8,0-1.5,0.7-1.5,1.5v3.1c0,0.8,0.7,1.5,1.5,1.5h38.9v-6.1H508.8z"/>
		</g>
		<g>
			<path class="st1" d="M550.7,298.9h-38.5c-4.2,0-7.6-3.4-7.6-7.6v-3.1c0-4.2,3.4-7.6,7.6-7.6h38.5c1.7,0,3,1.4,3,3v12.2
				C553.7,297.6,552.4,298.9,550.7,298.9z M512.2,286.8c-0.8,0-1.5,0.7-1.5,1.5v3.1c0,0.8,0.7,1.5,1.5,1.5h35.5v-6.1H512.2z"/>
		</g>
		<g>
			<path class="st1" d="M550.7,310.8h-36.6c-4.2,0-7.6-3.4-7.6-7.6v-3.1c0-4.2,3.4-7.6,7.6-7.6h36.6c1.7,0,3,1.4,3,3v12.2
				C553.7,309.4,552.4,310.8,550.7,310.8z M514.1,298.6c-0.8,0-1.5,0.7-1.5,1.5v3.1c0,0.8,0.7,1.5,1.5,1.5h33.5v-6.1H514.1z"/>
		</g>
		<g>
			<path class="st1" d="M1474,625h-20.2c-1.7,0-3-1.4-3-3v-25c0-1.7,1.4-3,3-3c1.7,0,3,1.4,3,3v22h14.1v-21.7c0-1.7,1.4-3,3-3
				c1.7,0,3,1.4,3,3V622C1477,623.6,1475.7,625,1474,625z"/>
		</g>
		<g>
			<path class="st1" d="M1449.3,629.9V625h29.2v4.9h6.1V622c0-1.7-1.4-3-3-3h-35.3c-1.7,0-3,1.4-3,3v7.9H1449.3z"/>
		</g>
		<g>
			<path class="st1" d="M1467.2,380.2h-12.9c-8.7,0-15.8-7.1-15.8-15.8c0-8.7,7.1-15.8,15.8-15.8h12.9c1.7,0,3,1.4,3,3s-1.4,3-3,3
				h-12.9c-5.4,0-9.8,4.4-9.8,9.8c0,5.4,4.4,9.8,9.8,9.8h12.9c1.7,0,3,1.4,3,3C1470.3,378.9,1468.9,380.2,1467.2,380.2z"/>
		</g>
		<g>
			<path class="st1" d="M1463.9,599.5c-38.1,0-69.1-31-69.1-69.1s31-69.1,69.1-69.1s69.1,31,69.1,69.1S1502,599.5,1463.9,599.5z
				 M1463.9,467.4c-34.7,0-63,28.3-63,63c0,34.7,28.3,63,63,63c34.7,0,63-28.3,63-63C1526.9,495.7,1498.6,467.4,1463.9,467.4z
				 M1463.9,578c-26.2,0-47.6-21.4-47.6-47.6c0-26.2,21.4-47.6,47.6-47.6c26.2,0,47.6,21.4,47.6,47.6
				C1511.5,556.7,1490.1,578,1463.9,578z M1463.9,488.9c-22.9,0-41.5,18.6-41.5,41.5c0,22.9,18.6,41.5,41.5,41.5
				s41.5-18.6,41.5-41.5C1505.4,507.5,1486.8,488.9,1463.9,488.9z"/>
		</g>
		<g>
			<path class="st1" d="M1219.3,220.9c-0.4,0-0.9-0.1-1.3-0.3c-1.1-0.5-1.8-1.6-1.8-2.8V192c0-1.7,1.4-3,3-3c1.7,0,3,1.4,3,3v19.3
				l12.6-10.8c1.1-1,2.8-1,3.9,0l12.6,10.8v-17.7c0-1.7,1.4-3,3-3s3,1.4,3,3v24.3c0,1.2-0.7,2.3-1.8,2.8c-1.1,0.5-2.3,0.3-3.2-0.5
				l-15.6-13.4l-15.6,13.4C1220.7,220.6,1220,220.9,1219.3,220.9z"/>
		</g>
		<g>
			<path class="st1" d="M1571.4,396.3h-23.3v-63.8h23.3v-6.1H1545c-1.7,0-3,1.4-3,3v69.9c0,1.7,1.4,3,3,3h26.3V396.3z"/>
		</g>
		<g>
			<path class="st1" d="M528.8,509.8C528.8,509.8,528.7,509.8,528.8,509.8c-1.7,0-3.1-1.4-3-3.1c0.3-13.5-0.3-57.7-20.6-58.4
				c-12.7-0.4-16.4,5.3-20.7,12c-4.6,7.2-9.8,15.3-26,14.7c-16.2,0.6-21.4-7.6-26-14.7c-4.3-6.7-7.9-12.4-20.7-12
				c-20.2,0.6-20.9,44.7-20.6,58.1c0,1.7-1.3,3.1-3,3.1c0,0,0,0-0.1,0c-1.6,0-3-1.3-3-3c-0.5-23.7,2.3-63.6,26.4-64.3
				c16.2-0.5,21.4,7.6,26,14.8c4.3,6.7,8,12.4,20.8,12c0.1,0,0.2,0,0.2,0c12.9,0.5,16.5-5.3,20.8-12c4.6-7.2,9.8-15.3,26-14.8
				c24.2,0.8,27,40.8,26.4,64.6C531.8,508.5,530.4,509.8,528.8,509.8z"/>
		</g>
		<g>
			<path class="st1" d="M91.1,478.5H3.7v6.1h84.4v93.6H3.7v6.1h87.4c1.7,0,3-1.4,3-3v-99.7C94.1,479.8,92.8,478.5,91.1,478.5z"/>
		</g>
		<g>
			<path class="st1" d="M93,479.1L3.7,408.6v7.7l78.7,62.1H3.7v6.1h87.4c1.3,0,2.4-0.8,2.9-2C94.4,481.3,94,479.9,93,479.1z"/>
		</g>
		<g>
			<path class="st1" d="M272.3,490.1c-0.7,0-1.4-0.3-2-0.8l-21.3-19c-0.6-0.5-0.9-1.2-1-2l-7.8-93.6c-22.7-10.5-37.2-33.1-37.2-58.2
				c0-35.3,28.7-64.1,64.1-64.1c35.3,0,64.1,28.7,64.1,64.1c0,24.1-13.1,45.7-34.4,56.8v22.6c0,1.1-0.7,2.2-1.7,2.7
				c-1,0.5-2.3,0.4-3.2-0.3c-0.1,0-0.1-0.1-0.4-0.1c-2.1,0.3-5.5,3.7-8,6.9l13.1,8.7c0.8,0.5,1.2,1.3,1.3,2.2
				c0.1,0.9-0.2,1.8-0.8,2.4L285,430.8l11.7,9.8c0.7,0.6,1.1,1.5,1.1,2.5c0,0.9-0.5,1.8-1.3,2.4l-11.5,7.9l4.1,3
				c0.8,0.6,1.2,1.5,1.2,2.4v16.4c0,0.9-0.4,1.8-1.1,2.4l-15,12C273.6,489.9,272.9,490.1,272.3,490.1z M253.8,466.7l18.5,16.5
				l11.9-9.5v-13.5l-6.3-4.6c-0.8-0.6-1.2-1.5-1.2-2.5c0-1,0.5-1.9,1.3-2.4l11.7-8l-11.1-9.3c-0.6-0.5-1-1.3-1.1-2.2
				c0-0.8,0.3-1.7,0.9-2.3l11.7-12l-12.8-8.4c-0.7-0.4-1.1-1.1-1.3-1.9c-0.2-0.8,0-1.6,0.5-2.3c1.2-1.8,7.7-10.9,13.9-11.9
				c0.1,0,0.1,0,0.2,0v-20.8c0-1.2,0.7-2.2,1.7-2.7c20.1-9.8,32.7-29.8,32.7-52.2c0-32-26-58-58-58c-32,0-58,26-58,58
				c0,23.3,13.8,44.2,35.2,53.4c1,0.4,1.7,1.4,1.8,2.5L253.8,466.7z M266.9,335.5c-11.6,0-21-9.4-21-20.9c0-11.6,9.4-21,21-21
				c11.6,0,20.9,9.4,20.9,21C287.9,326.1,278.5,335.5,266.9,335.5z M266.9,299.7c-8.2,0-14.9,6.7-14.9,14.9
				c0,8.2,6.7,14.9,14.9,14.9c8.2,0,14.9-6.7,14.9-14.9C281.8,306.3,275.1,299.7,266.9,299.7z"/>
		</g>
		<g>
			<path class="st1" d="M222.1,319.6c-1.4,0-2.7-1-3-2.5c-0.1-0.3-5-31.5,26.6-41.4c1.6-0.5,3.3,0.4,3.8,2c0.5,1.6-0.4,3.3-2,3.8
				c-26.5,8.4-22.6,33.6-22.4,34.6c0.3,1.6-0.8,3.2-2.5,3.5C222.4,319.6,222.3,319.6,222.1,319.6z"/>
		</g>
		<g>
			<path class="st1" d="M264.8,462.1c-1.6,0-2.9-1.3-3-2.9l-4.3-86.6c-0.1-1.7,1.2-3.1,2.9-3.2c1.7-0.1,3.1,1.2,3.2,2.9l4.3,86.6
				c0.1,1.7-1.2,3.1-2.9,3.2C264.9,462.1,264.8,462.1,264.8,462.1z"/>
		</g>
		<g>
			<path class="st1" d="M93.7,479.9c-0.9-1.4-2.7-1.9-4.2-1L3.7,531v7.1l89-54C94.1,483.2,94.6,481.4,93.7,479.9z"/>
		</g>
		<g>
			<path class="st1" d="M91.1,584.2c-0.7,0-1.5-0.3-2.1-0.8l-53.1-49.3c-1.2-1.1-1.3-3.1-0.2-4.3c1.1-1.2,3.1-1.3,4.3-0.2L93.2,579
				c1.2,1.1,1.3,3.1,0.2,4.3C92.7,583.9,91.9,584.2,91.1,584.2z"/>
		</g>
		<g>
			<path class="st1" d="M47.1,404.1c-5.9,0-10.7-4.8-10.7-10.7c0-5.9,4.8-10.7,10.7-10.7c5.9,0,10.7,4.8,10.7,10.7
				C57.7,399.4,53,404.1,47.1,404.1z M47.1,388.9c-2.5,0-4.6,2.1-4.6,4.6c0,2.5,2.1,4.6,4.6,4.6c2.5,0,4.6-2.1,4.6-4.6
				C51.7,391,49.6,388.9,47.1,388.9z"/>
		</g>
		<g>
			<path class="st1" d="M335.6,439.8c-5.9,0-10.7-4.8-10.7-10.7c0-5.9,4.8-10.7,10.7-10.7c5.9,0,10.7,4.8,10.7,10.7
				C346.2,435,341.5,439.8,335.6,439.8z M335.6,424.5c-2.5,0-4.6,2.1-4.6,4.6c0,2.5,2.1,4.6,4.6,4.6c2.5,0,4.6-2.1,4.6-4.6
				C340.2,426.6,338.1,424.5,335.6,424.5z"/>
		</g>
		<g>
			<path class="st1" d="M747.6,31.3c-5.9,0-10.7-4.8-10.7-10.7s4.8-10.7,10.7-10.7c5.9,0,10.7,4.8,10.7,10.7S753.5,31.3,747.6,31.3z
				 M747.6,16c-2.5,0-4.6,2.1-4.6,4.6s2.1,4.6,4.6,4.6c2.5,0,4.6-2.1,4.6-4.6S750.1,16,747.6,16z"/>
		</g>
		<g>
			<path class="st1" d="M1541.8,614.8c-5.9,0-10.7-4.8-10.7-10.7c0-5.9,4.8-10.7,10.7-10.7c5.9,0,10.7,4.8,10.7,10.7
				C1552.4,610,1547.6,614.8,1541.8,614.8z M1541.8,599.5c-2.5,0-4.6,2.1-4.6,4.6c0,2.5,2.1,4.6,4.6,4.6s4.6-2.1,4.6-4.6
				C1546.4,601.6,1544.3,599.5,1541.8,599.5z"/>
		</g>
		<g>
			<path class="st1" d="M98.7,365.7c-5.9,0-10.7-4.8-10.7-10.7c0-5.9,4.8-10.7,10.7-10.7c5.9,0,10.7,4.8,10.7,10.7
				C109.4,360.9,104.6,365.7,98.7,365.7z M98.7,350.5c-2.5,0-4.6,2.1-4.6,4.6c0,2.5,2.1,4.6,4.6,4.6c2.5,0,4.6-2.1,4.6-4.6
				C103.3,352.5,101.3,350.5,98.7,350.5z"/>
		</g>
		<g>
			<path class="st1" d="M98.7,405.6c-7.1,0-23.8-0.8-26.2-8.1c-0.3-0.8-0.2-1.6,0.2-2.4l12.3-24c0.4-0.8,1.1-1.3,1.9-1.5
				c0.8-0.2,1.7-0.1,2.4,0.4c5.7,3.7,13.1,3.7,18.9,0c0.7-0.5,1.6-0.6,2.4-0.4c0.8,0.2,1.5,0.8,1.9,1.5l12.3,24
				c0.4,0.7,0.4,1.6,0.2,2.4C122.5,404.8,105.8,405.6,98.7,405.6z M78.9,396.2c2.1,1.4,8.7,3.3,19.8,3.3c11.1,0,17.7-1.9,19.8-3.3
				l-10-19.6c-6.2,2.8-13.4,2.8-19.6,0L78.9,396.2z"/>
		</g>
		<g>
			<path class="st1" d="M392.7,225c-5.9,0-10.7-4.8-10.7-10.7c0-5.9,4.8-10.7,10.7-10.7c5.9,0,10.7,4.8,10.7,10.7
				C403.4,220.2,398.6,225,392.7,225z M392.7,209.7c-2.5,0-4.6,2.1-4.6,4.6c0,2.5,2.1,4.6,4.6,4.6c2.5,0,4.6-2.1,4.6-4.6
				C397.3,211.8,395.3,209.7,392.7,209.7z"/>
		</g>
		<g>
			<path class="st1" d="M392.7,264.8c-7.1,0-23.8-0.8-26.2-8.1c-0.3-0.8-0.2-1.6,0.2-2.3l12.3-24c0.4-0.8,1.1-1.3,1.9-1.5
				c0.8-0.2,1.7-0.1,2.4,0.4c5.7,3.7,13.1,3.7,18.9,0c0.7-0.5,1.6-0.6,2.4-0.4c0.8,0.2,1.5,0.8,1.9,1.5l12.3,24
				c0.4,0.7,0.4,1.6,0.2,2.3C416.5,264,399.8,264.8,392.7,264.8z M372.9,255.4c2.1,1.4,8.7,3.3,19.8,3.3c11.1,0,17.7-1.9,19.8-3.3
				l-10-19.6c-6.2,2.8-13.4,2.8-19.6,0L372.9,255.4z"/>
		</g>
		<g>
			<path class="st1" d="M181.7,448.3h-48.3c-1.2,0-2.3-0.7-2.8-1.8c-0.5-1.1-0.3-2.4,0.6-3.3l48.3-51.8c0,0,0,0,0,0c0,0,0,0,0,0
				c0.3-0.3,0.6-0.5,0.9-0.7c0.4-0.2,0.8-0.3,1.2-0.3c0,0,0,0,0,0h51c1.7,0,3,1.4,3,3s-1.4,3-3,3h-48v48.8
				C184.7,447,183.3,448.3,181.7,448.3z M140.3,442.3h38.3v-41.1L140.3,442.3z"/>
		</g>
		<g>
			<path class="st1" d="M282.2,584.2H133.3c-1.7,0-3-1.4-3-3V445.3c0-1.7,1.4-3,3-3c1.7,0,3,1.4,3,3v132.9h142.8v-89
				c0-1.7,1.4-3,3-3c1.7,0,3,1.4,3,3v92.1C285.2,582.9,283.8,584.2,282.2,584.2z"/>
		</g>
		<g>
			<path class="st1" d="M227.6,418.8H201c-1.7,0-3-1.4-3-3c0-1.7,1.4-3,3-3h26.6c1.7,0,3,1.4,3,3
				C230.6,417.4,229.2,418.8,227.6,418.8z"/>
		</g>
		<g>
			<path class="st1" d="M227.6,439.8H201c-1.7,0-3-1.4-3-3s1.4-3,3-3h26.6c1.7,0,3,1.4,3,3S229.2,439.8,227.6,439.8z"/>
		</g>
		<g>
			<path class="st1" d="M227.6,460.7h-73.5c-1.7,0-3-1.4-3-3s1.4-3,3-3h73.5c1.7,0,3,1.4,3,3S229.2,460.7,227.6,460.7z"/>
		</g>
		<g>
			<path class="st1" d="M227.6,481.7h-73.5c-1.7,0-3-1.4-3-3c0-1.7,1.4-3,3-3h73.5c1.7,0,3,1.4,3,3
				C230.6,480.3,229.2,481.7,227.6,481.7z"/>
		</g>
		<g>
			<path class="st1" d="M262.6,502.7H154.1c-1.7,0-3-1.4-3-3c0-1.7,1.4-3,3-3h108.5c1.7,0,3,1.4,3,3
				C265.6,501.3,264.3,502.7,262.6,502.7z"/>
		</g>
		<g>
			<path class="st1" d="M262.6,523.6H154.1c-1.7,0-3-1.4-3-3c0-1.7,1.4-3,3-3h108.5c1.7,0,3,1.4,3,3
				C265.6,522.3,264.3,523.6,262.6,523.6z"/>
		</g>
		<g>
			<path class="st1" d="M262.6,544.6H154.1c-1.7,0-3-1.4-3-3c0-1.7,1.4-3,3-3h108.5c1.7,0,3,1.4,3,3
				C265.6,543.2,264.3,544.6,262.6,544.6z"/>
		</g>
		<g>
			<path class="st1" d="M262.6,565.5H154.1c-1.7,0-3-1.4-3-3c0-1.7,1.4-3,3-3h108.5c1.7,0,3,1.4,3,3
				C265.6,564.2,264.3,565.5,262.6,565.5z"/>
		</g>
		<g>
			<path class="st1" d="M262.6,609.5H39.5c-1.7,0-3-1.4-3-3c0-1.7,1.4-3,3-3h223.1c1.7,0,3,1.4,3,3
				C265.6,608.2,264.3,609.5,262.6,609.5z"/>
		</g>
		<g>
			<path class="st1" d="M331.1,503.1h-18.6c-1.7,0-3-1.4-3-3v-18.6c0-1.7,1.4-3,3-3h18.6c1.7,0,3,1.4,3,3v18.6
				C334.1,501.7,332.8,503.1,331.1,503.1z M315.6,497h12.5v-12.5h-12.5V497z"/>
		</g>
		<g>
			<path class="st1" d="M340.7,217.2h-25.6c-1.7,0-3-1.4-3-3v-25.6c0-1.7,1.4-3,3-3h25.6c1.7,0,3,1.4,3,3v25.6
				C343.8,215.8,342.4,217.2,340.7,217.2z M318.2,211.1h19.5v-19.5h-19.5V211.1z"/>
		</g>
		<g>
			<path class="st1" d="M1226.5,395h-18.6c-1.7,0-3-1.4-3-3v-18.6c0-1.7,1.4-3,3-3h18.6c1.7,0,3,1.4,3,3V392
				C1229.5,393.7,1228.2,395,1226.5,395z M1211,389h12.5v-12.5H1211V389z"/>
		</g>
		<g>
			<path class="st1" d="M1052.1,109.1h-18.6c-1.7,0-3-1.4-3-3V87.6c0-1.7,1.4-3,3-3h18.6c1.7,0,3,1.4,3,3v18.6
				C1055.1,107.8,1053.8,109.1,1052.1,109.1z M1036.6,103.1h12.5V90.6h-12.5V103.1z"/>
		</g>
		<g>
			<path class="st1" d="M859.5,42.2h-18.6c-1.7,0-3-1.4-3-3V20.6c0-1.7,1.4-3,3-3h18.6c1.7,0,3,1.4,3,3v18.6
				C862.5,40.8,861.1,42.2,859.5,42.2z M843.9,36.1h12.5V23.6h-12.5V36.1z"/>
		</g>
		<g>
			<path class="st1" d="M1344.5,219H1326c-1.7,0-3-1.4-3-3v-18.6c0-1.7,1.4-3,3-3h18.6c1.7,0,3,1.4,3,3V216
				C1347.6,217.6,1346.2,219,1344.5,219z M1329,212.9h12.5v-12.5H1329V212.9z"/>
		</g>
		<g>
			<path class="st1" d="M1551,474.7h-18.6c-1.7,0-3-1.4-3-3v-18.6c0-1.7,1.4-3,3-3h18.6c1.7,0,3,1.4,3,3v18.6
				C1554.1,473.3,1552.7,474.7,1551,474.7z M1535.5,468.6h12.5v-12.5h-12.5V468.6z"/>
		</g>
		<g>
			<path class="st1" d="M320,369.5c-0.9,0-1.8-0.4-2.4-1.2c-1-1.3-0.8-3.2,0.6-4.2c0.9-0.7,21.5-17,18.5-49.3
				c-0.2-1.7,1.1-3.1,2.7-3.3c1.7-0.2,3.1,1.1,3.3,2.7c3.4,35.8-19.8,54-20.8,54.7C321.3,369.3,320.6,369.5,320,369.5z"/>
		</g>
		<g>
			<path class="st1" d="M1058.8,218.6c-0.6,0-1.3-0.2-1.8-0.6c-0.9-0.7-1.4-1.8-1.2-3l4.7-27.2l-19.8-19.3c-0.8-0.8-1.1-2-0.8-3.1
				c0.4-1.1,1.3-1.9,2.4-2.1l27.3-4l12.2-24.7c0.5-1,1.6-1.7,2.7-1.7s2.2,0.7,2.7,1.7l12.2,24.7l27.3,4c1.1,0.2,2.1,1,2.4,2.1
				c0.4,1.1,0.1,2.3-0.8,3.1l-19.8,19.3l4.7,27.2c0.2,1.1-0.3,2.3-1.2,3c-0.9,0.7-2.2,0.8-3.2,0.2l-24.4-12.8l-24.4,12.8
				C1059.8,218.5,1059.3,218.6,1058.8,218.6z M1084.6,198.9c0.5,0,1,0.1,1.4,0.3l20.4,10.7l-3.9-22.7c-0.2-1,0.2-2,0.9-2.7
				l16.5-16.1l-22.8-3.3c-1-0.1-1.8-0.8-2.3-1.7l-10.2-20.7l-10.2,20.7c-0.4,0.9-1.3,1.5-2.3,1.7l-22.8,3.3l16.5,16.1
				c0.7,0.7,1,1.7,0.9,2.7l-3.9,22.7l20.4-10.7C1083.7,199.1,1084.1,198.9,1084.6,198.9z"/>
		</g>
		<g>
			<path class="st1" d="M846.1,562H737.5c-1.7,0-3-1.4-3-3v-59.4c0-1.7,1.4-3,3-3h108.6c1.7,0,3,1.4,3,3V559
				C849.1,560.7,847.8,562,846.1,562z M740.5,556h102.6v-53.3H740.5V556z"/>
		</g>
		<g>
			<path class="st1" d="M879.1,584.2H704.4c-1.7,0-3-1.4-3-3V559c0-1.7,1.4-3,3-3h174.7c1.7,0,3,1.4,3,3v22.2
				C882.1,582.9,880.8,584.2,879.1,584.2z M707.5,578.2h168.6V562H707.5V578.2z"/>
		</g>
		<g>
			<path class="st1" d="M1232.3,602.8H320c-1.7,0-3-1.4-3-3v-18.6c0-1.7,1.4-3,3-3h912.3c1.7,0,3,1.4,3,3v18.6
				C1235.3,601.4,1233.9,602.8,1232.3,602.8z M323,596.7h906.2v-12.5H323V596.7z"/>
		</g>
		<g>
			<path class="st1" d="M349.6,629.9v-27.1h13.6v27.1h6.1v-30.1c0-1.7-1.4-3-3-3h-19.7c-1.7,0-3,1.4-3,3v30.1H349.6z"/>
		</g>
		<g>
			<path class="st1" d="M1190.9,629.9v-27.1h13.6v27.1h6.1v-30.1c0-1.7-1.4-3-3-3h-19.6c-1.7,0-3,1.4-3,3v30.1H1190.9z"/>
		</g>
		<g>
			<path class="st1" d="M651.5,619.3H421.2c-1.7,0-3-1.4-3-3c0-1.7,1.4-3,3-3h230.3c1.7,0,3,1.4,3,3
				C654.5,618,653.2,619.3,651.5,619.3z"/>
		</g>
		<g>
			<path class="st1" d="M690.9,536.2H590.5c-1.7,0-3-1.4-3-3s1.4-3,3-3h100.4c1.7,0,3,1.4,3,3S692.6,536.2,690.9,536.2z"/>
		</g>
		<g>
			<path class="st1" d="M697.3,521.6H584c-1.7,0-3-1.4-3-3s1.4-3,3-3h113.4c1.7,0,3,1.4,3,3S699,521.6,697.3,521.6z"/>
		</g>
		<g>
			<path class="st1" d="M570.4,584.2H346.6c-1.7,0-3-1.4-3-3v-73.5c0-1.7,1.4-3,3-3h223.8c1.7,0,3,1.4,3,3v73.5
				C573.4,582.9,572,584.2,570.4,584.2z M349.6,578.2h217.7v-67.4H349.6V578.2z"/>
		</g>
		<g>
			<path class="st1" d="M505.9,441.6c-0.1,0-0.2,0-0.3,0c-1.7-0.2-2.9-1.6-2.7-3.3c0-0.5,4.5-49.5-11.4-66.9
				c-3.6-3.9-7.8-5.8-12.9-5.8c-5.8,0-10.1,1.6-13,4.8c-5.2,5.8-4.2,15-4.2,15.1c0.1,0.9-0.2,1.7-0.8,2.4c-0.6,0.6-1.4,1-2.3,1
				H350.2c-1.4,0-2.6-1-3-2.4c-0.1-0.3-1.7-8.2,4.1-15.4c6.1-7.7,17.9-11.5,35-11.5h92.3c6.8,0,12.7,2.6,17.4,7.8
				c17.7,19.4,13.1,69.4,12.9,71.6C508.8,440.4,507.5,441.6,505.9,441.6z M353,382.8h102.3c0.1-4.1,1-11.1,5.8-16.4
				c0.3-0.3,0.5-0.6,0.8-0.8h-75.5c-15,0-25.5,3.2-30.3,9.3C353.7,377.7,353.1,380.7,353,382.8z"/>
		</g>
		<g>
			<path class="st1" d="M393.4,448.3c-1.7,0-3-1.4-3-3v-58c0-1.7,1.4-3,3-3s3,1.4,3,3v58C396.5,446.9,395.1,448.3,393.4,448.3z"/>
		</g>
		<g>
			<path class="st1" d="M444.4,377.5h-69.5c-1.7,0-3-1.4-3-3c0-1.7,1.4-3,3-3h69.5c1.7,0,3,1.4,3,3
				C447.4,376.2,446.1,377.5,444.4,377.5z"/>
		</g>
		<g>
			<path class="st1" d="M479.7,410.3h-73.1c-1.7,0-3-1.4-3-3c0-1.7,1.4-3,3-3h73.1c1.7,0,3,1.4,3,3
				C482.8,408.9,481.4,410.3,479.7,410.3z"/>
		</g>
		<g>
			<path class="st1" d="M479.7,426.1h-73.1c-1.7,0-3-1.4-3-3s1.4-3,3-3h73.1c1.7,0,3,1.4,3,3S481.4,426.1,479.7,426.1z"/>
		</g>
		<g>
			<path class="st1" d="M471.2,442h-45.1c-1.7,0-3-1.4-3-3c0-1.7,1.4-3,3-3h45.1c1.7,0,3,1.4,3,3C474.2,440.6,472.9,442,471.2,442z"
				/>
		</g>
		<g>
			<path class="st1" d="M898.2,304.7H658c-1.7,0-3-1.4-3-3c0-1.7,1.4-3,3-3h240.2c1.7,0,3,1.4,3,3
				C901.2,303.3,899.9,304.7,898.2,304.7z"/>
		</g>
		<g>
			<path class="st1" d="M879.1,486H676.6c-1.7,0-3-1.4-3-3s1.4-3,3-3h202.5c1.7,0,3,1.4,3,3S880.8,486,879.1,486z"/>
		</g>
		<g>
			<path class="st1" d="M946.5,584.2c-1.7,0-3-1.4-3-3v-75.1c0-1.7,1.4-3,3-3c1.7,0,3,1.4,3,3v75.1
				C949.6,582.9,948.2,584.2,946.5,584.2z"/>
		</g>
		<g>
			<path class="st1" d="M923.6,584.2c-1.7,0-3-1.4-3-3v-60.7c0-1.7,1.4-3,3-3c1.7,0,3,1.4,3,3v60.7
				C926.6,582.9,925.3,584.2,923.6,584.2z"/>
		</g>
		<g>
			<path class="st1" d="M1163.1,584.2H980.5c-1.7,0-3-1.4-3-3V433.5c0-1.7,1.4-3,3-3h57.9c0.6,0,1.1,0.2,1.6,0.5l12.5,7.9h38.6
				l12.5-7.9c0.5-0.3,1-0.5,1.6-0.5h57.9c1.7,0,3,1.4,3,3v147.7C1166.2,582.9,1164.8,584.2,1163.1,584.2z M983.5,578.2h176.6V436.5
				h-54l-12.5,7.9c-0.5,0.3-1,0.5-1.6,0.5h-40.4c-0.6,0-1.1-0.2-1.6-0.5l-12.5-7.9h-54V578.2z"/>
		</g>
		<g>
			<path class="st1" d="M1068.4,422c-0.5,0-1.1-0.1-1.6-0.4c-1-0.6-1.8-1.2-2.6-1.8l-24.4-20.1c-9.2-7.5-10.6-21.3-3.3-30.8
				c3.6-4.6,8.7-7.5,14.4-8.1c5.7-0.6,11.3,1,15.7,4.7l1.8,1.4l1.7-1.4c4.5-3.7,10-5.3,15.7-4.7c5.7,0.6,10.8,3.5,14.4,8.1
				c7.3,9.4,5.8,23.2-3.3,30.8l-24.4,20.1c-0.8,0.6-1.6,1.2-2.6,1.8C1069.5,421.9,1068.9,422,1068.4,422z M1053.2,366.7
				c-0.5,0-1.1,0-1.7,0.1c-4.1,0.5-7.7,2.5-10.3,5.8c-5.3,6.8-4.3,16.9,2.4,22.4l24.4,20.1c0.1,0.1,0.2,0.2,0.3,0.2
				c0.1-0.1,0.2-0.2,0.3-0.2l24.4-20.1c6.7-5.5,7.7-15.5,2.4-22.4c-2.6-3.3-6.2-5.4-10.3-5.8c-4-0.5-8,0.8-11.2,3.4l-3.7,3
				c-1.1,0.9-2.7,0.9-3.9,0l-3.7-3C1060,367.9,1056.7,366.7,1053.2,366.7z"/>
		</g>
		<g>
			<path class="st1" d="M1310,526.6h-57.9c-20.9,0-38-17-38-38c0-20.9,17-38,38-38h57.9c20.9,0,38,17,38,38
				C1348,509.5,1330.9,526.6,1310,526.6z M1252.2,456.7c-17.6,0-31.9,14.3-31.9,31.9c0,17.6,14.3,31.9,31.9,31.9h57.9
				c17.6,0,31.9-14.3,31.9-31.9c0-17.6-14.3-31.9-31.9-31.9H1252.2z"/>
		</g>
		<g>
			<path class="st1" d="M1411.3,309.9c-0.8,0-1.5-0.3-2.1-0.9l-19.4-19.1h-141.5c-1.7,0-3-1.4-3-3V241c0-1.7,1.4-3,3-3h163
				c1.7,0,3,1.4,3,3v65.9c0,1.2-0.7,2.3-1.9,2.8C1412.1,309.8,1411.7,309.9,1411.3,309.9z M1251.3,283.8H1391c0.8,0,1.6,0.3,2.1,0.9
				l15.1,14.9V244h-157V283.8z"/>
		</g>
		<g>
			<path class="st1" d="M1382.1,257.8h-114.6c-1.7,0-3-1.4-3-3c0-1.7,1.4-3,3-3h114.6c1.7,0,3,1.4,3,3
				C1385.1,256.5,1383.8,257.8,1382.1,257.8z"/>
		</g>
		<g>
			<path class="st1" d="M1382.1,273.1h-114.6c-1.7,0-3-1.4-3-3c0-1.7,1.4-3,3-3h114.6c1.7,0,3,1.4,3,3
				C1385.1,271.8,1383.8,273.1,1382.1,273.1z"/>
		</g>
		<g>
			<path class="st1" d="M1411.3,461.2c-0.8,0-1.5-0.3-2.1-0.9l-19.4-19.1h-141.5c-1.7,0-3-1.4-3-3v-45.8c0-1.7,1.4-3,3-3h163
				c1.7,0,3,1.4,3,3v65.9c0,1.2-0.7,2.3-1.9,2.8C1412.1,461.2,1411.7,461.2,1411.3,461.2z M1251.3,435.2H1391c0.8,0,1.6,0.3,2.1,0.9
				l15.1,14.9v-55.6h-157V435.2z"/>
		</g>
		<g>
			<path class="st1" d="M1382.1,409.2h-114.6c-1.7,0-3-1.4-3-3c0-1.7,1.4-3,3-3h114.6c1.7,0,3,1.4,3,3
				C1385.1,407.8,1383.8,409.2,1382.1,409.2z"/>
		</g>
		<g>
			<path class="st1" d="M1382.1,424.5h-114.6c-1.7,0-3-1.4-3-3s1.4-3,3-3h114.6c1.7,0,3,1.4,3,3S1383.8,424.5,1382.1,424.5z"/>
		</g>
		<g>
			<path class="st1" d="M1248.3,385.6c-0.4,0-0.8-0.1-1.2-0.2c-1.1-0.5-1.9-1.6-1.9-2.8v-65.9c0-1.7,1.4-3,3-3h163c1.7,0,3,1.4,3,3
				v45.8c0,1.7-1.4,3-3,3h-141.5l-19.4,19.1C1249.8,385.3,1249.1,385.6,1248.3,385.6z M1251.3,319.8v55.6l15.1-14.9
				c0.6-0.6,1.3-0.9,2.1-0.9h139.7v-39.8H1251.3z"/>
		</g>
		<g>
			<path class="st1" d="M1392.1,333.6h-114.6c-1.7,0-3-1.4-3-3c0-1.7,1.4-3,3-3h114.6c1.7,0,3,1.4,3,3
				C1395.1,332.2,1393.8,333.6,1392.1,333.6z"/>
		</g>
		<g>
			<path class="st1" d="M1392.1,348.9h-114.6c-1.7,0-3-1.4-3-3s1.4-3,3-3h114.6c1.7,0,3,1.4,3,3S1393.8,348.9,1392.1,348.9z"/>
		</g>
		<g>
			<path class="st1" d="M882.9,283.4h-16c-0.8,0-1.6-0.3-2.2-1c-0.6-0.6-0.9-1.4-0.8-2.3c0.7-10.1-1.5-13.5-2.9-14.7
				c-1.7-1.4-3.8-0.7-3.9-0.7c-1,0.3-2,0.1-2.8-0.5c-0.8-0.6-1.2-1.6-1.1-2.6c2.2-24.5-26.2-45.1-35.5-48.3
				c-7.1-2.4-9.7,3.5-9.9,4.2c-0.4,0.9-1.1,1.6-2,1.8c-0.9,0.2-1.9,0-2.7-0.6l-4.5-3.7c-3.3-2.7-7.9-3-11.3-0.8
				c-12.2,8.1-23.6,32.1-23.7,32.4c-0.5,1-1.5,1.7-2.6,1.7c-1.1,0.1-2.2-0.5-2.7-1.4c-15.3-24.7,2.2-54.7,15.4-63.1
				c11-7,14.1-13.4,14.2-13.5c0.5-1.1,1.7-1.8,2.9-1.7c1.2,0.1,2.3,0.9,2.7,2.1c1.1,3.4,3.2,5.3,4.6,6.2c7-5,16.3-17,16.4-17.2
				c0.7-1,2-1.4,3.1-1.1c1.2,0.3,2.1,1.2,2.3,2.4c1.2,6.8,8.1,9.6,20.3,14c14,5,31.5,11.2,45.4,29.5c10.8,14.1,14.3,32,10,51.8
				c-3.2,14.7-9.5,25.2-9.8,25.6C885,282.9,884,283.4,882.9,283.4z M870.1,277.3h11.1c4-7.4,20.3-41.8-0.6-69.1
				c-12.9-16.8-29.4-22.7-42.7-27.5c-9.7-3.5-18.3-6.5-22.2-13.1c-4,4.7-10.6,12.1-16,15.4c-0.8,0.5-1.7,0.6-2.6,0.3
				c-0.2-0.1-4-1.5-7-5.7c-2.5,3-6.6,7.1-13.3,11.4c-9.4,6-24.5,29-16.1,49.7c4.3-8.1,13.2-22.9,23.2-29.5
				c5.6-3.7,13.2-3.2,18.5,1.1l1.8,1.5c2.8-3.6,8-6.9,15.5-4.3c11.4,3.9,39.5,25.2,39.7,51.1c1.7,0.2,3.6,0.7,5.3,2.1
				C868.4,263.6,870.2,269.2,870.1,277.3z"/>
		</g>
		<g>
			<path class="st1" d="M762.7,283.4c-1.5,0-2.8-1.1-3-2.7c-1.8-14.8-2-34.4-2-35.3c0-1.7,1.3-3,3-3.1c1.7,0,3,1.3,3.1,3
				c0,0.2,0.3,20.2,2,34.6c0.2,1.7-1,3.2-2.6,3.4C762.9,283.4,762.8,283.4,762.7,283.4z"/>
		</g>
		<g>
			<path class="st1" d="M624.2,418.7h-42.6c-18.7,0-34-15.2-34-34V82.3c0-18.7,15.2-34,34-34H781c18.7,0,34,15.2,34,34v85
				c0,1.7-1.4,3-3,3c-1.7,0-3-1.4-3-3v-85c0-15.4-12.5-27.9-27.9-27.9H581.6c-15.4,0-27.9,12.5-27.9,27.9v302.4
				c0,15.4,12.5,27.9,27.9,27.9h42.6c1.7,0,3,1.4,3,3C627.2,417.3,625.9,418.7,624.2,418.7z"/>
		</g>
		<g>
			<path class="st1" d="M812,94.8H550.7c-1.7,0-3-1.4-3-3c0-1.7,1.4-3,3-3H812c1.7,0,3,1.4,3,3C815,93.4,813.6,94.8,812,94.8z"/>
		</g>
		<g>
			<path class="st1" d="M582.6,81.2c-5.1,0-9.3-4.2-9.3-9.3c0-5.1,4.2-9.3,9.3-9.3c5.1,0,9.3,4.2,9.3,9.3
				C591.9,77,587.8,81.2,582.6,81.2z M582.6,68.6c-1.8,0-3.2,1.5-3.2,3.2c0,1.8,1.5,3.2,3.2,3.2c1.8,0,3.2-1.5,3.2-3.2
				C585.9,70.1,584.4,68.6,582.6,68.6z"/>
		</g>
		<g>
			<path class="st1" d="M611.2,81.2c-5.1,0-9.3-4.2-9.3-9.3c0-5.1,4.2-9.3,9.3-9.3c5.1,0,9.3,4.2,9.3,9.3
				C620.5,77,616.3,81.2,611.2,81.2z M611.2,68.6c-1.8,0-3.2,1.5-3.2,3.2c0,1.8,1.5,3.2,3.2,3.2c1.8,0,3.2-1.5,3.2-3.2
				C614.4,70.1,613,68.6,611.2,68.6z"/>
		</g>
		<g>
			<path class="st1" d="M639.8,81.2c-5.1,0-9.3-4.2-9.3-9.3c0-5.1,4.2-9.3,9.3-9.3c5.1,0,9.3,4.2,9.3,9.3
				C649.1,77,644.9,81.2,639.8,81.2z M639.8,68.6c-1.8,0-3.2,1.5-3.2,3.2c0,1.8,1.5,3.2,3.2,3.2c1.8,0,3.2-1.5,3.2-3.2
				C643,70.1,641.6,68.6,639.8,68.6z"/>
		</g>
		<g>
			<path class="st1" d="M838.9,270.1h-35.5c-0.8,0-1.6-0.3-2.2-1c-0.6-0.6-0.9-1.4-0.8-2.3c0.7-10.9,9.8-19.4,20.7-19.4
				c10.9,0,20,8.5,20.7,19.4c0.1,0.8-0.2,1.7-0.8,2.3C840.5,269.7,839.7,270.1,838.9,270.1z M807,264h28.2
				c-1.8-6.1-7.5-10.5-14.1-10.5C814.5,253.5,808.9,257.9,807,264z"/>
		</g>
		<g>
			<path class="st1" d="M789.5,271.1h-27.9c-1.6,0-2.9-1.2-3-2.8c0-0.7-0.1-1.4-0.1-2.1c-0.1-1.8-0.3-3.6-0.3-5.3
				c0-0.5,0.1-1.1,0.4-1.5c3.4-5.7,11-7.8,16.5-7.8c9.1,0,16.8,7.2,17.4,16.3c0.1,0.8-0.2,1.7-0.8,2.3
				C791.1,270.8,790.3,271.1,789.5,271.1z M764.4,265h21.3c-1.6-4.3-5.8-7.4-10.7-7.4c-3.8,0-8.7,1.3-10.9,4.2
				C764.2,262.8,764.3,263.9,764.4,265z"/>
		</g>
		<g>
			<path class="st1" d="M762.3,250c-0.9,0-1.8-0.4-2.4-1.2c-1-1.3-0.8-3.2,0.5-4.3c0.9-0.7,9.1-7.1,12.6-8.7c1.5-0.7,3.3,0,4,1.5
				c0.7,1.5,0,3.3-1.5,4c-2.2,1-8.1,5.4-11.4,8C763.6,249.8,763,250,762.3,250z"/>
		</g>
		<g>
			<path class="st1" d="M837.9,245.9c-0.7,0-1.5-0.3-2-0.8c-5.9-5.4-15.4-7.9-15.5-7.9c-1.6-0.4-2.6-2.1-2.2-3.7
				c0.4-1.6,2.1-2.6,3.7-2.2c0.4,0.1,11,2.9,18,9.3c1.2,1.1,1.3,3,0.2,4.3C839.5,245.5,838.7,245.9,837.9,245.9z"/>
		</g>
		<g>
			<path class="st1" d="M872.6,186.6c-1.7,0-3-1.4-3-3v-58.1c0-1.7,1.4-3,3-3c1.7,0,3,1.4,3,3c0,2.6,2.1,4.7,4.7,4.7
				s4.7-2.1,4.7-4.7c0-1.7,1.4-3,3-3c1.7,0,3,1.4,3,3c0,5.9-4.8,10.8-10.8,10.8c-1.7,0-3.3-0.4-4.7-1.1v48.5
				C875.6,185.3,874.2,186.6,872.6,186.6z"/>
		</g>
		<g>
			<path class="st1" d="M895.8,136.2c-5.9,0-10.8-4.8-10.8-10.8c0-1.7,1.4-3,3-3c1.7,0,3,1.4,3,3c0,2.6,2.1,4.7,4.7,4.7
				c2.6,0,4.7-2.1,4.7-4.7c0-1.7,1.4-3,3-3c1.7,0,3,1.4,3,3C906.5,131.4,901.7,136.2,895.8,136.2z"/>
		</g>
		<g>
			<path class="st1" d="M919,283.4c-1.7,0-3-1.4-3-3V135.1c-1.4,0.7-3,1.1-4.7,1.1c-5.9,0-10.8-4.8-10.8-10.8c0-1.7,1.4-3,3-3
				c1.7,0,3,1.4,3,3c0,2.6,2.1,4.7,4.7,4.7s4.7-2.1,4.7-4.7c0-1.7,1.4-3,3-3c1.7,0,3,1.4,3,3v154.9C922,282,920.6,283.4,919,283.4z"
				/>
		</g>
		<g>
			<path class="st1" d="M908.2,226.6c-1.7,0-3-1.4-3-3v-73.3c0-1.7,1.4-3,3-3c1.7,0,3,1.4,3,3v73.3
				C911.2,225.3,909.8,226.6,908.2,226.6z"/>
		</g>
		<g>
			<path class="st1" d="M919,128.5c-1.2,0-2.3-0.7-2.8-1.9l-20.4-50.4l-20.4,50.4c-0.6,1.5-2.4,2.3-3.9,1.7
				c-1.5-0.6-2.3-2.4-1.7-3.9L893,67c0.5-1.1,1.6-1.9,2.8-1.9c1.2,0,2.3,0.7,2.8,1.9l23.2,57.3c0.6,1.5-0.1,3.3-1.7,3.9
				C919.7,128.4,919.3,128.5,919,128.5z"/>
		</g>
		<g>
			<path class="st1" d="M903,89.1h-14.5c-1.7,0-3-1.4-3-3c0-1.7,1.4-3,3-3H903c1.7,0,3,1.4,3,3C906,87.7,904.7,89.1,903,89.1z"/>
		</g>
		<g>
			<path class="st1" d="M1084.6,348.9h-45.3c-1.7,0-3-1.4-3-3c0-1.7,1.4-3,3-3h42.3v-95.5h-42.3c-1.7,0-3-1.4-3-3c0-1.7,1.4-3,3-3
				h45.3c1.7,0,3,1.4,3,3v101.5C1087.7,347.5,1086.3,348.9,1084.6,348.9z"/>
		</g>
		<g>
			<path class="st1" d="M1101.9,337.7h-17.3c-1.7,0-3-1.4-3-3v-79.1c0-1.7,1.4-3,3-3h17.3c1.7,0,3,1.4,3,3v79.1
				C1105,336.3,1103.6,337.7,1101.9,337.7z M1087.7,331.6h11.2v-73.1h-11.2V331.6z"/>
		</g>
		<g>
			<path class="st1" d="M1237.5,201c-16,0-29.1-13.1-29.1-29.1s13-29.1,29.1-29.1s29.1,13,29.1,29.1S1253.6,201,1237.5,201z
				 M1237.5,148.9c-12.7,0-23,10.3-23,23c0,12.7,10.3,23,23,23c12.7,0,23-10.3,23-23C1260.6,159.3,1250.2,148.9,1237.5,148.9z"/>
		</g>
		<g>
			<path class="st1" d="M1237.5,184.7c-7,0-12.8-5.7-12.8-12.8c0-7,5.7-12.8,12.8-12.8c7,0,12.8,5.7,12.8,12.8
				C1250.3,179,1244.6,184.7,1237.5,184.7z M1237.5,165.2c-3.7,0-6.7,3-6.7,6.7c0,3.7,3,6.7,6.7,6.7c3.7,0,6.7-3,6.7-6.7
				C1244.3,168.2,1241.3,165.2,1237.5,165.2z"/>
		</g>
		<g>
			<path class="st1" d="M1198.4,277.5c-1.7,0-3-1.4-3-3c0-1.7,1.4-3,3-3c6.9,0,12.4-5.6,12.4-12.4s-5.6-12.4-12.4-12.4h-46.4
				c-0.5,0-0.9,0-1.3-0.1c-1.5-0.4-2.5-1.8-2.3-3.3c0.2-1.5,1.5-2.7,3-2.7h0.1c0.7-0.2,4.9-1.8,14.9-14.6c9.3-11.8,8.5-28,4.4-34.6
				c-0.9-1.4-2.3-3.1-4.1-2.7c-3.5,0.7-3.7,2.1-3.7,6.8c0,3.4,0,7.6-2.9,11c-1.7,2.1-3.9,5.1-6.2,8.3c-6,8.3-10.2,13.8-13.2,15.8
				c-3.2,2.1-22.5,18.9-29.7,25.1c-1.3,1.1-3.2,1-4.3-0.3c-1.1-1.3-1-3.2,0.3-4.3c2.7-2.3,26.2-22.9,30.3-25.6
				c2.3-1.5,7.7-8.9,11.6-14.3c2.4-3.3,4.6-6.3,6.4-8.5c1.5-1.8,1.5-4.4,1.5-7.2c0-4.4,0-11,8.5-12.8c4-0.8,7.8,1.2,10.4,5.5
				c5.9,9.6,5.4,28.6-4.8,41.6c-3.5,4.5-6.7,8.1-9.6,10.8h36.8c10.2,0,18.5,8.3,18.5,18.5C1216.9,269.2,1208.6,277.5,1198.4,277.5z
				 M1151.5,240.5L1151.5,240.5L1151.5,240.5z"/>
		</g>
		<g>
			<path class="st1" d="M1463.9,578c-26.2,0-47.6-21.4-47.6-47.6c0-26.2,21.4-47.6,47.6-47.6c26.2,0,47.6,21.4,47.6,47.6
				C1511.5,556.7,1490.1,578,1463.9,578z M1463.9,488.9c-22.9,0-41.5,18.6-41.5,41.5c0,22.9,18.6,41.5,41.5,41.5
				s41.5-18.6,41.5-41.5C1505.4,507.5,1486.8,488.9,1463.9,488.9z"/>
		</g>
		<g>
			<path class="st1" d="M1379.6,550.8c-1.4,0-2.7-1-3-2.4c-1.2-5.9-1.8-11.9-1.8-17.9c0-24.9,10.5-48.8,28.8-65.6
				c1.2-1.1,3.1-1.1,4.3,0.2c1.1,1.2,1.1,3.1-0.2,4.3c-17.1,15.7-26.9,38-26.9,61.1c0,5.6,0.6,11.2,1.7,16.7
				c0.3,1.6-0.7,3.2-2.4,3.6C1380,550.7,1379.8,550.8,1379.6,550.8z"/>
		</g>
		<g>
			<path class="st1" d="M1428.8,533.5c-1.7,0-3-1.4-3-3c0-17.8,12.1-33.1,29.4-37.1c1.6-0.4,3.3,0.6,3.6,2.3
				c0.4,1.6-0.6,3.3-2.3,3.6c-14.6,3.4-24.7,16.3-24.7,31.2C1431.8,532.1,1430.4,533.5,1428.8,533.5z"/>
		</g>
		<g>
			<path class="st1" d="M1380.9,591.5h-104.1c-0.9,0-1.8-0.4-2.4-1.2c-3.5-4.5-5.4-9.9-5.4-15.5c0-14.4,12.3-26.1,27.5-26.1
				c6.6,0,12.8,2.2,17.7,6.2c4.3-3.1,9.4-4.7,14.6-4.7c11.9,0,22.1,8.5,24.6,19.7c2.8-1.4,6-2.1,9.2-2.1c11.5,0,20.8,9,21.2,20.6
				c0,0.8-0.3,1.6-0.9,2.2C1382.5,591.2,1381.7,591.5,1380.9,591.5z M1278.4,585.5h99.1c-1.6-6.7-7.6-11.6-14.7-11.6
				c-3.5,0-6.9,1.2-9.6,3.5c-0.9,0.7-2.1,0.9-3.2,0.4c-1.1-0.5-1.7-1.5-1.8-2.7c-0.2-10.4-8.8-18.9-19.2-18.9
				c-4.7,0-9.2,1.7-12.7,4.9c-1.2,1.1-3,1-4.1-0.1c-4.1-4-9.6-6.2-15.5-6.2c-11.8,0-21.4,9-21.4,20.1
				C1275.1,578.6,1276.2,582.3,1278.4,585.5z"/>
		</g>
		<g>
			<path class="st1" d="M1254.1,542.8c-45.4,0-56-21.4-56.5-22.4c-0.7-1.5-0.1-3.3,1.5-4c1.5-0.7,3.3-0.1,4,1.4
				c0.2,0.3,11.2,21.4,59.5,18.7c1.7-0.1,3.1,1.2,3.2,2.9c0.1,1.7-1.2,3.1-2.9,3.2C1259.9,542.7,1257,542.8,1254.1,542.8z"/>
		</g>
		<g>
			<path class="st1" d="M1244.6,491.6h-49.5c-5.7,0-10.3-4.6-10.3-10.3v-93.5c0-12.7-10.3-23-23-23c-12.7,0-23,10.3-23,23v35.4
				c0,1.7-1.4,3-3,3c-1.7,0-3-1.4-3-3v-35.4c0-16,13-29,29-29c16,0,29,13,29,29v93.5c0,2.3,1.9,4.3,4.2,4.3h49.5c1.7,0,3,1.4,3,3
				C1247.7,490.3,1246.3,491.6,1244.6,491.6z"/>
		</g>
		<g>
			<path class="st1" d="M1273.4,498.4h-22c-5.4,0-9.8-4.4-9.8-9.8c0-5.4,4.4-9.8,9.8-9.8h22c5.4,0,9.8,4.4,9.8,9.8
				C1283.1,494,1278.8,498.4,1273.4,498.4z M1251.4,484.9c-2,0-3.7,1.7-3.7,3.7c0,2,1.7,3.7,3.7,3.7h22c2,0,3.7-1.7,3.7-3.7
				c0-2-1.7-3.7-3.7-3.7H1251.4z"/>
		</g>
		<g>
			<path class="st1" d="M1495.4,427.6h-28.1c-1.7,0-3-1.4-3-3V304.2c0-1.7,1.4-3,3-3h28.1c1.7,0,3,1.4,3,3v120.4
				C1498.4,426.3,1497,427.6,1495.4,427.6z M1470.3,421.6h22.1V307.3h-22.1V421.6z"/>
		</g>
		<g>
			<path class="st1" d="M1495.4,427.6c-1.1,0-2.2-0.6-2.7-1.7c-0.8-1.5-0.2-3.3,1.3-4.1l48-24.4v-66.2l-48-24.4
				c-1.5-0.8-2.1-2.6-1.3-4.1c0.8-1.5,2.6-2.1,4.1-1.3l49.7,25.2c1,0.5,1.7,1.6,1.7,2.7v69.9c0,1.1-0.6,2.2-1.7,2.7l-49.7,25.2
				C1496.3,427.5,1495.8,427.6,1495.4,427.6z"/>
		</g>
		<g>
			<path class="st1" d="M1490.7,448.5c-1,0-2-0.5-2.6-1.4c-0.9-1.4-0.5-3.3,0.9-4.2l37.4-24c0.5-0.3,1.1-0.5,1.6-0.5h26.5
				c1.7,0,3,1.4,3,3s-1.4,3-3,3H1529l-36.6,23.5C1491.9,448.3,1491.3,448.5,1490.7,448.5z"/>
		</g>
		<g>
			<path class="st1" d="M1184.8,342.3h-24.4c-8.4,0-15.3-6.8-15.3-15.3v-3.4c0-4.8,3.9-8.7,8.7-8.7h44c1.7,0,3,1.4,3,3v8.2
				C1200.9,335.1,1193.7,342.3,1184.8,342.3z M1153.9,321c-1.5,0-2.7,1.2-2.7,2.7v3.4c0,5.1,4.1,9.2,9.2,9.2h24.4
				c5.5,0,10-4.5,10-10V321H1153.9z"/>
		</g>
		<g>
			<path class="st1" d="M1195.8,321H1155c-5.4,0-9.8-4.4-9.8-9.8v-7.1c0-5.4,4.4-9.8,9.8-9.8h45.4c4.3,0,7.8,3.5,7.8,7.8v6.5
				C1208.2,315.5,1202.6,321,1195.8,321z M1154.9,300.4c-2,0-3.7,1.7-3.7,3.7v7.1c0,2.1,1.7,3.7,3.7,3.7h40.8c3.5,0,6.3-2.8,6.3-6.3
				v-6.5c0-1-0.8-1.8-1.8-1.8H1154.9z"/>
		</g>
		<g>
			<path class="st1" d="M1200.1,300.4h-44c-8,0-14.5-6.5-14.5-14.5c0-8,6.5-14.5,14.5-14.5h44c8,0,14.5,6.5,14.5,14.5
				C1214.6,293.9,1208.1,300.4,1200.1,300.4z M1156,277.5c-4.7,0-8.4,3.8-8.4,8.4s3.8,8.4,8.4,8.4h44c4.7,0,8.4-3.8,8.4-8.4
				s-3.8-8.4-8.4-8.4H1156z"/>
		</g>
		<g>
			<path class="st1" d="M1154.6,277.5c-6.9,0-12.5-5.6-12.5-12.5s5.6-12.5,12.5-12.5h38c1.7,0,3,1.4,3,3c0,1.7-1.4,3-3,3h-38
				c-3.5,0-6.4,2.9-6.4,6.4c0,3.5,2.9,6.4,6.4,6.4c1.7,0,3,1.4,3,3C1157.6,276.1,1156.2,277.5,1154.6,277.5z"/>
		</g>
		<g>
			<path class="st1" d="M1156.1,341.6c-0.1,0-0.2,0-0.3,0c-0.3,0-32.2-2.7-54.1-3.9c-1.7-0.1-3-1.5-2.9-3.2c0.1-1.7,1.5-3,3.2-2.9
				c22.1,1.2,54,3.8,54.3,3.9c1.7,0.1,2.9,1.6,2.8,3.3C1159,340.4,1157.7,341.6,1156.1,341.6z"/>
		</g>
		<g>
			<path class="st1" d="M785,416.9c-0.6,0-1.2,0-1.8-0.1c-7.7-0.5-12.9-3-15.5-7.5c-3.6-6.3-0.6-14.3,1.5-18.4c1-2,2.5-5.8,2.8-7.1
				l0-0.2c0.6-3.3,1.2-6.5,2.9-9.8c3-5.7,7.4-5.9,10.6-4.9c3.6,1.1,4.4,4.5,5.1,7.5c0.4,1.8,0.9,3.9,2,6c2.4,4.6,9.7,20.4,4,29.2
				C794.4,415.1,790.4,416.9,785,416.9z M782.7,374.5c-0.8,0-1.5,0.5-2.4,2.2c-1.3,2.5-1.7,4.9-2.3,8l0,0.2l0,0
				c-0.4,2.3-2.4,6.9-3.3,8.7c-1.3,2.5-3.9,8.7-1.6,12.7c1.5,2.6,5.1,4.1,10.6,4.5c4,0.3,6.7-0.6,8-2.5c2.9-4.4-0.2-15.1-4.4-23.1
				c-1.4-2.8-2-5.4-2.5-7.5c-0.3-1.2-0.6-2.7-1-3.1C783.4,374.6,783.1,374.5,782.7,374.5z M775,384.4L775,384.4L775,384.4z"/>
		</g>
		<g>
			<path class="st1" d="M784.7,374.8c-1.1,0-2.1-0.6-2.6-1.5c-0.2-0.3-4.1-7.4-1.5-14.3c1.6-4.3,5.2-7.4,10.7-9.4
				c1.6-0.6,3.3,0.3,3.9,1.8c0.6,1.6-0.3,3.3-1.8,3.9c-3.7,1.3-6.1,3.3-7.1,5.8c-1.6,4.3,1.1,9.2,1.1,9.2c0.8,1.5,0.3,3.3-1.2,4.1
				C785.7,374.7,785.2,374.8,784.7,374.8z"/>
		</g>
		<g>
			<path class="st1" d="M808.8,408.2c-0.6,0-1.2-0.2-1.7-0.5c-1.4-0.9-1.8-2.8-0.9-4.2c8.9-13.4,0.5-21.4,0.5-21.5
				c-1.2-1.1-1.3-3.1-0.1-4.3c1.1-1.2,3.1-1.3,4.3-0.1c4.2,4,9.8,15.2,0.5,29.3C810.7,407.7,809.8,408.2,808.8,408.2z"/>
		</g>
		<g>
			<path class="st1" d="M757,408.2c-1,0-1.9-0.5-2.5-1.4c-9.3-14.1-3.8-25.3,0.5-29.3c1.2-1.1,3.1-1.1,4.3,0.1
				c1.1,1.2,1.1,3.1-0.1,4.3c-0.4,0.4-8.3,8.3,0.4,21.5c0.9,1.4,0.5,3.3-0.9,4.2C758.2,408,757.6,408.2,757,408.2z"/>
		</g>
		<g>
			<path class="st1" d="M987.7,385.7c-0.6,0-1.2-0.2-1.7-0.5c-5.1-3.4-14.2-32.8-20.2-58.8c-5.1-22.3-13.4-65.4-11.2-103
				c1.8-29.8,6.4-61.1,12.9-85.8c6.7-25.9,13.5-39,20.2-39c6.7,0,13.5,13.1,20.2,39c6.4,24.8,11.1,56,12.9,85.8
				c2.2,37.6-6.1,80.7-11.2,103c-6,26-15.1,55.4-20.2,58.8C988.9,385.6,988.3,385.7,987.7,385.7z M987.7,104.6
				c-1.7,0.6-7.7,8.1-14.7,35.9c-6.1,24.2-10.6,54.5-12.3,83.3c-3.5,59.9,19.1,137,27,153.5c7.9-16.5,30.5-93.6,27-153.5
				c-1.7-28.8-6.2-59.1-12.3-83.3C995.4,112.8,989.4,105.2,987.7,104.6z"/>
		</g>
		<g>
			<path class="st1" d="M994,395.3h-12.6c-1.7,0-3-1.4-3-3v-22.3c0-1.5,1.1-2.7,2.5-3c1.4-0.3,2.9,0.6,3.4,1.9
				c1.5,4,2.6,6.6,3.4,8.3c0.8-1.7,2-4.3,3.4-8.3c0.5-1.4,1.9-2.2,3.4-1.9c1.4,0.3,2.5,1.5,2.5,3v22.3
				C997,393.9,995.7,395.3,994,395.3z M984.5,389.2h6.5v-5.6c-0.7,1-1.2,1.3-1.6,1.6c-1,0.7-2.3,0.7-3.4,0c-0.3-0.2-0.8-0.6-1.6-1.6
				V389.2z M985.9,380.3L985.9,380.3L985.9,380.3z M989.5,380.3L989.5,380.3L989.5,380.3z"/>
		</g>
		<g>
			<path class="st1" d="M1004,339.6h-32.6c-1.4,0-2.6-0.9-2.9-2.3c-2.2-8.5-4.1-17.3-5.9-26.1c-0.2-0.9,0.1-1.8,0.6-2.5
				c0.6-0.7,1.4-1.1,2.3-1.1h44.3c0.9,0,1.8,0.4,2.3,1.1c0.6,0.7,0.8,1.6,0.6,2.5c-1.7,8.8-3.7,17.6-5.9,26.1
				C1006.6,338.7,1005.4,339.6,1004,339.6z M973.8,333.6h27.8c1.6-6.5,3.1-13.2,4.5-19.9h-36.9C970.7,320.4,972.2,327,973.8,333.6z"
				/>
		</g>
		<g>
			<path class="st1" d="M1004,339.6c-1.1,0-2.1-0.6-2.6-1.5c-0.8-1.5-0.3-3.3,1.1-4.1c0.2-0.1,11.2-6.5,18.3-20.1
				c9.5-18.2,7.7-40-5.4-64.8c-0.8-1.5-0.2-3.3,1.3-4.1c1.5-0.8,3.3-0.2,4.1,1.3c17.5,33.4,12.5,56.9,5.2,70.7
				c-7.9,15-20,22-20.5,22.3C1005,339.5,1004.5,339.6,1004,339.6z"/>
		</g>
		<g>
			<path class="st1" d="M1018.1,245.2c-0.7,0-1.4-0.2-2-0.7c-1.3-1.1-1.4-3-0.3-4.3c4.7-5.4,11.5-16.1,9.9-21.6
				c-0.2-0.7-0.7-2.2-1.5-2.2c0,0,0,0,0,0c-1.3,0.1-3.4,2.1-3.7,4c-0.3,1.6-1.8,2.8-3.5,2.5c-1.6-0.3-2.8-1.8-2.5-3.5
				c0.8-4.6,5.2-8.8,9.4-9c1.3-0.1,5.8,0.2,7.6,6.6c2.9,10.5-9.7,25.5-11.1,27.2C1019.8,244.8,1019,245.2,1018.1,245.2z"/>
		</g>
		<g>
			<path class="st1" d="M971.1,285.3c-1.4,0-2.7-1-3-2.5c-0.1-0.6-9.9-58.7,2.8-113.9c0.4-1.6,2-2.6,3.6-2.3c1.6,0.4,2.6,2,2.3,3.6
				c-12.4,54-2.8,111-2.7,111.5c0.3,1.6-0.8,3.2-2.5,3.5C971.4,285.3,971.3,285.3,971.1,285.3z"/>
		</g>
		<g>
			<path class="st1" d="M530.1,256.6c-1.7,0-3-1.4-3-3v-61c-1.2,0-2.5-0.1-3.9-0.2c-12.9-1-19.6-8.9-19.3-15.7
				c0.2-5.1,4.3-10.2,13-10.2c5,0,9.1,1.6,11.9,4.9c4.4,4.9,4.5,12.1,4.4,14.9c5.8-0.7,8.5-2.3,8.6-2.4c1.4-0.9,3.3-0.5,4.2,0.9
				c0.9,1.4,0.5,3.2-0.9,4.2c-0.2,0.1-4,2.6-11.9,3.4v61.3C533.2,255.3,531.8,256.6,530.1,256.6z M517,172.6c-4.2,0-6.9,1.7-7,4.3
				c-0.1,3.5,4,8.7,13.8,9.4c1.2,0.1,2.3,0.1,3.4,0.2c0.1-1,0.5-7.4-2.8-11.2C522.6,173.5,520.2,172.6,517,172.6z"/>
		</g>
		<g>
			<path class="st1" d="M505.2,113.1c-1,0-2-0.5-2.6-1.4l-8.5-13.4c-0.9-1.4-0.5-3.3,0.9-4.2c1.4-0.9,3.3-0.5,4.2,0.9l8.5,13.4
				c0.9,1.4,0.5,3.3-0.9,4.2C506.3,112.9,505.8,113.1,505.2,113.1z"/>
		</g>
		<g>
			<path class="st1" d="M534.5,108.4C534.5,108.4,534.5,108.4,534.5,108.4c-1.7,0-3-1.4-3-3l0.1-15.8c0-1.7,1.4-3,3-3c0,0,0,0,0,0
				c1.7,0,3,1.4,3,3l-0.1,15.8C537.5,107,536.2,108.4,534.5,108.4z"/>
		</g>
		<g>
			<path class="st1" d="M475.8,129.7c-0.8,0-1.7-0.3-2.3-1L463,116.9c-1.1-1.2-1-3.2,0.2-4.3c1.2-1.1,3.2-1,4.3,0.2l10.5,11.8
				c1.1,1.2,1,3.2-0.2,4.3C477.3,129.4,476.6,129.7,475.8,129.7z"/>
		</g>
		<g>
			<path class="st1" d="M452.7,160.7c-0.3,0-0.6,0-0.9-0.1l-15.1-4.7c-1.6-0.5-2.5-2.2-2-3.8c0.5-1.6,2.2-2.5,3.8-2l15.1,4.7
				c1.6,0.5,2.5,2.2,2,3.8C455.1,159.9,453.9,160.7,452.7,160.7z"/>
		</g>
		<g>
			<path class="st1" d="M433.1,190.6c-1.6,0-2.9-1.2-3-2.8c-0.1-1.7,1.1-3.1,2.8-3.2l15.8-1.2c1.7-0.1,3.1,1.1,3.2,2.8
				c0.1,1.7-1.1,3.1-2.8,3.2l-15.8,1.2C433.3,190.6,433.2,190.6,433.1,190.6z"/>
		</g>
		<g>
			<path class="st1" d="M440,223.1c-1.2,0-2.4-0.8-2.8-2c-0.6-1.6,0.2-3.3,1.8-3.9l14.9-5.4c1.6-0.6,3.3,0.2,3.9,1.8
				c0.6,1.6-0.2,3.3-1.8,3.9l-14.9,5.4C440.7,223.1,440.3,223.1,440,223.1z"/>
		</g>
		<g>
			<path class="st1" d="M459.1,256.6c-0.9,0-1.7-0.4-2.3-1.1c-1.1-1.3-0.9-3.2,0.3-4.3l12-10.3c1.3-1.1,3.2-0.9,4.3,0.3
				c1.1,1.3,0.9,3.2-0.3,4.3l-12,10.3C460.5,256.4,459.8,256.6,459.1,256.6z"/>
		</g>
		<g>
			<path class="st1" d="M512.1,534.2H366.9c-1.7,0-3-1.4-3-3c0-1.7,1.4-3,3-3h145.2c1.7,0,3,1.4,3,3
				C515.2,532.8,513.8,534.2,512.1,534.2z"/>
		</g>
		<g>
			<path class="st1" d="M484.3,196.6c-4.4,0-8-3.6-8-8c0-4.4,3.6-8,8-8c4.4,0,8,3.6,8,8C492.3,193,488.7,196.6,484.3,196.6z
				 M484.3,186.6c-1.1,0-1.9,0.9-1.9,1.9c0,1.1,0.9,1.9,1.9,1.9s1.9-0.9,1.9-1.9C486.2,187.5,485.4,186.6,484.3,186.6z"/>
		</g>
		<g>
			<path class="st1" d="M497,222.9c-8,0-14.6-6.5-14.6-14.6s6.5-14.6,14.6-14.6c8,0,14.6,6.5,14.6,14.6S505,222.9,497,222.9z
				 M497,199.8c-4.7,0-8.5,3.8-8.5,8.5c0,4.7,3.8,8.5,8.5,8.5c4.7,0,8.5-3.8,8.5-8.5C505.5,203.6,501.7,199.8,497,199.8z"/>
		</g>
		<g>
			<path class="st1" d="M674,368.3c-11.7,0-21.2-9.5-21.2-21.2s9.5-21.2,21.2-21.2c11.7,0,21.2,9.5,21.2,21.2S685.7,368.3,674,368.3
				z M674,332c-8.3,0-15.1,6.8-15.1,15.1c0,8.3,6.8,15.1,15.1,15.1c8.3,0,15.1-6.8,15.1-15.1C689.2,338.8,682.4,332,674,332z"/>
		</g>
		<g>
			<path class="st1" d="M683.5,410.9c-9.6,0-17.3-7.8-17.3-17.3c0-9.5,7.8-17.3,17.3-17.3c9.6,0,17.3,7.8,17.3,17.3
				C700.8,403.2,693.1,410.9,683.5,410.9z M683.5,382.3c-6.2,0-11.3,5.1-11.3,11.3c0,6.2,5.1,11.3,11.3,11.3
				c6.2,0,11.3-5.1,11.3-11.3C694.8,387.4,689.7,382.3,683.5,382.3z"/>
		</g>
		<g>
			<path class="st1" d="M178.9,307.2c-0.1,0-0.2,0-0.3,0c-1.7-0.2-2.9-1.7-2.7-3.3c0.1-0.9,0.2-1.9,0.3-2.8c0.2-1.7,1.8-2.8,3.4-2.6
				c1.7,0.2,2.8,1.8,2.6,3.4c-0.1,0.9-0.2,1.8-0.3,2.6C181.7,306,180.4,307.2,178.9,307.2z M182.2,291c-0.3,0-0.6,0-0.9-0.1
				c-1.6-0.5-2.5-2.2-2-3.8c0.3-0.9,0.6-1.8,0.9-2.7c0.5-1.6,2.3-2.4,3.8-1.9c1.6,0.5,2.4,2.3,1.9,3.8c-0.3,0.8-0.6,1.7-0.8,2.5
				C184.7,290.2,183.5,291,182.2,291z M188.6,275.8c-0.5,0-1-0.1-1.4-0.4c-1.5-0.8-2-2.6-1.2-4.1c0.4-0.8,0.9-1.7,1.4-2.5
				c0.8-1.4,2.7-1.9,4.1-1.1c1.4,0.8,1.9,2.7,1.1,4.1c-0.4,0.8-0.9,1.5-1.3,2.3C190.7,275.2,189.7,275.8,188.6,275.8z M339.5,275.2
				c-1.1,0-2.1-0.6-2.7-1.6c-0.4-0.8-0.9-1.5-1.3-2.3c-0.8-1.4-0.4-3.3,1.1-4.1c1.4-0.8,3.3-0.4,4.1,1.1c0.5,0.8,0.9,1.6,1.4,2.5
				c0.8,1.5,0.3,3.3-1.2,4.1C340.5,275.1,340,275.2,339.5,275.2z M197.7,262.1c-0.7,0-1.3-0.2-1.9-0.7c-1.3-1.1-1.5-3-0.4-4.3
				c0.6-0.7,1.2-1.5,1.8-2.2c1.1-1.3,3-1.4,4.3-0.3c1.3,1.1,1.4,3,0.3,4.3c-0.6,0.7-1.2,1.3-1.7,2
				C199.5,261.7,198.6,262.1,197.7,262.1z M330.2,261.5c-0.9,0-1.7-0.4-2.3-1.1c-0.6-0.7-1.1-1.4-1.7-2c-1.1-1.3-1-3.2,0.3-4.3
				c1.3-1.1,3.2-1,4.3,0.3c0.6,0.7,1.2,1.4,1.9,2.2c1.1,1.3,0.9,3.2-0.4,4.3C331.6,261.3,330.9,261.5,330.2,261.5z M209.3,250.4
				c-0.9,0-1.7-0.4-2.3-1.1c-1.1-1.3-0.9-3.2,0.4-4.3c0.7-0.6,1.5-1.2,2.2-1.8c1.3-1,3.2-0.8,4.2,0.5c1,1.3,0.8,3.2-0.5,4.2
				c-0.7,0.5-1.4,1.1-2.1,1.7C210.7,250.1,210,250.4,209.3,250.4z M318.5,249.9c-0.7,0-1.4-0.2-1.9-0.7c-0.7-0.6-1.4-1.1-2.1-1.6
				c-1.3-1-1.6-2.9-0.6-4.2c1-1.3,2.9-1.6,4.2-0.6c0.8,0.6,1.5,1.2,2.2,1.8c1.3,1.1,1.5,3,0.4,4.3
				C320.3,249.5,319.4,249.9,318.5,249.9z M223,241.1c-1.1,0-2.1-0.6-2.7-1.6c-0.8-1.5-0.3-3.3,1.2-4.1c0.8-0.5,1.7-0.9,2.5-1.3
				c1.5-0.8,3.3-0.2,4.1,1.3c0.8,1.5,0.2,3.3-1.3,4.1c-0.8,0.4-1.6,0.8-2.3,1.2C224,241,223.5,241.1,223,241.1z M304.8,240.8
				c-0.5,0-1-0.1-1.4-0.4c-0.8-0.4-1.6-0.8-2.4-1.2c-1.5-0.7-2.1-2.6-1.4-4.1c0.7-1.5,2.6-2.1,4.1-1.4c0.9,0.4,1.7,0.9,2.5,1.3
				c1.5,0.8,2,2.6,1.2,4.1C307,240.2,305.9,240.8,304.8,240.8z M238.1,234.6c-1.3,0-2.5-0.8-2.9-2.1c-0.5-1.6,0.4-3.3,2-3.8
				c0.9-0.3,1.8-0.6,2.7-0.8c1.6-0.5,3.3,0.5,3.7,2.1c0.5,1.6-0.5,3.3-2.1,3.7c-0.9,0.2-1.7,0.5-2.5,0.8
				C238.7,234.5,238.4,234.6,238.1,234.6z M289.6,234.4c-0.3,0-0.6,0-0.9-0.1c-0.8-0.3-1.7-0.5-2.5-0.7c-1.6-0.4-2.6-2.1-2.1-3.7
				c0.4-1.6,2.1-2.6,3.7-2.1c0.9,0.3,1.8,0.5,2.7,0.8c1.6,0.5,2.5,2.2,2,3.8C292.1,233.5,290.9,234.4,289.6,234.4z M254.2,231.1
				c-1.5,0-2.8-1.1-3-2.7c-0.2-1.7,1-3.2,2.7-3.4c0.9-0.1,1.9-0.2,2.8-0.3c1.7-0.1,3.1,1.1,3.3,2.8c0.1,1.7-1.1,3.1-2.8,3.3
				c-0.9,0.1-1.8,0.2-2.6,0.3C254.5,231.1,254.4,231.1,254.2,231.1z M273.5,231c-0.1,0-0.2,0-0.3,0c-0.9-0.1-1.8-0.2-2.6-0.2
				c-1.7-0.1-2.9-1.6-2.8-3.2c0.1-1.7,1.6-2.9,3.2-2.8c1,0.1,1.9,0.2,2.8,0.3c1.7,0.2,2.9,1.7,2.7,3.3
				C276.3,229.9,275,231,273.5,231z"/>
		</g>
		<g>
			<path class="st1" d="M273.5,214.6c-1.7,0-3-1.4-3-3V211c0-0.8,0-1.6,0.1-2.3c0.1-1.7,1.5-3,3.2-2.9c1.7,0.1,3,1.5,2.9,3.2
				c0,0.7,0,1.4,0,2.1v0.6C276.6,213.3,275.2,214.6,273.5,214.6z M276.4,198.4c-0.4,0-0.7-0.1-1.1-0.2c-1.6-0.6-2.4-2.3-1.8-3.9
				c0.3-0.9,0.7-1.8,1.1-2.7c0.7-1.5,2.5-2.2,4-1.5c1.5,0.7,2.2,2.5,1.5,4c-0.4,0.8-0.7,1.6-1,2.4
				C278.7,197.7,277.6,198.4,276.4,198.4z M284.9,184.4c-0.7,0-1.5-0.3-2-0.8c-1.2-1.1-1.3-3-0.2-4.3c0.7-0.7,1.3-1.4,2-2.1
				c1.2-1.2,3.1-1.1,4.3,0c1.2,1.2,1.1,3.1,0,4.3c-0.6,0.6-1.2,1.2-1.8,1.9C286.6,184.1,285.7,184.4,284.9,184.4z M298,174.5
				c-1.1,0-2.2-0.6-2.7-1.7c-0.7-1.5-0.1-3.3,1.4-4.1c0.9-0.4,1.8-0.8,2.7-1.2c1.5-0.7,3.3,0.1,4,1.6c0.7,1.5-0.1,3.3-1.6,4
				c-0.8,0.3-1.6,0.7-2.3,1.1C298.9,174.4,298.4,174.5,298,174.5z M313.8,170c-1.6,0-2.9-1.2-3-2.8c-0.1-1.7,1.1-3.1,2.7-3.3
				c1-0.1,2-0.1,2.9-0.2c0,0,0.1,0,0.1,0c1.6,0,3,1.3,3,2.9c0,1.7-1.3,3.1-2.9,3.1c-0.8,0-1.7,0.1-2.6,0.1
				C314,170,313.9,170,313.8,170z M415.6,169.8h-2.8c-1.7,0-3-1.4-3-3c0-1.7,1.4-3,3-3h2.8c1.7,0,3,1.4,3,3
				C418.7,168.5,417.3,169.8,415.6,169.8z M399.1,169.8h-2.8c-1.7,0-3-1.4-3-3c0-1.7,1.4-3,3-3h2.8c1.7,0,3,1.4,3,3
				C402.2,168.5,400.8,169.8,399.1,169.8z M382.6,169.8h-2.8c-1.7,0-3-1.4-3-3c0-1.7,1.4-3,3-3h2.8c1.7,0,3,1.4,3,3
				C385.6,168.5,384.3,169.8,382.6,169.8z M366.1,169.8h-2.8c-1.7,0-3-1.4-3-3c0-1.7,1.4-3,3-3h2.8c1.7,0,3,1.4,3,3
				C369.1,168.5,367.8,169.8,366.1,169.8z M349.6,169.8h-2.8c-1.7,0-3-1.4-3-3c0-1.7,1.4-3,3-3h2.8c1.7,0,3,1.4,3,3
				C352.6,168.5,351.2,169.8,349.6,169.8z M333,169.8h-2.8c-1.7,0-3-1.4-3-3c0-1.7,1.4-3,3-3h2.8c1.7,0,3,1.4,3,3
				C336.1,168.5,334.7,169.8,333,169.8z"/>
		</g>
		<g>
			<path class="st1" d="M603.3,442h-2.8c-1.7,0-3-1.4-3-3c0-1.7,1.4-3,3-3h2.8c1.7,0,3,1.4,3,3C606.4,440.6,605,442,603.3,442z
				 M586.8,442h-2.8c-1.7,0-3-1.4-3-3c0-1.7,1.4-3,3-3h2.8c1.7,0,3,1.4,3,3C589.8,440.6,588.5,442,586.8,442z M570.3,442h-2.8
				c-1.7,0-3-1.4-3-3c0-1.7,1.4-3,3-3h2.8c1.7,0,3,1.4,3,3C573.3,440.6,572,442,570.3,442z M553.9,440.6c-0.2,0-0.5,0-0.7-0.1
				c-0.9-0.2-1.9-0.5-2.8-0.8c-1.6-0.5-2.5-2.2-2-3.8c0.5-1.6,2.2-2.5,3.8-2c0.8,0.3,1.6,0.5,2.5,0.7c1.6,0.4,2.6,2.1,2.2,3.7
				C556.5,439.7,555.2,440.6,553.9,440.6z M539,433.6c-0.6,0-1.2-0.2-1.8-0.6c-0.8-0.6-1.6-1.2-2.3-1.8c-1.3-1.1-1.5-3-0.4-4.3
				c1.1-1.3,3-1.5,4.3-0.4c0.7,0.5,1.3,1.1,2,1.6c1.4,1,1.6,2.9,0.7,4.2C540.9,433.2,540,433.6,539,433.6z M527.8,421.6
				c-1,0-2-0.5-2.6-1.4c-0.5-0.8-1-1.7-1.5-2.5c-0.8-1.5-0.3-3.3,1.2-4.1c1.5-0.8,3.3-0.3,4.1,1.2c0.4,0.7,0.8,1.5,1.3,2.2
				c0.9,1.4,0.5,3.3-0.9,4.2C528.9,421.5,528.4,421.6,527.8,421.6z M521.8,406.3c-1.4,0-2.7-1-3-2.5c-0.2-1-0.3-1.9-0.4-2.9
				c-0.2-1.7,1-3.2,2.6-3.4c1.7-0.2,3.2,1,3.4,2.6c0.1,0.8,0.2,1.7,0.4,2.5c0.3,1.6-0.8,3.2-2.4,3.5
				C522.2,406.3,522,406.3,521.8,406.3z M521.1,389.9c-1.7,0-3-1.4-3-3v-2.8c0-1.7,1.4-3,3-3c1.7,0,3,1.4,3,3v2.8
				C524.2,388.5,522.8,389.9,521.1,389.9z M521.1,373.3c-1.7,0-3-1.4-3-3v-2.8c0-1.7,1.4-3,3-3c1.7,0,3,1.4,3,3v2.8
				C524.2,372,522.8,373.3,521.1,373.3z M521.1,356.8c-1.7,0-3-1.4-3-3V351c0-1.7,1.4-3,3-3c1.7,0,3,1.4,3,3v2.8
				C524.2,355.5,522.8,356.8,521.1,356.8z"/>
		</g>
		<g>
			<path class="st1" d="M112.5,466.6c-0.7,0-1.4-0.2-1.9-0.7l-2.1-1.8c-1.3-1.1-1.5-3-0.4-4.3c1.1-1.3,3-1.5,4.3-0.4l2.1,1.8
				c1.3,1.1,1.5,3,0.4,4.3C114.2,466.2,113.4,466.6,112.5,466.6z M99.8,456c-0.7,0-1.4-0.2-1.9-0.7l-2.1-1.8c-1.3-1.1-1.5-3-0.4-4.3
				c1.1-1.3,3-1.5,4.3-0.4l2.1,1.8c1.3,1.1,1.5,3,0.4,4.3C101.5,455.6,100.7,456,99.8,456z M87.1,445.4c-0.7,0-1.4-0.2-1.9-0.7
				l-2.1-1.8c-1.3-1.1-1.5-3-0.4-4.3c1.1-1.3,3-1.5,4.3-0.4l2.1,1.8c1.3,1.1,1.5,3,0.4,4.3C88.9,445,88,445.4,87.1,445.4z
				 M74.5,434.8c-0.7,0-1.4-0.2-1.9-0.7l-2.1-1.8c-1.3-1.1-1.5-3-0.4-4.3c1.1-1.3,3-1.5,4.3-0.4l2.1,1.8c1.3,1.1,1.5,3,0.4,4.3
				C76.2,434.4,75.3,434.8,74.5,434.8z M61.8,424.2c-0.7,0-1.4-0.2-1.9-0.7l-2.1-1.8c-1.3-1.1-1.5-3-0.4-4.3c1.1-1.3,3-1.5,4.3-0.4
				l2.1,1.8c1.3,1.1,1.5,3,0.4,4.3C63.5,423.8,62.7,424.2,61.8,424.2z"/>
		</g>
		<g>
			<path class="st1" d="M855.3,159.6c-1.7,0-3-1.4-3-3v-2.8c0-1.7,1.4-3,3-3c1.7,0,3,1.4,3,3v2.8C858.4,158.2,857,159.6,855.3,159.6
				z M855.3,143.1c-1.7,0-3-1.4-3-3v-2.8c0-1.7,1.4-3,3-3c1.7,0,3,1.4,3,3v2.8C858.4,141.7,857,143.1,855.3,143.1z M855.3,126.5
				c-1.7,0-3-1.4-3-3v-2.8c0-1.7,1.4-3,3-3c1.7,0,3,1.4,3,3v2.8C858.4,125.2,857,126.5,855.3,126.5z"/>
		</g>
		<g>
			<path class="st1" d="M514.3,81.2c-1.7,0-3-1.4-3-3c0-1,0-1.9,0.1-2.9c0.1-1.7,1.5-3,3.2-2.9c1.7,0.1,3,1.5,2.9,3.2
				c0,0.9-0.1,1.7-0.1,2.6C517.3,79.8,516,81.2,514.3,81.2z M516.8,64.9c-0.3,0-0.6,0-0.9-0.1c-1.6-0.5-2.5-2.2-2-3.8
				c0.3-0.9,0.6-1.8,1-2.8c0.6-1.6,2.3-2.4,3.9-1.8c1.6,0.6,2.4,2.3,1.8,3.9c-0.3,0.8-0.6,1.6-0.9,2.5
				C519.3,64.1,518.1,64.9,516.8,64.9z M524.2,50.2c-0.6,0-1.2-0.2-1.8-0.6c-1.4-1-1.7-2.9-0.7-4.2c0.6-0.8,1.1-1.6,1.7-2.3
				c1-1.3,2.9-1.5,4.3-0.5c1.3,1,1.5,2.9,0.5,4.3c-0.5,0.7-1.1,1.4-1.6,2.1C526,49.7,525.1,50.2,524.2,50.2z M535.6,38.4
				c-0.9,0-1.8-0.4-2.4-1.2c-1-1.3-0.7-3.2,0.6-4.2c0.8-0.6,1.6-1.1,2.4-1.7c1.4-0.9,3.3-0.6,4.2,0.8c0.9,1.4,0.6,3.3-0.8,4.2
				c-0.7,0.5-1.4,1-2.1,1.5C536.9,38.2,536.3,38.4,535.6,38.4z M550.1,30.6c-1.3,0-2.4-0.8-2.9-2c-0.6-1.6,0.3-3.3,1.9-3.9
				c0.9-0.3,1.8-0.6,2.8-0.9c1.6-0.5,3.3,0.4,3.8,2.1c0.5,1.6-0.4,3.3-2.1,3.8c-0.8,0.2-1.7,0.5-2.5,0.8
				C550.8,30.6,550.5,30.6,550.1,30.6z M566.3,27.6c-1.6,0-3-1.3-3-2.9c0-1.7,1.3-3.1,2.9-3.1c0.5,0,1.1,0,1.6,0h1.2
				c1.7,0,3,1.4,3,3c0,1.7-1.4,3-3,3h-1.2C567.4,27.6,566.9,27.6,566.3,27.6C566.4,27.6,566.3,27.6,566.3,27.6z M717.7,27.6H715
				c-1.7,0-3-1.4-3-3c0-1.7,1.4-3,3-3h2.8c1.7,0,3,1.4,3,3C720.7,26.2,719.4,27.6,717.7,27.6z M701.2,27.6h-2.8c-1.7,0-3-1.4-3-3
				c0-1.7,1.4-3,3-3h2.8c1.7,0,3,1.4,3,3C704.2,26.2,702.9,27.6,701.2,27.6z M684.7,27.6h-2.8c-1.7,0-3-1.4-3-3c0-1.7,1.4-3,3-3h2.8
				c1.7,0,3,1.4,3,3C687.7,26.2,686.4,27.6,684.7,27.6z M668.2,27.6h-2.8c-1.7,0-3-1.4-3-3c0-1.7,1.4-3,3-3h2.8c1.7,0,3,1.4,3,3
				C671.2,26.2,669.8,27.6,668.2,27.6z M651.6,27.6h-2.8c-1.7,0-3-1.4-3-3c0-1.7,1.4-3,3-3h2.8c1.7,0,3,1.4,3,3
				C654.7,26.2,653.3,27.6,651.6,27.6z M635.1,27.6h-2.8c-1.7,0-3-1.4-3-3c0-1.7,1.4-3,3-3h2.8c1.7,0,3,1.4,3,3
				C638.2,26.2,636.8,27.6,635.1,27.6z M618.6,27.6h-2.8c-1.7,0-3-1.4-3-3c0-1.7,1.4-3,3-3h2.8c1.7,0,3,1.4,3,3
				C621.6,26.2,620.3,27.6,618.6,27.6z M602.1,27.6h-2.8c-1.7,0-3-1.4-3-3c0-1.7,1.4-3,3-3h2.8c1.7,0,3,1.4,3,3
				C605.1,26.2,603.8,27.6,602.1,27.6z M585.6,27.6h-2.8c-1.7,0-3-1.4-3-3c0-1.7,1.4-3,3-3h2.8c1.7,0,3,1.4,3,3
				C588.6,26.2,587.2,27.6,585.6,27.6z"/>
		</g>
		<g>
			<path class="st1" d="M1247.2,570.4h-2.8c-1.7,0-3-1.4-3-3c0-1.7,1.4-3,3-3h2.8c1.7,0,3,1.4,3,3
				C1250.2,569,1248.8,570.4,1247.2,570.4z M1230.7,570.4h-2.8c-1.7,0-3-1.4-3-3c0-1.7,1.4-3,3-3h2.8c1.7,0,3,1.4,3,3
				C1233.7,569,1232.3,570.4,1230.7,570.4z M1214.1,570.4h-2.8c-1.7,0-3-1.4-3-3c0-1.7,1.4-3,3-3h2.8c1.7,0,3,1.4,3,3
				C1217.2,569,1215.8,570.4,1214.1,570.4z M1197.6,570.4h-2.8c-1.7,0-3-1.4-3-3c0-1.7,1.4-3,3-3h2.8c1.7,0,3,1.4,3,3
				C1200.6,569,1199.3,570.4,1197.6,570.4z M1181.1,570.4h-2.8c-1.7,0-3-1.4-3-3c0-1.7,1.4-3,3-3h2.8c1.7,0,3,1.4,3,3
				C1184.1,569,1182.8,570.4,1181.1,570.4z M1164.6,570.4h-2.8c-1.7,0-3-1.4-3-3c0-1.7,1.4-3,3-3h2.8c1.7,0,3,1.4,3,3
				C1167.6,569,1166.3,570.4,1164.6,570.4z M1148.1,570.4h-2.8c-1.7,0-3-1.4-3-3c0-1.7,1.4-3,3-3h2.8c1.7,0,3,1.4,3,3
				C1151.1,569,1149.7,570.4,1148.1,570.4z M1131.5,570.4h-2.8c-1.7,0-3-1.4-3-3c0-1.7,1.4-3,3-3h2.8c1.7,0,3,1.4,3,3
				C1134.6,569,1133.2,570.4,1131.5,570.4z M1115,570.4h-2.8c-1.7,0-3-1.4-3-3c0-1.7,1.4-3,3-3h2.8c1.7,0,3,1.4,3,3
				C1118.1,569,1116.7,570.4,1115,570.4z M1098.5,570.4h-2.8c-1.7,0-3-1.4-3-3c0-1.7,1.4-3,3-3h2.8c1.7,0,3,1.4,3,3
				C1101.5,569,1100.2,570.4,1098.5,570.4z M1082,570.4h-2.8c-1.7,0-3-1.4-3-3c0-1.7,1.4-3,3-3h2.8c1.7,0,3,1.4,3,3
				C1085,569,1083.7,570.4,1082,570.4z M1065.5,570.4h-2.8c-1.7,0-3-1.4-3-3c0-1.7,1.4-3,3-3h2.8c1.7,0,3,1.4,3,3
				C1068.5,569,1067.1,570.4,1065.5,570.4z M1048.9,570.4h-2.8c-1.7,0-3-1.4-3-3c0-1.7,1.4-3,3-3h2.8c1.7,0,3,1.4,3,3
				C1052,569,1050.6,570.4,1048.9,570.4z M1032.4,570.4h-2.8c-1.7,0-3-1.4-3-3c0-1.7,1.4-3,3-3h2.8c1.7,0,3,1.4,3,3
				C1035.5,569,1034.1,570.4,1032.4,570.4z M1015.9,570.4h-2.8c-1.7,0-3-1.4-3-3c0-1.7,1.4-3,3-3h2.8c1.7,0,3,1.4,3,3
				C1018.9,569,1017.6,570.4,1015.9,570.4z M999.4,570.4h-2.8c-1.7,0-3-1.4-3-3c0-1.7,1.4-3,3-3h2.8c1.7,0,3,1.4,3,3
				C1002.4,569,1001.1,570.4,999.4,570.4z"/>
		</g>
		<g>
			<path class="st1" d="M1441.6,326.4c-1.7,0-3-1.4-3-3v-2.8c0-1.7,1.4-3,3-3s3,1.4,3,3v2.8C1444.6,325,1443.3,326.4,1441.6,326.4z
				 M1441.6,309.9c-1.7,0-3-1.4-3-3v-2.8c0-1.7,1.4-3,3-3s3,1.4,3,3v2.8C1444.6,308.5,1443.3,309.9,1441.6,309.9z M1441.6,293.3
				c-1.7,0-3-1.4-3-3v-2.8c0-1.7,1.4-3,3-3s3,1.4,3,3v2.8C1444.6,292,1443.3,293.3,1441.6,293.3z M1441.6,276.8c-1.7,0-3-1.4-3-3
				V271c0-1.7,1.4-3,3-3s3,1.4,3,3v2.8C1444.6,275.5,1443.3,276.8,1441.6,276.8z M1441.6,260.3c-1.7,0-3-1.4-3-3v-2.8
				c0-1.7,1.4-3,3-3s3,1.4,3,3v2.8C1444.6,258.9,1443.3,260.3,1441.6,260.3z M1441.6,243.8c-1.7,0-3-1.4-3-3V238
				c0-1.7,1.4-3.1,3-3.1s3,1.3,3,3v2.8C1444.6,242.4,1443.3,243.8,1441.6,243.8z M1440.2,227.4c-1.4,0-2.7-1-3-2.4
				c-0.2-0.9-0.4-1.7-0.6-2.6c-0.4-1.6,0.6-3.3,2.2-3.7c1.6-0.4,3.3,0.6,3.7,2.2c0.2,0.9,0.5,1.9,0.7,2.8c0.3,1.6-0.7,3.2-2.3,3.6
				C1440.6,227.3,1440.4,227.4,1440.2,227.4z M1434.8,211.8c-1.1,0-2.2-0.6-2.7-1.7c-0.4-0.8-0.8-1.6-1.2-2.3
				c-0.8-1.5-0.3-3.3,1.2-4.1c1.5-0.8,3.3-0.3,4.1,1.2c0.5,0.8,0.9,1.7,1.3,2.5c0.7,1.5,0.1,3.3-1.4,4.1
				C1435.7,211.7,1435.2,211.8,1434.8,211.8z M1425.7,198.1c-0.9,0-1.7-0.4-2.3-1.1c-0.6-0.7-1.2-1.3-1.7-2
				c-1.1-1.2-1.1-3.1,0.1-4.3c1.2-1.1,3.1-1.1,4.3,0.1c0.7,0.7,1.3,1.4,1.9,2.1c1.1,1.3,0.9,3.2-0.3,4.3
				C1427.1,197.8,1426.4,198.1,1425.7,198.1z M1413.5,187c-0.6,0-1.2-0.2-1.7-0.6c-0.7-0.5-1.4-1-2.2-1.5c-1.4-0.9-1.8-2.8-0.9-4.2
				c0.9-1.4,2.8-1.8,4.2-0.9c0.8,0.5,1.6,1.1,2.4,1.6c1.4,1,1.7,2.9,0.7,4.2C1415.4,186.5,1414.5,187,1413.5,187z M1399,179.3
				c-0.4,0-0.7-0.1-1.1-0.2c-0.8-0.3-1.6-0.6-2.5-0.9c-1.6-0.5-2.4-2.2-1.9-3.8c0.5-1.6,2.2-2.4,3.8-1.9c0.9,0.3,1.8,0.6,2.7,1
				c1.6,0.6,2.3,2.3,1.8,3.9C1401.3,178.5,1400.2,179.3,1399,179.3z M1382.9,175.4c-0.1,0-0.2,0-0.3,0c-0.9-0.1-1.7-0.2-2.6-0.2
				c-1.7-0.1-2.9-1.6-2.8-3.2c0.1-1.7,1.6-2.9,3.2-2.8c1,0.1,1.9,0.2,2.9,0.3c1.7,0.2,2.9,1.7,2.7,3.3
				C1385.8,174.3,1384.5,175.4,1382.9,175.4z M1366.4,175h-2.8c-1.7,0-3-1.4-3-3s1.4-3,3-3h2.8c1.7,0,3,1.4,3,3
				S1368.1,175,1366.4,175z M1349.9,175h-2.8c-1.7,0-3-1.4-3-3s1.4-3,3-3h2.8c1.7,0,3,1.4,3,3S1351.6,175,1349.9,175z M1333.4,175
				h-2.8c-1.7,0-3-1.4-3-3s1.4-3,3-3h2.8c1.7,0,3,1.4,3,3S1335.1,175,1333.4,175z M1316.9,175h-2.8c-1.7,0-3-1.4-3-3s1.4-3,3-3h2.8
				c1.7,0,3,1.4,3,3S1318.5,175,1316.9,175z M1300.4,175h-2.8c-1.7,0-3-1.4-3-3s1.4-3,3-3h2.8c1.7,0,3,1.4,3,3S1302,175,1300.4,175z
				 M1283.8,175h-2.8c-1.7,0-3-1.4-3-3s1.4-3,3-3h2.8c1.7,0,3,1.4,3,3S1285.5,175,1283.8,175z"/>
		</g>
		<g>
			<path class="st1" d="M1419.3,619.3h-174.7c-1.7,0-3-1.4-3-3c0-1.7,1.4-3,3-3h174.7c1.7,0,3,1.4,3,3
				C1422.3,618,1421,619.3,1419.3,619.3z"/>
		</g>
		<g>
			<path class="st1" d="M1482.1,453.8c-1,0-2-0.5-2.6-1.4c-0.9-1.4-0.5-3.3,0.9-4.2l1.7-1.1c1.4-0.9,3.3-0.5,4.2,0.9
				c0.9,1.4,0.5,3.3-0.9,4.2l-1.7,1.1C1483.2,453.6,1482.7,453.8,1482.1,453.8z"/>
		</g>
		<g>
			<path class="st1" d="M1429.8,544.9c-1.7,0-3-1.4-3-3v-1.7c0-1.7,1.4-3,3-3c1.7,0,3,1.4,3,3v1.7
				C1432.9,543.5,1431.5,544.9,1429.8,544.9z"/>
		</g>
		<g>
			<path class="st1" d="M1383.8,561.1c-0.8,0-1.6-0.3-2.1-0.9l-0.8-0.8c-1.2-1.2-1.2-3.1,0-4.3c1.2-1.2,3.1-1.2,4.3,0l0.8,0.8
				c1.2,1.2,1.2,3.1,0,4.3C1385.3,560.8,1384.5,561.1,1383.8,561.1z"/>
		</g>
		<g>
			<path class="st1" d="M1431.1,619.3h-1.2c-1.7,0-3-1.4-3-3c0-1.7,1.4-3,3-3h1.2c1.7,0,3,1.4,3,3
				C1434.1,618,1432.8,619.3,1431.1,619.3z"/>
		</g>
		<g>
			<path class="st1" d="M1276.3,542.6h-1.5c-1.7,0-3-1.4-3-3c0-1.7,1.4-3,3-3h1.5c1.7,0,3,1.4,3,3
				C1279.3,541.2,1277.9,542.6,1276.3,542.6z"/>
		</g>
		<g>
			<path class="st1" d="M975.8,164.7c-0.4,0-0.8-0.1-1.2-0.3c-1.5-0.7-2.2-2.5-1.5-4l0.9-2.1c0.7-1.5,2.5-2.2,4-1.5
				c1.5,0.7,2.2,2.5,1.5,4l-0.9,2.1C978.1,164,977,164.7,975.8,164.7z"/>
		</g>
		<g>
			<path class="st1" d="M973.8,294.3c-1.3,0-2.4-0.8-2.9-2l-0.7-1.9c-0.6-1.6,0.3-3.3,1.9-3.9c1.6-0.6,3.3,0.3,3.9,1.9l0.7,1.9
				c0.6,1.6-0.3,3.3-1.9,3.9C974.5,294.2,974.1,294.3,973.8,294.3z"/>
		</g>
		<g>
			<path class="st1" d="M908.2,238.6c-1.7,0-3-1.4-3-3v-2.1c0-1.7,1.4-3,3-3c1.7,0,3,1.4,3,3v2.1
				C911.2,237.3,909.8,238.6,908.2,238.6z"/>
		</g>
		<g>
			<path class="st1" d="M912.8,304.7h-1.6c-1.7,0-3-1.4-3-3c0-1.7,1.4-3,3-3h1.6c1.7,0,3,1.4,3,3
				C915.8,303.3,914.5,304.7,912.8,304.7z"/>
		</g>
		<g>
			<path class="st1" d="M663.8,486h-2.5c-1.7,0-3-1.4-3-3s1.4-3,3-3h2.5c1.7,0,3,1.4,3,3S665.5,486,663.8,486z"/>
		</g>
		<g>
			<path class="st1" d="M525.2,534.2h-1.9c-1.7,0-3-1.4-3-3c0-1.7,1.4-3,3-3h1.9c1.7,0,3,1.4,3,3
				C528.2,532.8,526.9,534.2,525.2,534.2z"/>
		</g>
		<g>
			<path class="st1" d="M668.4,619.3h-2.6c-1.7,0-3-1.4-3-3c0-1.7,1.4-3,3-3h2.6c1.7,0,3,1.4,3,3C671.5,618,670.1,619.3,668.4,619.3
				z"/>
		</g>
		<g>
			<path class="st1" d="M282.2,609.5h-3.8c-1.7,0-3-1.4-3-3c0-1.7,1.4-3,3-3h3.8c1.7,0,3,1.4,3,3
				C285.2,608.2,283.8,609.5,282.2,609.5z"/>
		</g>
		<g>
			<path class="st1" d="M259.4,278h-1.2c-1.7,0-3-1.4-3-3s1.4-3,3-3h1.2c1.7,0,3,1.4,3,3S261.1,278,259.4,278z"/>
		</g>
		<g>
			<path class="st1" d="M338.1,307.8c-1.3,0-2.6-0.9-2.9-2.3l-0.6-2.2c-0.4-1.6,0.5-3.3,2.2-3.7c1.6-0.4,3.3,0.5,3.7,2.2l0.6,2.2
				c0.4,1.6-0.5,3.3-2.2,3.7C338.6,307.8,338.3,307.8,338.1,307.8z"/>
		</g>
		<g>
			<path class="st1" d="M936.3,502.7h-289c-13.5,0-24.4-11-24.4-24.4V301.8c0-13.5,11-24.4,24.4-24.4h289c13.5,0,24.4,11,24.4,24.4
				v176.4C960.7,491.7,949.8,502.7,936.3,502.7z M647.3,283.4c-10.1,0-18.4,8.2-18.4,18.4v176.4c0,10.1,8.2,18.4,18.4,18.4h289
				c10.1,0,18.4-8.2,18.4-18.4V301.8c0-10.1-8.2-18.4-18.4-18.4H647.3z"/>
		</g>
	</g>
</g>
</svg>
