<?xml version="1.0" encoding="utf-8"?>
<!-- Generator: Adobe Illustrator 20.1.0, SVG Export Plug-In . SVG Version: 6.00 Build 0)  -->
<!DOCTYPE svg PUBLIC "-//W3C//DTD SVG 1.1//EN" "http://www.w3.org/Graphics/SVG/1.1/DTD/svg11.dtd">
<svg version="1.1" id="Illustration" xmlns="http://www.w3.org/2000/svg" xmlns:xlink="http://www.w3.org/1999/xlink" x="0px"
	 y="0px" viewBox="0 0 1573.6 637.9" style="enable-background:new 0 0 1573.6 637.9;" xml:space="preserve">
<style type="text/css">
	.st0{opacity:0.4;}
	.st1{fill:#0084AD;}
</style>
<g class="st0">
	<g>
		<g>
			<g>
				<path class="st1" d="M1072.2,313.3c-1.7,0-3.2-1.4-3.2-3.2v-6c0-1.7,1.4-3.2,3.2-3.2c1.7,0,3.2,1.4,3.2,3.2v6
					C1075.3,311.9,1073.9,313.3,1072.2,313.3z"/>
			</g>
			<g>
				<path class="st1" d="M1072.2,347.6c-1.7,0-3.2-1.4-3.2-3.2v-6c0-1.7,1.4-3.2,3.2-3.2c1.7,0,3.2,1.4,3.2,3.2v6
					C1075.3,346.2,1073.9,347.6,1072.2,347.6z"/>
			</g>
			<g>
				<path class="st1" d="M1092.3,327.5h-6c-1.7,0-3.2-1.4-3.2-3.2c0-1.7,1.4-3.2,3.2-3.2h6c1.7,0,3.2,1.4,3.2,3.2
					C1095.5,326.1,1094.1,327.5,1092.3,327.5z"/>
			</g>
			<g>
				<path class="st1" d="M1058,327.5h-6c-1.7,0-3.2-1.4-3.2-3.2c0-1.7,1.4-3.2,3.2-3.2h6c1.7,0,3.2,1.4,3.2,3.2
					C1061.2,326.1,1059.8,327.5,1058,327.5z"/>
			</g>
		</g>
		<g>
			<g>
				<path class="st1" d="M48.1,437.8c-1.7,0-3.2-1.4-3.2-3.2v-6c0-1.7,1.4-3.2,3.2-3.2c1.7,0,3.2,1.4,3.2,3.2v6
					C51.2,436.4,49.8,437.8,48.1,437.8z"/>
			</g>
			<g>
				<path class="st1" d="M48.1,472.1c-1.7,0-3.2-1.4-3.2-3.2v-6c0-1.7,1.4-3.2,3.2-3.2c1.7,0,3.2,1.4,3.2,3.2v6
					C51.2,470.7,49.8,472.1,48.1,472.1z"/>
			</g>
			<g>
				<path class="st1" d="M68.2,451.9h-6c-1.7,0-3.2-1.4-3.2-3.2c0-1.7,1.4-3.2,3.2-3.2h6c1.7,0,3.2,1.4,3.2,3.2
					C71.4,450.5,70,451.9,68.2,451.9z"/>
			</g>
			<g>
				<path class="st1" d="M33.9,451.9h-6c-1.7,0-3.2-1.4-3.2-3.2c0-1.7,1.4-3.2,3.2-3.2h6c1.7,0,3.2,1.4,3.2,3.2
					C37.1,450.5,35.7,451.9,33.9,451.9z"/>
			</g>
		</g>
		<g>
			<g>
				<path class="st1" d="M1084.7,174.1c-1.7,0-3.2-1.4-3.2-3.2v-4.1c0-1.7,1.4-3.2,3.2-3.2s3.2,1.4,3.2,3.2v4.1
					C1087.9,172.7,1086.4,174.1,1084.7,174.1z"/>
			</g>
			<g>
				<path class="st1" d="M1084.7,197.3c-1.7,0-3.2-1.4-3.2-3.2V190c0-1.7,1.4-3.2,3.2-3.2s3.2,1.4,3.2,3.2v4.1
					C1087.9,195.8,1086.4,197.3,1084.7,197.3z"/>
			</g>
			<g>
				<path class="st1" d="M1098.3,183.7h-4.1c-1.7,0-3.2-1.4-3.2-3.2s1.4-3.2,3.2-3.2h4.1c1.7,0,3.2,1.4,3.2,3.2
					S1100,183.7,1098.3,183.7z"/>
			</g>
			<g>
				<path class="st1" d="M1075.2,183.7h-4.1c-1.7,0-3.2-1.4-3.2-3.2s1.4-3.2,3.2-3.2h4.1c1.7,0,3.2,1.4,3.2,3.2
					S1076.9,183.7,1075.2,183.7z"/>
			</g>
		</g>
		<g>
			<g>
				<path class="st1" d="M639.4,134.4c-1.7,0-3.2-1.4-3.2-3.2v-7.5c0-1.7,1.4-3.2,3.2-3.2c1.7,0,3.2,1.4,3.2,3.2v7.5
					C642.6,133,641.2,134.4,639.4,134.4z"/>
			</g>
			<g>
				<path class="st1" d="M639.4,177.1c-1.7,0-3.2-1.4-3.2-3.2v-7.5c0-1.7,1.4-3.2,3.2-3.2c1.7,0,3.2,1.4,3.2,3.2v7.5
					C642.6,175.7,641.2,177.1,639.4,177.1z"/>
			</g>
			<g>
				<path class="st1" d="M664.5,152H657c-1.7,0-3.2-1.4-3.2-3.2s1.4-3.2,3.2-3.2h7.5c1.7,0,3.2,1.4,3.2,3.2S666.3,152,664.5,152z"/>
			</g>
			<g>
				<path class="st1" d="M621.8,152h-7.5c-1.7,0-3.2-1.4-3.2-3.2s1.4-3.2,3.2-3.2h7.5c1.7,0,3.2,1.4,3.2,3.2S623.6,152,621.8,152z"
					/>
			</g>
		</g>
		<g>
			<g>
				<path class="st1" d="M880.3,105.5c-1.7,0-3.2-1.4-3.2-3.2v-4.2c0-1.7,1.4-3.2,3.2-3.2c1.7,0,3.2,1.4,3.2,3.2v4.2
					C883.5,104.1,882,105.5,880.3,105.5z"/>
			</g>
			<g>
				<path class="st1" d="M880.3,129.6c-1.7,0-3.2-1.4-3.2-3.2v-4.2c0-1.7,1.4-3.2,3.2-3.2c1.7,0,3.2,1.4,3.2,3.2v4.2
					C883.5,128.2,882,129.6,880.3,129.6z"/>
			</g>
			<g>
				<path class="st1" d="M894.5,115.5h-4.2c-1.7,0-3.2-1.4-3.2-3.2s1.4-3.2,3.2-3.2h4.2c1.7,0,3.2,1.4,3.2,3.2
					S896.2,115.5,894.5,115.5z"/>
			</g>
			<g>
				<path class="st1" d="M870.4,115.5h-4.2c-1.7,0-3.2-1.4-3.2-3.2s1.4-3.2,3.2-3.2h4.2c1.7,0,3.2,1.4,3.2,3.2
					S872.1,115.5,870.4,115.5z"/>
			</g>
		</g>
		<g>
			<path class="st1" d="M890.4,637.9h6.3c-0.7-13.1-2.7-35.8-7.7-50.2c-0.6-1.6-2.4-2.5-4-1.9c-1.6,0.6-2.5,2.4-1.9,4
				C887.7,603.2,889.6,625,890.4,637.9z"/>
			<path class="st1" d="M690.8,637.9c1.1-14.5,3.6-32.7,5.6-46.7c0.3-1.7-0.9-3.3-2.7-3.6c-1.7-0.3-3.3,0.9-3.6,2.7
				c-2.1,14.3-4.5,32.8-5.7,47.6H690.8z"/>
		</g>
		<g>
			<path class="st1" d="M1528.5,589.9c-1.4,0-2.7-1-3.1-2.4c-0.4-1.7,0.6-3.4,2.3-3.8l0,0c2.3-0.6,8.8-2.8,11.3-6
				c4.7-6,3.8-11.4-3.6-22.1c-7.6-11-9.9-19-0.7-29.6c0.7-0.8,1.3-1.5,2-2.2c5.7-6.5,6.3-7.2,3.1-13c-0.8-1.5-0.3-3.4,1.2-4.3
				c1.5-0.8,3.4-0.3,4.3,1.2c5.4,9.7,2.1,13.5-3.9,20.3c-0.6,0.7-1.2,1.4-1.9,2.2c-6.6,7.6-5.5,12.2,1.2,21.9
				c6,8.7,11.7,18.9,3.4,29.6c-4.3,5.5-13.7,8-14.7,8.3C1529,589.8,1528.7,589.9,1528.5,589.9z"/>
		</g>
		<g>
			<path class="st1" d="M1523.7,589.2v7.4c0,0.4-0.3,0.7-0.7,0.7c-0.4,0-0.7-0.3-0.7-0.7v-7.4h-6.3v7.4c0,3.9,3.2,7,7,7
				c3.9,0,7-3.2,7-7v-7.4H1523.7z"/>
		</g>
		<g>
			<path class="st1" d="M947.9,352.3c-0.8,0-1.6,0-2.4,0c-1.7,0-3.1-1.5-3.1-3.2c0-1.7,1.4-3.1,3.2-3.1c0,0,0,0,0.1,0
				c0.8,0,1.5,0,2.3,0c56.9,0,103.2-46.3,103.2-103.2c0-26.8-10.2-52.1-28.8-71.5l-10.6,0.5c-1.6,0.1-3.1-1.1-3.3-2.8l-1.2-10.7
				c-17.4-12.3-37.9-18.8-59.3-18.8c-52.4,0-96.4,39.2-102.5,91.1c-0.2,1.7-1.8,3-3.5,2.8c-1.7-0.2-3-1.8-2.8-3.5
				c6.4-55.1,53.2-96.7,108.8-96.7c23.2,0,45.4,7.2,64.2,20.8c0.7,0.5,1.2,1.3,1.3,2.2l1,9.1l9-0.4c0.9,0,1.8,0.3,2.4,0.9
				c20.3,20.6,31.6,47.9,31.6,76.9C1057.4,303.2,1008.2,352.3,947.9,352.3z"/>
		</g>
		<g>
			<path class="st1" d="M1262.4,317.1H1246c-1.7,0-3.2-1.4-3.2-3.2c0-1.7,1.4-3.2,3.2-3.2h16.4c8.9,0,16.1-7.2,16.1-16.1
				c0-8.9-7.2-16.1-16.1-16.1h-15.2c-1.7,0-3.2-1.4-3.2-3.2c0-1.7,1.4-3.2,3.2-3.2h15.2c12.4,0,22.4,10.1,22.4,22.4
				S1274.7,317.1,1262.4,317.1z"/>
		</g>
		<g>
			<path class="st1" d="M1134.3,317.1h-15.5c-12.4,0-22.4-10.1-22.4-22.4s10.1-22.4,22.4-22.4h14.9c1.7,0,3.2,1.4,3.2,3.2
				c0,1.7-1.4,3.2-3.2,3.2h-14.9c-8.9,0-16.1,7.2-16.1,16.1c0,8.9,7.2,16.1,16.1,16.1h15.5c1.7,0,3.2,1.4,3.2,3.2
				C1137.5,315.6,1136.1,317.1,1134.3,317.1z"/>
		</g>
		<g>
			<path class="st1" d="M1184.1,383c-1.7,0-3.2-1.4-3.2-3.2v-19.3c0-1.7,1.4-3.2,3.2-3.2c1.7,0,3.2,1.4,3.2,3.2v19.3
				C1187.3,381.6,1185.9,383,1184.1,383z"/>
		</g>
		<g>
			<path class="st1" d="M1197.1,428.1h-13c-1.7,0-3.2-1.4-3.2-3.2v-26c0-1.7,1.4-3.2,3.2-3.2c1.7,0,3.2,1.4,3.2,3.2v22.9h6.7v-23
				c0-1.7,1.4-3.2,3.2-3.2s3.2,1.4,3.2,3.2v26.1C1200.3,426.7,1198.9,428.1,1197.1,428.1z"/>
		</g>
		<g>
			<path class="st1" d="M1197.1,383.6c-1.7,0-3.2-1.4-3.2-3.2v-19.8c0-1.7,1.4-3.2,3.2-3.2s3.2,1.4,3.2,3.2v19.8
				C1200.3,382.1,1198.9,383.6,1197.1,383.6z"/>
		</g>
		<g>
			<path class="st1" d="M501.2,246.2c-0.8,0-1.6-0.3-2.2-0.9c-0.6-0.6-0.9-1.4-0.9-2.2v-14.5c0-1.7,1.4-3.2,3.2-3.2h227.7
				c1.7,0,3.2,1.4,3.2,3.2c0,1.7-1.4,3.2-3.2,3.2H504.4v8.2l201.9-0.2c0,0,0,0,0,0c1.7,0,3.2,1.4,3.2,3.2c0,1.7-1.4,3.2-3.2,3.2
				L501.2,246.2C501.2,246.2,501.2,246.2,501.2,246.2z"/>
		</g>
		<g>
			<path class="st1" d="M947.9,325.1c-3.1,0-6.2-0.2-9.2-0.5c-1.7-0.2-3-1.8-2.8-3.5c0.2-1.7,1.7-3,3.5-2.8c2.8,0.3,5.7,0.5,8.5,0.5
				c41.9,0,75.9-34.1,75.9-75.9s-34.1-75.9-75.9-75.9c-41.9,0-75.9,34.1-75.9,75.9c0,0.7,0,1.5,0,2.2c0.1,1.7-1.3,3.2-3.1,3.2
				c0,0-0.1,0-0.1,0c-1.7,0-3.1-1.4-3.2-3.1c0-0.8,0-1.6,0-2.4c0-45.3,36.9-82.2,82.2-82.2c45.3,0,82.2,36.9,82.2,82.2
				S993.2,325.1,947.9,325.1z"/>
		</g>
		<g>
			<path class="st1" d="M947.9,298.4c-6.4,0-12.6-1.1-18.6-3.2c-1.6-0.6-2.5-2.4-1.9-4c0.6-1.6,2.4-2.5,4-1.9
				c5.3,1.9,10.8,2.8,16.5,2.8c27.1,0,49.2-22.1,49.2-49.2s-22.1-49.2-49.2-49.2c-27.1,0-49.2,22.1-49.2,49.2
				c0,6.4,1.2,12.7,3.6,18.6c0.7,1.6-0.1,3.5-1.7,4.1c-1.6,0.7-3.5-0.1-4.1-1.7c-2.7-6.7-4.1-13.7-4.1-21
				c0-30.6,24.9-55.5,55.5-55.5c30.6,0,55.5,24.9,55.5,55.5C1003.4,273.4,978.5,298.4,947.9,298.4z"/>
		</g>
		<g>
			<path class="st1" d="M947.9,273.1c-16.7,0-30.3-13.6-30.3-30.3c0-16.7,13.6-30.3,30.3-30.3c16.7,0,30.3,13.6,30.3,30.3
				C978.1,259.5,964.6,273.1,947.9,273.1z M947.9,218.9c-13.2,0-24,10.8-24,24s10.8,24,24,24s24-10.8,24-24S961.1,218.9,947.9,218.9
				z"/>
		</g>
		<g>
			<path class="st1" d="M947.9,255.5c-7,0-12.7-5.7-12.7-12.7c0-7,5.7-12.7,12.7-12.7c7,0,12.7,5.7,12.7,12.7
				C960.5,249.8,954.8,255.5,947.9,255.5z M947.9,236.5c-3.5,0-6.4,2.9-6.4,6.4c0,3.5,2.9,6.4,6.4,6.4c3.5,0,6.4-2.9,6.4-6.4
				C954.2,239.3,951.4,236.5,947.9,236.5z"/>
		</g>
		<g>
			<path class="st1" d="M888,561.6c-0.1,0-0.1,0-0.2,0c-1.7-0.1-3.1-1.6-2.9-3.4l3.7-54.6c0.1-1.7,1.5-2.9,3.1-2.9c0,0,0.1,0,0.1,0
				c0.3,0,32.9,1,48-3.8c2.4-0.8,4.8-3.3,4.5-5.6c-0.5-3.9-0.7-10,1.2-16.9c3.2-11.5,6-64.3,1.7-92c-5.2-33.5-17.2-88.7-26.8-100.9
				c-5.5-7-33.5-21.6-55.9-33.4c-20.9-10.9-35-18.4-41-23.3c-2.9,2.1-8.4,5.2-18.2,7.7c-14.8,3.6-30.4,3.6-45.2,0
				c-10.3-2.5-16-5.9-18.7-8c-10,6.3-54.7,34.4-77.9,49.4c-24,15.5-35.1,124.2-30.1,154.9c4.4,27.2,15.8,55.4,18.9,59.6
				c2.2,0.4,9.7,0,15.2-0.2c7.2-0.4,14.6-0.7,18.6-0.2c1.5,0.2,2.6,1.5,2.7,3l3.2,65.6c0.1,1.7-1.3,3.2-3,3.3
				c-1.7,0.1-3.2-1.3-3.3-3l-3-62.8c-3.9-0.1-9.6,0.2-14.8,0.4c-12.3,0.6-16.8,0.7-19-0.7c-4.5-2.9-17.2-36.2-21.7-63.9
				c-4.8-29.3,4.7-143.1,32.9-161.2c26.1-16.8,79.4-50.3,80-50.7c1.3-0.8,3.1-0.6,4.1,0.6c0,0,4.2,4.6,17.4,7.8
				c13.8,3.4,28.4,3.4,42.2,0c13.2-3.3,17.4-7.8,17.5-7.9c0.6-0.7,1.5-1.1,2.5-1.1c1,0,1.8,0.5,2.4,1.2c3,3.8,23.3,14.5,41.3,23.9
				c25.4,13.3,51.6,27,58,35.1c12.3,15.6,24.8,81.9,28.1,103.8c4.5,29.4,1.4,82.8-1.9,94.7c-1.6,5.8-1.5,11-1,14.3
				c0.8,5.8-3.9,10.9-8.8,12.5c-13.4,4.3-38.3,4.3-47,4.1l-3.5,51.6C891,560.3,889.6,561.6,888,561.6z M679.2,440.2
				c-0.5,0-1-0.1-1.5-0.4c-0.8-0.4-1.4-1.2-1.6-2.1c-0.5-2-6.1-10.8-9.2-15.5c-2.6-4.1-4.3-6.7-5-8c-0.8-1.6-0.9-3.2-0.3-4.8
				c0.7-1.8,2.1-3.2,3.5-4.1c-0.4-2.8,0-5.3,1.2-7.4c1.1-1.9,2.7-3.1,4-3.8c0.5-3.9,1.7-6.6,3.6-8.1c0,0,0,0,0.1-0.1
				c-1.5-4.3-0.4-8.3,2.1-10.4c4.8-3.9,12.4,1.7,22.5,11.4c5.7,5.5,20.7,37.2,22.4,40.8c0.4,0.9,0.4,2-0.1,2.9
				c-0.5,0.9-1.4,1.5-2.5,1.6c-1.7,0.1-10.2,1.2-10.2,1.2c-0.2,0-0.3,0-0.5,0c-16,2.2-27.2,6.6-27.3,6.6
				C680,440.1,679.6,440.2,679.2,440.2z M667.7,411.4c0.6,1.2,2.6,4.2,4.6,7.4c4,6.2,7,11,8.7,14.3c4.5-1.5,14.1-4.3,26.4-6
				c0.2,0,0.4,0,0.6,0c1-0.1,3.3-0.4,5.5-0.6c-6.4-13.3-15.9-31.8-19.2-35c-9.7-9.4-13.2-10.7-14.2-10.9c-0.4,0.7-0.6,2.9,1.2,5.3
				c0.8,1,0.8,2.4,0.1,3.5c-0.7,1.1-1.9,1.7-3.2,1.5c-0.1,0-0.2,0-0.2,0c0,0-1.1,0.9-1.4,5.6c-0.1,1.4-1.1,2.6-2.5,2.9h0
				c0,0-1.5,0.4-2.3,1.7c-0.6,1.1-0.6,2.8,0,4.8c0.5,1.5-0.3,3.2-1.8,3.8C669.1,410.1,668,410.9,667.7,411.4z"/>
		</g>
		<g>
			<path class="st1" d="M345.1,489h-79.8c-5.6,0-10.2-4.6-10.2-10.2v-8.3c0-1.7,1.4-3.2,3.2-3.2c1.7,0,3.2,1.4,3.2,3.2v8.3
				c0,2.1,1.7,3.9,3.9,3.9h79.8c2.1,0,3.9-1.7,3.9-3.9v-8.3c0-1.7,1.4-3.2,3.2-3.2c1.7,0,3.2,1.4,3.2,3.2v8.3
				C355.3,484.5,350.7,489,345.1,489z"/>
		</g>
		<g>
			<path class="st1" d="M339.4,473.3H271c-3.2,0-6.3-1.4-8.5-3.7c-1.2-1.3-1.1-3.3,0.2-4.5c1.3-1.2,3.3-1.1,4.5,0.2
				c1,1.1,2.3,1.7,3.8,1.7h68.4c1.4,0,2.7-0.5,3.6-1.5c1.2-1.2,3.2-1.2,4.5,0c1.2,1.2,1.2,3.2,0,4.5
				C345.4,472.1,342.5,473.3,339.4,473.3z"/>
		</g>
		<g>
			<path class="st1" d="M39.9,523.8H20.4c-1.7,0-3.2-1.4-3.2-3.2v-19.5c0-1.7,1.4-3.2,3.2-3.2h19.5c1.7,0,3.2,1.4,3.2,3.2v19.5
				C43.1,522.4,41.7,523.8,39.9,523.8z M23.5,517.5h13.2v-13.2H23.5V517.5z"/>
		</g>
		<g>
			<path class="st1" d="M208,598.4h-19.5c-1.7,0-3.2-1.4-3.2-3.2v-19.5c0-1.7,1.4-3.2,3.2-3.2H208c1.7,0,3.2,1.4,3.2,3.2v19.5
				C211.2,597,209.8,598.4,208,598.4z M191.6,592.1h13.2v-13.2h-13.2V592.1z"/>
		</g>
		<g>
			<path class="st1" d="M234.9,352.8h-19.5c-1.7,0-3.2-1.4-3.2-3.2v-19.5c0-1.7,1.4-3.2,3.2-3.2h19.5c1.7,0,3.2,1.4,3.2,3.2v19.5
				C238,351.4,236.6,352.8,234.9,352.8z M218.5,346.4h13.2v-13.2h-13.2V346.4z"/>
		</g>
		<g>
			<path class="st1" d="M397.1,416.9h-19.5c-1.7,0-3.2-1.4-3.2-3.2v-19.5c0-1.7,1.4-3.2,3.2-3.2h19.5c1.7,0,3.2,1.4,3.2,3.2v19.5
				C400.3,415.5,398.8,416.9,397.1,416.9z M380.7,410.6h13.2v-13.2h-13.2V410.6z"/>
		</g>
		<g>
			<path class="st1" d="M1281.5,359.9h-19.5c-1.7,0-3.2-1.4-3.2-3.2v-19.5c0-1.7,1.4-3.2,3.2-3.2h19.5c1.7,0,3.2,1.4,3.2,3.2v19.5
				C1284.6,358.5,1283.2,359.9,1281.5,359.9z M1265.1,353.6h13.2v-13.2h-13.2V353.6z"/>
		</g>
		<g>
			<path class="st1" d="M1464.4,396.8h-19.5c-1.7,0-3.2-1.4-3.2-3.2v-19.5c0-1.7,1.4-3.2,3.2-3.2h19.5c1.7,0,3.2,1.4,3.2,3.2v19.5
				C1467.6,395.4,1466.2,396.8,1464.4,396.8z M1448.1,390.5h13.2v-13.2h-13.2V390.5z"/>
		</g>
		<g>
			<path class="st1" d="M1451,630.5h-19.5c-1.7,0-3.2-1.4-3.2-3.2v-19.5c0-1.7,1.4-3.2,3.2-3.2h19.5c1.7,0,3.2,1.4,3.2,3.2v19.5
				C1454.2,629.1,1452.8,630.5,1451,630.5z M1434.6,624.2h13.2v-13.2h-13.2V624.2z"/>
		</g>
		<g>
			<path class="st1" d="M189.6,387.8c-7.2,0-13.1-5.9-13.1-13.1c0-7.2,5.9-13.1,13.1-13.1c7.2,0,13.1,5.9,13.1,13.1
				C202.7,381.9,196.8,387.8,189.6,387.8z M189.6,367.9c-3.7,0-6.8,3-6.8,6.8c0,3.7,3,6.8,6.8,6.8c3.7,0,6.8-3,6.8-6.8
				C196.4,370.9,193.3,367.9,189.6,367.9z"/>
		</g>
		<g>
			<path class="st1" d="M387.3,514.2c-7.2,0-13.1-5.9-13.1-13.1c0-7.2,5.9-13.1,13.1-13.1c7.2,0,13.1,5.9,13.1,13.1
				C400.4,508.3,394.5,514.2,387.3,514.2z M387.3,494.3c-3.7,0-6.8,3-6.8,6.8s3,6.8,6.8,6.8c3.7,0,6.8-3,6.8-6.8
				S391.1,494.3,387.3,494.3z"/>
		</g>
		<g>
			<path class="st1" d="M185.2,525.7c-24.6,0-43.7-5.6-57.4-11.9c-26.2-12-38.4-28.7-39-29.4c-0.7-1-0.8-2.3-0.2-3.4
				c0.5-0.9,12.2-21.1,37.5-37.4c23.3-15,62.9-29,119.3-10.8c1.7,0.5,2.6,2.3,2,4c-0.5,1.7-2.3,2.6-4,2
				c-43.3-13.9-81.5-10.6-113.7,10c-19.8,12.7-31.1,28.3-34.5,33.5c3.7,4.4,15.3,16.7,35.5,25.9c22.9,10.4,62.1,18.9,118-0.3
				c1.6-0.6,3.4,0.3,4,2c0.6,1.6-0.3,3.4-2,4C225.8,522.4,203.9,525.7,185.2,525.7z"/>
		</g>
		<g>
			<path class="st1" d="M91.4,485.7c-0.5,0-1.1-0.1-1.6-0.4c-1.5-0.9-2-2.8-1.2-4.3c0.5-0.9,12.2-21.1,37.5-37.4
				c23.3-15,62.9-29,119.3-10.8c1.7,0.5,2.6,2.3,2,4c-0.5,1.7-2.3,2.6-4,2c-43.3-13.9-81.5-10.6-113.7,10
				c-24,15.4-35.5,35.1-35.6,35.3C93.6,485.1,92.5,485.7,91.4,485.7z"/>
		</g>
		<g>
			<path class="st1" d="M185.2,525.7c-24.6,0-43.7-5.6-57.4-11.9c-26.2-12-38.4-28.7-39-29.4c-0.7-1-0.8-2.3-0.2-3.4
				c0.5-0.9,12.2-21.1,37.5-37.4c23.3-15,62.9-29,119.3-10.8c1.7,0.5,2.6,2.3,2,4c-0.5,1.7-2.3,2.6-4,2
				c-43.3-13.9-81.5-10.6-113.7,10c-19.8,12.7-31.1,28.3-34.5,33.5c3.7,4.4,15.3,16.7,35.5,25.9c22.9,10.4,62.1,18.9,118-0.3
				c1.6-0.6,3.4,0.3,4,2c0.6,1.6-0.3,3.4-2,4C225.8,522.4,203.9,525.7,185.2,525.7z"/>
		</g>
		<g>
			<path class="st1" d="M91.4,485.7c-0.5,0-1.1-0.1-1.6-0.4c-1.5-0.9-2-2.8-1.2-4.3c0.5-0.9,12.2-21.1,37.5-37.4
				c23.3-15,62.9-29,119.3-10.8c1.7,0.5,2.6,2.3,2,4c-0.5,1.7-2.3,2.6-4,2c-43.3-13.9-81.5-10.6-113.7,10
				c-24,15.4-35.5,35.1-35.6,35.3C93.6,485.1,92.5,485.7,91.4,485.7z"/>
		</g>
		<g>
			<path class="st1" d="M185.1,525.8c-14.2,0-27.8-1.9-40.6-5.7c-0.6-0.2-1.1-0.5-1.5-1c-24.9-30.7-20.1-59.2-11.7-77.8
				c0.3-0.6,0.7-1.1,1.3-1.4c29-16.2,62.4-19.9,99.4-10.8c0.9,0.2,1.6,0.8,2,1.5c6.9,12.5,10.8,25.5,11.5,38.7
				c0.8,16-2,33.3-7.7,47.5c-0.4,0.9-1.1,1.6-2.1,1.9C218,523.4,201.1,525.8,185.1,525.8z M147.2,514.3c25.4,7.3,54.1,6.9,85.2-1.4
				c5-13.1,7.4-28.8,6.7-43.4c-0.6-11.8-4-23.5-10-34.7c-34.4-8.2-65.5-4.8-92.5,10C129.2,461.6,125.4,486.9,147.2,514.3z
				 M234.8,515.5L234.8,515.5L234.8,515.5z"/>
		</g>
		<g>
			<path class="st1" d="M92.7,447.2c-0.8,0-1.6-0.3-2.2-0.9c-1.3-1.2-1.3-3.2-0.1-4.5c0.4-0.4,10.6-10.9,28.6-21.1
				c16.6-9.4,43.3-20.3,76.2-18.6c1.7,0.1,3.1,1.6,3,3.3c-0.1,1.7-1.6,3.1-3.3,3c-60.1-3-99.5,37.4-99.9,37.8
				C94.4,446.9,93.5,447.2,92.7,447.2z"/>
		</g>
		<g>
			<path class="st1" d="M183.2,545.4c-17,0-30.7-2.7-40.8-5.9c-21-6.5-31.6-16.1-32.1-16.5c-1.3-1.2-1.4-3.2-0.2-4.5
				c1.2-1.3,3.2-1.4,4.5-0.2l0,0c0.1,0.1,10.3,9.2,30.1,15.3c18.3,5.6,48.7,9.8,89.9-2.4c1.7-0.5,3.4,0.5,3.9,2.1
				c0.5,1.7-0.5,3.4-2.1,3.9C216.1,543.2,198.3,545.4,183.2,545.4z"/>
		</g>
		<g>
			<path class="st1" d="M92.9,623.3H68.8c-23.2,0-42.1-18.9-42.1-42.1c0-23.2,18.9-42.1,42.1-42.1h24.1c23.2,0,42.1,18.9,42.1,42.1
				c0,0.6,0,1.3-0.1,1.9c4.4,5.8,14.4,17.6,24.1,21.3c1.3,0.5,2.1,1.7,2,3s-0.9,2.5-2.2,2.9c-1,0.3-22.1,6.8-34.2-1.5
				C116.7,617.9,105.1,623.3,92.9,623.3z M68.8,545.4c-19.7,0-35.8,16-35.8,35.8c0,19.7,16,35.8,35.8,35.8h24.1
				c11.4,0,21.9-5.3,28.7-14.4c0.6-0.7,1.4-1.2,2.3-1.3c0.9-0.1,1.8,0.3,2.5,0.9c5,5.1,15,5.1,22.6,3.9
				c-8.3-5.8-15.7-14.6-19.8-20.1c-0.5-0.6-0.7-1.4-0.6-2.1c0.1-1,0.1-1.9,0.1-2.7c0-19.7-16-35.8-35.8-35.8H68.8z"/>
		</g>
		<g>
			<path class="st1" d="M189.8,513.5c-21.4,0-38.8-17.4-38.8-38.8c0-21.4,17.4-38.8,38.8-38.8c8.4,0,16.4,2.7,23.2,7.7
				c1.4,1,1.7,3,0.7,4.4l-18.2,25.4l29.9,3.2c0.9,0.1,1.6,0.5,2.2,1.2c0.5,0.7,0.8,1.5,0.6,2.4C225.6,499.1,209,513.5,189.8,513.5z
				 M189.8,442.1c-17.9,0-32.5,14.6-32.5,32.5c0,17.9,14.6,32.5,32.5,32.5c15,0,28.1-10.4,31.6-24.8l-31.9-3.4
				c-1.1-0.1-2.1-0.8-2.5-1.8c-0.5-1-0.3-2.2,0.3-3.1l19.4-27.2C201.6,443.7,195.8,442.1,189.8,442.1z"/>
		</g>
		<g>
			<path class="st1" d="M95.9,564.8H62.5c-1.7,0-3.2-1.4-3.2-3.2c0-1.7,1.4-3.2,3.2-3.2h33.4c1.7,0,3.2,1.4,3.2,3.2
				C99.1,563.4,97.7,564.8,95.9,564.8z"/>
		</g>
		<g>
			<path class="st1" d="M110.6,578.6H50.4c-1.7,0-3.2-1.4-3.2-3.2c0-1.7,1.4-3.2,3.2-3.2h60.2c1.7,0,3.2,1.4,3.2,3.2
				C113.8,577.2,112.3,578.6,110.6,578.6z"/>
		</g>
		<g>
			<path class="st1" d="M110.6,592.5H50.4c-1.7,0-3.2-1.4-3.2-3.2c0-1.7,1.4-3.2,3.2-3.2h60.2c1.7,0,3.2,1.4,3.2,3.2
				C113.8,591.1,112.3,592.5,110.6,592.5z"/>
		</g>
		<g>
			<path class="st1" d="M86.6,606.3H71.9c-1.7,0-3.2-1.4-3.2-3.2c0-1.7,1.4-3.2,3.2-3.2h14.6c1.7,0,3.2,1.4,3.2,3.2
				C89.7,604.9,88.3,606.3,86.6,606.3z"/>
		</g>
		<g>
			<path class="st1" d="M383.8,366.4c-0.6,0-1.2-0.2-1.8-0.5l-14.4-9.8c-1.4-1-1.8-2.9-0.9-4.4l29.5-44.5c0.5-0.7,1.3-1.2,2.1-1.4
				c0.9-0.1,1.8,0.1,2.4,0.6l23.3,18l27.8-40.6l-10.8-6.3c-1.1-0.6-1.7-1.8-1.6-3c0.1-1.2,0.9-2.3,2-2.7l35.1-13
				c1-0.4,2-0.2,2.9,0.3c0.8,0.6,1.4,1.5,1.4,2.5l0.7,36.9c0,1.2-0.6,2.3-1.7,2.9c-1.1,0.6-2.4,0.5-3.3-0.3l-8.2-6L428,356.2
				c-0.5,0.7-1.3,1.2-2.2,1.4c-0.9,0.1-1.8-0.1-2.5-0.7l-20.9-17.1l-16,25.3c-0.5,0.7-1.2,1.2-2,1.4
				C384.2,366.4,384,366.4,383.8,366.4z M373.8,352.7l9.1,6.2l16.1-25.5c0.5-0.8,1.3-1.3,2.2-1.4c0.9-0.1,1.8,0.1,2.5,0.7l21,17.2
				L465,289c0.5-0.7,1.2-1.2,2.1-1.4c0.8-0.1,1.7,0.1,2.4,0.6l5.7,4.2l-0.5-26.1l-24.6,9.1l7.9,4.6c0.8,0.4,1.3,1.2,1.5,2
				c0.2,0.9,0,1.8-0.5,2.5l-31.6,46.2c-0.5,0.7-1.3,1.2-2.1,1.3c-0.9,0.1-1.7-0.1-2.4-0.6l-23.2-17.9L373.8,352.7z"/>
		</g>
		<g>
			<path class="st1" d="M328.4,456.7h-46.3c-1.7,0-3.2-1.4-3.2-3.2v-11.6c0-1.7,1.4-3.2,3.2-3.2h46.3c1.7,0,3.2,1.4,3.2,3.2v11.6
				C331.5,455.3,330.1,456.7,328.4,456.7z M285.2,450.4h40v-5.3h-40V450.4z"/>
		</g>
		<g>
			<g>
				<path class="st1" d="M259.4,471.9h-4.5c-5.1,0-9.2-4.1-9.2-9.2V448c0-5.1,4.1-9.2,9.2-9.2h27.2c1.7,0,3.2,1.4,3.2,3.2v8.6
					c0,5.1-4.1,9.2-9.2,9.2h-4.5c-1.6,0-2.9,1.3-2.9,2.9C268.6,467.7,264.5,471.9,259.4,471.9z M254.8,445.1c-1.6,0-2.9,1.3-2.9,2.9
					v14.6c0,1.6,1.3,2.9,2.9,2.9h4.5c1.6,0,2.9-1.3,2.9-2.9c0-5.1,4.1-9.2,9.2-9.2h4.5c1.6,0,2.9-1.3,2.9-2.9v-5.4H254.8z"/>
			</g>
			<g>
				<path class="st1" d="M355.6,471.9H351c-5.1,0-9.2-4.1-9.2-9.2c0-1.6-1.3-2.9-2.9-2.9h-4.5c-5.1,0-9.2-4.1-9.2-9.2v-8.6
					c0-1.7,1.4-3.2,3.2-3.2h27.2c5.1,0,9.2,4.1,9.2,9.2v14.6C364.8,467.7,360.6,471.9,355.6,471.9z M331.5,445.1v5.4
					c0,1.6,1.3,2.9,2.9,2.9h4.5c5.1,0,9.2,4.1,9.2,9.2c0,1.6,1.3,2.9,2.9,2.9h4.5c1.6,0,2.9-1.3,2.9-2.9V448c0-1.6-1.3-2.9-2.9-2.9
					H331.5z"/>
			</g>
		</g>
		<g>
			<path class="st1" d="M288.1,368.5h-32.3c-1.7,0-3.2-1.4-3.2-3.2c0-1.7,1.4-3.2,3.2-3.2h32.3c1.7,0,3.2,1.4,3.2,3.2
				C291.3,367.1,289.9,368.5,288.1,368.5z"/>
		</g>
		<g>
			<path class="st1" d="M354.6,368.5h-32.3c-1.7,0-3.2-1.4-3.2-3.2c0-1.7,1.4-3.2,3.2-3.2h32.3c1.7,0,3.2,1.4,3.2,3.2
				C357.8,367.1,356.4,368.5,354.6,368.5z"/>
		</g>
		<g>
			<path class="st1" d="M289.6,390h-35.3c-1.7,0-3.2-1.4-3.2-3.2c0-1.7,1.4-3.2,3.2-3.2h35.3c1.7,0,3.2,1.4,3.2,3.2
				C292.8,388.6,291.4,390,289.6,390z"/>
		</g>
		<g>
			<path class="st1" d="M356,390h-35.3c-1.7,0-3.2-1.4-3.2-3.2c0-1.7,1.4-3.2,3.2-3.2H356c1.7,0,3.2,1.4,3.2,3.2
				C359.2,388.6,357.8,390,356,390z"/>
		</g>
		<g>
			<path class="st1" d="M336.9,327.8h-63.3c-1.7,0-3.2-1.4-3.2-3.2c0-1.7,1.4-3.2,3.2-3.2h63.3c1.7,0,3.2,1.4,3.2,3.2
				C340,326.4,338.6,327.8,336.9,327.8z"/>
		</g>
		<g>
			<path class="st1" d="M230.3,636.8c-0.3,0-0.6,0-0.9-0.1c-1.7-0.5-2.6-2.2-2.1-3.9l41.7-141.1c0.5-1.7,2.3-2.6,3.9-2.1
				c1.7,0.5,2.6,2.2,2.1,3.9l-41.7,141.1C232.9,635.9,231.6,636.8,230.3,636.8z"/>
		</g>
		<g>
			<path class="st1" d="M275.5,592.7c-0.2,0-0.4,0-0.6,0c-1.7-0.3-2.9-1.9-2.6-3.7l14.1-79.2c0.3-1.7,1.9-2.9,3.7-2.6
				c1.7,0.3,2.9,1.9,2.6,3.7l-14.1,79.2C278.4,591.6,277,592.7,275.5,592.7z"/>
		</g>
		<g>
			<path class="st1" d="M316,547.5c-1.6,0-2.9-1.2-3.1-2.8l-5.1-40.1c-0.2-1.7,1-3.3,2.7-3.5c1.7-0.2,3.3,1,3.5,2.7l5.1,40.1
				c0.2,1.7-1,3.3-2.7,3.5C316.3,547.4,316.2,547.5,316,547.5z"/>
		</g>
		<g>
			<path class="st1" d="M377.6,575.3c-1.3,0-2.5-0.8-3-2.1L344.8,490c-0.6-1.6,0.3-3.4,1.9-4c1.6-0.6,3.4,0.3,4,1.9l29.8,83.2
				c0.6,1.6-0.3,3.4-1.9,4C378.3,575.2,377.9,575.3,377.6,575.3z"/>
		</g>
		<g>
			<path class="st1" d="M359.1,602.4c-1.4,0-2.7-0.9-3.1-2.4l-20.7-78.7c-0.4-1.7,0.6-3.4,2.3-3.9c1.7-0.4,3.4,0.6,3.9,2.3
				l20.7,78.7c0.4,1.7-0.6,3.4-2.3,3.9C359.6,602.4,359.4,602.4,359.1,602.4z"/>
		</g>
		<g>
			<path class="st1" d="M625.2,205h-88.5c-1.6,0-2.9-1.2-3.1-2.8c-0.1-0.9-0.2-1.8-0.2-2.5c0-11.6,9.3-21.1,20.8-21.1
				c0.9,0,1.8,0.1,2.7,0.2c3.7-7.2,11.3-11.8,19.9-11.8c8.4,0,15.9,4.5,19.7,11.5c2.7-0.9,5.6-1.4,8.5-1.4
				c13.2,0,23.9,9.5,23.9,21.2c0,1.5-0.2,2.9-0.5,4.4C628,204,626.7,205,625.2,205z M539.8,198.7h82.7c0-0.2,0-0.3,0-0.5
				c0-8.2-7.9-14.9-17.6-14.9c-3.1,0-6.1,0.7-8.8,2c-0.8,0.4-1.8,0.4-2.6,0.1c-0.8-0.3-1.5-1-1.8-1.9c-2.1-6.1-8.2-10.3-15-10.3
				c-6.8,0-12.8,4.1-15,10.2c-0.6,1.6-2.2,2.4-3.8,2c-1.3-0.3-2.5-0.5-3.7-0.5C546.6,184.9,540.3,191,539.8,198.7z"/>
		</g>
		<g>
			<path class="st1" d="M781.3,207.6c-6.3,0-19.4-7.7-38.7-22.8l-0.4-0.3c-4.1-3.2-6.7-20.5-8-31.8c-10.5-4.6-11.9-23.2-11.7-24.8
				c0.2-1.1,0.4-2.9,8.1-7c1.5-0.8,3.4-0.2,4.3,1.3c0.8,1.5,0.2,3.5-1.3,4.3c-1.9,1-3.9,2.2-4.8,3c0.3,4.2,2.7,16.5,9,17.9
				c1.3,0.3,2.3,1.4,2.5,2.7c1.3,12.5,4,27.3,5.9,29.6l0.3,0.2c25.4,19.9,33.1,21.4,34.8,21.4c1.7,0,9.4-1.5,34.8-21.4l0.3-0.2
				c1.9-2.3,4.5-17.1,5.9-29.6c0.1-1.4,1.1-2.5,2.5-2.7c6.3-1.4,8.7-13.7,9-17.9c-1-0.7-2.9-2-4.8-3c-1.5-0.8-2.1-2.7-1.3-4.3
				c0.8-1.5,2.7-2.1,4.3-1.3c7.8,4.1,8,5.9,8.1,7c0.2,1.7-1.1,20.3-11.7,24.8c-1.3,11.3-3.9,28.6-8,31.8l-0.4,0.3
				C800.6,200,787.6,207.6,781.3,207.6z M816.5,179.6C816.5,179.6,816.5,179.6,816.5,179.6L816.5,179.6z M746.1,179.6L746.1,179.6
				C746.1,179.6,746.1,179.6,746.1,179.6z M728.4,129.9L728.4,129.9L728.4,129.9z M834.2,129.9C834.2,129.9,834.2,129.9,834.2,129.9
				L834.2,129.9z"/>
		</g>
		<g>
			<path class="st1" d="M339.7,637.9l141.9-195.7l38.4,47.6c1.1,1.4,3.1,1.6,4.4,0.5c1.4-1.1,1.6-3.1,0.5-4.4L484,435
				c-0.6-0.8-1.6-1.2-2.5-1.2c-1,0-1.9,0.5-2.5,1.3l-147,202.7H339.7z"/>
		</g>
		<g>
			<path class="st1" d="M451.7,504.2c-0.5,0-1-0.1-1.5-0.4l-11.9-6.4c-1.5-0.8-2.1-2.7-1.3-4.3c0.8-1.5,2.7-2.1,4.3-1.3l10.2,5.5
				c3.9-2.7,10-7.1,10.2-7.2c2.4-1.6,4.2,0.5,5.1,1.6c3,3.5,5.4,5.5,7.1,6.1c4.2-2.4,16.3-9.1,21.4-9.8c5.9-0.7,14.7,3.5,15.6,4
				c1.6,0.8,2.2,2.7,1.4,4.2c-0.8,1.6-2.7,2.2-4.2,1.4c-3-1.5-9-3.8-12-3.4c-3.1,0.4-13.6,5.8-20,9.5c-0.5,0.3-1.1,0.5-1.8,0.4
				c-4.6-0.2-8.8-4.5-11.3-7.3c-2.5,1.7-6.5,4.6-9.5,6.7C453,504,452.3,504.2,451.7,504.2z"/>
		</g>
		<g>
			<path class="st1" d="M391.2,594.3c-0.6,0-1.2-0.2-1.7-0.5c-1.5-1-1.9-2.9-0.9-4.4l44.8-68.5c1-1.5,2.9-1.9,4.4-0.9
				c1.5,1,1.9,2.9,0.9,4.4l-44.8,68.5C393.2,593.8,392.2,594.3,391.2,594.3z"/>
		</g>
		<g>
			<path class="st1" d="M459.2,471h-67.3c-0.8,0-1.6-0.3-2.2-0.9c-0.6-0.6-0.9-1.4-0.9-2.2c0-12.3,12.4-22.4,27.6-22.6
				c2.9-12,13.4-20.7,25.6-20.7c1.7,0,3.2,1.4,3.2,3.2c0,1.7-1.4,3.2-3.2,3.2c-9.9,0-18.5,7.7-19.8,18c-0.2,1.6-1.7,2.8-3.3,2.7
				c-0.7,0-1.3-0.1-1.9-0.1c-10.6,0-19.5,5.7-21.5,13.2h63.8c1.7,0,3.2,1.4,3.2,3.2C462.4,469.5,461,471,459.2,471z"/>
		</g>
		<g>
			<path class="st1" d="M781.3,235.2c-7.6,0-15.2-0.9-22.6-2.7c-15.5-3.8-19.4-9.7-19.8-10.3c-0.7-1.3-0.5-2.9,0.5-3.9
				c7.4-7.2,10.8-17.9,13.6-28.1c0.3-1,1-1.8,2-2.1c1-0.3,2.1-0.2,2.9,0.4c16.2,11.6,21.8,12.9,23.4,12.9c1.6,0,7.2-1.3,23.4-12.9
				c0.8-0.6,1.9-0.8,2.9-0.4c1,0.3,1.7,1.1,2,2.1c2.9,10.6,9,21.1,16.2,28.1c0.6,0.6,1,1.4,1,2.3c0,0.9-0.4,1.7-1,2.3
				c-0.3,0.2-6.5,5.8-21.8,9.6C796.5,234.3,788.9,235.2,781.3,235.2z M746,220.5c2.1,1.6,6.3,3.9,14.2,5.9c13.8,3.4,28.4,3.4,42.2,0
				c8.2-2,13.5-4.6,16.3-6.3c-5.9-6.6-10.8-15.1-13.9-24c-16.7,11.5-21.8,11.5-23.5,11.5c-1.7,0-6.7,0-23.4-11.5
				C755.3,204.9,752,213.6,746,220.5z"/>
		</g>
		<g>
			<path class="st1" d="M735.7,186.8h-66.2c-1.7,0-3.1-1.3-3.2-3c0-0.1,0-0.2,0-0.2c0-13.7,10.2-25,23.2-26.2
				c1.3-12.6,10.6-22.5,21.9-22.5c2.7,0,5.4,0.6,8,1.7c1.6,0.7,2.3,2.6,1.6,4.2c-0.7,1.6-2.6,2.3-4.2,1.6c-1.7-0.8-3.5-1.2-5.4-1.2
				c-8.6,0-15.7,8.6-15.7,19.2c0,0,0,0.1,0,0.1c0,0.9-0.3,1.7-1,2.3c-0.6,0.6-1.4,0.9-2.3,0.9c-0.1,0-0.3,0-0.4,0
				c-0.1,0-0.1,0-0.2,0c-9.6,0-17.6,7.3-19,16.9h62.8c1.7,0,3.2,1.4,3.2,3.2S737.5,186.8,735.7,186.8z"/>
		</g>
		<g>
			<path class="st1" d="M639.4,231.7c-1.7,0-3.2-1.4-3.2-3.2v-16.4c0-1.7,1.4-3.2,3.2-3.2h15.5c1.7,0,3.2,1.4,3.2,3.2v15.9
				c0,1.7-1.4,3.2-3.2,3.2s-3.2-1.4-3.2-3.2v-12.8h-9.1v13.2C642.6,230.3,641.2,231.7,639.4,231.7z"/>
		</g>
		<g>
			<path class="st1" d="M345,429.3h-80.1c-1.7,0-3.2-1.4-3.2-3.2c0-1.7,1.4-3.2,3.2-3.2H345c1.7,0,3.2,1.4,3.2,3.2
				C348.1,427.9,346.7,429.3,345,429.3z"/>
		</g>
		<g>
			<path class="st1" d="M442.5,637.9c18.4-33.5,70.9-128.9,92.2-164.6c0.8-1.3,2-3.5,3.7-6.2c33-56.2,45.2-73.8,49.3-77.8
				c6.4,6.2,27.6,34.1,40.5,51.6c1,1.4,3,1.7,4.4,0.7c1.4-1,1.7-3,0.7-4.4c-6.1-8.3-37.1-50.2-43.5-54.2c-0.9-0.5-1.9-0.7-2.9-0.5
				c-3.6,0.9-10.8,7.9-54,81.4c-1.6,2.8-2.9,4.9-3.7,6.2c-22,37-77.3,137.5-94,167.9H442.5z"/>
		</g>
		<g>
			<path class="st1" d="M617.4,456.7c-0.5,0-1-0.1-1.5-0.4c-0.1,0-2-1.1-5.9-3.5c-1.2-0.4-5.2,0.9-7.4,1.6
				c-4.8,1.5-9.3,2.9-11.3-0.5c-0.7-1.1-5.3-4.2-7.8-5.8c-1.6-1.1-2.8-1.9-3.8-2.6c-1.8,1.6-5.2,5.7-8.1,9.9
				c-0.5,0.7-1.2,1.2-2.1,1.3c-0.8,0.1-1.7-0.1-2.4-0.6c-1.8-1.3-7.2-5.3-9.8-7.4c-1.3,0.7-3.7,2.3-5.8,4c-1.3,1.1-3.3,0.9-4.4-0.4
				c-1.1-1.3-0.9-3.3,0.4-4.4c8.5-7,11.3-6.3,13.1-4.6c0.6,0.6,4.1,3.2,7.6,5.9c7.5-10.2,10.3-10.4,11.3-10.5
				c1.2-0.1,2.2,0.3,3.1,1.1c0.5,0.5,2.6,1.9,4.4,3.1c4.3,2.9,7.4,5,9,6.9c1.1-0.2,3.2-0.8,4.7-1.3c4.6-1.5,9.4-3,12.6-0.9
				c1.8,1.1,3.1,2,4,2.5c5-2.7,12.3-6.3,14.7-6.6c1.7-0.2,3.3,1.1,3.5,2.8c0.2,1.7-1.1,3.3-2.8,3.5c-1.4,0.3-8.3,3.7-13.9,6.7
				C618.5,456.5,618,456.7,617.4,456.7z M610.1,452.8L610.1,452.8L610.1,452.8z"/>
		</g>
		<g>
			<path class="st1" d="M667.7,548.9c-1.6,0-2.9-1.2-3.1-2.7l-5.1-38.3c-0.2-1.7,1-3.3,2.7-3.5c1.7-0.2,3.3,1,3.5,2.7l5.1,38.3
				c0.2,1.7-1,3.3-2.7,3.5C668,548.9,667.9,548.9,667.7,548.9z"/>
		</g>
		<g>
			<path class="st1" d="M490.4,597c-0.5,0-1.1-0.1-1.6-0.4c-1.5-0.9-2-2.8-1.1-4.3l72-123.7c0.9-1.5,2.8-2,4.3-1.1
				c1.5,0.9,2,2.8,1.1,4.3l-72,123.7C492.5,596.4,491.5,597,490.4,597z"/>
		</g>
		<g>
			<path class="st1" d="M797,268.2c-1.2,0-2.3-0.7-2.9-1.8l-15.2-33c-0.7-1.6,0-3.5,1.5-4.2c1.6-0.7,3.5,0,4.2,1.5l13.8,30
				c13-7.1,29.2-22.5,38.1-31.4c1.2-1.2,3.2-1.3,4.5,0c1.2,1.2,1.3,3.2,0,4.5c-9.8,9.9-28.4,27.6-42.7,34.2
				C797.9,268.1,797.4,268.2,797,268.2z"/>
		</g>
		<g>
			<path class="st1" d="M765.5,268.2c-0.4,0-0.9-0.1-1.3-0.3c-14.5-6.6-33.2-24.5-43.1-34.5c-1.2-1.2-1.2-3.2,0-4.5
				c1.2-1.2,3.2-1.2,4.5,0c8.9,9.1,25.2,24.7,38.4,31.8l13.8-30c0.7-1.6,2.6-2.3,4.2-1.5c1.6,0.7,2.3,2.6,1.5,4.2l-15.2,33
				C767.9,267.5,766.7,268.2,765.5,268.2z"/>
		</g>
		<g>
			<path class="st1" d="M1087.9,238.9c-6.8,0-12.3-5.5-12.3-12.3c0-6.8,5.5-12.3,12.3-12.3c6.8,0,12.3,5.5,12.3,12.3
				C1100.2,233.4,1094.7,238.9,1087.9,238.9z M1087.9,220.6c-3.3,0-6,2.7-6,6c0,3.3,2.7,6,6,6c3.3,0,6-2.7,6-6
				C1093.9,223.3,1091.2,220.6,1087.9,220.6z"/>
		</g>
		<g>
			<path class="st1" d="M387.3,244.7c-8.4,0-15.3-6.9-15.3-15.3c0-8.4,6.9-15.3,15.3-15.3c8.4,0,15.3,6.9,15.3,15.3
				C402.6,237.9,395.8,244.7,387.3,244.7z M387.3,220.4c-5,0-9,4-9,9c0,5,4,9,9,9c5,0,9-4,9-9C396.3,224.5,392.3,220.4,387.3,220.4z
				"/>
		</g>
		<g>
			<path class="st1" d="M1530.4,633.3c-6.8,0-12.3-5.5-12.3-12.3s5.5-12.3,12.3-12.3c6.8,0,12.3,5.5,12.3,12.3
				S1537.2,633.3,1530.4,633.3z M1530.4,615c-3.3,0-6,2.7-6,6s2.7,6,6,6c3.3,0,6-2.7,6-6S1533.7,615,1530.4,615z"/>
		</g>
		<g>
			<path class="st1" d="M730.2,497.4c-19.7,0-40.4-3-41.7-3.2c-1.7-0.3-2.9-1.9-2.7-3.6c0.3-1.7,1.9-2.9,3.6-2.7
				c0.5,0.1,47.7,6.9,65.9,0.2c8.8-3.3,30.5-10.8,52.6-18.2c21.8-7.3,31.7-10.5,36.3-11.8c-1.3-4.9-3.5-14.6-3.7-21.7
				c-9.8,1.1-36.5,3.5-49.4-0.5c-13.8-4.3-75.6-9.7-112.1,4.1c-1.6,0.6-3.5-0.2-4.1-1.8c-0.6-1.6,0.2-3.5,1.8-4.1
				c38.4-14.5,101.3-8.8,116.2-4.2c14.4,4.4,50-0.1,50.4-0.1c1-0.1,1.9,0.2,2.6,0.9c0.7,0.7,1,1.7,0.9,2.6
				c-0.8,6.3,2.8,21.1,4.2,26.2c0.3,1.1,0,2.2-0.8,3.1c-0.6,0.6-1.3,0.9-2.1,1c-5.2,1.1-71.4,23.3-90.7,30.5
				C750.7,496.6,740.6,497.4,730.2,497.4z M847.3,463.4C847.3,463.4,847.3,463.4,847.3,463.4C847.3,463.4,847.3,463.4,847.3,463.4z"
				/>
		</g>
		<g>
			<path class="st1" d="M883.5,507c-21.4,0-85.4-1.6-109.6-20.3c-1.4-1.1-1.6-3.1-0.6-4.4c1.1-1.4,3.1-1.6,4.4-0.6
				c26.8,20.8,111.7,19,112.5,18.9c1.7,0,3.2,1.3,3.2,3.1c0,1.7-1.3,3.2-3.1,3.2C889.9,507,887.5,507,883.5,507z"/>
		</g>
		<g>
			<path class="st1" d="M893,466.3c-0.3,0-0.7-0.1-1-0.2c-8.4-2.9-34.4-2.9-43.7-2.6c-1.7,0.1-3.2-1.3-3.2-3.1
				c-0.1-1.7,1.3-3.2,3.1-3.2c1.3,0,28.3-0.8,42,1.9c0-5.8-0.8-18.2-6.2-36.2c-7.9-26.3-9.4-73.2-2.8-91.3c0.6-1.6,2.4-2.5,4-1.9
				c1.6,0.6,2.5,2.4,1.9,4c-5.6,15.4-5.1,60.5,2.9,87.4c8.1,26.7,6.3,41.8,6.3,42.4c-0.1,0.9-0.7,1.8-1.5,2.3
				C894.1,466.1,893.5,466.3,893,466.3z"/>
		</g>
		<g>
			<path class="st1" d="M930.6,460.6c-0.2,0-0.4,0-0.6-0.1c-1.7-0.3-2.8-2-2.5-3.7c10.6-57.5-16.6-144.6-16.9-145.5
				c-0.5-1.7,0.4-3.4,2.1-4c1.7-0.5,3.4,0.4,4,2.1c1.1,3.6,28,89.5,17.1,148.5C933.4,459.6,932.1,460.6,930.6,460.6z"/>
		</g>
		<g>
			<path class="st1" d="M647.5,398.7c-1.7,0-3.1-1.4-3.2-3.1c0-2.4-0.9-58.7,16.4-88.7c0.9-1.5,2.8-2,4.3-1.2c1.5,0.9,2,2.8,1.2,4.3
				c-16.4,28.5-15.6,84.9-15.6,85.4C650.7,397.2,649.3,398.7,647.5,398.7C647.6,398.7,647.6,398.7,647.5,398.7z"/>
		</g>
		<g>
			<path class="st1" d="M807.6,438.1c-1.7,0-3.2-1.4-3.2-3.2V270c0-1.7,1.4-3.2,3.2-3.2s3.2,1.4,3.2,3.2v165
				C810.8,436.7,809.3,438.1,807.6,438.1z"/>
		</g>
		<g>
			<path class="st1" d="M804.8,555C804.8,555,804.8,555,804.8,555c-1.8,0-3.2-1.5-3.2-3.2l0.9-55.4c0-1.7,1.4-3.1,3.2-3.1
				c0,0,0,0,0.1,0c1.7,0,3.1,1.5,3.1,3.2l-0.9,55.4C807.9,553.6,806.5,555,804.8,555z"/>
		</g>
		<g>
			<path class="st1" d="M783.7,292.4c-4.9,0-8.9-4-8.9-8.9c0-4.9,4-8.9,8.9-8.9c4.9,0,8.9,4,8.9,8.9
				C792.7,288.4,788.6,292.4,783.7,292.4z M783.7,280.9c-1.4,0-2.6,1.2-2.6,2.6c0,1.4,1.2,2.6,2.6,2.6c1.4,0,2.6-1.2,2.6-2.6
				C786.3,282.1,785.2,280.9,783.7,280.9z"/>
		</g>
		<g>
			<path class="st1" d="M783.7,335.9c-4.9,0-8.9-4-8.9-8.9c0-4.9,4-8.9,8.9-8.9c4.9,0,8.9,4,8.9,8.9
				C792.7,331.9,788.6,335.9,783.7,335.9z M783.7,324.3c-1.4,0-2.6,1.2-2.6,2.6c0,1.4,1.2,2.6,2.6,2.6c1.4,0,2.6-1.2,2.6-2.6
				C786.3,325.5,785.2,324.3,783.7,324.3z"/>
		</g>
		<g>
			<path class="st1" d="M783.7,379.3c-4.9,0-8.9-4-8.9-8.9c0-4.9,4-8.9,8.9-8.9c4.9,0,8.9,4,8.9,8.9
				C792.7,375.3,788.6,379.3,783.7,379.3z M783.7,367.7c-1.4,0-2.6,1.2-2.6,2.6c0,1.4,1.2,2.6,2.6,2.6c1.4,0,2.6-1.2,2.6-2.6
				C786.3,368.9,785.2,367.7,783.7,367.7z"/>
		</g>
		<g>
			<path class="st1" d="M783.7,422.7c-4.9,0-8.9-4-8.9-8.9c0-4.9,4-8.9,8.9-8.9c4.9,0,8.9,4,8.9,8.9
				C792.7,418.7,788.6,422.7,783.7,422.7z M783.7,411.1c-1.4,0-2.6,1.2-2.6,2.6c0,1.4,1.2,2.6,2.6,2.6c1.4,0,2.6-1.2,2.6-2.6
				C786.3,412.3,785.2,411.1,783.7,411.1z"/>
		</g>
		<g>
			<path class="st1" d="M785.5,534.2c-4.9,0-8.9-4-8.9-8.9c0-4.9,4-8.9,8.9-8.9c4.9,0,8.9,4,8.9,8.9
				C794.5,530.2,790.5,534.2,785.5,534.2z M785.5,522.7c-1.4,0-2.6,1.2-2.6,2.6c0,1.4,1.2,2.6,2.6,2.6c1.4,0,2.6-1.2,2.6-2.6
				C788.2,523.8,787,522.7,785.5,522.7z"/>
		</g>
		<g>
			<path class="st1" d="M705.1,433.2c-1.2,0-2.3-0.7-2.8-1.8c-0.1-0.2-9.5-19.7-14.4-27.7C683.1,396,675.1,390,675,390
				c-1.4-1-1.7-3-0.7-4.4c1-1.4,3-1.7,4.4-0.7c0.4,0.3,9.1,6.8,14.5,15.4c5.1,8.3,14.3,27.5,14.7,28.3c0.8,1.6,0.1,3.5-1.5,4.2
				C706,433.1,705.5,433.2,705.1,433.2z"/>
		</g>
		<g>
			<path class="st1" d="M694.2,435.5c-1.2,0-2.3-0.7-2.9-1.8c-0.1-0.2-8.1-17.1-11.3-23.3c-2.9-5.7-9.9-11.7-10-11.7
				c-1.3-1.1-1.5-3.1-0.3-4.5c1.1-1.3,3.1-1.5,4.5-0.3c0.3,0.3,8,6.9,11.5,13.7c3.2,6.3,11.1,22.8,11.4,23.5
				c0.7,1.6,0.1,3.5-1.5,4.2C695.1,435.4,694.6,435.5,694.2,435.5z"/>
		</g>
		<g>
			<path class="st1" d="M684.9,437.9c-1.2,0-2.3-0.7-2.9-1.8c-0.1-0.1-5.8-12.1-10-19.5c-3.1-5.4-5.2-6.6-5.4-6.7
				c-1.5-0.5-2.5-2-2.2-3.6c0.3-1.7,2-2.8,3.7-2.5c1.3,0.3,4.8,1.7,9.4,9.7c4.3,7.6,10,19.4,10.2,19.9c0.7,1.6,0.1,3.5-1.5,4.2
				C685.8,437.8,685.3,437.9,684.9,437.9z M666.9,409.9C666.9,409.9,666.9,409.9,666.9,409.9C666.9,409.9,666.9,409.9,666.9,409.9z
				 M666.9,409.9C666.9,409.9,666.9,409.9,666.9,409.9C666.9,409.9,666.9,409.9,666.9,409.9z M666.9,409.9
				C666.9,409.9,666.9,409.9,666.9,409.9C666.9,409.9,666.9,409.9,666.9,409.9z"/>
		</g>
		<g>
			<path class="st1" d="M565.4,399.4h-61.8c-1.7,0-3.2-1.4-3.2-3.2v-10.8c0-1.7,1.4-3.2,3.2-3.2h61.8c1.7,0,3.2,1.4,3.2,3.2
				c0,1.7-1.4,3.2-3.2,3.2h-58.7v4.5h58.7c1.7,0,3.2,1.4,3.2,3.2C568.6,398,567.2,399.4,565.4,399.4z"/>
		</g>
		<g>
			<path class="st1" d="M522.2,388.5c-1.7,0-3.2-1.4-3.2-3.2V243c0-1.7,1.4-3.2,3.2-3.2s3.2,1.4,3.2,3.2v142.4
				C525.4,387.1,524,388.5,522.2,388.5z"/>
		</g>
		<g>
			<path class="st1" d="M456.7,350.5c-0.6,0-1.1-0.1-1.6-0.5c-1.5-0.9-2-2.8-1.1-4.3l17.4-28.9c0.9-1.5,2.8-2,4.3-1.1
				c1.5,0.9,2,2.8,1.1,4.3L459.5,349C458.9,350,457.8,350.5,456.7,350.5z"/>
		</g>
		<g>
			<path class="st1" d="M554.6,274.6c-0.8,0-1.6-0.3-2.2-0.9l-12.5-12.5c-1.2-1.2-1.2-3.2,0-4.5c1.2-1.2,3.2-1.2,4.5,0l10.2,10.2
				l9.1-9.1c1.2-1.2,3.2-1.2,4.5,0c1.2,1.2,1.2,3.2,0,4.5l-11.3,11.3C556.2,274.2,555.4,274.6,554.6,274.6z"/>
		</g>
		<g>
			<path class="st1" d="M643.7,262.1h-56.2c-1.7,0-3.2-1.4-3.2-3.2c0-1.7,1.4-3.2,3.2-3.2h56.2c1.7,0,3.2,1.4,3.2,3.2
				C646.9,260.7,645.5,262.1,643.7,262.1z"/>
		</g>
		<g>
			<path class="st1" d="M643.7,273.7h-56.2c-1.7,0-3.2-1.4-3.2-3.2c0-1.7,1.4-3.2,3.2-3.2h56.2c1.7,0,3.2,1.4,3.2,3.2
				C646.9,272.2,645.5,273.7,643.7,273.7z"/>
		</g>
		<g>
			<path class="st1" d="M554.6,316.4c-0.8,0-1.6-0.3-2.2-0.9l-12.5-12.5c-1.2-1.2-1.2-3.2,0-4.5c1.2-1.2,3.2-1.2,4.5,0l10.2,10.2
				l9.1-9.1c1.2-1.2,3.2-1.2,4.5,0c1.2,1.2,1.2,3.2,0,4.5l-11.3,11.3C556.2,316,555.4,316.4,554.6,316.4z"/>
		</g>
		<g>
			<path class="st1" d="M618.3,303.9h-30.7c-1.7,0-3.2-1.4-3.2-3.2c0-1.7,1.4-3.2,3.2-3.2h30.7c1.7,0,3.2,1.4,3.2,3.2
				C621.4,302.5,620,303.9,618.3,303.9z"/>
		</g>
		<g>
			<path class="st1" d="M618.3,315.4h-30.7c-1.7,0-3.2-1.4-3.2-3.2c0-1.7,1.4-3.2,3.2-3.2h30.7c1.7,0,3.2,1.4,3.2,3.2
				C621.4,314,620,315.4,618.3,315.4z"/>
		</g>
		<g>
			<path class="st1" d="M554.6,358.1c-0.8,0-1.6-0.3-2.2-0.9l-12.5-12.5c-1.2-1.2-1.2-3.2,0-4.5c1.2-1.2,3.2-1.2,4.5,0l10.2,10.2
				l9.1-9.1c1.2-1.2,3.2-1.2,4.5,0c1.2,1.2,1.2,3.2,0,4.5l-11.3,11.3C556.2,357.8,555.4,358.1,554.6,358.1z"/>
		</g>
		<g>
			<path class="st1" d="M836.9,131.5c-0.7,0-1.3-0.2-1.8-0.6l-6.5-4.6c-0.4-0.3-0.8-0.7-1-1.2c-0.8-1.7-1.4-3.7-2-6.1
				c-2.1-7.6-5-18.1-17-26.8c-4.7-3.4-9.9-5.2-14.6-6.9c-4-1.4-7.6-2.7-10.2-4.7c-4.5,4.6-15,13.7-33.7,20.2
				c-12,4.2-13,11.5-13.9,18.6c-0.2,1.8-0.5,3.5-0.9,5.1c-0.2,0.8-0.7,1.5-1.4,1.9l-4.2,2.5c-1.4,0.8-3.2,0.5-4.2-0.9
				c-1-1.4-24.6-34.7-4.7-67c12.4-20.1,22.3-25,29.4-28.5c4-1.9,6.9-3.4,9.2-6.9c0.5-0.7,1.2-1.2,2.1-1.4c0.9-0.1,1.7,0.1,2.4,0.6
				c0.1,0,5.7,4.1,11.4,4.3c2.8-3,8-9.3,9.4-13.3c0.4-1.1,1.2-1.9,2.3-2.1c1.1-0.2,2.2,0.1,3,0.9c0.1,0.1,8,8.5,22.1,17.4
				c4.8,3,21.1,14.2,30.8,32.4c10.9,20.6,9.9,42.6-3.1,65.4c-0.4,0.8-1.2,1.3-2.1,1.5C837.3,131.5,837.1,131.5,836.9,131.5z
				 M832.9,121.6l2.9,2.1c25.8-49.5-18-80.5-27.2-86.3c-9.6-6-16.4-11.8-20.1-15.2c-3.4,5.7-8.9,11.5-9.6,12.3c-0.5,0.6-1.3,0.9-2,1
				c-5.6,0.4-11.1-2.1-14.1-3.8c-2.9,3.3-6.3,4.9-9.8,6.6c-6.8,3.3-15.4,7.5-26.8,26.1c-14.9,24.1-1.9,49.7,2.9,57.6l0.4-0.3
				c0.2-0.9,0.3-2,0.5-3.1c1-7.3,2.4-18.4,18.1-23.8c23.5-8.1,33.1-20.8,33.2-20.9c0.7-0.9,1.7-1.4,2.8-1.3c1.1,0.1,2.1,0.7,2.6,1.7
				c1,2,5.1,3.4,9.4,4.9c4.8,1.7,10.8,3.8,16.2,7.7c13.8,10.1,17.3,22.7,19.4,30.3C832.1,119,832.5,120.5,832.9,121.6z M776.7,32.3
				L776.7,32.3L776.7,32.3z"/>
		</g>
		<g>
			<path class="st1" d="M729.1,102.9c-0.5,0-1-0.1-1.4-0.3c-1.5-0.8-2.2-2.7-1.4-4.2c0.3-0.5,6.4-12.3,23.4-17.5
				c11-3.4,13.4-6.1,13.8-6.6c0.3-1.4,1.6-2.4,3.1-2.4c1.7,0,3.2,1.4,3.2,3.2c0,2.9-3.1,7.3-18.1,11.9
				c-14.3,4.4-19.4,13.9-19.6,14.3C731.4,102.3,730.2,102.9,729.1,102.9z M763.4,75C763.4,75,763.4,75,763.4,75
				C763.4,75,763.4,75,763.4,75z M763.4,75C763.4,75,763.4,75,763.4,75C763.4,75,763.4,75,763.4,75z M763.4,75L763.4,75
				C763.4,75,763.4,75,763.4,75z"/>
		</g>
		<g>
			<path class="st1" d="M691.9,388.5c-0.5,0-1.1-0.1-1.5-0.4c-1.5-0.8-2.1-2.8-1.2-4.3c0.1-0.2,5.3-10,6.1-33.2
				c0.9-23.5,0.1-28.8,0-29c-0.3-1.7,0.9-3.3,2.6-3.6c1.7-0.3,3.3,0.8,3.6,2.5c0.1,0.6,0.9,6.1,0,30.3c-0.9,25.1-6.7,35.6-6.9,36
				C694,388,693,388.5,691.9,388.5z"/>
		</g>
		<g>
			<path class="st1" d="M1129.9,398.7h-105.1c-1.7,0-3.2-1.4-3.2-3.2c0-15.3,13.3-27.8,29.6-27.8c4.8,0,9.4,1.1,13.6,3.1
				c4.5-6.9,11.2-10.9,18.4-10.9c9.1,0,17.3,6.4,21.3,16.4c0.8-0.1,1.6-0.1,2.3-0.1c12.2,0,23,7.5,26.1,18.3c0.3,1,0.1,2-0.5,2.8
				C1131.8,398.2,1130.9,398.7,1129.9,398.7z M1028.2,392.4h96.9c-3.5-5.9-10.5-9.7-18.3-9.7c-1.3,0-2.6,0.1-3.9,0.3
				c-1.6,0.3-3.1-0.7-3.5-2.2c-2.7-8.8-9.1-14.5-16.1-14.5c-5.7,0-11.1,3.8-14.4,10.2c-0.4,0.8-1.1,1.4-2,1.6
				c-0.9,0.2-1.8,0.1-2.5-0.4c-3.9-2.4-8.4-3.7-13.1-3.7C1039.6,374.1,1029.9,382.1,1028.2,392.4z"/>
		</g>
		<g>
			<path class="st1" d="M1190.6,363.7c-32.3,0-58.5-26.2-58.5-58.5v-37.4c0-1.7,1.4-3.2,3.2-3.2H1246c1.7,0,3.2,1.4,3.2,3.2v37.4
				C1249.1,337.5,1222.9,363.7,1190.6,363.7z M1138.5,270.9v34.3c0,28.8,23.4,52.2,52.2,52.2s52.2-23.4,52.2-52.2v-34.3H1138.5z"/>
		</g>
		<g>
			<path class="st1" d="M1247,270.9h-112.8c-6,0-10.9-4.9-10.9-10.9c0-6,4.9-10.9,10.9-10.9H1247c6,0,10.9,4.9,10.9,10.9
				C1257.9,266.1,1253,270.9,1247,270.9z M1134.2,255.5c-2.5,0-4.6,2-4.6,4.6c0,2.5,2,4.6,4.6,4.6H1247c2.5,0,4.6-2,4.6-4.6
				c0-2.5-2-4.6-4.6-4.6H1134.2z"/>
		</g>
		<g>
			<path class="st1" d="M1202.8,401.2h-24.4c-6.2,0-11.3-5.1-11.3-11.3c0-6.2,5.1-11.3,11.3-11.3h24.4c6.2,0,11.3,5.1,11.3,11.3
				C1214.1,396.1,1209.1,401.2,1202.8,401.2z M1178.4,384.9c-2.7,0-5,2.2-5,5c0,2.7,2.2,5,5,5h24.4c2.7,0,5-2.2,5-5c0-2.7-2.2-5-5-5
				H1178.4z"/>
		</g>
		<g>
			<path class="st1" d="M1177.3,344.2c-0.5,0-0.9-0.1-1.4-0.3c-32.6-16.2-25.9-63.7-25.6-65.7c0.3-1.7,1.9-2.9,3.6-2.7
				c1.7,0.3,2.9,1.9,2.7,3.6l0,0c-0.1,0.4-6.3,45,22.2,59.1c1.6,0.8,2.2,2.7,1.4,4.2C1179.6,343.5,1178.5,344.2,1177.3,344.2z"/>
		</g>
		<g>
			<path class="st1" d="M1196.4,482.7H1144c-1.7,0-3.2-1.4-3.2-3.2v-20.3c0-1.7,1.4-3.2,3.2-3.2h53c1,0,1.9,0.4,2.5,1.2
				c0.6,0.8,0.8,1.7,0.6,2.7c-0.3,1.4-0.5,2.9-0.5,4.3v15.3C1199.6,481.3,1198.2,482.7,1196.4,482.7z M1147.1,476.4h46.1v-12.1
				c0-0.6,0-1.2,0.1-1.8h-46.2V476.4z"/>
		</g>
		<g>
			<path class="st1" d="M1197,462.5h-30.2c-1.7,0-3.2-1.4-3.2-3.2v-34.4c0-1.7,1.4-3.2,3.2-3.2h30.4c1.7,0,3.1,1.4,3.2,3.1
				c0,7.8,1.8,15.4,5.3,22.5c0.6,1.2,0.4,2.6-0.6,3.6c-2.4,2.5-4.1,5.6-4.9,9C1199.8,461.4,1198.5,462.5,1197,462.5z M1169.9,456.1
				h24.7c1-2.9,2.5-5.6,4.4-7.9c-2.9-6.4-4.5-13.2-4.9-20.1h-24.2V456.1z"/>
		</g>
		<g>
			<path class="st1" d="M1382.2,584.7h-109.1c-1.7,0-3.2-1.4-3.2-3.2c0-1.7,1.4-3.2,3.2-3.2h109.1c1.7,0,3.2,1.4,3.2,3.2
				C1385.4,583.3,1384,584.7,1382.2,584.7z"/>
		</g>
		<g>
			<path class="st1" d="M1222.4,584.7h-26c-1.7,0-3.2-1.4-3.2-3.2V464.3c0-6.6,2.6-12.9,7.2-17.7c0.7-0.7,1.7-1.1,2.8-0.9
				c1,0.2,1.9,0.8,2.3,1.7c6.1,12.5,16.7,21.9,29.9,26.4l32.1,11c1.6,0.6,2.5,2.4,2,4c-0.6,1.6-2.4,2.5-4,2l-32.1-11
				c-13.2-4.5-24.1-13.4-31.1-25.2c-1.8,2.9-2.7,6.3-2.7,9.7v114.1h22.8c1.7,0,3.2,1.4,3.2,3.2
				C1225.6,583.3,1224.2,584.7,1222.4,584.7z"/>
		</g>
		<g>
			<path class="st1" d="M1459,584.7h-25.7c-1.7,0-3.2-1.4-3.2-3.2c0-1.7,1.4-3.2,3.2-3.2h22.5V464.3c0-3.5-0.9-6.8-2.7-9.7
				c-7.1,11.8-18,20.7-31.1,25.2l-32.1,11c-1.7,0.6-3.4-0.3-4-2c-0.6-1.6,0.3-3.4,2-4l32.1-11c13.2-4.5,23.8-13.9,29.9-26.4
				c0.4-0.9,1.3-1.6,2.3-1.7c1-0.2,2,0.2,2.8,0.9c4.7,4.8,7.2,11,7.2,17.7v117.3C1462.2,583.3,1460.8,584.7,1459,584.7z"/>
		</g>
		<g>
			<path class="st1" d="M1360.9,498.2c-1.5,0-2.8-1.1-3.1-2.6c-0.3-1.7,0.8-3.4,2.6-3.7c9.3-1.7,18.6-4.1,27.6-7.1l32.1-11
				c20.1-6.9,34-25.4,35.1-46.4h-254.7c1.1,21.1,14.9,39.5,35.1,46.4l32.1,11c8.9,3.1,18.2,5.5,27.4,7.1c1.7,0.3,2.9,1.9,2.5,3.7
				c-0.3,1.7-1.9,2.9-3.7,2.5c-9.6-1.7-19.1-4.2-28.4-7.4l-32.1-11c-23.6-8.1-39.4-30.3-39.4-55.2v-0.4c0-1.7,1.4-3.2,3.2-3.2h261.1
				c1.7,0,3.2,1.4,3.2,3.2v0.4c0,24.9-15.8,47.1-39.4,55.2l-32.1,11c-9.3,3.2-18.9,5.7-28.5,7.4
				C1361.3,498.2,1361.1,498.2,1360.9,498.2z"/>
		</g>
		<g>
			<path class="st1" d="M1354.9,518.3h-54.4c-4.8,0-8.8-3.9-8.8-8.8v-16.2c0-4.8,3.9-8.8,8.8-8.8h54.4c4.8,0,8.8,3.9,8.8,8.8v16.2
				C1363.7,514.4,1359.8,518.3,1354.9,518.3z M1300.5,490.9c-1.4,0-2.4,1.1-2.4,2.4v16.2c0,1.4,1.1,2.4,2.4,2.4h54.4
				c1.4,0,2.4-1.1,2.4-2.4v-16.2c0-1.4-1.1-2.4-2.4-2.4H1300.5z"/>
		</g>
		<g>
			<g>
				<path class="st1" d="M1271.7,592.7H1224c-1.7,0-3.2-1.4-3.2-3.2v-20.9c0-1.7,1.4-3.2,3.2-3.2h47.7c1.7,0,3.2,1.4,3.2,3.2v20.9
					C1274.9,591.3,1273.4,592.7,1271.7,592.7z M1227.1,586.4h41.4v-14.6h-41.4V586.4z"/>
			</g>
			<g>
				<path class="st1" d="M1431.5,592.7h-47.7c-1.7,0-3.2-1.4-3.2-3.2v-20.9c0-1.7,1.4-3.2,3.2-3.2h47.7c1.7,0,3.2,1.4,3.2,3.2v20.9
					C1434.6,591.3,1433.2,592.7,1431.5,592.7z M1386.9,586.4h41.4v-14.6h-41.4V586.4z"/>
			</g>
		</g>
		<g>
			<path class="st1" d="M1370.8,565.5h-86.5c-1.7,0-3.2-1.4-3.2-3.2s1.4-3.2,3.2-3.2h86.5c1.7,0,3.2,1.4,3.2,3.2
				S1372.5,565.5,1370.8,565.5z"/>
		</g>
		<g>
			<path class="st1" d="M1282.1,476.6c-0.3,0-0.5,0-0.8-0.1c-1-0.3-25.4-6.7-42.5-14.3c-18.2-8.1-22.2-20.1-22.3-20.6
				c-0.5-1.7,0.4-3.4,2.1-4c1.7-0.5,3.4,0.4,4,2c0.2,0.5,3.5,10,18.9,16.8c16.7,7.4,41.3,13.9,41.6,13.9c1.7,0.4,2.7,2.2,2.3,3.9
				C1284.7,475.6,1283.5,476.6,1282.1,476.6z"/>
		</g>
		<g>
			<path class="st1" d="M1395.7,426.8c-1.7,0-3.2-1.4-3.2-3.2v-13.2c0-5.1-4.2-9.3-9.3-9.3h-15.6c-1.7,0-3.2-1.4-3.2-3.2
				c0-1.7,1.4-3.2,3.2-3.2h15.6c8.6,0,15.6,7,15.6,15.6v13.2C1398.9,425.4,1397.5,426.8,1395.7,426.8z"/>
		</g>
		<g>
			<path class="st1" d="M1259.7,427.4c-1.7,0-3.2-1.4-3.2-3.2v-13.7c0-8.6,7-15.6,15.6-15.6h15.2c1.7,0,3.2,1.4,3.2,3.2
				c0,1.7-1.4,3.2-3.2,3.2h-15.2c-5.1,0-9.3,4.2-9.3,9.3v13.7C1262.9,426,1261.5,427.4,1259.7,427.4z"/>
		</g>
		<g>
			<path class="st1" d="M1361.3,411.3h-67.1c-4.8,0-8.7-3.9-8.7-8.7v-11.4c0-4.8,3.9-8.7,8.7-8.7h67.1c4.8,0,8.7,3.9,8.7,8.7v11.4
				C1369.9,407.4,1366,411.3,1361.3,411.3z M1294.2,388.9c-1.3,0-2.4,1.1-2.4,2.4v11.4c0,1.3,1.1,2.4,2.4,2.4h67.1
				c1.3,0,2.4-1.1,2.4-2.4v-11.4c0-1.3-1.1-2.4-2.4-2.4H1294.2z"/>
		</g>
		<g>
			<path class="st1" d="M1406.8,359.9h-96.2c-1.5,0-2.8-1.1-3.1-2.6c-0.3-1.5-0.4-3-0.4-4.4c0-12.8,10.5-23.2,23.4-23.2
				c1.4,0,2.9,0.1,4.3,0.4c4.7-9.2,13.1-14.8,22.3-14.8c9.3,0,17.9,5.9,22.6,15.3c1.2-0.2,2.4-0.2,3.6-0.2
				c14.8,0,26.8,11.4,26.8,25.3c0,0.4,0,0.8,0,1.2C1409.8,358.6,1408.5,359.9,1406.8,359.9z M1313.3,353.6h90.2
				c-1.1-9.5-9.8-16.9-20.3-16.9c-1.6,0-3.2,0.2-4.8,0.5c-1.5,0.3-3-0.5-3.6-1.9c-3.4-8.4-10.2-13.7-17.8-13.7
				c-7.5,0-14.2,5.1-17.6,13.3c-0.6,1.5-2.3,2.3-3.9,1.8c-1.7-0.5-3.4-0.8-5.1-0.8c-9.4,0-17.1,7.6-17.1,16.9
				C1313.3,353.2,1313.3,353.4,1313.3,353.6z"/>
		</g>
		<g>
			<path class="st1" d="M1090.4,524.5c-0.9,0-1.8-0.4-2.5-1.2L989,401l-34.2,35.5c-1.2,1.3-3.2,1.3-4.5,0.1
				c-1.3-1.2-1.3-3.2-0.1-4.5l36.7-38c0.6-0.7,1.5-1,2.4-1c0.9,0,1.7,0.5,2.3,1.2l101.3,125.1c1.1,1.4,0.9,3.3-0.5,4.4
				C1091.8,524.3,1091.1,524.5,1090.4,524.5z"/>
		</g>
		<g>
			<path class="st1" d="M987.3,483.2c-1,0-2.1-0.2-3.2-0.6c-4.5-1.4-11.6-5.9-12.8-10.4c-0.2-0.8-0.8-1.3-1.3-1.5l-7.9,7.9
				c-1.2,1.2-3.2,1.2-4.5,0c-1.2-1.2-1.2-3.2,0-4.5l9-9c0.6-0.6,1.4-0.9,2.2-0.9c2.3,0,7.1,1.3,8.5,6.4c0.6,2,7.2,6.2,9.7,6.3
				c0.5-0.4,1-1,1.6-1.7c2.4-2.6,5.6-6.1,10.4-7.5c5.9-1.7,19.2-2.7,22.3,5.7c0.7,1.8,5.3,2,9.2,1.5c3-7,10.2-13.8,10.5-14.1
				c1.3-1.2,3.3-1.1,4.5,0.1c1.2,1.3,1.1,3.3-0.1,4.5c-2.1,2-8,8.3-9.5,13.3c-0.3,1.1-1.3,1.9-2.4,2.1c-1.5,0.3-15,2.8-18.1-5.2
				c-1.2-3.2-9.7-3.3-14.6-1.9c-3.1,0.9-5.5,3.5-7.6,5.7c-0.9,0.9-1.7,1.8-2.5,2.5C989.9,482.8,988.7,483.2,987.3,483.2z"/>
		</g>
		<g>
			<path class="st1" d="M1052.1,527.2c-1,0-1.9-0.5-2.6-1.3l-22.8-31.5c-1-1.4-0.7-3.4,0.7-4.4c1.4-1,3.4-0.7,4.4,0.7l22.8,31.5
				c1,1.4,0.7,3.4-0.7,4.4C1053.4,527,1052.7,527.2,1052.1,527.2z"/>
		</g>
		<g>
			<path class="st1" d="M1012.8,635.8c1.4,1,3.4,0.6,4.4-0.8l96.2-141.8c16.1,21.2,100.2,131.9,107.9,143.6c0.3,0.5,0.7,0.8,1.2,1.1
				h2.8c0.1-0.1,0.2-0.1,0.3-0.2c1.5-1,1.9-2.9,0.9-4.4c-8.6-13.1-106.7-142-110.8-147.5c-0.6-0.8-1.6-1.3-2.6-1.2
				c-1,0-2,0.5-2.5,1.4l-98.7,145.4C1011,632.9,1011.3,634.8,1012.8,635.8z"/>
		</g>
		<g>
			<path class="st1" d="M1136.7,548.9c-0.8,0-1.5-0.3-2.1-0.8c-4-3.7-8.8-7.9-11.2-9.7c-2.2,1.9-6.5,6-10.1,9.6
				c-0.9,0.9-2.3,1.2-3.5,0.7c0,0-3.3-1.4-9.2-3.6c-3.7-1.3-16.7,0.3-24.8,2c-1.7,0.3-3.4-0.8-3.7-2.5c-0.3-1.7,0.8-3.4,2.5-3.7
				c3.5-0.7,21.6-4.1,28.2-1.7c3.4,1.3,6,2.3,7.6,2.9c10.7-10.6,11.7-10.6,13-10.6c1.3,0,2.2,0,13.9,10.6c5-2.4,16-6.7,20.9-0.2
				c1.1,1.4,0.8,3.4-0.6,4.4c-1.4,1.1-3.4,0.8-4.4-0.6c-1.8-2.4-9.9,0.2-14.9,2.9C1137.8,548.8,1137.3,548.9,1136.7,548.9z"/>
		</g>
		<g>
			<path class="st1" d="M1063.6,620.6c-0.4,0-0.9-0.1-1.3-0.3c-1.6-0.7-2.3-2.6-1.6-4.2l27.5-61.5c0.7-1.6,2.6-2.3,4.2-1.6
				c1.6,0.7,2.3,2.6,1.6,4.2l-27.5,61.5C1066,619.9,1064.8,620.6,1063.6,620.6z"/>
		</g>
		<g>
			<path class="st1" d="M1187.1,624.1c-1,0-1.9-0.4-2.5-1.3l-46.7-62.9c-1-1.4-0.7-3.4,0.7-4.4c1.4-1,3.4-0.7,4.4,0.7l46.7,62.9
				c1,1.4,0.7,3.4-0.7,4.4C1188.4,623.9,1187.8,624.1,1187.1,624.1z"/>
		</g>
		<g>
			<path class="st1" d="M1277.6,630.5c-1.2,0-2.3-0.7-2.8-1.8c-0.8-1.6-0.1-3.5,1.5-4.2l12.7-6.2l-12.9-7.8c-1.5-0.9-2-2.8-1.1-4.3
				c0.9-1.5,2.8-2,4.3-1.1l17.9,10.8c1,0.6,1.6,1.7,1.5,2.8c-0.1,1.2-0.7,2.2-1.8,2.7l-17.9,8.7
				C1278.6,630.4,1278.1,630.5,1277.6,630.5z"/>
		</g>
		<g>
			<path class="st1" d="M1302.8,630.5c-1.2,0-2.3-0.7-2.8-1.8c-0.8-1.6-0.1-3.5,1.5-4.2l12.7-6.2l-12.9-7.8c-1.5-0.9-2-2.8-1.1-4.3
				c0.9-1.5,2.8-2,4.3-1.1l17.9,10.8c1,0.6,1.6,1.7,1.5,2.8c-0.1,1.2-0.7,2.2-1.8,2.7l-17.9,8.7
				C1303.8,630.4,1303.3,630.5,1302.8,630.5z"/>
		</g>
		<g>
			<path class="st1" d="M1328.1,630.5c-1.2,0-2.3-0.7-2.8-1.8c-0.8-1.6-0.1-3.5,1.5-4.2l12.7-6.2l-12.9-7.8c-1.5-0.9-2-2.8-1.1-4.3
				c0.9-1.5,2.8-2,4.3-1.1l17.9,10.8c1,0.6,1.6,1.7,1.5,2.8c-0.1,1.2-0.7,2.2-1.8,2.7l-17.9,8.7
				C1329,630.4,1328.5,630.5,1328.1,630.5z"/>
		</g>
		<g>
			<path class="st1" d="M1353.3,630.5c-1.2,0-2.3-0.7-2.8-1.8c-0.8-1.6-0.1-3.5,1.5-4.2l12.7-6.2l-12.9-7.8c-1.5-0.9-2-2.8-1.1-4.3
				c0.9-1.5,2.8-2,4.3-1.1l17.9,10.8c1,0.6,1.6,1.7,1.5,2.8c-0.1,1.2-0.7,2.2-1.8,2.7l-17.9,8.7
				C1354.2,630.4,1353.7,630.5,1353.3,630.5z"/>
		</g>
		<g>
			<path class="st1" d="M1378.5,630.5c-1.2,0-2.3-0.7-2.8-1.8c-0.8-1.6-0.1-3.5,1.5-4.2l12.7-6.2l-12.9-7.8c-1.5-0.9-2-2.8-1.1-4.3
				c0.9-1.5,2.8-2,4.3-1.1l17.9,10.8c1,0.6,1.6,1.7,1.5,2.8c-0.1,1.2-0.7,2.2-1.8,2.7l-17.9,8.7
				C1379.4,630.4,1378.9,630.5,1378.5,630.5z"/>
		</g>
		<g>
			<path class="st1" d="M989.4,380c-0.6,0-1.2-0.2-1.7-0.5c-0.9-0.6-1.5-1.6-1.5-2.7v-29.1c0-1.1,0.6-2.1,1.5-2.7
				c0.9-0.6,2.1-0.6,3.1-0.1l29.1,14.6c1.1,0.5,1.7,1.6,1.7,2.8c0,1.2-0.7,2.3-1.7,2.8l-29.1,14.6C990.3,379.9,989.8,380,989.4,380z
				 M992.5,352.8v18.9l18.9-9.5L992.5,352.8z"/>
		</g>
		<g>
			<path class="st1" d="M989.2,399.4c-1.7,0-3.2-1.4-3.2-3.2v-48.5c0-1.7,1.4-3.2,3.2-3.2c1.7,0,3.2,1.4,3.2,3.2v48.5
				C992.3,398,990.9,399.4,989.2,399.4z"/>
		</g>
		<g>
			<path class="st1" d="M481.9,420.8c-0.6,0-1.2-0.2-1.7-0.5c-0.9-0.6-1.5-1.6-1.5-2.7v-29.1c0-1.1,0.6-2.1,1.5-2.7
				c0.9-0.6,2.1-0.6,3.1-0.1l29.1,14.6c1.1,0.5,1.7,1.6,1.7,2.8c0,1.2-0.7,2.3-1.7,2.8l-29.1,14.6
				C482.9,420.7,482.4,420.8,481.9,420.8z M485,393.6v18.9l18.9-9.5L485,393.6z"/>
		</g>
		<g>
			<path class="st1" d="M481.7,440.2c-1.7,0-3.2-1.4-3.2-3.2v-48.5c0-1.7,1.4-3.2,3.2-3.2c1.7,0,3.2,1.4,3.2,3.2V437
				C484.9,438.8,483.5,440.2,481.7,440.2z"/>
		</g>
		<g>
			<path class="st1" d="M587.7,369.2c-0.6,0-1.2-0.2-1.7-0.5c-0.9-0.6-1.5-1.6-1.5-2.7v-29.1c0-1.1,0.6-2.1,1.5-2.7
				c0.9-0.6,2.1-0.6,3.1-0.1l29.1,14.6c1.1,0.5,1.7,1.6,1.7,2.8c0,1.2-0.7,2.3-1.7,2.8l-29.1,14.6
				C588.7,369,588.2,369.2,587.7,369.2z M590.8,342v18.9l18.9-9.5L590.8,342z"/>
		</g>
		<g>
			<path class="st1" d="M587.5,388.5c-1.7,0-3.2-1.4-3.2-3.2v-48.5c0-1.7,1.4-3.2,3.2-3.2c1.7,0,3.2,1.4,3.2,3.2v48.5
				C590.7,387.1,589.2,388.5,587.5,388.5z"/>
		</g>
		<g>
			<path class="st1" d="M1113.5,472.3c-0.6,0-1.2-0.2-1.7-0.5c-0.9-0.6-1.5-1.6-1.5-2.7V440c0-1.1,0.6-2.1,1.5-2.7
				c0.9-0.6,2.1-0.6,3.1-0.1l29.1,14.6c1.1,0.5,1.7,1.6,1.7,2.8c0,1.2-0.7,2.3-1.7,2.8l-29.1,14.6
				C1114.5,472.2,1114,472.3,1113.5,472.3z M1116.7,445.1V464l18.9-9.5L1116.7,445.1z"/>
		</g>
		<g>
			<path class="st1" d="M1113.3,491.7c-1.7,0-3.2-1.4-3.2-3.2V440c0-1.7,1.4-3.2,3.2-3.2s3.2,1.4,3.2,3.2v48.5
				C1116.5,490.2,1115.1,491.7,1113.3,491.7z"/>
		</g>
		<g>
			<path class="st1" d="M1011.6,171.9c-1.6,0-3-1.2-3.1-2.8l-2.9-25.6c-0.1-0.9,0.2-1.7,0.7-2.4l31.3-36.8c0.8-0.9,2-1.3,3.2-1
				c1.2,0.3,2.1,1.3,2.3,2.5l4,21.3l21.6,0.5c1.2,0,2.3,0.8,2.8,1.9c0.5,1.1,0.3,2.4-0.5,3.3l-31.3,36.8c-0.6,0.7-1.4,1.1-2.3,1.1
				l-25.7,1.2C1011.7,171.9,1011.6,171.9,1011.6,171.9z M1011.9,144.1l2.4,21.3l21.4-1l26.1-30.8l-17.6-0.4c-1.5,0-2.7-1.1-3-2.6
				l-3.3-17.3L1011.9,144.1z"/>
		</g>
		<g>
			<path class="st1" d="M947.9,246.8c-0.7,0-1.4-0.2-2-0.8c-1.3-1.1-1.5-3.1-0.4-4.5l80-94.1c1.1-1.3,3.1-1.5,4.5-0.4
				c1.3,1.1,1.5,3.1,0.4,4.5l-80,94.1C949.6,246.4,948.8,246.8,947.9,246.8z"/>
		</g>
		<g>
			<path class="st1" d="M1491.9,572.9h-14.8c-1.7,0-3.2-1.4-3.2-3.2V434.6c0-1.7,1.4-3.2,3.2-3.2h14.8c1.7,0,3.2,1.4,3.2,3.2v135.1
				C1495.1,571.5,1493.7,572.9,1491.9,572.9z M1480.3,566.6h8.5V437.8h-8.5V566.6z"/>
		</g>
		<g>
			<path class="st1" d="M1484.5,607.7c-5.8,0-10.6-4.7-10.6-10.6v-14.4c0-1.7,1.4-3.2,3.2-3.2h14.8c1.7,0,3.2,1.4,3.2,3.2v14.4
				C1495.1,603,1490.3,607.7,1484.5,607.7z M1480.3,585.9v11.3c0,2.3,1.9,4.3,4.3,4.3c2.3,0,4.3-1.9,4.3-4.3v-11.3H1480.3z"/>
		</g>
		<g>
			<path class="st1" d="M1495.2,585.9h-21.4c-1.7,0-3.2-1.4-3.2-3.2v-13c0-1.7,1.4-3.2,3.2-3.2h21.4c1.7,0,3.2,1.4,3.2,3.2v13
				C1498.4,584.5,1497,585.9,1495.2,585.9z M1477,579.6h15.1v-6.7H1477V579.6z"/>
		</g>
		<g>
			<path class="st1" d="M1491.9,437.8h-14.8c-1.1,0-2.1-0.6-2.7-1.5c-0.6-0.9-0.7-2.1-0.2-3l7.4-15.7c0.5-1.1,1.6-1.8,2.9-1.8
				s2.3,0.7,2.9,1.8l7.4,15.7c0.5,1,0.4,2.1-0.2,3C1494,437.2,1493,437.8,1491.9,437.8z M1482.1,431.5h4.9l-2.4-5.2L1482.1,431.5z"
				/>
		</g>
		<g>
			<path class="st1" d="M1484.5,422c-1.7,0-3.2-1.4-3.2-3.2v-13.6c0-1.7,1.4-3.2,3.2-3.2s3.2,1.4,3.2,3.2v13.6
				C1487.7,420.6,1486.3,422,1484.5,422z"/>
		</g>
		<g>
			<path class="st1" d="M1530.4,592.7h-14.8c-1.7,0-3.2-1.4-3.2-3.2V441.1c0-1.7,1.4-3.2,3.2-3.2h14.8c1.7,0,3.2,1.4,3.2,3.2v148.4
				C1533.6,591.3,1532.2,592.7,1530.4,592.7z M1518.7,586.4h8.5V444.3h-8.5V586.4z"/>
		</g>
		<g>
			<path class="st1" d="M1530.4,444.3h-14.8c-1.1,0-2.1-0.6-2.7-1.5c-0.6-0.9-0.7-2.1-0.2-3l7.4-15.7c0.5-1.1,1.6-1.8,2.9-1.8
				s2.3,0.7,2.9,1.8l7.4,15.7c0.5,1,0.4,2.1-0.2,3C1532.5,443.7,1531.5,444.3,1530.4,444.3z M1520.6,438h4.9l-2.4-5.2L1520.6,438z"
				/>
		</g>
		<g>
			<path class="st1" d="M1523,428.5c-1.7,0-3.2-1.4-3.2-3.2v-13.6c0-1.7,1.4-3.2,3.2-3.2c1.7,0,3.2,1.4,3.2,3.2v13.6
				C1526.2,427.1,1524.7,428.5,1523,428.5z"/>
		</g>
		<g>
			<path class="st1" d="M881.2,592.4h-52.3c-1.7,0-3.2-1.4-3.2-3.2c0-1.7,1.4-3.2,3.2-3.2h52.3c4,0,7.2-3.2,7.2-7.2V567
				c0-4-3.2-7.2-7.2-7.2H829c-1.7,0-3.2-1.4-3.2-3.2s1.4-3.2,3.2-3.2h52.1c7.4,0,13.5,6.1,13.5,13.5v11.8
				C894.7,586.3,888.6,592.4,881.2,592.4z"/>
		</g>
		<g>
			<path class="st1" d="M760.9,592.4h-67.7c-7.4,0-13.5-6.1-13.5-13.5V567c0-7.4,6.1-13.5,13.5-13.5h66.9c1.7,0,3.2,1.4,3.2,3.2
				s-1.4,3.2-3.2,3.2h-66.9c-4,0-7.2,3.2-7.2,7.2v11.8c0,4,3.2,7.2,7.2,7.2h67.7c1.7,0,3.2,1.4,3.2,3.2
				C764.1,591,762.7,592.4,760.9,592.4z"/>
		</g>
		<g>
			<path class="st1" d="M816.5,598.6h-43.1c-9.5,0-17.2-7.7-17.2-17.2v-15.6c0-9.5,7.7-17.2,17.2-17.2h43.1
				c9.5,0,17.2,7.7,17.2,17.2v15.6C833.6,590.9,825.9,598.6,816.5,598.6z M773.3,555c-6,0-10.9,4.9-10.9,10.9v15.6
				c0,6,4.9,10.9,10.9,10.9h43.1c6,0,10.9-4.9,10.9-10.9v-15.6c0-6-4.9-10.9-10.9-10.9H773.3z"/>
		</g>
		<g>
			<path class="st1" d="M791.8,637.9V624c0-1.7-1.4-3.2-3.2-3.2c-1.7,0-3.2,1.4-3.2,3.2v13.9H791.8z"/>
		</g>
		<g>
			<path class="st1" d="M893.2,466.3c-0.4,0-0.9-0.1-1.3-0.2c-12.4-4.3-42-2.6-42.3-2.6c-0.1,0-0.1,0-0.2,0c-3.8,0-5.2-5.6-5.8-7.8
				c-1.4-5.6-3.1-19.8-3.1-20.4c-0.2-1.4,0.7-2.8,2-3.3c1.3-0.5,31.4-11.9,49.3,0c0.7,0.4,1.1,1.1,1.3,1.9c0.4,1.7,3.8,16.5,3,22.5
				c-0.5,3.6-0.3,5.3-0.3,5.7c0.6,1.1,0.3,2.3-0.5,3.3C894.9,466,894.1,466.3,893.2,466.3z M896,462.2L896,462.2L896,462.2z
				 M862.8,456.9c8.4,0,19,0.4,26.8,2.1c0.1-1,0.2-2.1,0.4-3.5c0.5-3.4-1.3-12.9-2.6-18.9c-12.8-7.4-33.4-1.7-40.3,0.5
				c0.5,4.3,1.7,13.2,2.7,17c0.4,1.5,0.7,2.4,1,3C853,457,857.4,456.9,862.8,456.9z"/>
		</g>
		<g>
			<path class="st1" d="M615.2,492.1c0.6,1.1,1.7,1.7,2.8,1.7c0.5,0,1-0.1,1.5-0.4c1.5-0.8,2.1-2.7,1.3-4.3c-0.5-0.9-1-1.7-1.5-2.6
				c-0.9-1.5-2.9-1.9-4.4-0.9c-1.5,0.9-1.9,2.9-0.9,4.4C614.4,490.7,614.8,491.4,615.2,492.1z"/>
			<path class="st1" d="M603.3,478.8c0.7,0.5,1.4,1.1,2,1.6c0.6,0.5,1.3,0.8,2,0.8c0.9,0,1.8-0.4,2.4-1.1c1.1-1.3,1-3.3-0.4-4.5
				c-0.7-0.6-1.5-1.2-2.2-1.8c-1.4-1.1-3.4-0.8-4.4,0.6C601.7,475.8,602,477.7,603.3,478.8z"/>
			<path class="st1" d="M610.9,523.2c0.6,0.6,1.4,0.8,2.1,0.8c0.8,0,1.7-0.3,2.3-1c0.7-0.7,1.3-1.5,1.9-2.2c1.1-1.4,0.9-3.3-0.5-4.4
				c-1.4-1.1-3.3-0.9-4.4,0.5c-0.5,0.6-1.1,1.3-1.7,1.9C609.5,520,609.6,522,610.9,523.2z"/>
			<path class="st1" d="M600.3,534.6c0.7,0,1.3-0.2,1.9-0.6l2.2-1.7c1.4-1,1.7-3,0.6-4.4c-1-1.4-3-1.7-4.4-0.6l-2.2,1.6
				c-1.4,1-1.7,3-0.6,4.4C598.4,534.1,599.4,534.6,600.3,534.6z"/>
			<path class="st1" d="M610.2,620.1c0.4,0.2,0.8,0.2,1.2,0.2c1.2,0,2.4-0.7,2.9-1.9c0.7-1.6-0.1-3.5-1.7-4.1
				c-0.9-0.4-1.7-0.7-2.6-1.1c-1.6-0.6-3.5,0.2-4.1,1.8c-0.6,1.6,0.2,3.5,1.8,4.1C608.6,619.5,609.4,619.8,610.2,620.1z"/>
			<path class="st1" d="M632.3,637.9h6.4c0-0.2,0-0.4,0-0.6c-0.2-1.1-0.5-2.2-0.9-3.2c-0.6-1.6-2.4-2.5-4.1-1.9
				c-1.6,0.6-2.5,2.4-1.9,4.1C632,636.9,632.2,637.4,632.3,637.9z"/>
			<path class="st1" d="M621.1,621.7c-0.9,1.5-0.5,3.4,1,4.4c0.7,0.5,1.5,1,2.1,1.4c0.6,0.4,1.2,0.6,1.8,0.6c1,0,2-0.5,2.6-1.3
				c1-1.4,0.7-3.4-0.7-4.4c-0.8-0.5-1.6-1.1-2.4-1.6C624,619.8,622,620.2,621.1,621.7z"/>
			<path class="st1" d="M618,503.7c0,0.8-0.1,1.6-0.3,2.3c-0.3,1.7,0.8,3.4,2.5,3.7c0.2,0,0.4,0.1,0.6,0.1c1.5,0,2.8-1.1,3.1-2.6
				c0.2-1,0.3-2.1,0.4-3.1c0.1-1.7-1.2-3.2-3-3.3C619.6,500.6,618.1,501.9,618,503.7z"/>
			<path class="st1" d="M590.3,609.7c-0.5,1.7,0.4,3.4,2,4c0.9,0.3,1.7,0.6,2.6,0.9c0.3,0.1,0.7,0.2,1,0.2c1.3,0,2.6-0.8,3-2.2
				c0.5-1.7-0.4-3.4-2-4c-0.9-0.3-1.8-0.6-2.6-0.9C592.6,607.2,590.8,608.1,590.3,609.7z"/>
			<path class="st1" d="M551,578.8c0.4,0.2,0.8,0.3,1.3,0.3c1.2,0,2.4-0.7,2.9-1.9c0.3-0.8,0.7-1.5,1.1-2.3c0.8-1.5,0.2-3.5-1.3-4.3
				c-1.5-0.8-3.5-0.2-4.3,1.3c-0.5,0.9-0.9,1.8-1.3,2.7C548.7,576.2,549.4,578.1,551,578.8z"/>
			<path class="st1" d="M561.7,565.6c0.8,0,1.7-0.3,2.3-1c0.6-0.6,1.2-1.3,1.9-1.9c1.2-1.2,1.3-3.2,0-4.5c-1.2-1.2-3.2-1.3-4.5,0
				c-0.7,0.7-1.4,1.4-2,2c-1.2,1.3-1.2,3.3,0.1,4.5C560.1,565.3,560.9,565.6,561.7,565.6z"/>
			<path class="st1" d="M548.4,593.4c0.6,0.9,1.6,1.4,2.6,1.4c0.6,0,1.2-0.2,1.7-0.5c1.5-1,1.9-2.9,0.9-4.4
				c-0.3-0.5-0.6-1.1-0.7-1.6c-0.5-1.7-2.2-2.7-3.9-2.2c-1.7,0.5-2.7,2.2-2.2,3.9C547.2,591.2,547.8,592.3,548.4,593.4z"/>
			<path class="st1" d="M563.4,596.8c-1.6-0.7-3.5-0.1-4.2,1.5c-0.7,1.6-0.1,3.5,1.5,4.2c0.8,0.4,1.7,0.8,2.6,1.2
				c0.4,0.2,0.8,0.3,1.2,0.3c1.2,0,2.4-0.7,2.9-1.9c0.7-1.6,0-3.5-1.6-4.1C565,597.6,564.2,597.2,563.4,596.8z"/>
			<path class="st1" d="M574,554.5c0.7,0,1.4-0.2,2-0.7c0.7-0.6,1.4-1.1,2.1-1.7c1.4-1.1,1.6-3.1,0.5-4.4c-1.1-1.4-3.1-1.6-4.4-0.5
				c-0.7,0.6-1.5,1.2-2.2,1.7c-1.4,1.1-1.6,3.1-0.5,4.4C572.1,554.1,573.1,554.5,574,554.5z"/>
			<path class="st1" d="M587.1,544.4c0.7,0,1.3-0.2,1.9-0.6l2.2-1.6c1.4-1,1.7-3,0.7-4.4c-1-1.4-3-1.7-4.4-0.7l-2.2,1.6
				c-1.4,1-1.7,3-0.6,4.4C585.2,544,586.1,544.4,587.1,544.4z"/>
			<path class="st1" d="M589.9,470.8c0.8,0.3,1.6,0.7,2.4,1.1c0.4,0.2,0.9,0.3,1.4,0.3c1.2,0,2.3-0.7,2.8-1.8
				c0.8-1.6,0.1-3.5-1.4-4.2c-0.9-0.4-1.8-0.8-2.6-1.2c-1.6-0.7-3.5,0-4.2,1.6C587.5,468.2,588.3,470.1,589.9,470.8z"/>
			<path class="st1" d="M574.5,604.6c-0.6,1.7,0.3,3.4,2,4c0.9,0.3,1.8,0.6,2.6,0.9c0.3,0.1,0.7,0.2,1,0.2c1.3,0,2.6-0.8,3-2.2
				c0.5-1.7-0.4-3.4-2-4c-0.9-0.3-1.7-0.6-2.6-0.9C576.9,602.1,575.1,603,574.5,604.6z"/>
		</g>
		<g>
			<path class="st1" d="M1223.3,238.9h-2.8c-1.7,0-3.2-1.4-3.2-3.2c0-1.7,1.4-3.2,3.2-3.2h2.8c1.7,0,3.2,1.4,3.2,3.2
				C1226.4,237.5,1225,238.9,1223.3,238.9z M1206.7,238.9h-2.8c-1.7,0-3.2-1.4-3.2-3.2c0-1.7,1.4-3.2,3.2-3.2h2.8
				c1.7,0,3.2,1.4,3.2,3.2C1209.9,237.5,1208.5,238.9,1206.7,238.9z M1190.2,238.9h-2.8c-1.7,0-3.2-1.4-3.2-3.2
				c0-1.7,1.4-3.2,3.2-3.2h2.8c1.7,0,3.2,1.4,3.2,3.2C1193.4,237.5,1191.9,238.9,1190.2,238.9z M1173.7,238.9h-2.8
				c-1.7,0-3.2-1.4-3.2-3.2c0-1.7,1.4-3.2,3.2-3.2h2.8c1.7,0,3.2,1.4,3.2,3.2C1176.8,237.5,1175.4,238.9,1173.7,238.9z
				 M1157.1,238.9h-2.8c-1.7,0-3.2-1.4-3.2-3.2c0-1.7,1.4-3.2,3.2-3.2h2.8c1.7,0,3.2,1.4,3.2,3.2
				C1160.3,237.5,1158.9,238.9,1157.1,238.9z M1140.6,238.9h-2.8c-1.7,0-3.2-1.4-3.2-3.2c0-1.7,1.4-3.2,3.2-3.2h2.8
				c1.7,0,3.2,1.4,3.2,3.2C1143.8,237.5,1142.4,238.9,1140.6,238.9z M1124.1,238.9h-2.8c-1.7,0-3.2-1.4-3.2-3.2
				c0-1.7,1.4-3.2,3.2-3.2h2.8c1.7,0,3.2,1.4,3.2,3.2C1127.2,237.5,1125.8,238.9,1124.1,238.9z"/>
		</g>
		<g>
			<path class="st1" d="M1521.1,385c-1.7,0-3.1-1.3-3.1-3c-0.1-0.9-0.1-1.8-0.2-2.7c-0.1-1.7,1.1-3.3,2.9-3.4
				c1.7-0.1,3.3,1.1,3.4,2.9c0.1,0.9,0.1,1.9,0.2,2.8c0.1,1.7-1.2,3.2-3,3.3C1521.2,385,1521.1,385,1521.1,385z M1518.7,368.7
				c-1.4,0-2.7-1-3.1-2.4c-0.2-0.9-0.4-1.7-0.6-2.6c-0.4-1.7,0.6-3.4,2.2-3.9c1.7-0.4,3.4,0.6,3.9,2.2c0.2,0.9,0.5,1.8,0.7,2.8
				c0.4,1.7-0.7,3.4-2.3,3.8C1519.2,368.6,1518.9,368.7,1518.7,368.7z M1513.5,353c-1.2,0-2.4-0.7-2.9-1.9c-0.4-0.8-0.7-1.6-1.1-2.4
				c-0.7-1.6,0-3.5,1.5-4.2c1.6-0.7,3.5-0.1,4.2,1.5c0.4,0.9,0.8,1.7,1.2,2.6c0.7,1.6,0,3.5-1.7,4.1
				C1514.4,352.9,1514,353,1513.5,353z M1505.7,338.5c-1,0-2-0.5-2.6-1.4c-0.5-0.7-1-1.5-1.5-2.2c-1-1.4-0.6-3.4,0.8-4.4
				c1.4-1,3.4-0.6,4.4,0.8c0.5,0.8,1.1,1.6,1.6,2.4c1,1.5,0.5,3.4-0.9,4.4C1506.9,338.3,1506.3,338.5,1505.7,338.5z M1495.5,325.5
				c-0.8,0-1.7-0.3-2.3-1c-0.6-0.6-1.2-1.3-1.8-1.9c-1.2-1.2-1.2-3.2,0-4.5c1.2-1.2,3.2-1.2,4.5,0c0.7,0.7,1.3,1.4,2,2
				c1.2,1.3,1.1,3.3-0.1,4.5C1497.1,325.2,1496.3,325.5,1495.5,325.5z M1483.2,314.5c-0.7,0-1.3-0.2-1.9-0.6
				c-0.7-0.5-1.4-1.1-2.2-1.6c-1.4-1-1.8-3-0.8-4.4c1-1.4,3-1.8,4.4-0.8c0.8,0.5,1.5,1.1,2.3,1.7c1.4,1,1.7,3,0.6,4.4
				C1485.1,314.1,1484.2,314.5,1483.2,314.5z M1469.2,305.7c-0.5,0-1-0.1-1.4-0.3c-0.8-0.4-1.6-0.8-2.4-1.2
				c-1.6-0.7-2.2-2.6-1.5-4.2c0.7-1.6,2.6-2.2,4.2-1.5c0.9,0.4,1.7,0.8,2.6,1.3c1.6,0.8,2.2,2.7,1.4,4.2
				C1471.5,305.1,1470.4,305.7,1469.2,305.7z M1453.9,299.6c-0.3,0-0.6,0-0.9-0.1c-0.8-0.3-1.7-0.5-2.6-0.7
				c-1.7-0.5-2.7-2.2-2.2-3.9c0.5-1.7,2.2-2.7,3.9-2.2c0.9,0.3,1.8,0.5,2.7,0.8c1.7,0.5,2.6,2.3,2.1,3.9
				C1456.5,298.7,1455.3,299.6,1453.9,299.6z M1437.8,296.1c-0.1,0-0.3,0-0.4,0c-0.9-0.1-1.8-0.2-2.6-0.3c-1.7-0.2-3-1.7-2.9-3.4
				s1.7-3,3.4-2.9c0.9,0.1,1.9,0.2,2.8,0.3c1.7,0.2,3,1.8,2.7,3.5C1440.7,295,1439.4,296.1,1437.8,296.1z M1421.3,295.4h-2.8
				c-1.7,0-3.2-1.4-3.2-3.2c0-1.7,1.4-3.2,3.2-3.2h2.8c1.7,0,3.2,1.4,3.2,3.2C1424.4,294,1423,295.4,1421.3,295.4z M1404.8,295.4
				h-2.8c-1.7,0-3.2-1.4-3.2-3.2c0-1.7,1.4-3.2,3.2-3.2h2.8c1.7,0,3.2,1.4,3.2,3.2C1407.9,294,1406.5,295.4,1404.8,295.4z
				 M1388.2,295.4h-2.8c-1.7,0-3.2-1.4-3.2-3.2c0-1.7,1.4-3.2,3.2-3.2h2.8c1.7,0,3.2,1.4,3.2,3.2
				C1391.4,294,1390,295.4,1388.2,295.4z M1371.7,295.4h-2.8c-1.7,0-3.2-1.4-3.2-3.2c0-1.7,1.4-3.2,3.2-3.2h2.8
				c1.7,0,3.2,1.4,3.2,3.2C1374.9,294,1373.5,295.4,1371.7,295.4z M1355.2,295.4h-2.8c-1.7,0-3.2-1.4-3.2-3.2c0-1.7,1.4-3.2,3.2-3.2
				h2.8c1.7,0,3.2,1.4,3.2,3.2C1358.3,294,1356.9,295.4,1355.2,295.4z M1338.6,295.4h-2.8c-1.7,0-3.2-1.4-3.2-3.2
				c0-1.7,1.4-3.2,3.2-3.2h2.8c1.7,0,3.2,1.4,3.2,3.2C1341.8,294,1340.4,295.4,1338.6,295.4z M1322.1,295.4h-2.8
				c-1.7,0-3.2-1.4-3.2-3.2c0-1.7,1.4-3.2,3.2-3.2h2.8c1.7,0,3.2,1.4,3.2,3.2C1325.3,294,1323.9,295.4,1322.1,295.4z M1305.6,295.4
				h-2.8c-1.7,0-3.2-1.4-3.2-3.2c0-1.7,1.4-3.2,3.2-3.2h2.8c1.7,0,3.2,1.4,3.2,3.2C1308.7,294,1307.3,295.4,1305.6,295.4z"/>
		</g>
		<g>
			<path class="st1" d="M1003,589.7c0.4,0,0.7-0.1,1.1-0.2c0.9-0.3,1.8-0.7,2.6-1c1.6-0.6,2.4-2.5,1.8-4.1c-0.6-1.6-2.5-2.4-4.1-1.8
				c-0.8,0.3-1.7,0.6-2.5,1c-1.6,0.6-2.5,2.4-1.9,4.1C1000.5,589,1001.7,589.7,1003,589.7z"/>
			<path class="st1" d="M985.4,500.5c0.5,0,1-0.1,1.4-0.3c0.9-0.5,1.8-0.9,2.5-1.3c1.5-0.8,2.1-2.8,1.2-4.3
				c-0.8-1.5-2.8-2.1-4.3-1.2c-0.7,0.4-1.5,0.8-2.4,1.2c-1.6,0.8-2.2,2.7-1.4,4.2C983.2,499.9,984.3,500.5,985.4,500.5z"/>
			<path class="st1" d="M985.6,552.1c-0.2,1.7,1,3.3,2.7,3.5c0.9,0.1,1.8,0.2,2.7,0.4c0.1,0,0.3,0,0.4,0c1.6,0,2.9-1.1,3.1-2.7
				c0.2-1.7-1-3.3-2.7-3.6c-0.9-0.1-1.8-0.2-2.8-0.4C987.4,549.1,985.8,550.3,985.6,552.1z"/>
			<path class="st1" d="M1004.2,558.4c0.9,0.2,1.7,0.5,2.5,0.7c0.3,0.1,0.6,0.1,0.9,0.1c1.4,0,2.6-0.9,3-2.2
				c0.5-1.7-0.4-3.4-2.1-3.9c-0.9-0.3-1.8-0.5-2.8-0.8c-1.7-0.4-3.4,0.6-3.9,2.3C1001.5,556.3,1002.5,558,1004.2,558.4z"/>
			<path class="st1" d="M972.5,547.7c-1.7-0.1-3.3,1.2-3.4,2.9c-0.1,1.7,1.2,3.3,2.9,3.4c0.9,0.1,1.8,0.1,2.7,0.2c0.1,0,0.2,0,0.3,0
				c1.6,0,3-1.2,3.1-2.9c0.1-1.7-1.2-3.3-2.9-3.4C974.3,547.9,973.4,547.8,972.5,547.7z"/>
			<path class="st1" d="M941.4,613.3c0.6,0,1.2-0.2,1.8-0.5c0.7-0.5,1.4-1,2.2-1.4c1.5-0.9,1.9-2.9,1-4.3c-0.9-1.5-2.9-1.9-4.3-1
				c-0.8,0.5-1.7,1-2.4,1.6c-1.4,1-1.8,2.9-0.8,4.4C939.4,612.8,940.4,613.3,941.4,613.3z"/>
			<path class="st1" d="M971.5,599.8c0.3,0,0.7-0.1,1-0.2c0.9-0.3,1.7-0.6,2.6-0.8c1.7-0.5,2.6-2.3,2.1-4c-0.5-1.7-2.3-2.6-4-2.1
				c-0.9,0.3-1.8,0.6-2.7,0.9c-1.7,0.5-2.6,2.3-2,4C968.9,598.9,970.1,599.8,971.5,599.8z"/>
			<path class="st1" d="M987.3,594.9c0.3,0,0.6,0,0.9-0.1l2.6-0.8c1.7-0.5,2.6-2.3,2.1-3.9c-0.5-1.7-2.3-2.6-3.9-2.1l-2.6,0.8
				c-1.7,0.5-2.6,2.3-2.1,3.9C984.7,594,985.9,594.9,987.3,594.9z"/>
			<path class="st1" d="M1017.7,582.2c0.7,0,1.4-0.2,2-0.7c0.9-0.7,1.6-1.5,2.3-2.2c1.2-1.3,1.1-3.3-0.2-4.5
				c-1.3-1.2-3.3-1.1-4.5,0.2c-0.5,0.5-1,1.1-1.6,1.6c-1.3,1.1-1.5,3.1-0.4,4.4C1015.9,581.8,1016.8,582.2,1017.7,582.2z"/>
			<path class="st1" d="M1018.6,566.3c0.6,1,1.6,1.6,2.7,1.6c0.5,0,1.1-0.1,1.6-0.4c1.5-0.9,2-2.8,1.1-4.3c-0.6-1-1.3-1.9-2.1-2.7
				c-1.2-1.3-3.2-1.3-4.5-0.1c-1.3,1.2-1.3,3.2-0.1,4.5C1017.9,565.2,1018.3,565.7,1018.6,566.3z"/>
			<path class="st1" d="M955.7,515.1c0.5,0,1-0.1,1.5-0.4c0.8-0.4,1.6-0.8,2.4-1.3c1.6-0.8,2.2-2.7,1.4-4.3
				c-0.8-1.6-2.7-2.2-4.3-1.4c-0.8,0.4-1.6,0.9-2.5,1.3c-1.5,0.8-2.1,2.7-1.3,4.3C953.5,514.5,954.6,515.1,955.7,515.1z"/>
			<path class="st1" d="M928.7,617.2c-0.6,0.8-1.2,1.6-1.8,2.4c-1,1.4-0.7,3.4,0.8,4.4c0.6,0.4,1.2,0.6,1.8,0.6c1,0,2-0.5,2.6-1.3
				c0.5-0.7,1-1.3,1.5-2c1.1-1.3,0.9-3.3-0.4-4.4C931.8,615.7,929.8,615.9,928.7,617.2z"/>
			<path class="st1" d="M924.3,546.8c0.5,0.3,1.1,0.5,1.7,0.5c1,0,2.1-0.5,2.7-1.5c0.9-1.5,0.5-3.4-1-4.4c-0.6-0.4-0.9-0.7-1.1-0.9
				c-1-1.4-3-1.8-4.4-0.8c-1.4,1-1.8,3-0.8,4.4C922.1,545.2,923.1,546.1,924.3,546.8z"/>
			<path class="st1" d="M928.3,533.5c0.8,0,1.7-0.3,2.3-1c0.5-0.6,1.2-1.2,1.8-1.8c1.3-1.2,1.4-3.2,0.2-4.5
				c-1.2-1.3-3.2-1.4-4.5-0.2c-0.8,0.7-1.5,1.4-2.1,2.1c-1.2,1.3-1.1,3.3,0.1,4.5C926.8,533.2,927.6,533.5,928.3,533.5z"/>
			<path class="st1" d="M926.5,637.9c0.1-0.3,0.2-0.6,0.3-0.9c0.1-0.8,0.2-1.7,0.4-2.5c0.3-1.7-0.8-3.4-2.5-3.7
				c-1.7-0.3-3.4,0.8-3.7,2.5c-0.2,1-0.4,2-0.5,3c-0.1,0.6,0,1.2,0.3,1.7H926.5z"/>
			<path class="st1" d="M941.4,523.4c0.6,0,1.2-0.2,1.7-0.5c0.7-0.5,1.5-1,2.3-1.4c1.5-0.9,2-2.9,1-4.3c-0.9-1.5-2.9-2-4.3-1
				c-0.8,0.5-1.6,1-2.4,1.5c-1.5,0.9-1.9,2.9-1,4.4C939.3,522.8,940.3,523.4,941.4,523.4z"/>
			<path class="st1" d="M955.5,552.8l2.8,0.2c0.1,0,0.2,0,0.2,0c1.6,0,3-1.3,3.1-2.9c0.1-1.7-1.2-3.3-2.9-3.4l-2.7-0.2
				c-1.7-0.1-3.3,1.2-3.4,2.9C952.4,551.1,953.7,552.6,955.5,552.8z"/>
			<path class="st1" d="M957.3,598.4c-0.9,0.4-1.7,0.7-2.6,1.1c-1.6,0.7-2.3,2.5-1.7,4.1c0.5,1.2,1.7,1.9,2.9,1.9
				c0.4,0,0.8-0.1,1.2-0.3c0.8-0.4,1.6-0.7,2.5-1c1.6-0.7,2.4-2.5,1.7-4.1C960.8,598.5,958.9,597.7,957.3,598.4z"/>
			<path class="st1" d="M970.5,507.7c0.5,0,0.9-0.1,1.4-0.3l2.5-1.2c1.6-0.8,2.2-2.6,1.5-4.2c-0.8-1.6-2.6-2.2-4.2-1.5l-2.5,1.2
				c-1.6,0.8-2.2,2.6-1.5,4.2C968.2,507.1,969.3,507.7,970.5,507.7z"/>
			<path class="st1" d="M938.7,551c0.9,0.1,1.8,0.3,2.8,0.4c0.1,0,0.3,0,0.4,0c1.6,0,2.9-1.2,3.1-2.8c0.2-1.7-1-3.3-2.7-3.5
				c-0.9-0.1-1.8-0.2-2.7-0.4c-1.7-0.3-3.3,0.9-3.6,2.7C935.8,549.2,937,550.8,938.7,551z"/>
		</g>
		<g>
			<path class="st1" d="M1395.7,268.2h-100.2c-1.7,0-3.2-1.4-3.2-3.2c0-1.7,1.4-3.2,3.2-3.2h100.2c1.7,0,3.2,1.4,3.2,3.2
				C1398.9,266.8,1397.5,268.2,1395.7,268.2z"/>
		</g>
		<g>
			<path class="st1" d="M1088.4,480.7c-0.9,0-1.9-0.4-2.5-1.2l-1.7-2.2c-1.1-1.4-0.8-3.4,0.6-4.4c1.4-1.1,3.4-0.8,4.4,0.6l1.7,2.2
				c1.1,1.4,0.8,3.4-0.6,4.4C1089.8,480.5,1089.1,480.7,1088.4,480.7z M1078.3,467.6c-0.9,0-1.9-0.4-2.5-1.2l-1.7-2.2
				c-1.1-1.4-0.8-3.4,0.6-4.4c1.4-1.1,3.4-0.8,4.4,0.6l1.7,2.2c1.1,1.4,0.8,3.4-0.6,4.4C1079.7,467.4,1079,467.6,1078.3,467.6z
				 M1068.2,454.6c-0.9,0-1.9-0.4-2.5-1.2l-1.7-2.2c-1.1-1.4-0.8-3.4,0.6-4.4c1.4-1.1,3.4-0.8,4.4,0.6l1.7,2.2
				c1.1,1.4,0.8,3.4-0.6,4.4C1069.5,454.4,1068.9,454.6,1068.2,454.6z M1058.1,441.5c-0.9,0-1.9-0.4-2.5-1.2l-1.7-2.2
				c-1.1-1.4-0.8-3.4,0.6-4.4c1.4-1.1,3.4-0.8,4.4,0.6l1.7,2.2c1.1,1.4,0.8,3.4-0.6,4.4C1059.4,441.3,1058.8,441.5,1058.1,441.5z
				 M1048,428.4c-0.9,0-1.9-0.4-2.5-1.2l-1.7-2.2c-1.1-1.4-0.8-3.4,0.6-4.4c1.4-1.1,3.4-0.8,4.4,0.6l1.7,2.2
				c1.1,1.4,0.8,3.4-0.6,4.4C1049.3,428.2,1048.7,428.4,1048,428.4z M1037.9,415.3c-0.9,0-1.9-0.4-2.5-1.2l-1.7-2.2
				c-1.1-1.4-0.8-3.4,0.6-4.4c1.4-1.1,3.4-0.8,4.4,0.6l1.7,2.2c1.1,1.4,0.8,3.4-0.6,4.4C1039.2,415.1,1038.6,415.3,1037.9,415.3z"/>
		</g>
		<g>
			<path class="st1" d="M501.2,370.2c-1.7,0-3.2-1.4-3.2-3.2v-2.8c0-1.7,1.4-3.2,3.2-3.2c1.7,0,3.2,1.4,3.2,3.2v2.8
				C504.4,368.7,503,370.2,501.2,370.2z M501.2,353.6c-1.7,0-3.2-1.4-3.2-3.2v-2.8c0-1.7,1.4-3.2,3.2-3.2c1.7,0,3.2,1.4,3.2,3.2v2.8
				C504.4,352.2,503,353.6,501.2,353.6z M501.2,337.1c-1.7,0-3.2-1.4-3.2-3.2v-2.8c0-1.7,1.4-3.2,3.2-3.2c1.7,0,3.2,1.4,3.2,3.2v2.8
				C504.4,335.7,503,337.1,501.2,337.1z M501.2,320.6c-1.7,0-3.2-1.4-3.2-3.2v-2.8c0-1.7,1.4-3.2,3.2-3.2c1.7,0,3.2,1.4,3.2,3.2v2.8
				C504.4,319.2,503,320.6,501.2,320.6z M501.2,304c-1.7,0-3.2-1.4-3.2-3.2v-2.8c0-1.7,1.4-3.2,3.2-3.2c1.7,0,3.2,1.4,3.2,3.2v2.8
				C504.4,302.6,503,304,501.2,304z M501.2,287.5c-1.7,0-3.2-1.4-3.2-3.2v-2.8c0-1.7,1.4-3.2,3.2-3.2c1.7,0,3.2,1.4,3.2,3.2v2.8
				C504.4,286.1,503,287.5,501.2,287.5z M501.2,271c-1.7,0-3.2-1.4-3.2-3.2v-2.8c0-1.7,1.4-3.2,3.2-3.2c1.7,0,3.2,1.4,3.2,3.2v2.8
				C504.4,269.6,503,271,501.2,271z"/>
		</g>
		<g>
			<path class="st1" d="M465.4,397.3h-51.9c-1.7,0-3.2-1.4-3.2-3.2c0-1.7,1.4-3.2,3.2-3.2h51.9c1.7,0,3.2,1.4,3.2,3.2
				C468.6,395.9,467.2,397.3,465.4,397.3z"/>
		</g>
		<g>
			<path class="st1" d="M69.9,408.5c-1.7,0-3.2-1.4-3.2-3.2v-2.8c0-1.7,1.4-3.2,3.2-3.2c1.7,0,3.2,1.4,3.2,3.2v2.8
				C73,407.1,71.6,408.5,69.9,408.5z M70.2,392c-0.1,0-0.2,0-0.3,0c-1.7-0.2-3-1.7-2.8-3.5c0.1-1,0.2-1.9,0.4-2.9
				c0.3-1.7,1.9-2.9,3.6-2.6c1.7,0.3,2.9,1.9,2.6,3.6c-0.1,0.8-0.2,1.7-0.3,2.6C73.1,390.8,71.8,392,70.2,392z M74.4,376.1
				c-0.4,0-0.9-0.1-1.3-0.3c-1.6-0.7-2.3-2.6-1.6-4.2c0.4-0.9,0.8-1.8,1.3-2.6c0.8-1.6,2.7-2.2,4.2-1.4c1.6,0.8,2.2,2.7,1.4,4.2
				c-0.4,0.8-0.8,1.6-1.1,2.3C76.8,375.4,75.6,376.1,74.4,376.1z M83.3,362.2c-0.8,0-1.5-0.3-2.1-0.8c-1.3-1.2-1.4-3.2-0.2-4.5
				c0.6-0.7,1.3-1.4,2-2.1c1.2-1.2,3.2-1.2,4.5,0c1.2,1.2,1.2,3.2,0,4.5c-0.6,0.6-1.2,1.2-1.8,1.9C85.1,361.9,84.2,362.2,83.3,362.2
				z M96.1,351.8c-1.1,0-2.1-0.6-2.7-1.6c-0.9-1.5-0.4-3.4,1.1-4.3c0.8-0.5,1.7-1,2.6-1.4c1.6-0.8,3.5-0.2,4.3,1.4
				c0.8,1.5,0.2,3.5-1.4,4.3c-0.8,0.4-1.5,0.8-2.3,1.2C97.2,351.7,96.6,351.8,96.1,351.8z M111.4,345.8c-1.5,0-2.8-1-3.1-2.5
				c-0.4-1.7,0.7-3.4,2.4-3.8c0.9-0.2,1.9-0.4,2.9-0.5c1.7-0.3,3.3,0.9,3.6,2.6c0.3,1.7-0.9,3.3-2.6,3.6c-0.8,0.1-1.7,0.3-2.5,0.5
				C111.9,345.8,111.6,345.8,111.4,345.8z M180.2,344.6h-2.8c-1.7,0-3.2-1.4-3.2-3.2c0-1.7,1.4-3.2,3.2-3.2h2.8
				c1.7,0,3.2,1.4,3.2,3.2C183.4,343.2,181.9,344.6,180.2,344.6z M163.7,344.6h-2.8c-1.7,0-3.2-1.4-3.2-3.2c0-1.7,1.4-3.2,3.2-3.2
				h2.8c1.7,0,3.2,1.4,3.2,3.2C166.8,343.2,165.4,344.6,163.7,344.6z M147.1,344.6h-2.8c-1.7,0-3.2-1.4-3.2-3.2
				c0-1.7,1.4-3.2,3.2-3.2h2.8c1.7,0,3.2,1.4,3.2,3.2C150.3,343.2,148.9,344.6,147.1,344.6z M130.6,344.6h-2.8
				c-1.7,0-3.2-1.4-3.2-3.2c0-1.7,1.4-3.2,3.2-3.2h2.8c1.7,0,3.2,1.4,3.2,3.2C133.8,343.2,132.4,344.6,130.6,344.6z"/>
		</g>
		<g>
			<path class="st1" d="M254.2,310.1h-1c-1.7,0-3.2-1.4-3.2-3.2c0-1.7,1.4-3.2,3.2-3.2h1c1.7,0,3.2,1.4,3.2,3.2
				C257.4,308.7,256,310.1,254.2,310.1z M239.5,310.1h-2.8c-1.7,0-3.2-1.4-3.2-3.2c0-1.7,1.4-3.2,3.2-3.2h2.8c1.7,0,3.2,1.4,3.2,3.2
				C242.7,308.7,241.2,310.1,239.5,310.1z M223,310.1h-2.8c-1.7,0-3.2-1.4-3.2-3.2c0-1.7,1.4-3.2,3.2-3.2h2.8c1.7,0,3.2,1.4,3.2,3.2
				C226.1,308.7,224.7,310.1,223,310.1z M206.4,310.1h-2.8c-1.7,0-3.2-1.4-3.2-3.2c0-1.7,1.4-3.2,3.2-3.2h2.8c1.7,0,3.2,1.4,3.2,3.2
				C209.6,308.7,208.2,310.1,206.4,310.1z M189.9,310.1h-2.8c-1.7,0-3.2-1.4-3.2-3.2c0-1.7,1.4-3.2,3.2-3.2h2.8
				c1.7,0,3.2,1.4,3.2,3.2C193.1,308.7,191.7,310.1,189.9,310.1z M173.4,310.1h-2.8c-1.7,0-3.2-1.4-3.2-3.2c0-1.7,1.4-3.2,3.2-3.2
				h2.8c1.7,0,3.2,1.4,3.2,3.2C176.5,308.7,175.1,310.1,173.4,310.1z M156.9,310.1h-2.8c-1.7,0-3.2-1.4-3.2-3.2
				c0-1.7,1.4-3.2,3.2-3.2h2.8c1.7,0,3.2,1.4,3.2,3.2C160,308.7,158.6,310.1,156.9,310.1z"/>
		</g>
		<g>
			<path class="st1" d="M406.8,268.3H404c-1.7,0-3.2-1.4-3.2-3.2c0-1.7,1.4-3.2,3.2-3.2h2.8c1.7,0,3.2,1.4,3.2,3.2
				C410,266.9,408.5,268.3,406.8,268.3z M390.3,268.3h-2.8c-1.7,0-3.2-1.4-3.2-3.2c0-1.7,1.4-3.2,3.2-3.2h2.8c1.7,0,3.2,1.4,3.2,3.2
				C393.4,266.9,392,268.3,390.3,268.3z M373.7,268.3H371c-1.7,0-3.2-1.4-3.2-3.2c0-1.7,1.4-3.2,3.2-3.2h2.8c1.7,0,3.2,1.4,3.2,3.2
				C376.9,266.9,375.5,268.3,373.7,268.3z M357.2,268.3h-2.8c-1.7,0-3.2-1.4-3.2-3.2c0-1.7,1.4-3.2,3.2-3.2h2.8
				c1.7,0,3.2,1.4,3.2,3.2C360.4,266.9,359,268.3,357.2,268.3z M340.7,268.3h-2.8c-1.7,0-3.2-1.4-3.2-3.2c0-1.7,1.4-3.2,3.2-3.2h2.8
				c1.7,0,3.2,1.4,3.2,3.2C343.8,266.9,342.4,268.3,340.7,268.3z M324.2,268.3h-2.8c-1.7,0-3.2-1.4-3.2-3.2c0-1.7,1.4-3.2,3.2-3.2
				h2.8c1.7,0,3.2,1.4,3.2,3.2C327.3,266.9,325.9,268.3,324.2,268.3z M307.6,268.3h-2.8c-1.7,0-3.2-1.4-3.2-3.2
				c0-1.7,1.4-3.2,3.2-3.2h2.8c1.7,0,3.2,1.4,3.2,3.2C310.8,266.9,309.4,268.3,307.6,268.3z M291.1,268.3h-2.8
				c-1.7,0-3.2-1.4-3.2-3.2c0-1.7,1.4-3.2,3.2-3.2h2.8c1.7,0,3.2,1.4,3.2,3.2C294.3,266.9,292.8,268.3,291.1,268.3z M274.6,268.3
				h-2.8c-1.7,0-3.2-1.4-3.2-3.2c0-1.7,1.4-3.2,3.2-3.2h2.8c1.7,0,3.2,1.4,3.2,3.2C277.7,266.9,276.3,268.3,274.6,268.3z M258,268.3
				h-2.8c-1.7,0-3.2-1.4-3.2-3.2c0-1.7,1.4-3.2,3.2-3.2h2.8c1.7,0,3.2,1.4,3.2,3.2C261.2,266.9,259.8,268.3,258,268.3z M241.5,268.3
				h-2.8c-1.7,0-3.2-1.4-3.2-3.2c0-1.7,1.4-3.2,3.2-3.2h2.8c1.7,0,3.2,1.4,3.2,3.2C244.7,266.9,243.3,268.3,241.5,268.3z M225,268.3
				h-2.8c-1.7,0-3.2-1.4-3.2-3.2c0-1.7,1.4-3.2,3.2-3.2h2.8c1.7,0,3.2,1.4,3.2,3.2C228.1,266.9,226.7,268.3,225,268.3z M418.5,266.2
				c-1.7,0-3.2-1.4-3.2-3.2v-2.8c0-1.7,1.4-3.2,3.2-3.2c1.7,0,3.2,1.4,3.2,3.2v2.8C421.6,264.8,420.2,266.2,418.5,266.2z
				 M418.8,249.7c-0.1,0-0.2,0-0.4,0c-1.7-0.2-3-1.8-2.8-3.5c0.1-1,0.3-1.9,0.4-2.9c0.3-1.7,1.9-2.9,3.6-2.6
				c1.7,0.3,2.9,1.9,2.6,3.6c-0.1,0.8-0.3,1.7-0.4,2.6C421.8,248.5,420.4,249.7,418.8,249.7z M423.4,233.9c-0.5,0-0.9-0.1-1.4-0.3
				c-1.6-0.7-2.2-2.6-1.5-4.2c0.4-0.9,0.9-1.8,1.3-2.6c0.8-1.5,2.8-2.1,4.3-1.3c1.5,0.8,2.1,2.8,1.3,4.3c-0.4,0.8-0.8,1.5-1.2,2.3
				C425.7,233.2,424.5,233.9,423.4,233.9z M432.8,220.4c-0.8,0-1.6-0.3-2.2-0.9c-1.3-1.2-1.3-3.2-0.1-4.5c0.7-0.7,1.4-1.4,2.1-2
				c1.3-1.2,3.3-1.1,4.5,0.2c1.2,1.3,1.1,3.3-0.2,4.5c-0.6,0.6-1.3,1.2-1.9,1.8C434.4,220.1,433.6,220.4,432.8,220.4z M446,210.6
				c-1.1,0-2.3-0.6-2.8-1.7c-0.8-1.6-0.2-3.5,1.4-4.3c0.9-0.4,1.7-0.9,2.6-1.3c1.6-0.7,3.5,0,4.2,1.6c0.7,1.6,0,3.5-1.6,4.2
				c-0.8,0.4-1.6,0.7-2.3,1.1C447,210.5,446.5,210.6,446,210.6z M461.6,205.6c-1.5,0-2.9-1.1-3.1-2.7c-0.3-1.7,0.9-3.3,2.7-3.6
				c1-0.1,1.9-0.3,2.9-0.3c1.7-0.2,3.3,1.1,3.4,2.9c0.2,1.7-1.1,3.3-2.9,3.4c-0.9,0.1-1.7,0.2-2.6,0.3
				C462,205.6,461.8,205.6,461.6,205.6z M514,205h-2.8c-1.7,0-3.2-1.4-3.2-3.2c0-1.7,1.4-3.2,3.2-3.2h2.8c1.7,0,3.2,1.4,3.2,3.2
				C517.1,203.6,515.7,205,514,205z M497.4,205h-2.8c-1.7,0-3.2-1.4-3.2-3.2c0-1.7,1.4-3.2,3.2-3.2h2.8c1.7,0,3.2,1.4,3.2,3.2
				C500.6,203.6,499.2,205,497.4,205z M480.9,205h-2.8c-1.7,0-3.2-1.4-3.2-3.2c0-1.7,1.4-3.2,3.2-3.2h2.8c1.7,0,3.2,1.4,3.2,3.2
				C484.1,203.6,482.6,205,480.9,205z"/>
		</g>
		<g>
			<path class="st1" d="M1195.2,635.5c-1,0-2-0.5-2.6-1.3l-1.1-1.5c-1-1.4-0.7-3.4,0.8-4.4c1.4-1,3.4-0.7,4.4,0.8l1.1,1.5
				c1,1.4,0.7,3.4-0.8,4.4C1196.4,635.3,1195.8,635.5,1195.2,635.5z"/>
		</g>
		<g>
			<path class="st1" d="M1058.5,632.2c-0.6,0-1.1-0.2-1.7-0.5c-1.5-0.9-1.9-2.9-1-4.3l1.2-2c0.9-1.5,2.9-1.9,4.3-1
				c1.5,0.9,1.9,2.9,1,4.3l-1.2,2C1060.6,631.7,1059.6,632.2,1058.5,632.2z"/>
		</g>
		<g>
			<path class="st1" d="M1059.7,537.7c-0.9,0-1.8-0.4-2.5-1.2l-1.2-1.6c-1.1-1.4-0.9-3.3,0.5-4.4c1.4-1.1,3.3-0.9,4.4,0.5l1.2,1.6
				c1.1,1.4,0.9,3.3-0.5,4.4C1061.1,537.5,1060.4,537.7,1059.7,537.7z"/>
		</g>
		<g>
			<path class="st1" d="M926.7,474.7c-0.7,0-1.3-0.2-1.9-0.6c-1.4-1-1.7-3-0.7-4.4l0.9-1.3c1-1.4,3-1.7,4.4-0.7c1.4,1,1.7,3,0.7,4.4
				l-0.9,1.3C928.6,474.3,927.6,474.7,926.7,474.7z"/>
		</g>
		<g>
			<path class="st1" d="M771.9,69.7c-0.5,0-1-0.1-1.5-0.4c-1.5-0.8-2.1-2.8-1.2-4.3l0.8-1.4c0.8-1.5,2.8-2.1,4.3-1.2
				c1.5,0.8,2.1,2.8,1.2,4.3l-0.8,1.4C774.1,69.1,773,69.7,771.9,69.7z"/>
		</g>
		<g>
			<path class="st1" d="M669.5,301.5c-0.5,0-1.1-0.1-1.6-0.4c-1.5-0.9-2-2.8-1.2-4.3l1.7-3c0.9-1.5,2.8-2,4.3-1.2
				c1.5,0.9,2,2.8,1.2,4.3l-1.7,3C671.7,300.9,670.6,301.5,669.5,301.5z"/>
		</g>
		<g>
			<path class="st1" d="M1186.9,348h-1.4c-1.7,0-3.2-1.4-3.2-3.2c0-1.7,1.4-3.2,3.2-3.2h1.4c1.7,0,3.2,1.4,3.2,3.2
				C1190.1,346.6,1188.7,348,1186.9,348z"/>
		</g>
		<g>
			<path class="st1" d="M1294.4,480.1h-1c-1.7,0-3.2-1.4-3.2-3.2c0-1.7,1.4-3.2,3.2-3.2h1c1.7,0,3.2,1.4,3.2,3.2
				C1297.5,478.7,1296.1,480.1,1294.4,480.1z"/>
		</g>
		<g>
			<path class="st1" d="M480.9,614.4c-0.6,0-1.2-0.2-1.8-0.6c-1.4-1-1.8-3-0.8-4.4l1.6-2.4c1-1.4,3-1.8,4.4-0.8c1.4,1,1.8,3,0.8,4.4
				l-1.6,2.4C482.9,613.9,481.9,614.4,480.9,614.4z"/>
		</g>
		<g>
			<path class="st1" d="M381.8,608.6c-0.8,0-1.6-0.3-2.2-0.9c-1.2-1.2-1.2-3.2,0-4.5l1.6-1.6c1.2-1.2,3.2-1.2,4.5,0
				c1.2,1.2,1.2,3.2,0,4.5l-1.6,1.6C383.4,608.3,382.6,608.6,381.8,608.6z"/>
		</g>
		<g>
			<path class="st1" d="M334.2,511.4c-1.3,0-2.6-0.9-3-2.2l-0.6-1.9c-0.5-1.7,0.4-3.4,2.1-4c1.7-0.5,3.4,0.4,4,2.1l0.6,1.9
				c0.5,1.7-0.4,3.4-2.1,4C334.8,511.4,334.5,511.4,334.2,511.4z"/>
		</g>
		<g>
			<path class="st1" d="M318.9,564.8c-1.4,0-2.7-1-3.1-2.4l-0.7-2.9c-0.4-1.7,0.6-3.4,2.3-3.8c1.7-0.4,3.4,0.6,3.8,2.3l0.7,2.9
				c0.4,1.7-0.6,3.4-2.3,3.8C319.4,564.8,319.1,564.8,318.9,564.8z"/>
		</g>
		<g>
			<path class="st1" d="M271.9,607.6c-0.3,0-0.6,0-1-0.1c-1.7-0.5-2.6-2.3-2.1-4l0.5-1.6c0.5-1.7,2.3-2.6,4-2.1
				c1.7,0.5,2.6,2.3,2.1,4l-0.5,1.6C274.5,606.8,273.3,607.6,271.9,607.6z"/>
		</g>
		<g>
			<path class="st1" d="M212.8,409.7h-1.4c-1.7,0-3.2-1.4-3.2-3.2c0-1.7,1.4-3.2,3.2-3.2h1.4c1.7,0,3.2,1.4,3.2,3.2
				C216,408.3,214.5,409.7,212.8,409.7z"/>
		</g>
		<g>
			<path class="st1" d="M450.6,360.5c-0.6,0-1.2-0.2-1.8-0.6c-1.4-1-1.8-3-0.8-4.4l1.4-2c1-1.4,3-1.8,4.4-0.8c1.4,1,1.8,3,0.8,4.4
				l-1.4,2C452.6,360,451.6,360.5,450.6,360.5z"/>
		</g>
		<g>
			<path class="st1" d="M335.9,445.1h-61.5c-0.9,0-1.8-0.4-2.4-1.2c-1-1.2-24.8-31-20.4-71.9c3.2-29.9,20.6-57.7,51.6-82.6
				c1.2-0.9,2.8-0.9,3.9,0c31.1,24.9,48.4,52.7,51.6,82.6c4.4,41-19.4,70.7-20.4,71.9C337.8,444.7,336.9,445.1,335.9,445.1z
				 M276,438.8h58.3c4.2-5.8,21.8-32.2,18.1-66.2c-3-27.5-18.9-53.3-47.3-76.7c-28.4,23.3-44.4,49.1-47.3,76.7
				C254.2,406.6,271.8,433,276,438.8z"/>
		</g>
		<g>
			<path class="st1" d="M305.2,397.7c-12.6,0-22.8-10.2-22.8-22.8c0-12.6,10.2-22.8,22.8-22.8c12.6,0,22.8,10.2,22.8,22.8
				C328,387.5,317.8,397.7,305.2,397.7z M305.2,358.5c-9.1,0-16.4,7.4-16.4,16.4c0,9.1,7.4,16.4,16.4,16.4c9.1,0,16.5-7.4,16.5-16.4
				C321.7,365.8,314.3,358.5,305.2,358.5z"/>
		</g>
	</g>
</g>
</svg>
