<?xml version="1.0" encoding="utf-8"?>
<!-- Generator: Adobe Illustrator 22.0.1, SVG Export Plug-In . SVG Version: 6.00 Build 0)  -->
<!DOCTYPE svg PUBLIC "-//W3C//DTD SVG 1.1//EN" "http://www.w3.org/Graphics/SVG/1.1/DTD/svg11.dtd">
<svg version="1.1" id="Layer_1" xmlns="http://www.w3.org/2000/svg" xmlns:xlink="http://www.w3.org/1999/xlink" x="0px" y="0px"
	 viewBox="0 0 583.9 120.3" style="enable-background:new 0 0 583.9 120.3;" xml:space="preserve">
<style type="text/css">
	.st0{fill:#44B64D;}
</style>
<polygon class="st0" points="60.3,10.7 76.2,43.1 112,48.3 86.1,73.5 92.2,109.1 60.3,92.2 28.3,109.1 34.4,73.5 8.5,48.3 
	44.3,43.1 "/>
<polygon class="st0" points="175.8,10.7 191.7,43.1 227.5,48.3 201.6,73.5 207.7,109.1 175.8,92.2 143.8,109.1 149.9,73.5 124,48.3 
	159.8,43.1 "/>
<polygon class="st0" points="291.3,10.7 307.3,43.1 343,48.3 317.1,73.5 323.2,109.1 291.3,92.2 259.3,109.1 265.4,73.5 239.6,48.3 
	275.3,43.1 "/>
<polygon class="st0" points="406.8,10.7 422.8,43.1 458.5,48.3 432.6,73.5 438.7,109.1 406.8,92.2 374.8,109.1 380.9,73.5 
	355.1,48.3 390.8,43.1 "/>
<polygon class="st0" points="522.3,10.7 538.3,43.1 574,48.3 548.2,73.5 554.3,109.1 522.3,92.2 490.3,109.1 496.4,73.5 470.6,48.3 
	506.3,43.1 "/>
</svg>
