<?xml version="1.0" encoding="utf-8"?>
<!-- Generator: Adobe Illustrator 21.1.0, SVG Export Plug-In . SVG Version: 6.00 Build 0)  -->
<!DOCTYPE svg PUBLIC "-//W3C//DTD SVG 1.1//EN" "http://www.w3.org/Graphics/SVG/1.1/DTD/svg11.dtd">
<svg version="1.1" id="Layer_1" xmlns="http://www.w3.org/2000/svg" xmlns:xlink="http://www.w3.org/1999/xlink" x="0px" y="0px"
	 viewBox="0 0 500 121.9" style="enable-background:new 0 0 500 121.9;" xml:space="preserve">
<style type="text/css">
	.st0{fill:url(#SVGID_1_);}
	.st1{fill:url(#SVGID_2_);}
	.st2{fill:url(#SVGID_3_);}
	.st3{fill:#1DA0B5;}
	.st4{font-family:'Lato-Light';}
	.st5{font-size:64.5207px;}
</style>
<g>
	<linearGradient id="SVGID_1_" gradientUnits="userSpaceOnUse" x1="22.8794" y1="70.9704" x2="75.9942" y2="70.9704">
		<stop  offset="0" style="stop-color:#086BB5"/>
		<stop  offset="0.1464" style="stop-color:#096DB4"/>
		<stop  offset="0.3155" style="stop-color:#0674B4"/>
		<stop  offset="0.4958" style="stop-color:#0180B6"/>
		<stop  offset="0.6841" style="stop-color:#0091B8"/>
		<stop  offset="0.8765" style="stop-color:#00A7B8"/>
		<stop  offset="1" style="stop-color:#00B9B6"/>
	</linearGradient>
	<path class="st0" d="M44.7,78.6c-2.7-0.9-3.8-2.3-3.7-5.3c0.2-7.6,0.2-15.3,0-22.9c0-1.2-1-3.1-2-3.6c-5.1-2.2-10.4-4-16.1-6.2
		c0,16.6,0,32.4,0,48.7c10.5,3.8,21,7.7,31.6,11.3c2.1,0.7,4.5,0.8,6.8,0.8c8.6-0.1,14.4-5.9,14.7-13.6l-17-4.3
		C54.1,82.4,49.5,80.1,44.7,78.6z"/>
</g>
<linearGradient id="SVGID_2_" gradientUnits="userSpaceOnUse" x1="11.3731" y1="59.4257" x2="112.295" y2="59.4257">
	<stop  offset="0" style="stop-color:#086BB5"/>
	<stop  offset="0.2535" style="stop-color:#037BB5"/>
	<stop  offset="0.8087" style="stop-color:#00A7B8"/>
	<stop  offset="1" style="stop-color:#00B9B6"/>
</linearGradient>
<path class="st1" d="M84.1,113.2C98.8,96.7,95.7,79,87.7,61.5C81.8,48.6,71.1,40.4,58,35.3C44,29.8,29.8,24.5,15.7,19.1
	c-1.3-0.5-2.6-1.1-4.4-1.9c5.4-4,10.3-7.7,15.4-11.1c0.9-0.6,2.8-0.6,3.9-0.2c14.8,5.6,29.7,10.8,44.3,17
	c30.4,12.8,39.9,41.6,36.6,65.3C109.6,103.1,98.2,113.4,84.1,113.2z"/>
<linearGradient id="SVGID_3_" gradientUnits="userSpaceOnUse" x1="38.3152" y1="80.3344" x2="17.2435" y2="43.8372">
	<stop  offset="0" style="stop-color:#086BB5"/>
	<stop  offset="0.2535" style="stop-color:#037BB5"/>
	<stop  offset="0.8087" style="stop-color:#00A7B8"/>
	<stop  offset="1" style="stop-color:#00B9B6"/>
</linearGradient>
<path class="st2" d="M41,73.2c0.2-7.6,0.2-15.3,0-22.9c0-1.2-1-3.1-2-3.6c-5.1-2.2-10.4-4-16.1-6.2c0,16.6,0,32.4,0,48.7L42,77
	C41.3,76.1,41,74.9,41,73.2z"/>
<text transform="matrix(1 0 0 1 133.7549 86.1138)" class="st3 st4 st5">doctorlogic</text>
</svg>
