<?xml version="1.0" encoding="utf-8"?>
<!-- Generator: Adobe Illustrator 19.2.1, SVG Export Plug-In . SVG Version: 6.00 Build 0)  -->
<!DOCTYPE svg PUBLIC "-//W3C//DTD SVG 1.1//EN" "http://www.w3.org/Graphics/SVG/1.1/DTD/svg11.dtd">
<svg version="1.1" id="Layer_1" xmlns="http://www.w3.org/2000/svg" xmlns:xlink="http://www.w3.org/1999/xlink" x="0px" y="0px"
	 viewBox="0 0 252.5 53.7" enable-background="new 0 0 252.5 53.7" xml:space="preserve">
<g>
	<path fill="#00833E" d="M42.1,19h-5v17.4h5c5.1,0,9.1-3.8,9.1-8.5v-0.3C51.3,22.8,47.2,19,42.1,19z"/>
</g>
<g>
	<path fill="#0084AD" d="M35.2,43.2v-5H17.9v5c0,5.1,3.8,9.1,8.5,9.1h0.3C31.4,52.4,35.2,48.3,35.2,43.2z"/>
</g>
<g opacity="0.8">
	<path fill="#6EC4E9" d="M11,36.3h5V19h-5c-5.1,0-9.1,3.8-9.1,8.5v0.3C1.8,32.5,5.9,36.3,11,36.3z"/>
</g>
<g>
	<path fill="#00AF41" d="M17.9,12v5h17.4v-5c0-5.1-3.8-9.1-8.5-9.1h-0.3C21.7,2.9,17.9,7,17.9,12z"/>
</g>
<rect x="17.9" y="19" fill="#57C1E8" width="17.3" height="17.4"/>
<path fill="#57C1E8" d="M60.4,27.8L60.4,27.8c0-5.5,4-8.8,8-8.8c3.1,0,5.1,1.7,6.4,3.6V11.8h2.5v24.3h-2.5v-3.4
	c-1.4,2-3.3,3.7-6.4,3.7C64.4,36.5,60.4,33.3,60.4,27.8z M74.9,27.8L74.9,27.8c0-3.9-2.9-6.5-6-6.5c-3.2,0-5.9,2.4-5.9,6.4v0.1
	c0,3.9,2.7,6.5,5.9,6.5C71.9,34.2,74.9,31.6,74.9,27.8z"/>
<path fill="#57C1E8" d="M81.9,27.9L81.9,27.9c0-4.8,3.7-8.8,8.7-8.8c5,0,8.7,3.9,8.7,8.7v0.1c0,4.7-3.7,8.7-8.8,8.7
	C85.6,36.5,81.9,32.6,81.9,27.9z M96.8,27.9L96.8,27.9c0-3.6-2.7-6.6-6.2-6.6c-3.6,0-6.1,2.9-6.1,6.5v0.1c0,3.6,2.6,6.5,6.2,6.5
	C94.3,34.3,96.8,31.4,96.8,27.9z"/>
<path fill="#57C1E8" d="M103,27.9L103,27.9c0-4.8,3.7-8.8,8.6-8.8c3.2,0,5.1,1.3,6.7,3l-1.6,1.7c-1.3-1.4-2.8-2.5-5.1-2.5
	c-3.4,0-6,2.9-6,6.5v0.1c0,3.6,2.6,6.5,6.1,6.5c2.1,0,3.8-1.1,5.1-2.5l1.6,1.5c-1.7,1.9-3.7,3.2-6.8,3.2
	C106.7,36.5,103,32.5,103,27.9z"/>
<path fill="#57C1E8" d="M123.5,31.7V21.6h-2.3v-2.2h2.3v-5.8h2.5v5.8h5.3v2.2H126v9.8c0,2,1.1,2.8,2.8,2.8c0.8,0,1.6-0.2,2.4-0.6
	v2.1c-0.9,0.5-1.8,0.7-3,0.7C125.5,36.4,123.5,35.1,123.5,31.7z"/>
<path fill="#57C1E8" d="M134.3,27.9L134.3,27.9c0-4.8,3.7-8.8,8.7-8.8c5,0,8.7,3.9,8.7,8.7v0.1c0,4.7-3.7,8.7-8.7,8.7
	C137.9,36.5,134.3,32.6,134.3,27.9z M149.1,27.9L149.1,27.9c0-3.6-2.7-6.6-6.2-6.6c-3.6,0-6.1,2.9-6.1,6.5v0.1
	c0,3.6,2.6,6.5,6.2,6.5C146.6,34.3,149.1,31.4,149.1,27.9z"/>
<path fill="#57C1E8" d="M156.3,19.4h2.5v4.4c1.2-2.8,3.6-4.8,6.8-4.7v2.7h-0.2c-3.6,0-6.6,2.6-6.6,7.7v6.7h-2.5V19.4z"/>
<path fill="#00AF41" d="M169.8,11.8h2.5v24.3h-2.5V11.8z"/>
<path fill="#00AF41" d="M177.2,27.9L177.2,27.9c0-4.8,3.7-8.8,8.7-8.8c5,0,8.7,3.9,8.7,8.7v0.1c0,4.7-3.7,8.7-8.8,8.7
	C180.9,36.5,177.2,32.6,177.2,27.9z M192.1,27.9L192.1,27.9c0-3.6-2.7-6.6-6.2-6.6c-3.6,0-6.1,2.9-6.1,6.5v0.1
	c0,3.6,2.6,6.5,6.2,6.5C189.5,34.3,192.1,31.4,192.1,27.9z"/>
<path fill="#00AF41" d="M199.1,39l1.1-1.9c1.9,1.4,4,2.1,6.4,2.1c3.7,0,6.1-2,6.1-5.9v-2c-1.5,1.9-3.5,3.5-6.6,3.5
	c-4,0-7.8-3-7.8-7.8v-0.1c0-4.9,3.9-7.9,7.8-7.9c3.1,0,5.2,1.5,6.5,3.4v-3h2.5v13.8c0,2.6-0.8,4.6-2.1,5.9c-1.5,1.5-3.7,2.2-6.4,2.2
	C203.9,41.3,201.3,40.6,199.1,39z M212.8,27L212.8,27c0-3.5-3-5.7-6.1-5.7s-5.8,2.2-5.8,5.6v0.1c0,3.4,2.7,5.7,5.8,5.7
	C209.8,32.6,212.8,30.3,212.8,27z"/>
<path fill="#00AF41" d="M220.9,13h2.8v2.7h-2.8V13z M221.1,19.4h2.5v16.7h-2.5V19.4z"/>
<path fill="#00AF41" d="M228.5,27.9L228.5,27.9c0-4.8,3.7-8.8,8.6-8.8c3.2,0,5.1,1.3,6.7,3l-1.6,1.7c-1.3-1.4-2.8-2.5-5.1-2.5
	c-3.4,0-6,2.9-6,6.5v0.1c0,3.6,2.6,6.5,6.1,6.5c2.1,0,3.8-1.1,5.1-2.5l1.6,1.5c-1.7,1.9-3.7,3.2-6.8,3.2
	C232.2,36.5,228.5,32.5,228.5,27.9z"/>
<text transform="matrix(1 0 0 1 245.4207 20.3831)" fill="#00AF41" font-family="'Gotham-Medium'" font-size="2.8848px">tm</text>
</svg>
