<?xml version="1.0" encoding="utf-8"?>
<!-- Generator: Adobe Illustrator 21.1.0, SVG Export Plug-In . SVG Version: 6.00 Build 0)  -->
<!DOCTYPE svg PUBLIC "-//W3C//DTD SVG 1.1//EN" "http://www.w3.org/Graphics/SVG/1.1/DTD/svg11.dtd">
<svg version="1.1" id="Layer_1" xmlns="http://www.w3.org/2000/svg" xmlns:xlink="http://www.w3.org/1999/xlink" x="0px" y="0px"
	 viewBox="0 0 700 200" style="enable-background:new 0 0 700 200;" xml:space="preserve">
<style type="text/css">
	.st0{fill:#FFFFFF;}
	.st1{font-family:'Lato-Light';}
	.st2{font-size:88.0957px;}
</style>
<g>
	<path class="st0" d="M57.7,129.9c-3.7-1.2-5.2-3.2-5.1-7.3c0.3-10.4,0.2-20.8,0-31.3c0-1.7-1.3-4.3-2.7-4.9c-7-3-14.2-5.5-22-8.5
		c0,22.6,0,44.2,0,66.4c14.3,5.2,28.7,10.5,43.1,15.5c2.9,1,6.2,1.1,9.3,1c11.7-0.1,19.6-8.1,20.1-18.6l-23.2-5.8
		C70.5,135.2,64.2,132.1,57.7,129.9z"/>
</g>
<path class="st0" d="M111.4,177.3c20.1-22.6,15.9-46.7,5-70.7c-8-17.6-22.7-28.8-40.5-35.8c-19.2-7.5-38.5-14.7-57.7-22.1
	c-1.8-0.7-3.5-1.5-6-2.5c7.4-5.4,14.1-10.5,21.1-15.2c1.3-0.9,3.8-0.8,5.4-0.2c20.2,7.6,40.6,14.8,60.5,23.2
	c41.5,17.5,54.5,56.9,50,89.2C146.2,163.5,130.6,177.4,111.4,177.3z"/>
<path class="st0" d="M52.6,122.7c0.3-10.4,0.2-20.8,0-31.3c0-1.7-1.3-4.3-2.7-4.9c-7-3-14.2-5.5-22-8.5c0,22.6,0,44.2,0,66.4
	L54,127.7C52.9,126.6,52.5,124.9,52.6,122.7z"/>
<text transform="matrix(1 0 0 1 195.1058 140.2464)" class="st0 st1 st2">doctorlogic</text>
</svg>
