<?xml version="1.0" encoding="utf-8"?>
<!-- Generator: Adobe Illustrator 21.1.0, SVG Export Plug-In . SVG Version: 6.00 Build 0)  -->
<!DOCTYPE svg PUBLIC "-//W3C//DTD SVG 1.1//EN" "http://www.w3.org/Graphics/SVG/1.1/DTD/svg11.dtd">
<svg version="1.1" id="Layer_1" xmlns="http://www.w3.org/2000/svg" xmlns:xlink="http://www.w3.org/1999/xlink" x="0px" y="0px"
	 viewBox="0 0 484.7 121.3" style="enable-background:new 0 0 484.7 121.3;" xml:space="preserve">
<style type="text/css">
	.st0{fill:url(#SVGID_1_);}
	.st1{fill:url(#SVGID_2_);}
	.st2{fill:url(#SVGID_3_);}
	.st3{fill:#1DA0B5;}
</style>
<g>
	<linearGradient id="SVGID_1_" gradientUnits="userSpaceOnUse" x1="16.4939" y1="70.875" x2="68.6743" y2="70.875">
		<stop  offset="0" style="stop-color:#086BB5"/>
		<stop  offset="0.1464" style="stop-color:#096DB4"/>
		<stop  offset="0.3155" style="stop-color:#0674B4"/>
		<stop  offset="0.4958" style="stop-color:#0180B6"/>
		<stop  offset="0.6841" style="stop-color:#0091B8"/>
		<stop  offset="0.8765" style="stop-color:#00A7B8"/>
		<stop  offset="1" style="stop-color:#00B9B6"/>
	</linearGradient>
	<path class="st0" d="M38,78.3c-2.7-0.9-3.8-2.3-3.7-5.2c0.2-7.5,0.2-15,0-22.5c0-1.2-0.9-3.1-1.9-3.5c-5-2.2-10.2-4-15.9-6.1
		c0,16.3,0,31.8,0,47.8c10.3,3.7,20.6,7.6,31,11.1c2.1,0.7,4.5,0.8,6.7,0.8c8.4-0.1,14.1-5.8,14.5-13.4L52,83.2
		C47.2,82.1,42.7,79.9,38,78.3z"/>
</g>
<linearGradient id="SVGID_2_" gradientUnits="userSpaceOnUse" x1="5.1901" y1="59.5334" x2="104.3365" y2="59.5334">
	<stop  offset="2.283654e-03" style="stop-color:#086BB5"/>
	<stop  offset="0.2552" style="stop-color:#037BB5"/>
	<stop  offset="0.8091" style="stop-color:#00A7B8"/>
	<stop  offset="1" style="stop-color:#00B9B6"/>
</linearGradient>
<path class="st1" d="M76.6,112.4c14.5-16.3,11.4-33.6,3.6-50.8C74.4,48.9,63.9,40.8,51,35.8C37.2,30.5,23.3,25.2,9.5,19.9
	c-1.3-0.5-2.5-1.1-4.3-1.8c5.3-3.9,10.2-7.5,15.2-10.9c0.9-0.6,2.7-0.6,3.9-0.2c14.5,5.5,29.2,10.6,43.5,16.7
	c29.9,12.6,39.2,40.9,36,64.2C101.7,102.5,90.5,112.5,76.6,112.4z"/>
<linearGradient id="SVGID_3_" gradientUnits="userSpaceOnUse" x1="31.6582" y1="80.0742" x2="10.9572" y2="44.2191">
	<stop  offset="0" style="stop-color:#086BB5"/>
	<stop  offset="0.2535" style="stop-color:#037BB5"/>
	<stop  offset="0.8087" style="stop-color:#00A7B8"/>
	<stop  offset="1" style="stop-color:#00B9B6"/>
</linearGradient>
<path class="st2" d="M34.3,73.1c0.2-7.5,0.2-15,0-22.5c0-1.2-0.9-3.1-1.9-3.5c-5-2.2-10.2-4-15.9-6.1c0,16.3,0,31.8,0,47.8
	l18.8-12.1C34.6,75.9,34.2,74.7,34.3,73.1z"/>
<g>
	<path class="st3" d="M162.6,33.4v47h-4.2v-7.6c-1.3,2.5-3,4.4-5.3,5.8c-2.3,1.4-4.9,2.1-8,2.1c-3.1,0-5.9-0.7-8.4-2.2
		c-2.5-1.4-4.4-3.4-5.7-6c-1.4-2.6-2-5.5-2-8.7c0-3.3,0.7-6.1,2.1-8.7c1.4-2.5,3.3-4.5,5.7-6c2.4-1.4,5.2-2.2,8.3-2.2
		c3,0,5.7,0.7,8,2.1c2.3,1.4,4.1,3.3,5.4,5.8V33.4H162.6z M152.3,75.3c1.9-1.1,3.4-2.7,4.5-4.7c1.1-2,1.6-4.2,1.6-6.8
		c0-2.5-0.5-4.8-1.6-6.8c-1.1-2-2.6-3.6-4.5-4.7c-1.9-1.1-4.1-1.7-6.5-1.7s-4.6,0.6-6.5,1.7c-1.9,1.1-3.4,2.7-4.5,4.7
		c-1.1,2-1.6,4.3-1.6,6.8c0,2.5,0.5,4.8,1.6,6.8c1.1,2,2.6,3.5,4.5,4.7c1.9,1.1,4.1,1.7,6.5,1.7S150.4,76.4,152.3,75.3z"/>
	<path class="st3" d="M197.3,49.2c2.5,1.4,4.5,3.4,6,5.9c1.4,2.5,2.2,5.4,2.2,8.6c0,3.3-0.7,6.2-2.2,8.7c-1.4,2.6-3.4,4.5-6,6
		c-2.5,1.4-5.4,2.1-8.6,2.1c-3.2,0-6.1-0.7-8.6-2.1c-2.5-1.4-4.5-3.4-6-6c-1.4-2.6-2.2-5.5-2.2-8.7c0-3.2,0.7-6.1,2.2-8.6
		c1.4-2.5,3.4-4.5,6-5.9c2.5-1.4,5.4-2.1,8.6-2.1C191.9,47.1,194.8,47.8,197.3,49.2z M182.2,52.4c-1.9,1.1-3.4,2.6-4.4,4.6
		c-1.1,2-1.6,4.2-1.6,6.8c0,2.6,0.5,4.9,1.6,6.8c1.1,2,2.5,3.5,4.4,4.6c1.9,1.1,4.1,1.6,6.5,1.6s4.6-0.5,6.5-1.6
		c1.9-1.1,3.4-2.6,4.4-4.6c1.1-2,1.6-4.3,1.6-6.8c0-2.5-0.5-4.8-1.6-6.8c-1.1-2-2.5-3.5-4.4-4.6c-1.9-1.1-4.1-1.6-6.5-1.6
		S184.1,51.3,182.2,52.4z"/>
	<path class="st3" d="M227.6,50.8c-2.4,0-4.5,0.5-6.4,1.6c-1.9,1.1-3.4,2.6-4.4,4.6c-1.1,2-1.6,4.2-1.6,6.8c0,2.5,0.5,4.8,1.6,6.8
		c1.1,2,2.5,3.5,4.4,4.6c1.9,1.1,4,1.6,6.4,1.6c2.2,0,4.1-0.4,5.9-1.1c1.8-0.8,3.3-1.9,4.5-3.3l2.4,2.5c-1.5,1.8-3.3,3.1-5.6,4.1
		c-2.2,1-4.7,1.5-7.5,1.5c-3.2,0-6-0.7-8.5-2.1c-2.5-1.4-4.4-3.4-5.9-6c-1.4-2.6-2.1-5.4-2.1-8.7c0-3.2,0.7-6.1,2.1-8.7
		c1.4-2.6,3.4-4.5,5.9-6c2.5-1.4,5.3-2.1,8.5-2.1c2.6,0,4.9,0.4,7.1,1.3c2.1,0.8,4,2,5.5,3.5l-2.4,2.9
		C234.8,52.1,231.5,50.8,227.6,50.8z"/>
	<path class="st3" d="M266.7,78.1c-2.3,1.6-4.7,2.4-7.4,2.5c-2.5,0-4.5-0.8-6-2.3c-1.5-1.6-2.2-3.9-2.2-7V51.5h-4.8l-0.1-3.3h4.8
		v-8.6h4.2v8.6l10.8-0.1v3.4h-10.8v19.1c0,4.1,1.5,6.1,4.6,6.1c1.7,0,3.5-0.6,5.5-1.8L266.7,78.1z"/>
	<path class="st3" d="M295.8,49.2c2.5,1.4,4.5,3.4,6,5.9c1.4,2.5,2.2,5.4,2.2,8.6c0,3.3-0.7,6.2-2.2,8.7c-1.4,2.6-3.4,4.5-6,6
		c-2.5,1.4-5.4,2.1-8.6,2.1c-3.2,0-6.1-0.7-8.6-2.1c-2.5-1.4-4.5-3.4-6-6c-1.4-2.6-2.2-5.5-2.2-8.7c0-3.2,0.7-6.1,2.2-8.6
		c1.4-2.5,3.4-4.5,6-5.9c2.5-1.4,5.4-2.1,8.6-2.1C290.4,47.1,293.3,47.8,295.8,49.2z M280.7,52.4c-1.9,1.1-3.4,2.6-4.4,4.6
		c-1.1,2-1.6,4.2-1.6,6.8c0,2.6,0.5,4.9,1.6,6.8c1.1,2,2.5,3.5,4.4,4.6s4.1,1.6,6.5,1.6c2.4,0,4.6-0.5,6.5-1.6s3.4-2.6,4.4-4.6
		c1.1-2,1.6-4.3,1.6-6.8c0-2.5-0.5-4.8-1.6-6.8c-1.1-2-2.5-3.5-4.4-4.6c-1.9-1.1-4.1-1.6-6.5-1.6C284.8,50.8,282.6,51.3,280.7,52.4z
		"/>
	<path class="st3" d="M321.9,49.1c2-1.3,4.5-2,7.4-2.1v4c-3.5,0-6.3,1-8.5,3.1c-2.1,2.1-3.3,4.9-3.6,8.5v17.7h-4.2V47.2h4.2v7.7
		C318.3,52.4,319.8,50.5,321.9,49.1z"/>
	<path class="st3" d="M336.4,33.4h4.2v47h-4.2V33.4z"/>
	<path class="st3" d="M375.4,49.2c2.5,1.4,4.5,3.4,6,5.9c1.4,2.5,2.2,5.4,2.2,8.6c0,3.3-0.7,6.2-2.2,8.7c-1.4,2.6-3.4,4.5-6,6
		c-2.5,1.4-5.4,2.1-8.6,2.1c-3.2,0-6.1-0.7-8.6-2.1c-2.5-1.4-4.5-3.4-6-6c-1.4-2.6-2.2-5.5-2.2-8.7c0-3.2,0.7-6.1,2.2-8.6
		c1.4-2.5,3.4-4.5,6-5.9c2.5-1.4,5.4-2.1,8.6-2.1C369.9,47.1,372.8,47.8,375.4,49.2z M360.3,52.4c-1.9,1.1-3.4,2.6-4.4,4.6
		c-1.1,2-1.6,4.2-1.6,6.8c0,2.6,0.5,4.9,1.6,6.8c1.1,2,2.5,3.5,4.4,4.6s4.1,1.6,6.5,1.6c2.4,0,4.6-0.5,6.5-1.6s3.4-2.6,4.4-4.6
		c1.1-2,1.6-4.3,1.6-6.8c0-2.5-0.5-4.8-1.6-6.8c-1.1-2-2.5-3.5-4.4-4.6c-1.9-1.1-4.1-1.6-6.5-1.6C364.3,50.8,362.2,51.3,360.3,52.4z
		"/>
	<path class="st3" d="M421.2,47.2v29.7c0,3.2-0.7,6-2,8.4c-1.4,2.4-3.3,4.3-5.8,5.5c-2.5,1.3-5.4,1.9-8.7,1.9
		c-4.9,0-9.4-1.7-13.6-5.1l2-3c1.7,1.5,3.5,2.6,5.3,3.4s3.9,1.1,6.1,1.1c3.8,0,6.8-1.1,9.1-3.3c2.3-2.2,3.4-5.2,3.4-8.9v-5.4
		c-1.2,2.3-2.9,4.1-5.1,5.5c-2.2,1.3-4.7,2-7.6,2c-3,0-5.6-0.7-7.9-2.1c-2.3-1.4-4.1-3.3-5.4-5.7c-1.3-2.4-1.9-5.2-1.9-8.3
		s0.6-5.8,1.9-8.2c1.3-2.4,3.1-4.3,5.4-5.6c2.3-1.4,5-2,7.9-2c2.9,0,5.4,0.6,7.5,1.9c2.2,1.3,3.8,3.1,5.1,5.5v-7.3H421.2z M411.2,74
		c1.8-1.1,3.2-2.6,4.2-4.5c1-1.9,1.5-4,1.5-6.4c0-2.4-0.5-4.6-1.5-6.5c-1-1.9-2.4-3.4-4.2-4.5c-1.8-1.1-3.9-1.6-6.1-1.6
		c-2.3,0-4.3,0.5-6.1,1.6c-1.8,1.1-3.2,2.6-4.3,4.5c-1,1.9-1.6,4.1-1.6,6.5c0,2.4,0.5,4.6,1.6,6.4c1,1.9,2.5,3.4,4.2,4.4
		c1.8,1.1,3.9,1.6,6.2,1.6C407.3,75.6,409.3,75.1,411.2,74z"/>
	<path class="st3" d="M437,35.5c0.5,0.6,0.8,1.3,0.8,2.1c0,0.8-0.3,1.6-0.9,2.2c-0.6,0.6-1.3,0.9-2.1,0.9c-0.8,0-1.6-0.3-2.1-0.9
		c-0.6-0.6-0.9-1.3-0.9-2.2c0-0.8,0.3-1.6,0.9-2.1s1.3-0.9,2.1-0.9C435.7,34.7,436.4,34.9,437,35.5z M432.7,47.2h4.2v33.2h-4.2V47.2
		z"/>
	<path class="st3" d="M462.5,50.8c-2.4,0-4.5,0.5-6.4,1.6c-1.9,1.1-3.4,2.6-4.4,4.6s-1.6,4.2-1.6,6.8c0,2.5,0.5,4.8,1.6,6.8
		c1.1,2,2.5,3.5,4.4,4.6s4,1.6,6.4,1.6c2.2,0,4.1-0.4,5.9-1.1s3.3-1.9,4.5-3.3l2.4,2.5c-1.5,1.8-3.3,3.1-5.6,4.1
		c-2.2,1-4.7,1.5-7.5,1.5c-3.2,0-6-0.7-8.5-2.1c-2.5-1.4-4.4-3.4-5.9-6c-1.4-2.6-2.1-5.4-2.1-8.7c0-3.2,0.7-6.1,2.1-8.7
		c1.4-2.6,3.4-4.5,5.9-6c2.5-1.4,5.3-2.1,8.5-2.1c2.6,0,4.9,0.4,7.1,1.3c2.1,0.8,4,2,5.5,3.5l-2.4,2.9
		C469.8,52.1,466.4,50.8,462.5,50.8z"/>
</g>
</svg>
