<?xml version="1.0" encoding="utf-8"?>
<!-- Generator: Adobe Illustrator 20.1.0, SVG Export Plug-In . SVG Version: 6.00 Build 0)  -->
<!DOCTYPE svg PUBLIC "-//W3C//DTD SVG 1.1//EN" "http://www.w3.org/Graphics/SVG/1.1/DTD/svg11.dtd">
<svg version="1.1" id="Layer_1" xmlns="http://www.w3.org/2000/svg" xmlns:xlink="http://www.w3.org/1999/xlink" x="0px" y="0px"
	 viewBox="0 0 24 24" style="enable-background:new 0 0 24 24;" xml:space="preserve">
<style type="text/css">
	.st0{fill:#6CC4EA;}
</style>
<g>
	<path class="st0" d="M12,0C5.4,0,0,5.4,0,12s5.4,12,12,12s12-5.4,12-12S18.6,0,12,0z M12,19c-0.6,0-1-0.4-1-1s0.4-1,1-1s1,0.4,1,1
		S12.6,19,12,19z M13,12.9V15h-2v-3c0-0.6,0.4-1,1-1c1.1,0,2-0.9,2-2s-0.9-2-2-2c-0.8,0-1.6,0.7-1.9,1.3C9.9,8.8,9.3,9.1,8.8,8.8
		C8.3,8.6,8.1,8,8.3,7.5C8.9,6.1,10.5,5,12,5c2.2,0,4,1.8,4,4C16,10.8,14.7,12.4,13,12.9z"/>
</g>
</svg>
