<?xml version="1.0" encoding="utf-8"?>
<!-- Generator: Adobe Illustrator 21.1.0, SVG Export Plug-In . SVG Version: 6.00 Build 0)  -->
<!DOCTYPE svg PUBLIC "-//W3C//DTD SVG 1.1//EN" "http://www.w3.org/Graphics/SVG/1.1/DTD/svg11.dtd">
<svg version="1.1" id="Layer_1" xmlns="http://www.w3.org/2000/svg" xmlns:xlink="http://www.w3.org/1999/xlink" x="0px" y="0px"
	 viewBox="0 0 1500 240" style="enable-background:new 0 0 1500 240;" xml:space="preserve">
<style type="text/css">
	.st0{fill:#FFFFFF;}
	.st1{fill:#05A14A;}
	.st2{fill:#A7A9AC;}
	.st3{fill-rule:evenodd;clip-rule:evenodd;fill:#05A14A;}
</style>
<g>
	<path class="st0" d="M1154.8,149.6c0,2.1-0.9,3.8-2.8,5.1c-1.6,1.1-3.5,1.7-5.8,1.7c-2.3,0-4.2-0.5-5.8-1.6
		c-1.8-1.2-2.7-2.9-2.7-5.1c0-2.1,0.9-3.8,2.7-5c1.7-1.1,3.6-1.6,5.7-1.6c2.2,0,4.1,0.5,5.8,1.6
		C1153.9,145.9,1154.8,147.5,1154.8,149.6z"/>
	<path class="st1" d="M457.8,138.1c0,13.5-11.6,20.2-34.9,20.2h-21.4c-9.4,0-16.8-1.2-22.3-3.6c-8.3-3.4-12.5-8.9-12.5-16.5v-34.7
		c0-13.6,11.6-20.4,34.8-20.4h21.4c10.8,0,18.5,0.9,22.9,2.8c8,3.1,12,8.9,12,17.5V138.1z M444.1,137.8v-34c0-6.3-6.9-9.5-20.8-9.5
		h-21.8c-14,0-21,3.2-21,9.5v34c0,6.1,7,9.2,21,9.2h21.8C437.2,147,444.1,144,444.1,137.8z"/>
	<path class="st1" d="M556.8,153.4c0,3.2-1.6,4.9-4.8,4.9h-44c-10,0-17.9-0.9-23.5-2.7c-8.7-3-13-8.7-13-17.1V87.9
		c0-3.2,1.6-4.8,4.8-4.8c3.1,0,5.1,0.1,5.9,0.4c2,0.6,3,2.1,3,4.4v50.6c0,3.9,3.2,6.5,9.5,7.7c2,0.5,6.7,0.8,14.1,0.8H552
		C555.2,147,556.8,149.2,556.8,153.4z"/>
	<path class="st1" d="M652.3,120.7c0,3.8-1.1,6-4.6,6h-65.6v26.7c0,3.2-1.6,4.9-4.8,4.9c-3.4,0-5.4-0.2-5.9-0.4c-2-0.6-3-2.1-3-4.4
		v-52.8c0-6,3.9-10.6,11.6-13.8c5.9-2.5,12.4-3.7,19.5-3.7h10.2c3.3,0,4.9,2.1,4.9,6.3c0,3.3-1.6,4.9-4.9,4.9
		c-18.4,0-27.7,2.3-27.7,6.9v14.3h65.6C651.2,115.4,652.3,117,652.3,120.7z"/>
	<path class="st0" d="M898.4,87.6c0,0.8-0.2,1.6-0.6,2.3l-29.7,62.8c-1.8,3.7-4.6,5.6-8.5,5.6c-3.8,0-6.5-1.7-8.1-5.2l-23.7-50.7
		l-24.5,50.8c-1.5,3-4.2,4.5-8,4.5c-4.2,0-7-1.6-8.5-4.8l-29.6-63c-0.4-0.8-0.6-1.5-0.6-2.1c0-1.6,0.9-2.9,2.5-3.9
		c1.4-0.8,3-1.2,4.8-1.2c3,0,4.9,1,5.9,3.1l25.3,53.8l24.1-51.7c1.7-3.7,4.5-5.6,8.3-5.6c1.3,0,2.8,0.5,4.5,1.6
		c1.6,1,2.8,2.2,3.4,3.5l24.4,52.2l24.9-53.7c0.9-2.1,3.1-3.1,6.4-3.1c1.7,0,3.2,0.4,4.6,1.1C897.6,84.8,898.4,86.1,898.4,87.6z"/>
	<path class="st0" d="M921.4,153.4c0,3.2-1.6,4.9-4.8,4.9c-1.4,0-2.6,0-3.6-0.1c-1-0.1-1.8-0.1-2.3-0.2c-2-0.6-3-2.1-3-4.6V87.9
		c0-2.4,1-3.9,2.9-4.5c0.5-0.1,1.2-0.2,2.2-0.2c1-0.1,2.3-0.1,3.8-0.1c3.2,0,4.8,1.6,4.8,4.8V153.4z"/>
	<path class="st0" d="M1027.7,150.2c0,5.7-2.5,8.6-7.5,8.6c-2.3,0-4.9-1.2-7.8-3.6l-64-54.4v52.7c0,2.4-1,3.9-3,4.6
		c-0.6,0.1-1.4,0.2-2.3,0.2c-1,0.1-2.2,0.1-3.6,0.1c-3.2,0-4.8-1.6-4.8-4.9V90.7c0-5.4,2.3-8.1,7.1-8.1c3,0,6,1.3,9.1,3.9l63.2,53.8
		V87.9c0-2.4,1-3.9,3-4.5c0.6-0.1,1.4-0.2,2.3-0.2c1-0.1,2.2-0.1,3.6-0.1c3.2,0,4.9,1.6,4.9,4.8V150.2z"/>
	<path class="st2" d="M1247.9,89.4c0,3.3-1.6,4.9-4.8,4.9h-48.8c-11.9,0-17.8,2.4-17.8,7.1v37.2c0,5.6,6.6,8.4,19.7,8.4h46.6
		c3.3,0,5,1.9,5,5.6c0,3.8-1.7,5.7-5,5.7h-46.6c-6.3,0-10.8-0.2-13.6-0.7c-3-0.6-6.1-1.7-9.4-3.3c-3.7-1.9-6.3-3.9-7.8-6
		c-1.8-2.4-2.7-5.5-2.7-9.3v-37.4c0-4.7,2.2-8.8,6.5-12.1c3.6-2.8,8-4.6,13.2-5.6c1.3-0.2,2.9-0.4,4.8-0.5c1.9-0.1,4.1-0.2,6.7-0.2
		h49.1C1246.3,83.1,1247.9,85.2,1247.9,89.4z"/>
	<path class="st2" d="M1349.6,138.1c0,13.5-11.6,20.2-34.9,20.2h-21.4c-9.4,0-16.9-1.2-22.3-3.6c-8.3-3.4-12.5-8.9-12.5-16.5v-34.7
		c0-13.6,11.6-20.4,34.8-20.4h21.4c10.8,0,18.5,0.9,22.9,2.8c8,3.1,12,8.9,12,17.5V138.1z M1335.9,137.8v-34c0-6.3-6.9-9.5-20.8-9.5
		h-21.8c-14,0-21,3.2-21,9.5v34c0,6.1,7,9.2,21,9.2h21.8C1329,147,1335.9,144,1335.9,137.8z"/>
	<path class="st2" d="M1488.8,153.4c0,2.4-1,3.9-3,4.5c-0.8,0.3-2.8,0.4-5.9,0.4c-3.2,0-4.8-1.6-4.8-4.9v-48.7l-40.4,49.9
		c-2.1,2.6-5,3.9-8.7,3.9c-3.7,0-6.6-1.3-8.8-3.9l-41.2-50.1v48.9c0,3.2-1.6,4.9-4.8,4.9c-3.2,0-5.1-0.1-5.9-0.4c-2-0.6-3-2.1-3-4.5
		V90.4c0-4.6,2.5-7,7.7-7c3.3,0,6,1.2,8,3.6l48.2,57l47-57c2-2.4,4.6-3.6,7.8-3.6c5.2,0,7.8,2.5,7.8,7.6V153.4z"/>
	<path class="st1" d="M597.7,83.1l50.7,0.2c2.6,0,4,1.9,3.9,5.6c0,3.8-1.3,5.7-4,5.7l-50.7-0.2"/>
	<g>
		<path class="st0" d="M749.6,139.7c0,4-0.6,7.2-1.9,9.4c-3.4,6.1-13.7,9.2-31,9.2h-47.5c-3.2,0-4.8-1.6-4.8-4.9
			c0-2.2,0.3-3.8,0.7-4.6c0.7-1.2,2-1.8,4-1.8h47.5c12.8,0,19.2-2.4,19.2-7.1v-6.5c0-4.6-6.2-7.1-18.6-7.5l-22.8-0.7
			c-1.1,0-2.6-0.1-4.5-0.2c-2-0.1-4.3-0.3-7.2-0.5c-4.9-0.6-9.2-2.2-12.7-4.9c-3.9-3-5.8-6.8-5.8-11.7v-5.7
			c0-8.8,4.9-14.6,14.6-17.4c4.7-1.2,13.2-1.8,25.6-1.8c3.2,0,4.8,2.1,4.8,6.3c0,2.4-1,3.9-2.9,4.6c-0.3,0.2-2.2,0.2-5.9,0.2
			c-15,0-22.5,2.6-22.5,7.9v5.2c0,3.2,2.8,5.4,8.4,6.4c1.1,0.2,2.6,0.4,4.7,0.5c2,0.1,4.5,0.1,7.5,0.1h18.3c8.8,0,15.7,1.1,20.7,3.4
			c8,3.3,12,8.3,12,15.2V139.7z"/>
		<path class="st0" d="M699,83.1l46.7,0.2c2.4,0,3.6,1.9,3.6,5.6c0,3.8-1.2,5.7-3.7,5.7L699,94.3"/>
	</g>
	<g>
		<path class="st1" d="M303.6,94.3l-7.2-0.2c-14.7,0-22.1,2.6-22.1,7.7v37.6c0,5.1,6.2,7.7,18.5,7.7h30.9c3,0,6.1-0.5,9.5-1.7
			c4.2-1.4,6.3-3.3,6.3-5.7v-19.5c0-2.3,1-3.8,3-4.5c1.2-0.2,3.1-0.3,5.9-0.3c3.2,0,4.8,1.6,4.8,4.8v19c0,6.8-3.4,11.9-10.2,15.2
			c-5.3,2.6-11.7,3.9-19.3,3.9h-31.1c-8.1,0-15-1.2-20.5-3.5c-7.7-3.2-11.5-8.3-11.5-15.4v-37.7c0-6.7,3.9-11.8,11.7-15
			c6.2-2.4,13-3.6,20.4-3.6h12.3"/>
		<path class="st1" d="M303.6,94.3l45.3,0.3c2.6,0,4-1.9,4-5.7c0-3.7-1.3-5.6-3.9-5.6l-26.9-0.2h-19"/>
		<path class="st1" d="M348,126.9l-50.7-0.4c-2.6,0-4-1.9-3.9-5.7c0-3.8,1.4-5.7,4-5.7l47.6,0.3"/>
	</g>
	<g>
		<path class="st0" d="M1082.5,94.6l-7.2-0.2c-14.7,0-22.1,2.5-22.1,7.7v37.6c0,5.1,6.2,7.7,18.5,7.7h30.9c3,0,6.1-0.5,9.4-1.7
			c4.2-1.4,6.3-3.3,6.3-5.7v-19.5c0-2.3,1-3.8,3-4.5c1.2-0.2,3.1-0.3,5.9-0.3c3.2,0,4.8,1.6,4.8,4.8v19c0,6.8-3.4,11.9-10.2,15.2
			c-5.3,2.6-11.7,3.9-19.3,3.9h-31.1c-8.2,0-15-1.2-20.6-3.5c-7.7-3.2-11.5-8.3-11.5-15.4v-37.7c0-6.7,3.9-11.8,11.7-15
			c6.2-2.4,13-3.6,20.4-3.6h12.3"/>
		<path class="st0" d="M1082.5,94.6l45.3,0.3c2.6,0,4-1.9,4-5.7c0-3.7-1.3-5.6-3.9-5.6l-26.9-0.2h-19"/>
		<path class="st0" d="M1126.9,127.2l-50.7-0.4c-2.6,0-4-1.9-3.9-5.7c0-3.8,1.4-5.7,4-5.6l47.6,0.3"/>
	</g>
</g>
<g>
	<g>
		<path class="st3" d="M94.5,81.3c21.7,15,42.6,29.6,64,44.5c-7.6,4-14.8,7.7-21.9,11.4c-6.9,3.6-13.7,7.3-20.7,10.7
			c-2.2,1.1-2.9,2.3-2.9,4.8c0.1,22.3,0,70.8,0,70.8s-2.2,0-3.8,0c-48.5-1.6-89.8-38-97.5-86C2.6,80,41,27.6,98.6,18.9
			c54.5-8.3,107.2,30.4,115.7,85.1c8.2,52.3-23.2,101.4-74.1,115.9c-8.1,2.9-15.6-12.2-4.4-17.8c37.8-10.7,63.9-47.4,61.5-86.5
			C194.8,74.4,163,41.2,122,36.8c-46.2-5-87.8,28.5-92.8,74.8c-4.5,41.4,21.8,79.9,61.5,90.7c3.3,0.9,4.1,0.5,4.1-3.1
			c-0.2-37.8-0.2-75.5-0.3-113.3C94.5,84.6,94.5,83.3,94.5,81.3z"/>
	</g>
</g>
</svg>
