<?xml version="1.0" encoding="utf-8"?>
<!-- Generator: Adobe Illustrator 21.1.0, SVG Export Plug-In . SVG Version: 6.00 Build 0)  -->
<!DOCTYPE svg PUBLIC "-//W3C//DTD SVG 1.1//EN" "http://www.w3.org/Graphics/SVG/1.1/DTD/svg11.dtd">
<svg version="1.1" id="Layer_1" xmlns="http://www.w3.org/2000/svg" xmlns:xlink="http://www.w3.org/1999/xlink" x="0px" y="0px"
	 viewBox="0 0 200 200" style="enable-background:new 0 0 200 200;" xml:space="preserve">
<style type="text/css">
	.st0{fill:url(#SVGID_1_);}
	.st1{fill:url(#SVGID_2_);}
	.st2{fill:url(#SVGID_3_);}
</style>
<g>
	<linearGradient id="SVGID_1_" gradientUnits="userSpaceOnUse" x1="31.2684" y1="120.4497" x2="123.3944" y2="120.4497">
		<stop  offset="0" style="stop-color:#086BB5"/>
		<stop  offset="0.1464" style="stop-color:#096DB4"/>
		<stop  offset="0.3155" style="stop-color:#0674B4"/>
		<stop  offset="0.4958" style="stop-color:#0180B6"/>
		<stop  offset="0.6841" style="stop-color:#0091B8"/>
		<stop  offset="0.8765" style="stop-color:#00A7B8"/>
		<stop  offset="1" style="stop-color:#00B9B6"/>
	</linearGradient>
	<path class="st0" d="M69.2,133.6c-4.8-1.5-6.6-4-6.5-9.2c0.4-13.2,0.3-26.5,0-39.7c-0.1-2.2-1.7-5.4-3.4-6.2c-8.9-3.8-18-7-28-10.7
		c0,28.7,0,56.2,0,84.4c18.2,6.6,36.4,13.3,54.8,19.7c3.7,1.3,7.9,1.4,11.8,1.3c14.9-0.1,24.9-10.3,25.5-23.6l-29.5-7.4
		C85.4,140.3,77.5,136.3,69.2,133.6z"/>
</g>
<linearGradient id="SVGID_2_" gradientUnits="userSpaceOnUse" x1="11.3112" y1="100.4257" x2="186.357" y2="100.4257">
	<stop  offset="0" style="stop-color:#086BB5"/>
	<stop  offset="0.2535" style="stop-color:#037BB5"/>
	<stop  offset="0.8087" style="stop-color:#00A7B8"/>
	<stop  offset="1" style="stop-color:#00B9B6"/>
</linearGradient>
<path class="st1" d="M137.4,193.8c25.6-28.7,20.2-59.3,6.3-89.8c-10.2-22.4-28.8-36.6-51.5-45.4c-24.4-9.5-48.9-18.7-73.3-28.1
	c-2.3-0.9-4.5-1.9-7.6-3.2c9.4-6.9,17.9-13.3,26.8-19.3c1.6-1.1,4.8-1.1,6.8-0.3c25.7,9.6,51.6,18.8,76.8,29.4
	c52.7,22.2,69.2,72.2,63.5,113.3C181.7,176.2,161.9,194,137.4,193.8z"/>
<linearGradient id="SVGID_3_" gradientUnits="userSpaceOnUse" x1="58.0413" y1="136.6911" x2="21.4932" y2="73.3879">
	<stop  offset="0" style="stop-color:#086BB5"/>
	<stop  offset="0.2535" style="stop-color:#037BB5"/>
	<stop  offset="0.8087" style="stop-color:#00A7B8"/>
	<stop  offset="1" style="stop-color:#00B9B6"/>
</linearGradient>
<path class="st2" d="M62.7,124.4c0.4-13.2,0.3-26.5,0-39.7c-0.1-2.2-1.7-5.4-3.4-6.2c-8.9-3.8-18-7-28-10.7c0,28.7,0,56.2,0,84.4
	l33.2-21.3C63.2,129.3,62.6,127.3,62.7,124.4z"/>
</svg>
