<?xml version="1.0" encoding="utf-8"?>
<!-- Generator: Adobe Illustrator 21.1.0, SVG Export Plug-In . SVG Version: 6.00 Build 0)  -->
<!DOCTYPE svg PUBLIC "-//W3C//DTD SVG 1.1//EN" "http://www.w3.org/Graphics/SVG/1.1/DTD/svg11.dtd">
<svg version="1.1" id="Layer_1" xmlns="http://www.w3.org/2000/svg" xmlns:xlink="http://www.w3.org/1999/xlink" x="0px" y="0px"
	 viewBox="0 0 120 120" style="enable-background:new 0 0 120 120;" xml:space="preserve">
<style type="text/css">
	.st0{fill:url(#SVGID_1_);}
	.st1{fill:url(#SVGID_2_);}
	.st2{fill:url(#SVGID_3_);}
</style>
<g>
	<linearGradient id="SVGID_1_" gradientUnits="userSpaceOnUse" x1="30.5842" y1="69.9197" x2="70.8287" y2="69.9197">
		<stop  offset="0" style="stop-color:#086BB5"/>
		<stop  offset="0.1464" style="stop-color:#096DB4"/>
		<stop  offset="0.3155" style="stop-color:#0674B4"/>
		<stop  offset="0.4958" style="stop-color:#0180B6"/>
		<stop  offset="0.6841" style="stop-color:#0091B8"/>
		<stop  offset="0.8765" style="stop-color:#00A7B8"/>
		<stop  offset="1" style="stop-color:#00B9B6"/>
	</linearGradient>
	<path class="st0" d="M47.1,75.7c-2.1-0.7-2.9-1.8-2.8-4c0.2-5.8,0.1-11.6,0-17.3c0-0.9-0.7-2.4-1.5-2.7c-3.9-1.7-7.9-3.1-12.2-4.7
		c0,12.6,0,24.5,0,36.9c8,2.9,15.9,5.8,23.9,8.6c1.6,0.6,3.4,0.6,5.2,0.6c6.5,0,10.9-4.5,11.1-10.3l-12.9-3.2
		C54.2,78.6,50.8,76.8,47.1,75.7z"/>
</g>
<linearGradient id="SVGID_2_" gradientUnits="userSpaceOnUse" x1="21.8661" y1="61.1724" x2="98.3333" y2="61.1724">
	<stop  offset="2.283654e-03" style="stop-color:#086BB5"/>
	<stop  offset="0.2552" style="stop-color:#037BB5"/>
	<stop  offset="0.8091" style="stop-color:#00A7B8"/>
	<stop  offset="1" style="stop-color:#00B9B6"/>
</linearGradient>
<path class="st1" d="M77,101.9c11.2-12.5,8.8-25.9,2.8-39.2c-4.5-9.8-12.6-16-22.5-19.8c-10.7-4.1-21.4-8.2-32-12.3
	c-1-0.4-2-0.8-3.3-1.4c4.1-3,7.8-5.8,11.7-8.4c0.7-0.5,2.1-0.5,3-0.1c11.2,4.2,22.5,8.2,33.6,12.9c23,9.7,30.2,31.6,27.8,49.5
	C96.3,94.3,87.6,102,77,101.9z"/>
<linearGradient id="SVGID_3_" gradientUnits="userSpaceOnUse" x1="42.2798" y1="77.0146" x2="26.3141" y2="49.3612">
	<stop  offset="0" style="stop-color:#086BB5"/>
	<stop  offset="0.2535" style="stop-color:#037BB5"/>
	<stop  offset="0.8087" style="stop-color:#00A7B8"/>
	<stop  offset="1" style="stop-color:#00B9B6"/>
</linearGradient>
<path class="st2" d="M44.3,71.6c0.2-5.8,0.1-11.6,0-17.3c0-0.9-0.7-2.4-1.5-2.7c-3.9-1.7-7.9-3.1-12.2-4.7c0,12.6,0,24.5,0,36.9
	l14.5-9.3C44.5,73.8,44.3,72.9,44.3,71.6z"/>
</svg>
