<?xml version="1.0" encoding="utf-8"?>
<!-- Generator: Adobe Illustrator 20.1.0, SVG Export Plug-In . SVG Version: 6.00 Build 0)  -->
<!DOCTYPE svg PUBLIC "-//W3C//DTD SVG 1.1//EN" "http://www.w3.org/Graphics/SVG/1.1/DTD/svg11.dtd">
<svg version="1.1" id="Layer_1" xmlns="http://www.w3.org/2000/svg" xmlns:xlink="http://www.w3.org/1999/xlink" x="0px" y="0px"
	 viewBox="0 0 500 356.7" style="enable-background:new 0 0 500 356.7;" xml:space="preserve">
<style type="text/css">
	.st0{clip-path:url(#SVGID_2_);}
	.st1{clip-path:url(#SVGID_4_);fill:#FFFFFF;}
	.st2{clip-path:url(#SVGID_6_);}
	.st3{clip-path:url(#SVGID_8_);fill:#B4B4B4;}
	.st4{clip-path:url(#SVGID_10_);}
	.st5{clip-path:url(#SVGID_12_);fill:#0CAE4B;}
	.st6{clip-path:url(#SVGID_14_);}
	.st7{clip-path:url(#SVGID_16_);fill:#355363;}
	.st8{clip-path:url(#SVGID_18_);}
	.st9{clip-path:url(#SVGID_20_);fill:#E96C60;}
</style>
<g>
	<defs>
		<path id="SVGID_1_" d="M270.2,36.9h-41.1c-113.5,0-205.4,94.3-205.4,210.7h451.9C475.6,131.2,383.6,36.9,270.2,36.9"/>
	</defs>
	<clipPath id="SVGID_2_">
		<use xlink:href="#SVGID_1_"  style="overflow:visible;"/>
	</clipPath>
	<g class="st0">
		<defs>
			<rect id="SVGID_3_" x="-4968.8" y="-7128.2" width="6742.7" height="32112"/>
		</defs>
		<clipPath id="SVGID_4_">
			<use xlink:href="#SVGID_3_"  style="overflow:visible;"/>
		</clipPath>
		<rect x="2.6" y="15.8" class="st1" width="494.1" height="252.9"/>
	</g>
</g>
<g>
	<defs>
		<path id="SVGID_5_" d="M407.5,201.7c-4.1,0-7.9-2.5-9.5-6.6c-13.2-33.4-37.4-61.5-68.2-79c-5-2.8-6.8-9.2-4-14.3
			c2.7-5.1,9-6.9,14-4.1c34.9,19.9,62.4,51.7,77.3,89.5c2.1,5.4-0.4,11.5-5.7,13.7C410,201.4,408.7,201.7,407.5,201.7"/>
	</defs>
	<clipPath id="SVGID_6_">
		<use xlink:href="#SVGID_5_"  style="overflow:visible;"/>
	</clipPath>
	<g class="st2">
		<defs>
			<rect id="SVGID_7_" x="-4968.8" y="-7128.2" width="6742.7" height="32112"/>
		</defs>
		<clipPath id="SVGID_8_">
			<use xlink:href="#SVGID_7_"  style="overflow:visible;"/>
		</clipPath>
		<rect x="303.3" y="75.3" class="st3" width="135.5" height="147.5"/>
	</g>
</g>
<g>
	<defs>
		<path id="SVGID_9_" d="M94.2,197.2c-5.3-2.2-7.8-8.3-5.7-13.7c26.8-68,90.4-111.9,161.9-111.9c29.6,0,58.9,7.7,84.6,22.4
			c5,2.8,6.8,9.2,4,14.3c-2.7,5.1-9,6.9-14,4.1c-22.7-12.9-48.5-19.7-74.6-19.7c-63.1,0-119.2,38.8-142.9,98.8
			c-1.6,4.1-5.5,6.6-9.5,6.6C96.8,198,95.4,197.7,94.2,197.2z"/>
	</defs>
	<clipPath id="SVGID_10_">
		<use xlink:href="#SVGID_9_"  style="overflow:visible;"/>
	</clipPath>
	<g class="st4">
		<defs>
			<rect id="SVGID_11_" x="-4968.8" y="-7128.2" width="6742.7" height="32112"/>
		</defs>
		<clipPath id="SVGID_12_">
			<use xlink:href="#SVGID_11_"  style="overflow:visible;"/>
		</clipPath>
		<rect x="66.7" y="50.5" class="st5" width="294.7" height="168.6"/>
	</g>
</g>
<g>
	<defs>
		<path id="SVGID_13_" d="M250.5,2.2C114.5,2.2,4,115.6,4,255c0,11.6,9.2,21.1,20.5,21.1H171c9.1,36.3,41.2,63.2,79.5,63.2
			s70.3-26.9,79.5-63.2h146.5c11.3,0,20.5-9.4,20.5-21.1C497,115.6,386.4,2.2,250.5,2.2z M46.1,233.9
			C56.4,127.6,144.1,44.3,250.5,44.3s194.1,83.3,204.4,189.6H46.1z"/>
	</defs>
	<clipPath id="SVGID_14_">
		<use xlink:href="#SVGID_13_"  style="overflow:visible;"/>
	</clipPath>
	<g class="st6">
		<defs>
			<rect id="SVGID_15_" x="-4968.8" y="-7128.2" width="6742.7" height="32112"/>
		</defs>
		<clipPath id="SVGID_16_">
			<use xlink:href="#SVGID_15_"  style="overflow:visible;"/>
		</clipPath>
		<rect x="-17.1" y="-18.9" class="st7" width="535.1" height="379.3"/>
	</g>
</g>
<g>
	<defs>
		<path id="SVGID_17_" d="M229.8,296.6c-19-12.7-24.5-38.7-12.2-58.3c12.3-19.5,96.1-82.5,96.1-82.5s-14.8,108.7-27.1,128.3
			C274.3,303.6,248.8,309.2,229.8,296.6"/>
	</defs>
	<clipPath id="SVGID_18_">
		<use xlink:href="#SVGID_17_"  style="overflow:visible;"/>
	</clipPath>
	<g class="st8">
		<defs>
			<rect id="SVGID_19_" x="-4968.8" y="-7128.2" width="6742.7" height="32112"/>
		</defs>
		<clipPath id="SVGID_20_">
			<use xlink:href="#SVGID_19_"  style="overflow:visible;"/>
		</clipPath>
		<rect x="189.9" y="134.8" class="st9" width="144.9" height="189.6"/>
	</g>
</g>
</svg>
