<?xml version="1.0" encoding="utf-8"?>
<!-- Generator: Adobe Illustrator 20.1.0, SVG Export Plug-In . SVG Version: 6.00 Build 0)  -->
<!DOCTYPE svg PUBLIC "-//W3C//DTD SVG 1.1//EN" "http://www.w3.org/Graphics/SVG/1.1/DTD/svg11.dtd">
<svg version="1.1" id="Layer_1" xmlns="http://www.w3.org/2000/svg" xmlns:xlink="http://www.w3.org/1999/xlink" x="0px" y="0px"
	 viewBox="0 0 500 356.7" style="enable-background:new 0 0 500 356.7;" xml:space="preserve">
<style type="text/css">
	.st0{clip-path:url(#SVGID_2_);}
	.st1{clip-path:url(#SVGID_4_);fill:#0CAE4B;}
	.st2{clip-path:url(#SVGID_6_);}
	.st3{clip-path:url(#SVGID_8_);fill:#E96C60;}
	.st4{clip-path:url(#SVGID_10_);}
	.st5{clip-path:url(#SVGID_12_);fill:#0CAE4B;}
	.st6{clip-path:url(#SVGID_14_);}
	.st7{clip-path:url(#SVGID_16_);fill:#E96C60;}
	.st8{clip-path:url(#SVGID_18_);}
	.st9{clip-path:url(#SVGID_20_);fill:#355363;}
	.st10{clip-path:url(#SVGID_22_);}
	.st11{clip-path:url(#SVGID_24_);fill:#355363;}
</style>
<g>
	<defs>
		<path id="SVGID_1_" d="M370.7,35.7c21.3,0,38.5,16.8,38.5,37.5c0,20.7-17.2,37.5-38.5,37.5S332.1,94,332.1,73.3
			C332.1,52.5,349.4,35.7,370.7,35.7"/>
	</defs>
	<clipPath id="SVGID_2_">
		<use xlink:href="#SVGID_1_"  style="overflow:visible;"/>
	</clipPath>
	<g class="st0">
		<defs>
			<rect id="SVGID_3_" x="-5129.4" y="-5886.4" width="6906.5" height="8417.3"/>
		</defs>
		<clipPath id="SVGID_4_">
			<use xlink:href="#SVGID_3_"  style="overflow:visible;"/>
		</clipPath>
		<rect x="310.6" y="14.2" class="st1" width="120.2" height="118.2"/>
	</g>
</g>
<g>
	<defs>
		<path id="SVGID_5_" d="M129.4,35.7c21.3,0,38.5,16.8,38.5,37.5c0,20.7-17.2,37.5-38.5,37.5c-21.3,0-38.5-16.8-38.5-37.5
			C90.8,52.5,108.1,35.7,129.4,35.7"/>
	</defs>
	<clipPath id="SVGID_6_">
		<use xlink:href="#SVGID_5_"  style="overflow:visible;"/>
	</clipPath>
	<g class="st2">
		<defs>
			<rect id="SVGID_7_" x="-5129.4" y="-5886.4" width="6906.5" height="8417.3"/>
		</defs>
		<clipPath id="SVGID_8_">
			<use xlink:href="#SVGID_7_"  style="overflow:visible;"/>
		</clipPath>
		<rect x="69.3" y="14.2" class="st3" width="120.2" height="118.2"/>
	</g>
</g>
<g>
	<defs>
		<path id="SVGID_9_" d="M347.5,131c-21.3,0-38.5,16.7-38.5,37.6v51c0,4.2,3.2,8.8,7.2,10.3l15.9,6.2l7.1,82.6
			c0.4,4.2,4.1,7.5,8.3,7.5h46.3c4.2,0,8-3.4,8.3-7.5l7.1-82.6l15.8-5.1c4-1.3,7.3-5.7,7.3-9.9v-52.5c0-20.8-17.3-37.6-38.5-37.6
			H347.5z"/>
	</defs>
	<clipPath id="SVGID_10_">
		<use xlink:href="#SVGID_9_"  style="overflow:visible;"/>
	</clipPath>
	<g class="st4">
		<defs>
			<rect id="SVGID_11_" x="-5129.4" y="-5886.4" width="6906.5" height="8417.3"/>
		</defs>
		<clipPath id="SVGID_12_">
			<use xlink:href="#SVGID_11_"  style="overflow:visible;"/>
		</clipPath>
		<rect x="287.5" y="109.4" class="st5" width="166.4" height="238.3"/>
	</g>
</g>
<g>
	<defs>
		<path id="SVGID_13_" d="M106.2,131c-21.3,0-38.5,16.7-38.5,37.6v51c0,4.2,3.2,8.8,7.2,10.3l15.9,6.2l7.1,82.6
			c0.4,4.2,4.1,7.5,8.3,7.5h46.3c4.2,0,8-3.4,8.3-7.5l7.1-82.6l15.8-5.1c4-1.3,7.3-5.7,7.3-9.9v-52.5c0-20.8-17.3-37.6-38.5-37.6
			H106.2z"/>
	</defs>
	<clipPath id="SVGID_14_">
		<use xlink:href="#SVGID_13_"  style="overflow:visible;"/>
	</clipPath>
	<g class="st6">
		<defs>
			<rect id="SVGID_15_" x="-5129.4" y="-5886.4" width="6906.5" height="8417.3"/>
		</defs>
		<clipPath id="SVGID_16_">
			<use xlink:href="#SVGID_15_"  style="overflow:visible;"/>
		</clipPath>
		<rect x="46.2" y="109.4" class="st7" width="166.4" height="238.3"/>
	</g>
</g>
<g>
	<defs>
		<path id="SVGID_17_" d="M250,5.7c25.5,0,46.2,20.2,46.2,45c0,24.9-20.7,45-46.2,45c-25.5,0-46.2-20.2-46.2-45
			C203.8,25.9,224.5,5.7,250,5.7"/>
	</defs>
	<clipPath id="SVGID_18_">
		<use xlink:href="#SVGID_17_"  style="overflow:visible;"/>
	</clipPath>
	<g class="st8">
		<defs>
			<rect id="SVGID_19_" x="-5129.4" y="-5886.4" width="6906.5" height="8417.3"/>
		</defs>
		<clipPath id="SVGID_20_">
			<use xlink:href="#SVGID_19_"  style="overflow:visible;"/>
		</clipPath>
		<rect x="182.2" y="-15.9" class="st9" width="135.6" height="133.3"/>
	</g>
</g>
<g>
	<defs>
		<path id="SVGID_21_" d="M219.2,110.8c-25.5,0-46.2,20.1-46.2,45.1v67.5c0,4.2,3.1,9,6.8,10.8l24,11.7l7.7,98.2
			c0.3,3.9,3.7,6.9,7.7,6.9h61.6c4,0,7.3-3,7.7-6.9l7.2-99.7l24.2-10.4c3.9-1.7,7.1-6.4,7.1-10.6v-67.5c0-24.9-20.6-45.1-46.2-45.1
			H219.2z"/>
	</defs>
	<clipPath id="SVGID_22_">
		<use xlink:href="#SVGID_21_"  style="overflow:visible;"/>
	</clipPath>
	<g class="st10">
		<defs>
			<rect id="SVGID_23_" x="-5129.4" y="-5886.4" width="6906.5" height="8417.3"/>
		</defs>
		<clipPath id="SVGID_24_">
			<use xlink:href="#SVGID_23_"  style="overflow:visible;"/>
		</clipPath>
		<rect x="151.4" y="89.2" class="st11" width="197.2" height="283.4"/>
	</g>
</g>
</svg>
