<?xml version="1.0" encoding="utf-8"?>
<!-- Generator: Adobe Illustrator 20.1.0, SVG Export Plug-In . SVG Version: 6.00 Build 0)  -->
<!DOCTYPE svg PUBLIC "-//W3C//DTD SVG 1.1//EN" "http://www.w3.org/Graphics/SVG/1.1/DTD/svg11.dtd">
<svg version="1.1" id="Layer_1" xmlns="http://www.w3.org/2000/svg" xmlns:xlink="http://www.w3.org/1999/xlink" x="0px" y="0px"
	 viewBox="0 0 500 356.7" style="enable-background:new 0 0 500 356.7;" xml:space="preserve">
<style type="text/css">
	.st0{clip-path:url(#SVGID_2_);}
	.st1{clip-path:url(#SVGID_4_);fill:#B4B4B4;}
	.st2{clip-path:url(#SVGID_6_);}
	.st3{clip-path:url(#SVGID_8_);fill:#355363;}
	.st4{clip-path:url(#SVGID_10_);}
	.st5{clip-path:url(#SVGID_12_);fill:#355363;}
	.st6{clip-path:url(#SVGID_14_);}
	.st7{clip-path:url(#SVGID_16_);fill:#355363;}
	.st8{clip-path:url(#SVGID_18_);}
	.st9{clip-path:url(#SVGID_20_);fill:#355363;}
	.st10{clip-path:url(#SVGID_22_);}
	.st11{clip-path:url(#SVGID_24_);fill:#D2EEFC;}
	.st12{clip-path:url(#SVGID_26_);}
	.st13{clip-path:url(#SVGID_28_);fill:#B4B4B4;}
	.st14{clip-path:url(#SVGID_30_);}
	.st15{clip-path:url(#SVGID_32_);fill:#355363;}
	.st16{clip-path:url(#SVGID_34_);}
	.st17{clip-path:url(#SVGID_36_);fill:#BCBCBB;}
	.st18{clip-path:url(#SVGID_38_);}
	.st19{clip-path:url(#SVGID_40_);fill:#C2E1B5;}
</style>
<g>
	<defs>
		<polygon id="SVGID_1_" points="242,327.1 174,327.1 179.6,285.6 236.4,285.6 		"/>
	</defs>
	<clipPath id="SVGID_2_">
		<use xlink:href="#SVGID_1_"  style="overflow:visible;"/>
	</clipPath>
	<g class="st0">
		<defs>
			<rect id="SVGID_3_" x="-1359" y="-7824.7" width="7391.5" height="35202.1"/>
		</defs>
		<clipPath id="SVGID_4_">
			<use xlink:href="#SVGID_3_"  style="overflow:visible;"/>
		</clipPath>
		<rect x="150.9" y="262.5" class="st1" width="114.3" height="87.7"/>
	</g>
</g>
<g>
	<defs>
		<path id="SVGID_5_" d="M83.2,232.3V273c0,13.5,6.6,24.5,14.8,24.5h197.3c8.2,0,14.8-10.9,14.8-24.5v-40.8H83.2z"/>
	</defs>
	<clipPath id="SVGID_6_">
		<use xlink:href="#SVGID_5_"  style="overflow:visible;"/>
	</clipPath>
	<g class="st2">
		<defs>
			<rect id="SVGID_7_" x="-1359" y="-7824.7" width="7391.5" height="35202.1"/>
		</defs>
		<clipPath id="SVGID_8_">
			<use xlink:href="#SVGID_7_"  style="overflow:visible;"/>
		</clipPath>
		<rect x="60.1" y="209.2" class="st3" width="273.1" height="111.4"/>
	</g>
</g>
<g>
	<defs>
		<path id="SVGID_9_" d="M315.8,54.4V21.1c0-11.1-5.8-20-12.9-20H130.2c-7.2,0-12.9,9-12.9,20v33.3H315.8z"/>
	</defs>
	<clipPath id="SVGID_10_">
		<use xlink:href="#SVGID_9_"  style="overflow:visible;"/>
	</clipPath>
	<g class="st4">
		<defs>
			<rect id="SVGID_11_" x="-1359" y="-7824.7" width="7391.5" height="35202.1"/>
		</defs>
		<clipPath id="SVGID_12_">
			<use xlink:href="#SVGID_11_"  style="overflow:visible;"/>
		</clipPath>
		<rect x="94.1" y="-22" class="st5" width="244.7" height="99.5"/>
	</g>
</g>
<g>
	<defs>
		<path id="SVGID_13_" d="M151.3,297.5H26.5c-12.5,0-22.7-11.5-22.7-25.8V26.8c0-14.2,10.2-25.8,22.7-25.8h124.8
			c12.5,0,22.7,11.5,22.7,25.8v244.8C174,285.9,163.8,297.5,151.3,297.5"/>
	</defs>
	<clipPath id="SVGID_14_">
		<use xlink:href="#SVGID_13_"  style="overflow:visible;"/>
	</clipPath>
	<g class="st6">
		<defs>
			<rect id="SVGID_15_" x="-1359" y="-7824.7" width="7391.5" height="35202.1"/>
		</defs>
		<clipPath id="SVGID_16_">
			<use xlink:href="#SVGID_15_"  style="overflow:visible;"/>
		</clipPath>
		<rect x="-19.3" y="-22" class="st7" width="216.4" height="342.6"/>
	</g>
</g>
<g>
	<defs>
		<path id="SVGID_17_" d="M389.5,297.5H264.7c-12.5,0-22.7-11.5-22.7-25.8V26.8c0-14.2,10.2-25.8,22.7-25.8h124.8
			c12.5,0,22.7,11.5,22.7,25.8v244.8C412.2,285.9,402,297.5,389.5,297.5"/>
	</defs>
	<clipPath id="SVGID_18_">
		<use xlink:href="#SVGID_17_"  style="overflow:visible;"/>
	</clipPath>
	<g class="st8">
		<defs>
			<rect id="SVGID_19_" x="-1359" y="-7824.7" width="7391.5" height="35202.1"/>
		</defs>
		<clipPath id="SVGID_20_">
			<use xlink:href="#SVGID_19_"  style="overflow:visible;"/>
		</clipPath>
		<rect x="218.9" y="-22" class="st9" width="216.4" height="342.6"/>
	</g>
</g>
<g>
	<defs>
		<path id="SVGID_21_" d="M365.8,24.8H50.2c-13.1,0-23.7,9.8-23.7,21.8V250h363V46.6C389.5,34.5,378.9,24.8,365.8,24.8"/>
	</defs>
	<clipPath id="SVGID_22_">
		<use xlink:href="#SVGID_21_"  style="overflow:visible;"/>
	</clipPath>
	<g class="st10">
		<defs>
			<rect id="SVGID_23_" x="-1359" y="-7824.7" width="7391.5" height="35202.1"/>
		</defs>
		<clipPath id="SVGID_24_">
			<use xlink:href="#SVGID_23_"  style="overflow:visible;"/>
		</clipPath>
		<rect x="3.4" y="1.7" class="st11" width="409.2" height="271.5"/>
	</g>
</g>
<g>
	<defs>
		<path id="SVGID_25_" d="M281.7,356.7H134.3c0-19.9,12-36.1,26.8-36.1h93.9C269.7,320.7,281.7,336.8,281.7,356.7"/>
	</defs>
	<clipPath id="SVGID_26_">
		<use xlink:href="#SVGID_25_"  style="overflow:visible;"/>
	</clipPath>
	<g class="st12">
		<defs>
			<rect id="SVGID_27_" x="-1359" y="-7824.7" width="7391.5" height="35202.1"/>
		</defs>
		<clipPath id="SVGID_28_">
			<use xlink:href="#SVGID_27_"  style="overflow:visible;"/>
		</clipPath>
		<rect x="111.2" y="297.6" class="st13" width="193.7" height="82.3"/>
	</g>
</g>
<g>
	<defs>
		<path id="SVGID_29_" d="M474.6,356.7H349.8c-12.5,0-22.7-11.1-22.7-24.7V96.9c0-13.7,10.2-24.7,22.7-24.7h124.8
			c12.5,0,22.7,11.1,22.7,24.7V332C497.3,345.7,487.1,356.7,474.6,356.7"/>
	</defs>
	<clipPath id="SVGID_30_">
		<use xlink:href="#SVGID_29_"  style="overflow:visible;"/>
	</clipPath>
	<g class="st14">
		<defs>
			<rect id="SVGID_31_" x="-1359" y="-7824.7" width="7391.5" height="35202.1"/>
		</defs>
		<clipPath id="SVGID_32_">
			<use xlink:href="#SVGID_31_"  style="overflow:visible;"/>
		</clipPath>
		<rect x="304" y="49.1" class="st15" width="216.4" height="330.7"/>
	</g>
</g>
<g>
	<defs>
		<path id="SVGID_33_" d="M412.2,315.2c6.3,0,11.3,5.3,11.3,11.9s-5.1,11.9-11.3,11.9c-6.3,0-11.3-5.3-11.3-11.9
			S405.9,315.2,412.2,315.2"/>
	</defs>
	<clipPath id="SVGID_34_">
		<use xlink:href="#SVGID_33_"  style="overflow:visible;"/>
	</clipPath>
	<g class="st16">
		<defs>
			<rect id="SVGID_35_" x="-1359" y="-7824.7" width="7391.5" height="35202.1"/>
		</defs>
		<clipPath id="SVGID_36_">
			<use xlink:href="#SVGID_35_"  style="overflow:visible;"/>
		</clipPath>
		<rect x="377.8" y="292.2" class="st17" width="68.9" height="69.9"/>
	</g>
</g>
<g>
	<defs>
		<path id="SVGID_37_" d="M469.4,297.5H355c-2.9,0-5.2-3-5.2-6.7V102.6c0-3.7,2.3-6.7,5.2-6.7h114.4c2.9,0,5.2,3,5.2,6.7v188.1
			C474.6,294.5,472.3,297.5,469.4,297.5"/>
	</defs>
	<clipPath id="SVGID_38_">
		<use xlink:href="#SVGID_37_"  style="overflow:visible;"/>
	</clipPath>
	<g class="st18">
		<defs>
			<rect id="SVGID_39_" x="-1359" y="-7824.7" width="7391.5" height="35202.1"/>
		</defs>
		<clipPath id="SVGID_40_">
			<use xlink:href="#SVGID_39_"  style="overflow:visible;"/>
		</clipPath>
		<rect x="326.7" y="72.8" class="st19" width="171" height="247.7"/>
	</g>
</g>
</svg>
