<?xml version="1.0" encoding="utf-8"?>
<!-- Generator: Adobe Illustrator 20.1.0, SVG Export Plug-In . SVG Version: 6.00 Build 0)  -->
<!DOCTYPE svg PUBLIC "-//W3C//DTD SVG 1.1//EN" "http://www.w3.org/Graphics/SVG/1.1/DTD/svg11.dtd">
<svg version="1.1" id="Layer_1" xmlns="http://www.w3.org/2000/svg" xmlns:xlink="http://www.w3.org/1999/xlink" x="0px" y="0px"
	 viewBox="0 0 500 356.7" style="enable-background:new 0 0 500 356.7;" xml:space="preserve">
<style type="text/css">
	.st0{clip-path:url(#SVGID_2_);}
	.st1{clip-path:url(#SVGID_4_);fill:#E96C60;}
	.st2{clip-path:url(#SVGID_6_);}
	.st3{clip-path:url(#SVGID_8_);fill:#0CAE4B;}
	.st4{clip-path:url(#SVGID_10_);}
	.st5{clip-path:url(#SVGID_12_);fill:#3FB2E6;}
</style>
<g>
	<defs>
		<path id="SVGID_1_" d="M152.5,210H63.9c-4.9,0-8.9,4.6-8.9,10.2v122.4c0,5.6,4,10.2,8.9,10.2h88.6c4.9,0,8.9-4.6,8.9-10.2V220.2
			C161.4,214.5,157.4,210,152.5,210"/>
	</defs>
	<clipPath id="SVGID_2_">
		<use xlink:href="#SVGID_1_"  style="overflow:visible;"/>
	</clipPath>
	<g class="st0">
		<defs>
			<rect id="SVGID_3_" x="-5492.8" y="-5666.7" width="7397.2" height="9015.4"/>
		</defs>
		<clipPath id="SVGID_4_">
			<use xlink:href="#SVGID_3_"  style="overflow:visible;"/>
		</clipPath>
		<rect x="32" y="186.9" class="st1" width="152.5" height="189"/>
	</g>
</g>
<g>
	<defs>
		<path id="SVGID_5_" d="M294.3,108h-88.6c-4.9,0-8.9,4.6-8.9,10.2v224.4c0,5.6,4,10.2,8.9,10.2h88.6c4.9,0,8.9-4.6,8.9-10.2V118.2
			C303.2,112.5,299.2,108,294.3,108"/>
	</defs>
	<clipPath id="SVGID_6_">
		<use xlink:href="#SVGID_5_"  style="overflow:visible;"/>
	</clipPath>
	<g class="st2">
		<defs>
			<rect id="SVGID_7_" x="-5492.8" y="-5666.7" width="7397.2" height="9015.4"/>
		</defs>
		<clipPath id="SVGID_8_">
			<use xlink:href="#SVGID_7_"  style="overflow:visible;"/>
		</clipPath>
		<rect x="173.7" y="84.9" class="st3" width="152.5" height="291"/>
	</g>
</g>
<g>
	<defs>
		<path id="SVGID_9_" d="M347.5,6c-4.9,0-8.9,4.6-8.9,10.2v326.3c0,5.6,4,10.2,8.9,10.2h88.6c4.9,0,8.9-4.6,8.9-10.2V16.2
			c0-5.6-4-10.2-8.9-10.2H347.5z"/>
	</defs>
	<clipPath id="SVGID_10_">
		<use xlink:href="#SVGID_9_"  style="overflow:visible;"/>
	</clipPath>
	<g class="st4">
		<defs>
			<rect id="SVGID_11_" x="-5492.8" y="-5666.7" width="7397.2" height="9015.4"/>
		</defs>
		<clipPath id="SVGID_12_">
			<use xlink:href="#SVGID_11_"  style="overflow:visible;"/>
		</clipPath>
		<rect x="315.5" y="-17.1" class="st5" width="152.5" height="393"/>
	</g>
</g>
</svg>
