<?xml version="1.0" encoding="utf-8"?>
<!-- Generator: Adobe Illustrator 20.1.0, SVG Export Plug-In . SVG Version: 6.00 Build 0)  -->
<!DOCTYPE svg PUBLIC "-//W3C//DTD SVG 1.1//EN" "http://www.w3.org/Graphics/SVG/1.1/DTD/svg11.dtd">
<svg version="1.1" id="Layer_1" xmlns="http://www.w3.org/2000/svg" xmlns:xlink="http://www.w3.org/1999/xlink" x="0px" y="0px"
	 viewBox="0 0 500 356.7" style="enable-background:new 0 0 500 356.7;" xml:space="preserve">
<style type="text/css">
	.st0{clip-path:url(#SVGID_2_);}
	.st1{clip-path:url(#SVGID_4_);fill:#3FB2E6;}
	.st2{clip-path:url(#SVGID_6_);}
	.st3{clip-path:url(#SVGID_8_);fill:#3FB2E6;}
	.st4{clip-path:url(#SVGID_10_);}
	.st5{clip-path:url(#SVGID_12_);fill:#355363;}
	.st6{clip-path:url(#SVGID_14_);}
	.st7{clip-path:url(#SVGID_16_);fill:#0CAE4B;}
	.st8{clip-path:url(#SVGID_18_);}
	.st9{clip-path:url(#SVGID_20_);fill:#E96C60;}
	.st10{clip-path:url(#SVGID_22_);}
	.st11{clip-path:url(#SVGID_24_);fill:#0CAE4B;}
	.st12{clip-path:url(#SVGID_26_);}
	.st13{clip-path:url(#SVGID_28_);fill:#3FB2E6;}
	.st14{clip-path:url(#SVGID_30_);}
	.st15{clip-path:url(#SVGID_32_);fill:#3FB2E6;}
	.st16{clip-path:url(#SVGID_34_);}
	.st17{clip-path:url(#SVGID_36_);fill:#3FB2E6;}
</style>
<g>
	<defs>
		<path id="SVGID_1_" d="M340.1,261.6h75.2c4.1,0,7.5,3.4,7.5,7.5v75.2c0,4.1-3.4,7.5-7.5,7.5h-75.2c-4.1,0-7.5-3.4-7.5-7.5v-75.2
			C332.6,264.9,336,261.6,340.1,261.6"/>
	</defs>
	<clipPath id="SVGID_2_">
		<use xlink:href="#SVGID_1_"  style="overflow:visible;"/>
	</clipPath>
	<g class="st0">
		<defs>
			<rect id="SVGID_3_" x="-1347.2" y="-5649.6" width="7374.9" height="8988.2"/>
		</defs>
		<clipPath id="SVGID_4_">
			<use xlink:href="#SVGID_3_"  style="overflow:visible;"/>
		</clipPath>
		<rect x="309.5" y="238.5" class="st1" width="136.3" height="136.3"/>
	</g>
</g>
<g>
	<defs>
		<path id="SVGID_5_" d="M212.3,261.6h75.2c4.1,0,7.5,3.4,7.5,7.5v75.2c0,4.1-3.4,7.5-7.5,7.5h-75.2c-4.1,0-7.5-3.4-7.5-7.5v-75.2
			C204.8,264.9,208.2,261.6,212.3,261.6"/>
	</defs>
	<clipPath id="SVGID_6_">
		<use xlink:href="#SVGID_5_"  style="overflow:visible;"/>
	</clipPath>
	<g class="st2">
		<defs>
			<rect id="SVGID_7_" x="-1347.2" y="-5649.6" width="7374.9" height="8988.2"/>
		</defs>
		<clipPath id="SVGID_8_">
			<use xlink:href="#SVGID_7_"  style="overflow:visible;"/>
		</clipPath>
		<rect x="181.8" y="238.5" class="st3" width="136.3" height="136.3"/>
	</g>
</g>
<g>
	<defs>
		<path id="SVGID_9_" d="M212.3,133.8h75.2c4.1,0,7.5,3.4,7.5,7.5v75.2c0,4.1-3.4,7.5-7.5,7.5h-75.2c-4.1,0-7.5-3.4-7.5-7.5v-75.2
			C204.8,137.2,208.2,133.8,212.3,133.8"/>
	</defs>
	<clipPath id="SVGID_10_">
		<use xlink:href="#SVGID_9_"  style="overflow:visible;"/>
	</clipPath>
	<g class="st4">
		<defs>
			<rect id="SVGID_11_" x="-1347.2" y="-5649.6" width="7374.9" height="8988.2"/>
		</defs>
		<clipPath id="SVGID_12_">
			<use xlink:href="#SVGID_11_"  style="overflow:visible;"/>
		</clipPath>
		<rect x="181.8" y="110.8" class="st5" width="136.3" height="136.3"/>
	</g>
</g>
<g>
	<defs>
		<path id="SVGID_13_" d="M227.4,21.1h45.1c4.1,0,7.5,3.4,7.5,7.5v45.1c0,4.1-3.4,7.5-7.5,7.5h-45.1c-4.1,0-7.5-3.4-7.5-7.5V28.6
			C219.9,24.4,223.2,21.1,227.4,21.1"/>
	</defs>
	<clipPath id="SVGID_14_">
		<use xlink:href="#SVGID_13_"  style="overflow:visible;"/>
	</clipPath>
	<g class="st6">
		<defs>
			<rect id="SVGID_15_" x="-1347.2" y="-5649.6" width="7374.9" height="8988.2"/>
		</defs>
		<clipPath id="SVGID_16_">
			<use xlink:href="#SVGID_15_"  style="overflow:visible;"/>
		</clipPath>
		<rect x="196.8" y="-2" class="st7" width="106.2" height="106.2"/>
	</g>
</g>
<g>
	<defs>
		<path id="SVGID_17_" d="M99.6,21.1h45.1c4.1,0,7.5,3.4,7.5,7.5v45.1c0,4.1-3.4,7.5-7.5,7.5H99.6c-4.1,0-7.5-3.4-7.5-7.5V28.6
			C92.1,24.4,95.5,21.1,99.6,21.1"/>
	</defs>
	<clipPath id="SVGID_18_">
		<use xlink:href="#SVGID_17_"  style="overflow:visible;"/>
	</clipPath>
	<g class="st8">
		<defs>
			<rect id="SVGID_19_" x="-1347.2" y="-5649.6" width="7374.9" height="8988.2"/>
		</defs>
		<clipPath id="SVGID_20_">
			<use xlink:href="#SVGID_19_"  style="overflow:visible;"/>
		</clipPath>
		<rect x="69.1" y="-2" class="st9" width="106.2" height="106.2"/>
	</g>
</g>
<g>
	<defs>
		<path id="SVGID_21_" d="M99.6,148.8h45.1c4.1,0,7.5,3.4,7.5,7.5v45.1c0,4.1-3.4,7.5-7.5,7.5H99.6c-4.1,0-7.5-3.4-7.5-7.5v-45.1
			C92.1,152.2,95.5,148.8,99.6,148.8"/>
	</defs>
	<clipPath id="SVGID_22_">
		<use xlink:href="#SVGID_21_"  style="overflow:visible;"/>
	</clipPath>
	<g class="st10">
		<defs>
			<rect id="SVGID_23_" x="-1347.2" y="-5649.6" width="7374.9" height="8988.2"/>
		</defs>
		<clipPath id="SVGID_24_">
			<use xlink:href="#SVGID_23_"  style="overflow:visible;"/>
		</clipPath>
		<rect x="69.1" y="125.8" class="st11" width="106.2" height="106.2"/>
	</g>
</g>
<g>
	<defs>
		<path id="SVGID_25_" d="M84.6,261.6h75.2c4.1,0,7.5,3.4,7.5,7.5v75.2c0,4.1-3.4,7.5-7.5,7.5H84.6c-4.1,0-7.5-3.4-7.5-7.5v-75.2
			C77.1,264.9,80.4,261.6,84.6,261.6"/>
	</defs>
	<clipPath id="SVGID_26_">
		<use xlink:href="#SVGID_25_"  style="overflow:visible;"/>
	</clipPath>
	<g class="st12">
		<defs>
			<rect id="SVGID_27_" x="-1347.2" y="-5649.6" width="7374.9" height="8988.2"/>
		</defs>
		<clipPath id="SVGID_28_">
			<use xlink:href="#SVGID_27_"  style="overflow:visible;"/>
		</clipPath>
		<rect x="54" y="238.5" class="st13" width="136.3" height="136.3"/>
	</g>
</g>
<g>
	<defs>
		<path id="SVGID_29_" d="M340.1,133.8h75.2c4.1,0,7.5,3.4,7.5,7.5v75.2c0,4.1-3.4,7.5-7.5,7.5h-75.2c-4.1,0-7.5-3.4-7.5-7.5v-75.2
			C332.6,137.2,336,133.8,340.1,133.8"/>
	</defs>
	<clipPath id="SVGID_30_">
		<use xlink:href="#SVGID_29_"  style="overflow:visible;"/>
	</clipPath>
	<g class="st14">
		<defs>
			<rect id="SVGID_31_" x="-1347.2" y="-5649.6" width="7374.9" height="8988.2"/>
		</defs>
		<clipPath id="SVGID_32_">
			<use xlink:href="#SVGID_31_"  style="overflow:visible;"/>
		</clipPath>
		<rect x="309.5" y="110.8" class="st15" width="136.3" height="136.3"/>
	</g>
</g>
<g>
	<defs>
		<path id="SVGID_33_" d="M415.3,6c4.1,0,7.5,3.4,7.5,7.5v75.2c0,4.1-3.4,7.5-7.5,7.5h-75.2c-4.1,0-7.5-3.4-7.5-7.5V13.6
			c0-4.1,3.4-7.5,7.5-7.5H415.3z"/>
	</defs>
	<clipPath id="SVGID_34_">
		<use xlink:href="#SVGID_33_"  style="overflow:visible;"/>
	</clipPath>
	<g class="st16">
		<defs>
			<rect id="SVGID_35_" x="-1347.2" y="-5649.6" width="7374.9" height="8988.2"/>
		</defs>
		<clipPath id="SVGID_36_">
			<use xlink:href="#SVGID_35_"  style="overflow:visible;"/>
		</clipPath>
		<rect x="309.5" y="-17" class="st17" width="136.3" height="136.3"/>
	</g>
</g>
</svg>
