<?xml version="1.0" encoding="utf-8"?>
<!-- Generator: Adobe Illustrator 20.1.0, SVG Export Plug-In . SVG Version: 6.00 Build 0)  -->
<!DOCTYPE svg PUBLIC "-//W3C//DTD SVG 1.1//EN" "http://www.w3.org/Graphics/SVG/1.1/DTD/svg11.dtd">
<svg version="1.1" id="Layer_1" xmlns="http://www.w3.org/2000/svg" xmlns:xlink="http://www.w3.org/1999/xlink" x="0px" y="0px"
	 viewBox="0 0 500 356.7" style="enable-background:new 0 0 500 356.7;" xml:space="preserve">
<style type="text/css">
	.st0{clip-path:url(#SVGID_2_);}
	.st1{clip-path:url(#SVGID_4_);fill:#355363;}
	.st2{clip-path:url(#SVGID_6_);}
	.st3{clip-path:url(#SVGID_8_);fill:#355363;}
	.st4{clip-path:url(#SVGID_10_);}
	.st5{clip-path:url(#SVGID_12_);fill:#355363;}
	.st6{clip-path:url(#SVGID_14_);}
	.st7{clip-path:url(#SVGID_16_);fill:#355363;}
	.st8{clip-path:url(#SVGID_18_);}
	.st9{clip-path:url(#SVGID_20_);fill:#355363;}
	.st10{clip-path:url(#SVGID_22_);}
	.st11{clip-path:url(#SVGID_24_);fill:#355363;}
	.st12{clip-path:url(#SVGID_26_);}
	.st13{clip-path:url(#SVGID_28_);fill:#355363;}
	.st14{clip-path:url(#SVGID_30_);}
	.st15{clip-path:url(#SVGID_32_);fill:#355363;}
	.st16{clip-path:url(#SVGID_34_);}
	.st17{clip-path:url(#SVGID_36_);fill:#355363;}
	.st18{clip-path:url(#SVGID_38_);}
	.st19{clip-path:url(#SVGID_40_);fill:#355363;}
	.st20{clip-path:url(#SVGID_42_);}
	.st21{clip-path:url(#SVGID_44_);fill:#E96C60;}
	.st22{clip-path:url(#SVGID_46_);}
	.st23{clip-path:url(#SVGID_48_);fill:#3FB2E6;}
	.st24{clip-path:url(#SVGID_50_);}
	.st25{clip-path:url(#SVGID_52_);fill:#3FB2E6;}
	.st26{clip-path:url(#SVGID_54_);}
	.st27{clip-path:url(#SVGID_56_);fill:#3FB2E6;}
	.st28{clip-path:url(#SVGID_58_);}
	.st29{clip-path:url(#SVGID_60_);fill:#0CAE4B;}
	.st30{clip-path:url(#SVGID_62_);}
	.st31{clip-path:url(#SVGID_64_);fill:#0CAE4B;}
	.st32{clip-path:url(#SVGID_66_);}
	.st33{clip-path:url(#SVGID_68_);fill:#3FB2E6;}
	.st34{clip-path:url(#SVGID_70_);}
	.st35{clip-path:url(#SVGID_72_);fill:#3FB2E6;}
	.st36{clip-path:url(#SVGID_74_);}
	.st37{clip-path:url(#SVGID_76_);fill:#0CAE4B;}
</style>
<g>
	<defs>
		<path id="SVGID_1_" d="M452,246.4c0-4.3,3.5-7.8,7.8-7.8c4.3,0,7.8,3.5,7.8,7.8v68.2c0,4.3-3.5,7.8-7.8,7.8
			c-4.3,0-7.8-3.5-7.8-7.8V246.4z"/>
	</defs>
	<clipPath id="SVGID_2_">
		<use xlink:href="#SVGID_1_"  style="overflow:visible;"/>
	</clipPath>
	<g class="st0">
		<defs>
			<rect id="SVGID_3_" x="-1336.2" y="-6229.5" width="7289.4" height="8883.9"/>
		</defs>
		<clipPath id="SVGID_4_">
			<use xlink:href="#SVGID_3_"  style="overflow:visible;"/>
		</clipPath>
		<rect x="429.3" y="215.8" class="st1" width="61.2" height="129.3"/>
	</g>
</g>
<g>
	<defs>
		<path id="SVGID_5_" d="M34.6,246.4c0-4.3,3.5-7.9,7.9-7.9h417.4c4.4,0,7.9,3.5,7.9,7.9c0,4.3-3.5,7.9-7.9,7.9H42.4
			C38.1,254.3,34.6,250.8,34.6,246.4z"/>
	</defs>
	<clipPath id="SVGID_6_">
		<use xlink:href="#SVGID_5_"  style="overflow:visible;"/>
	</clipPath>
	<g class="st2">
		<defs>
			<rect id="SVGID_7_" x="-1336.2" y="-6229.5" width="7289.4" height="8883.9"/>
		</defs>
		<clipPath id="SVGID_8_">
			<use xlink:href="#SVGID_7_"  style="overflow:visible;"/>
		</clipPath>
		<rect x="11.8" y="215.8" class="st3" width="478.7" height="61.3"/>
	</g>
</g>
<g>
	<defs>
		<path id="SVGID_9_" d="M34.6,246.4c0-4.3,3.5-7.8,7.8-7.8c4.3,0,7.8,3.5,7.8,7.8v68.2c0,4.3-3.5,7.8-7.8,7.8
			c-4.3,0-7.8-3.5-7.8-7.8V246.4z"/>
	</defs>
	<clipPath id="SVGID_10_">
		<use xlink:href="#SVGID_9_"  style="overflow:visible;"/>
	</clipPath>
	<g class="st4">
		<defs>
			<rect id="SVGID_11_" x="-1336.2" y="-6229.5" width="7289.4" height="8883.9"/>
		</defs>
		<clipPath id="SVGID_12_">
			<use xlink:href="#SVGID_11_"  style="overflow:visible;"/>
		</clipPath>
		<rect x="11.8" y="215.8" class="st5" width="61.2" height="129.3"/>
	</g>
</g>
<g>
	<defs>
		<path id="SVGID_13_" d="M138.9,194c0-4.3,3.5-7.8,7.8-7.8c4.3,0,7.8,3.5,7.8,7.8v120.5c0,4.3-3.5,7.8-7.8,7.8
			c-4.3,0-7.8-3.5-7.8-7.8V194z"/>
	</defs>
	<clipPath id="SVGID_14_">
		<use xlink:href="#SVGID_13_"  style="overflow:visible;"/>
	</clipPath>
	<g class="st6">
		<defs>
			<rect id="SVGID_15_" x="-1336.2" y="-6229.5" width="7289.4" height="8883.9"/>
		</defs>
		<clipPath id="SVGID_16_">
			<use xlink:href="#SVGID_15_"  style="overflow:visible;"/>
		</clipPath>
		<rect x="116.1" y="163.4" class="st7" width="61.2" height="181.7"/>
	</g>
</g>
<g>
	<defs>
		<path id="SVGID_17_" d="M243.3,194c0-4.3,3.5-7.8,7.8-7.8c4.3,0,7.8,3.5,7.8,7.8v120.5c0,4.3-3.5,7.8-7.8,7.8
			c-4.3,0-7.8-3.5-7.8-7.8V194z"/>
	</defs>
	<clipPath id="SVGID_18_">
		<use xlink:href="#SVGID_17_"  style="overflow:visible;"/>
	</clipPath>
	<g class="st8">
		<defs>
			<rect id="SVGID_19_" x="-1336.2" y="-6229.5" width="7289.4" height="8883.9"/>
		</defs>
		<clipPath id="SVGID_20_">
			<use xlink:href="#SVGID_19_"  style="overflow:visible;"/>
		</clipPath>
		<rect x="220.5" y="163.4" class="st9" width="61.2" height="181.7"/>
	</g>
</g>
<g>
	<defs>
		<path id="SVGID_21_" d="M347.7,194c0-4.3,3.5-7.8,7.8-7.8c4.3,0,7.8,3.5,7.8,7.8v120.5c0,4.3-3.5,7.8-7.8,7.8
			c-4.3,0-7.8-3.5-7.8-7.8V194z"/>
	</defs>
	<clipPath id="SVGID_22_">
		<use xlink:href="#SVGID_21_"  style="overflow:visible;"/>
	</clipPath>
	<g class="st10">
		<defs>
			<rect id="SVGID_23_" x="-1336.2" y="-6229.5" width="7289.4" height="8883.9"/>
		</defs>
		<clipPath id="SVGID_24_">
			<use xlink:href="#SVGID_23_"  style="overflow:visible;"/>
		</clipPath>
		<rect x="324.9" y="163.4" class="st11" width="61.2" height="181.7"/>
	</g>
</g>
<g>
	<defs>
		<path id="SVGID_25_" d="M138.9,110.3c0-4.3,3.5-7.8,7.8-7.8c4.3,0,7.8,3.5,7.8,7.8v68.2c0,4.3-3.5,7.8-7.8,7.8
			c-4.3,0-7.8-3.5-7.8-7.8V110.3z"/>
	</defs>
	<clipPath id="SVGID_26_">
		<use xlink:href="#SVGID_25_"  style="overflow:visible;"/>
	</clipPath>
	<g class="st12">
		<defs>
			<rect id="SVGID_27_" x="-1336.2" y="-6229.5" width="7289.4" height="8883.9"/>
		</defs>
		<clipPath id="SVGID_28_">
			<use xlink:href="#SVGID_27_"  style="overflow:visible;"/>
		</clipPath>
		<rect x="116.1" y="79.7" class="st13" width="61.2" height="129.3"/>
	</g>
</g>
<g>
	<defs>
		<path id="SVGID_29_" d="M243.3,57.9c0-4.3,3.5-7.8,7.8-7.8c4.3,0,7.8,3.5,7.8,7.8v120.5c0,4.3-3.5,7.8-7.8,7.8
			c-4.3,0-7.8-3.5-7.8-7.8V57.9z"/>
	</defs>
	<clipPath id="SVGID_30_">
		<use xlink:href="#SVGID_29_"  style="overflow:visible;"/>
	</clipPath>
	<g class="st14">
		<defs>
			<rect id="SVGID_31_" x="-1336.2" y="-6229.5" width="7289.4" height="8883.9"/>
		</defs>
		<clipPath id="SVGID_32_">
			<use xlink:href="#SVGID_31_"  style="overflow:visible;"/>
		</clipPath>
		<rect x="220.5" y="27.3" class="st15" width="61.2" height="181.7"/>
	</g>
</g>
<g>
	<defs>
		<path id="SVGID_33_" d="M347.7,110.3c0-4.3,3.5-7.8,7.8-7.8c4.3,0,7.8,3.5,7.8,7.8v68.2c0,4.3-3.5,7.8-7.8,7.8
			c-4.3,0-7.8-3.5-7.8-7.8V110.3z"/>
	</defs>
	<clipPath id="SVGID_34_">
		<use xlink:href="#SVGID_33_"  style="overflow:visible;"/>
	</clipPath>
	<g class="st16">
		<defs>
			<rect id="SVGID_35_" x="-1336.2" y="-6229.5" width="7289.4" height="8883.9"/>
		</defs>
		<clipPath id="SVGID_36_">
			<use xlink:href="#SVGID_35_"  style="overflow:visible;"/>
		</clipPath>
		<rect x="324.9" y="79.7" class="st17" width="61.2" height="129.3"/>
	</g>
</g>
<g>
	<defs>
		<path id="SVGID_37_" d="M138.9,110.3c0-4.3,3.5-7.9,7.9-7.9h208.7c4.3,0,7.9,3.5,7.9,7.9c0,4.3-3.5,7.9-7.9,7.9H146.8
			C142.4,118.2,138.9,114.7,138.9,110.3z"/>
	</defs>
	<clipPath id="SVGID_38_">
		<use xlink:href="#SVGID_37_"  style="overflow:visible;"/>
	</clipPath>
	<g class="st18">
		<defs>
			<rect id="SVGID_39_" x="-1336.2" y="-6229.5" width="7289.4" height="8883.9"/>
		</defs>
		<clipPath id="SVGID_40_">
			<use xlink:href="#SVGID_39_"  style="overflow:visible;"/>
		</clipPath>
		<rect x="116.1" y="79.7" class="st19" width="270" height="61.3"/>
	</g>
</g>
<g>
	<defs>
		<path id="SVGID_41_" d="M251.1,3c21.6,0,39.1,17.6,39.1,39.3c0,21.7-17.5,39.3-39.1,39.3S212,63.9,212,42.2
			C212,20.6,229.5,3,251.1,3"/>
	</defs>
	<clipPath id="SVGID_42_">
		<use xlink:href="#SVGID_41_"  style="overflow:visible;"/>
	</clipPath>
	<g class="st20">
		<defs>
			<rect id="SVGID_43_" x="-1336.2" y="-6229.5" width="7289.4" height="8883.9"/>
		</defs>
		<clipPath id="SVGID_44_">
			<use xlink:href="#SVGID_43_"  style="overflow:visible;"/>
		</clipPath>
		<rect x="189.2" y="-19.8" class="st21" width="123.8" height="124.1"/>
	</g>
</g>
<g>
	<defs>
		<path id="SVGID_45_" d="M459.9,275.2c21.6,0,39.1,17.6,39.1,39.3s-17.5,39.3-39.1,39.3c-21.6,0-39.1-17.6-39.1-39.3
			S438.2,275.2,459.9,275.2"/>
	</defs>
	<clipPath id="SVGID_46_">
		<use xlink:href="#SVGID_45_"  style="overflow:visible;"/>
	</clipPath>
	<g class="st22">
		<defs>
			<rect id="SVGID_47_" x="-1336.2" y="-6229.5" width="7289.4" height="8883.9"/>
		</defs>
		<clipPath id="SVGID_48_">
			<use xlink:href="#SVGID_47_"  style="overflow:visible;"/>
		</clipPath>
		<rect x="397.9" y="252.5" class="st23" width="123.8" height="124.1"/>
	</g>
</g>
<g>
	<defs>
		<path id="SVGID_49_" d="M251.1,275.2c21.6,0,39.1,17.6,39.1,39.3s-17.5,39.3-39.1,39.3S212,336.2,212,314.5
			S229.5,275.2,251.1,275.2"/>
	</defs>
	<clipPath id="SVGID_50_">
		<use xlink:href="#SVGID_49_"  style="overflow:visible;"/>
	</clipPath>
	<g class="st24">
		<defs>
			<rect id="SVGID_51_" x="-1336.2" y="-6229.5" width="7289.4" height="8883.9"/>
		</defs>
		<clipPath id="SVGID_52_">
			<use xlink:href="#SVGID_51_"  style="overflow:visible;"/>
		</clipPath>
		<rect x="189.2" y="252.5" class="st25" width="123.8" height="124.1"/>
	</g>
</g>
<g>
	<defs>
		<path id="SVGID_53_" d="M42.4,275.2c21.6,0,39.1,17.6,39.1,39.3S64,353.8,42.4,353.8S3.2,336.2,3.2,314.5S20.8,275.2,42.4,275.2"
			/>
	</defs>
	<clipPath id="SVGID_54_">
		<use xlink:href="#SVGID_53_"  style="overflow:visible;"/>
	</clipPath>
	<g class="st26">
		<defs>
			<rect id="SVGID_55_" x="-1336.2" y="-6229.5" width="7289.4" height="8883.9"/>
		</defs>
		<clipPath id="SVGID_56_">
			<use xlink:href="#SVGID_55_"  style="overflow:visible;"/>
		</clipPath>
		<rect x="-19.5" y="252.5" class="st27" width="123.8" height="124.1"/>
	</g>
</g>
<g>
	<defs>
		<path id="SVGID_57_" d="M355.5,139.1c21.6,0,39.1,17.6,39.1,39.3s-17.5,39.3-39.1,39.3s-39.1-17.6-39.1-39.3
			S333.9,139.1,355.5,139.1"/>
	</defs>
	<clipPath id="SVGID_58_">
		<use xlink:href="#SVGID_57_"  style="overflow:visible;"/>
	</clipPath>
	<g class="st28">
		<defs>
			<rect id="SVGID_59_" x="-1336.2" y="-6229.5" width="7289.4" height="8883.9"/>
		</defs>
		<clipPath id="SVGID_60_">
			<use xlink:href="#SVGID_59_"  style="overflow:visible;"/>
		</clipPath>
		<rect x="293.6" y="116.3" class="st29" width="123.8" height="124.1"/>
	</g>
</g>
<g>
	<defs>
		<path id="SVGID_61_" d="M146.8,139.1c21.6,0,39.1,17.6,39.1,39.3s-17.5,39.3-39.1,39.3s-39.1-17.6-39.1-39.3
			S125.1,139.1,146.8,139.1"/>
	</defs>
	<clipPath id="SVGID_62_">
		<use xlink:href="#SVGID_61_"  style="overflow:visible;"/>
	</clipPath>
	<g class="st30">
		<defs>
			<rect id="SVGID_63_" x="-1336.2" y="-6229.5" width="7289.4" height="8883.9"/>
		</defs>
		<clipPath id="SVGID_64_">
			<use xlink:href="#SVGID_63_"  style="overflow:visible;"/>
		</clipPath>
		<rect x="84.8" y="116.3" class="st31" width="123.8" height="124.1"/>
	</g>
</g>
<g>
	<defs>
		<path id="SVGID_65_" d="M146.8,275.2c21.6,0,39.1,17.6,39.1,39.3s-17.5,39.3-39.1,39.3s-39.1-17.6-39.1-39.3
			S125.1,275.2,146.8,275.2"/>
	</defs>
	<clipPath id="SVGID_66_">
		<use xlink:href="#SVGID_65_"  style="overflow:visible;"/>
	</clipPath>
	<g class="st32">
		<defs>
			<rect id="SVGID_67_" x="-1336.2" y="-6229.5" width="7289.4" height="8883.9"/>
		</defs>
		<clipPath id="SVGID_68_">
			<use xlink:href="#SVGID_67_"  style="overflow:visible;"/>
		</clipPath>
		<rect x="84.8" y="252.5" class="st33" width="123.8" height="124.1"/>
	</g>
</g>
<g>
	<defs>
		<path id="SVGID_69_" d="M355.5,275.2c21.6,0,39.1,17.6,39.1,39.3s-17.5,39.3-39.1,39.3s-39.1-17.6-39.1-39.3
			S333.9,275.2,355.5,275.2"/>
	</defs>
	<clipPath id="SVGID_70_">
		<use xlink:href="#SVGID_69_"  style="overflow:visible;"/>
	</clipPath>
	<g class="st34">
		<defs>
			<rect id="SVGID_71_" x="-1336.2" y="-6229.5" width="7289.4" height="8883.9"/>
		</defs>
		<clipPath id="SVGID_72_">
			<use xlink:href="#SVGID_71_"  style="overflow:visible;"/>
		</clipPath>
		<rect x="293.6" y="252.5" class="st35" width="123.8" height="124.1"/>
	</g>
</g>
<g>
	<defs>
		<path id="SVGID_73_" d="M251.1,139.1c21.6,0,39.1,17.6,39.1,39.3s-17.5,39.3-39.1,39.3S212,200.1,212,178.4
			S229.5,139.1,251.1,139.1"/>
	</defs>
	<clipPath id="SVGID_74_">
		<use xlink:href="#SVGID_73_"  style="overflow:visible;"/>
	</clipPath>
	<g class="st36">
		<defs>
			<rect id="SVGID_75_" x="-1336.2" y="-6229.5" width="7289.4" height="8883.9"/>
		</defs>
		<clipPath id="SVGID_76_">
			<use xlink:href="#SVGID_75_"  style="overflow:visible;"/>
		</clipPath>
		<rect x="189.2" y="116.3" class="st37" width="123.8" height="124.1"/>
	</g>
</g>
</svg>
