<?xml version="1.0" encoding="utf-8"?>
<!-- Generator: Adobe Illustrator 22.0.1, SVG Export Plug-In . SVG Version: 6.00 Build 0)  -->
<!DOCTYPE svg PUBLIC "-//W3C//DTD SVG 1.1//EN" "http://www.w3.org/Graphics/SVG/1.1/DTD/svg11.dtd">
<svg version="1.1" id="Layer_1" xmlns="http://www.w3.org/2000/svg" xmlns:xlink="http://www.w3.org/1999/xlink" x="0px" y="0px"
	 viewBox="0 0 16 16" style="enable-background:new 0 0 16 16;" xml:space="preserve">
<style type="text/css">
	.st0{fill:#DDDDDD;}
	.st1{fill:#00B703;}
</style>
<g>
	<path class="st0" d="M7.3,15.1c-3.9,0-7.1-3.2-7.1-7.1s3.2-7.1,7.1-7.1c1.1,0,2.3,0.3,3.3,0.8c0.3,0.2,0.4,0.5,0.3,0.8
		c-0.2,0.3-0.5,0.4-0.8,0.3C9.1,2.3,8.2,2.1,7.3,2.1C4,2.1,1.4,4.8,1.4,8s2.6,5.9,5.9,5.9s5.9-2.6,5.9-5.9c0-0.3,0-0.6-0.1-0.9
		c-0.1-0.3,0.2-0.7,0.5-0.7c0.3-0.1,0.7,0.2,0.7,0.5c0.1,0.4,0.1,0.7,0.1,1.1C14.4,11.9,11.2,15.1,7.3,15.1z"/>
	<path class="st1" d="M7.3,10.1c-0.2,0-0.3-0.1-0.4-0.2l-3-3c-0.2-0.2-0.2-0.6,0-0.9s0.6-0.2,0.9,0l2.6,2.6l7.6-7.6
		c0.2-0.2,0.6-0.2,0.9,0c0.2,0.2,0.2,0.6,0,0.9l-8,8C7.6,10.1,7.4,10.1,7.3,10.1z"/>
</g>
</svg>
