<?xml version="1.0" encoding="utf-8"?>
<!-- Generator: Adobe Illustrator 22.0.1, SVG Export Plug-In . SVG Version: 6.00 Build 0)  -->
<!DOCTYPE svg PUBLIC "-//W3C//DTD SVG 1.1//EN" "http://www.w3.org/Graphics/SVG/1.1/DTD/svg11.dtd">
<svg version="1.1" id="Layer_1" xmlns="http://www.w3.org/2000/svg" xmlns:xlink="http://www.w3.org/1999/xlink" x="0px" y="0px"
	 viewBox="0 0 1278 104" style="enable-background:new 0 0 1278 104;" xml:space="preserve">
<style type="text/css">
	.st0{fill:#414042;}
	.st1{fill:#FFFFFF;}
</style>
<g>
	<path class="st0" d="M926.2,89.6c0,2.1-0.9,3.8-2.8,5.1c-1.6,1.1-3.6,1.7-5.8,1.7c-2.3,0-4.3-0.5-5.9-1.6c-1.8-1.3-2.8-3-2.8-5.2
		c0-2.2,0.9-3.9,2.8-5.1c1.7-1.1,3.7-1.6,5.8-1.6c2.2,0,4.2,0.5,5.9,1.6C925.2,85.7,926.2,87.4,926.2,89.6z"/>
	<path class="st0" d="M218.1,77.9c0,13.7-11.8,20.5-35.4,20.5h-21.7c-9.6,0-17.1-1.2-22.6-3.6c-8.4-3.4-12.7-9-12.7-16.8V42.7
		c0-13.8,11.8-20.7,35.3-20.7h21.7c11,0,18.8,1,23.3,2.9c8.1,3.1,12.2,9.1,12.2,17.8V77.9z M204.1,77.6V43c0-6.4-7-9.7-21.2-9.7
		h-22.1c-14.2,0-21.3,3.2-21.3,9.7v34.6c0,6.2,7.1,9.3,21.3,9.3H183C197.1,86.9,204.1,83.8,204.1,77.6z"/>
	<path class="st0" d="M318.6,93.4c0,3.3-1.6,5-4.9,5h-44.7c-10.2,0-18.2-0.9-23.9-2.8c-8.8-3.1-13.2-8.9-13.2-17.4V26.9
		c0-3.3,1.6-4.9,4.9-4.9c3.1,0,5.1,0.1,6,0.4c2,0.6,3,2.1,3,4.5v51.4c0,4,3.2,6.6,9.7,7.8c2,0.5,6.8,0.8,14.3,0.8h43.9
		C317,86.9,318.6,89.1,318.6,93.4z"/>
	<path class="st0" d="M415.7,60.2c0,3.8-1.2,6.1-4.6,6.1h-66.7v27.1c0,3.3-1.6,5-4.9,5c-3.5,0-5.5-0.2-6-0.4c-2-0.6-3-2.1-3-4.5
		V39.8c0-6.1,3.9-10.8,11.8-14c6-2.5,12.6-3.8,19.8-3.8h10.4c3.3,0,4.9,2.1,4.9,6.4c0,3.3-1.6,4.9-4.9,4.9c-18.7,0-28.1,2.3-28.1,7
		v14.5h66.7C414.5,54.8,415.7,56.4,415.7,60.2z"/>
	<path class="st0" d="M665.7,26.6c0,0.8-0.2,1.6-0.6,2.4l-30.2,63.8c-1.8,3.8-4.7,5.6-8.7,5.6c-3.8,0-6.6-1.8-8.2-5.3L594,41.6
		l-24.9,51.6c-1.5,3.1-4.2,4.6-8.2,4.6c-4.2,0-7.1-1.6-8.6-4.9l-30-64c-0.4-0.8-0.6-1.5-0.6-2.1c0-1.7,0.9-3,2.6-3.9
		c1.5-0.8,3.1-1.3,4.9-1.3c3,0,5,1,6,3.1l25.7,54.6l24.5-52.5c1.8-3.8,4.6-5.6,8.4-5.6c1.3,0,2.9,0.5,4.6,1.6c1.7,1,2.8,2.2,3.5,3.5
		l24.8,53L652,24.8c1-2.1,3.1-3.1,6.5-3.1c1.7,0,3.3,0.4,4.6,1.1C664.8,23.7,665.7,25,665.7,26.6z"/>
	<path class="st0" d="M689.1,93.4c0,3.3-1.6,5-4.9,5c-1.4,0-2.6,0-3.6-0.1c-1-0.1-1.8-0.1-2.4-0.2c-2-0.6-3-2.2-3-4.6V26.9
		c0-2.5,1-4,2.9-4.6c0.5-0.1,1.2-0.2,2.2-0.2c1-0.1,2.3-0.1,3.9-0.1c3.3,0,4.9,1.6,4.9,4.9V93.4z"/>
	<path class="st0" d="M797,90.2c0,5.8-2.6,8.7-7.7,8.7c-2.3,0-5-1.2-8-3.7l-65-55.2v53.5c0,2.5-1,4-3,4.6c-0.6,0.1-1.4,0.2-2.4,0.2
		c-1,0.1-2.2,0.1-3.6,0.1c-3.3,0-4.9-1.7-4.9-5V29.7c0-5.5,2.4-8.3,7.2-8.3c3,0,6.1,1.3,9.3,4L783,80.1V26.9c0-2.4,1-4,3-4.6
		c0.6-0.1,1.4-0.2,2.4-0.2c1-0.1,2.2-0.1,3.6-0.1c3.3,0,4.9,1.6,4.9,4.9V90.2z"/>
	<path class="st0" d="M1020.7,28.4c0,3.3-1.6,4.9-4.9,4.9h-49.6c-12,0-18.1,2.4-18.1,7.2v37.8c0,5.7,6.7,8.5,20,8.5h47.3
		c3.4,0,5.1,1.9,5.1,5.7c0,3.8-1.7,5.8-5.1,5.8h-47.3c-6.4,0-11-0.3-13.8-0.8c-3-0.6-6.2-1.7-9.5-3.4c-3.8-2-6.4-4-7.9-6.1
		c-1.8-2.4-2.7-5.6-2.7-9.5v-38c0-4.8,2.2-8.9,6.6-12.3c3.7-2.8,8.1-4.7,13.4-5.6c1.3-0.2,3-0.4,4.9-0.5c1.9-0.1,4.2-0.2,6.8-0.2
		h49.9C1019.1,22,1020.7,24.1,1020.7,28.4z"/>
	<path class="st0" d="M1124,77.9c0,13.7-11.8,20.5-35.4,20.5h-21.7c-9.6,0-17.1-1.2-22.7-3.6c-8.4-3.4-12.7-9-12.7-16.8V42.7
		c0-13.8,11.8-20.7,35.3-20.7h21.7c11,0,18.7,1,23.3,2.9C1120,28,1124,34,1124,42.7V77.9z M1110.1,77.6V43c0-6.4-7.1-9.7-21.2-9.7
		h-22.1c-14.2,0-21.3,3.2-21.3,9.7v34.6c0,6.2,7.1,9.3,21.3,9.3h22.2C1103.1,86.9,1110.1,83.8,1110.1,77.6z"/>
	<path class="st0" d="M1265.4,93.4c0,2.4-1,4-3,4.6c-0.8,0.3-2.9,0.4-6,0.4c-3.3,0-4.9-1.7-4.9-5V44l-41.1,50.7
		c-2.2,2.7-5.1,4-8.8,4c-3.8,0-6.7-1.3-8.9-4l-41.8-50.9v49.7c0,3.3-1.6,5-4.9,5c-3.2,0-5.2-0.1-6-0.4c-2-0.6-3-2.2-3-4.6V29.3
		c0-4.7,2.6-7.1,7.8-7.1c3.4,0,6.1,1.2,8.2,3.6l48.9,57.9l47.8-58c2-2.4,4.6-3.6,7.9-3.6c5.3,0,8,2.6,8,7.7V93.4z"/>
	<path class="st0" d="M360.2,22l51.5,0.2c2.7,0,4,1.9,4,5.7c0,3.8-1.4,5.8-4,5.8l-51.5-0.2"/>
	<g>
		<path class="st0" d="M514.5,79.4c0,4.1-0.7,7.3-1.9,9.6c-3.5,6.2-14,9.4-31.5,9.4h-48.2c-3.2,0-4.8-1.7-4.8-5
			c0-2.3,0.3-3.8,0.8-4.7c0.7-1.2,2.1-1.8,4.1-1.8h48.2c13,0,19.5-2.4,19.5-7.2v-6.6c0-4.7-6.3-7.2-18.9-7.7l-23.1-0.8
			c-1.1,0-2.6-0.1-4.6-0.2c-2-0.1-4.4-0.3-7.3-0.5c-5-0.6-9.3-2.2-12.9-5c-3.9-3-5.9-7-5.9-11.9v-5.8c0-8.9,4.9-14.8,14.8-17.6
			c4.7-1.2,13.4-1.8,26-1.8c3.3,0,4.9,2.1,4.9,6.4c0,2.5-1,4-3,4.6c-0.3,0.2-2.3,0.2-6,0.2c-15.2,0-22.8,2.7-22.8,8v5.3
			c0,3.3,2.8,5.5,8.5,6.5c1.1,0.2,2.7,0.4,4.7,0.5c2.1,0.1,4.6,0.1,7.6,0.1h18.6c8.9,0,15.9,1.1,21.1,3.4
			c8.1,3.3,12.2,8.5,12.2,15.4V79.4z"/>
		<path class="st0" d="M463.1,22l47.4,0.2c2.5,0,3.7,1.9,3.7,5.7c0,3.8-1.3,5.8-3.7,5.8l-47.4-0.4"/>
	</g>
	<g>
		<path class="st0" d="M61.4,33.3l-7.3-0.2c-15,0-22.5,2.6-22.5,7.8v38.2c0,5.2,6.3,7.8,18.8,7.8h31.4c3,0,6.2-0.5,9.6-1.7
			c4.3-1.4,6.4-3.3,6.4-5.8V59.7c0-2.3,1-3.8,3-4.6c1.2-0.2,3.2-0.3,6-0.3c3.3,0,4.9,1.6,4.9,4.9V79c0,6.9-3.5,12.1-10.4,15.5
			c-5.4,2.6-11.9,4-19.6,4H50.2c-8.3,0-15.2-1.2-20.9-3.6c-7.8-3.3-11.7-8.5-11.7-15.6V40.9c0-6.9,4-11.9,11.9-15.2
			c6.3-2.5,13.2-3.7,20.8-3.7h12.5"/>
		<path class="st0" d="M61.4,33.3l46,0.4c2.7,0,4-1.9,4-5.8c0-3.8-1.3-5.7-4-5.7L80.2,22H60.9"/>
		<path class="st0" d="M106.6,66.4L55,66.1c-2.7,0-4-1.9-4-5.7c0-3.9,1.4-5.8,4.1-5.7l48.4,0.3"/>
	</g>
	<g>
		<path class="st0" d="M852.7,33.6l-7.3-0.2c-15,0-22.5,2.6-22.5,7.8v38.2c0,5.2,6.3,7.8,18.8,7.8h31.4c3,0,6.2-0.6,9.6-1.7
			c4.3-1.4,6.4-3.3,6.4-5.8V60c0-2.3,1-3.8,3-4.6c1.2-0.2,3.2-0.3,6-0.3c3.3,0,4.9,1.6,4.9,4.9v19.3c0,6.9-3.5,12.1-10.4,15.5
			c-5.4,2.6-11.9,4-19.6,4h-31.6c-8.3,0-15.2-1.2-20.9-3.6c-7.8-3.3-11.7-8.5-11.7-15.6V41.3c0-6.9,4-11.9,11.9-15.2
			c6.3-2.5,13.2-3.7,20.8-3.7h12.5"/>
		<path class="st0" d="M852.7,33.6l46,0.3c2.7,0,4-1.9,4-5.8c0-3.8-1.3-5.7-4-5.7l-27.3-0.2h-19.3"/>
		<path class="st0" d="M897.8,66.8l-51.5-0.4c-2.7,0-4-1.9-4-5.7c0-3.8,1.4-5.8,4.1-5.7l48.4,0.3"/>
	</g>
</g>
<g>
	<path class="st1" d="M925.2,83.6c0,2.1-0.9,3.8-2.8,5.1c-1.6,1.1-3.6,1.7-5.8,1.7c-2.3,0-4.3-0.5-5.9-1.6c-1.8-1.3-2.8-3-2.8-5.2
		c0-2.2,0.9-3.9,2.8-5.1c1.7-1.1,3.7-1.6,5.8-1.6c2.2,0,4.2,0.5,5.9,1.6C924.2,79.7,925.2,81.4,925.2,83.6z"/>
	<path class="st1" d="M217.1,71.9c0,13.7-11.8,20.5-35.4,20.5h-21.7c-9.6,0-17.1-1.2-22.6-3.6c-8.4-3.4-12.7-9-12.7-16.8V36.7
		c0-13.8,11.8-20.7,35.3-20.7h21.7c11,0,18.8,1,23.3,2.9c8.1,3.1,12.2,9.1,12.2,17.8V71.9z M203.1,71.6V37c0-6.4-7-9.7-21.2-9.7
		h-22.1c-14.2,0-21.3,3.2-21.3,9.7v34.6c0,6.2,7.1,9.3,21.3,9.3H182C196.1,80.9,203.1,77.8,203.1,71.6z"/>
	<path class="st1" d="M317.6,87.4c0,3.3-1.6,5-4.9,5h-44.7c-10.2,0-18.2-0.9-23.9-2.8c-8.8-3.1-13.2-8.9-13.2-17.4V20.9
		c0-3.3,1.6-4.9,4.9-4.9c3.1,0,5.1,0.1,6,0.4c2,0.6,3,2.1,3,4.5v51.4c0,4,3.2,6.6,9.7,7.8c2,0.5,6.8,0.8,14.3,0.8h43.9
		C316,80.9,317.6,83.1,317.6,87.4z"/>
	<path class="st1" d="M414.7,54.2c0,3.8-1.2,6.1-4.6,6.1h-66.7v27.1c0,3.3-1.6,5-4.9,5c-3.5,0-5.5-0.2-6-0.4c-2-0.6-3-2.1-3-4.5
		V33.8c0-6.1,3.9-10.8,11.8-14c6-2.5,12.6-3.8,19.8-3.8h10.4c3.3,0,4.9,2.1,4.9,6.4c0,3.3-1.6,4.9-4.9,4.9c-18.7,0-28.1,2.3-28.1,7
		v14.5h66.7C413.5,48.8,414.7,50.4,414.7,54.2z"/>
	<path class="st1" d="M664.7,20.6c0,0.8-0.2,1.6-0.6,2.4l-30.2,63.8c-1.8,3.8-4.7,5.6-8.7,5.6c-3.8,0-6.6-1.8-8.2-5.3L593,35.6
		l-24.9,51.6c-1.5,3.1-4.2,4.6-8.2,4.6c-4.2,0-7.1-1.6-8.6-4.9l-30-64c-0.4-0.8-0.6-1.5-0.6-2.1c0-1.7,0.9-3,2.6-3.9
		c1.5-0.8,3.1-1.3,4.9-1.3c3,0,5,1,6,3.1l25.7,54.6l24.5-52.5c1.8-3.8,4.6-5.6,8.4-5.6c1.3,0,2.9,0.5,4.6,1.6c1.7,1,2.8,2.2,3.5,3.5
		l24.8,53L651,18.8c1-2.1,3.1-3.1,6.5-3.1c1.7,0,3.3,0.4,4.6,1.1C663.8,17.7,664.7,19,664.7,20.6z"/>
	<path class="st1" d="M688.1,87.4c0,3.3-1.6,5-4.9,5c-1.4,0-2.6,0-3.6-0.1c-1-0.1-1.8-0.1-2.4-0.2c-2-0.6-3-2.2-3-4.6V20.9
		c0-2.5,1-4,2.9-4.6c0.5-0.1,1.2-0.2,2.2-0.2c1-0.1,2.3-0.1,3.9-0.1c3.3,0,4.9,1.6,4.9,4.9V87.4z"/>
	<path class="st1" d="M796,84.2c0,5.8-2.6,8.7-7.7,8.7c-2.3,0-5-1.2-8-3.7l-65-55.2v53.5c0,2.5-1,4-3,4.6c-0.6,0.1-1.4,0.2-2.4,0.2
		c-1,0.1-2.2,0.1-3.6,0.1c-3.3,0-4.9-1.7-4.9-5V23.7c0-5.5,2.4-8.3,7.2-8.3c3,0,6.1,1.3,9.3,4L782,74.1V20.9c0-2.4,1-4,3-4.6
		c0.6-0.1,1.4-0.2,2.4-0.2c1-0.1,2.2-0.1,3.6-0.1c3.3,0,4.9,1.6,4.9,4.9V84.2z"/>
	<path class="st1" d="M1019.7,22.4c0,3.3-1.6,4.9-4.9,4.9h-49.6c-12,0-18.1,2.4-18.1,7.2v37.8c0,5.7,6.7,8.5,20,8.5h47.3
		c3.4,0,5.1,1.9,5.1,5.7c0,3.8-1.7,5.8-5.1,5.8h-47.3c-6.4,0-11-0.3-13.8-0.8c-3-0.6-6.2-1.7-9.5-3.4c-3.8-2-6.4-4-7.9-6.1
		c-1.8-2.4-2.7-5.6-2.7-9.5v-38c0-4.8,2.2-8.9,6.6-12.3c3.7-2.8,8.1-4.7,13.4-5.6c1.3-0.2,3-0.4,4.9-0.5c1.9-0.1,4.2-0.2,6.8-0.2
		h49.9C1018.1,16,1019.7,18.1,1019.7,22.4z"/>
	<path class="st1" d="M1123,71.9c0,13.7-11.8,20.5-35.4,20.5h-21.7c-9.6,0-17.1-1.2-22.7-3.6c-8.4-3.4-12.7-9-12.7-16.8V36.7
		c0-13.8,11.8-20.7,35.3-20.7h21.7c11,0,18.7,1,23.3,2.9C1119,22,1123,28,1123,36.7V71.9z M1109.1,71.6V37c0-6.4-7.1-9.7-21.2-9.7
		h-22.1c-14.2,0-21.3,3.2-21.3,9.7v34.6c0,6.2,7.1,9.3,21.3,9.3h22.2C1102.1,80.9,1109.1,77.8,1109.1,71.6z"/>
	<path class="st1" d="M1264.4,87.4c0,2.4-1,4-3,4.6c-0.8,0.3-2.9,0.4-6,0.4c-3.3,0-4.9-1.7-4.9-5V38l-41.1,50.7
		c-2.2,2.7-5.1,4-8.8,4c-3.8,0-6.7-1.3-8.9-4l-41.8-50.9v49.7c0,3.3-1.6,5-4.9,5c-3.2,0-5.2-0.1-6-0.4c-2-0.6-3-2.2-3-4.6V23.3
		c0-4.7,2.6-7.1,7.8-7.1c3.4,0,6.1,1.2,8.2,3.6l48.9,57.9l47.8-58c2-2.4,4.6-3.6,7.9-3.6c5.3,0,8,2.6,8,7.7V87.4z"/>
	<path class="st1" d="M359.2,16l51.5,0.2c2.7,0,4,1.9,4,5.7c0,3.8-1.4,5.8-4,5.8l-51.5-0.2"/>
	<g>
		<path class="st1" d="M513.5,73.4c0,4.1-0.7,7.3-1.9,9.6c-3.5,6.2-14,9.4-31.5,9.4h-48.2c-3.2,0-4.8-1.7-4.8-5
			c0-2.3,0.3-3.8,0.8-4.7c0.7-1.2,2.1-1.8,4.1-1.8h48.2c13,0,19.5-2.4,19.5-7.2v-6.6c0-4.7-6.3-7.2-18.9-7.7l-23.1-0.8
			c-1.1,0-2.6-0.1-4.6-0.2c-2-0.1-4.4-0.3-7.3-0.5c-5-0.6-9.3-2.2-12.9-5c-3.9-3-5.9-7-5.9-11.9v-5.8c0-8.9,4.9-14.8,14.8-17.6
			c4.7-1.2,13.4-1.8,26-1.8c3.3,0,4.9,2.1,4.9,6.4c0,2.5-1,4-3,4.6c-0.3,0.2-2.3,0.2-6,0.2c-15.2,0-22.8,2.7-22.8,8v5.3
			c0,3.3,2.8,5.5,8.5,6.5c1.1,0.2,2.7,0.4,4.7,0.5c2.1,0.1,4.6,0.1,7.6,0.1h18.6c8.9,0,15.9,1.1,21.1,3.4
			c8.1,3.3,12.2,8.5,12.2,15.4V73.4z"/>
		<path class="st1" d="M462.1,16l47.4,0.2c2.5,0,3.7,1.9,3.7,5.7c0,3.8-1.3,5.8-3.7,5.8l-47.4-0.4"/>
	</g>
	<g>
		<path class="st1" d="M60.4,27.3l-7.3-0.2c-15,0-22.5,2.6-22.5,7.8v38.2c0,5.2,6.3,7.8,18.8,7.8h31.4c3,0,6.2-0.5,9.6-1.7
			c4.3-1.4,6.4-3.3,6.4-5.8V53.7c0-2.3,1-3.8,3-4.6c1.2-0.2,3.2-0.3,6-0.3c3.3,0,4.9,1.6,4.9,4.9V73c0,6.9-3.5,12.1-10.4,15.5
			c-5.4,2.6-11.9,4-19.6,4H49.2c-8.3,0-15.2-1.2-20.9-3.6c-7.8-3.3-11.7-8.5-11.7-15.6V34.9c0-6.9,4-11.9,11.9-15.2
			c6.3-2.5,13.2-3.7,20.8-3.7h12.5"/>
		<path class="st1" d="M60.4,27.3l46,0.4c2.7,0,4-1.9,4-5.8c0-3.8-1.3-5.7-4-5.7L79.2,16H59.9"/>
		<path class="st1" d="M105.6,60.4L54,60.1c-2.7,0-4-1.9-4-5.7c0-3.9,1.4-5.8,4.1-5.7l48.4,0.3"/>
	</g>
	<g>
		<path class="st1" d="M851.7,27.6l-7.3-0.2c-15,0-22.5,2.6-22.5,7.8v38.2c0,5.2,6.3,7.8,18.8,7.8h31.4c3,0,6.2-0.6,9.6-1.7
			c4.3-1.4,6.4-3.3,6.4-5.8V54c0-2.3,1-3.8,3-4.6c1.2-0.2,3.2-0.3,6-0.3c3.3,0,4.9,1.6,4.9,4.9v19.3c0,6.9-3.5,12.1-10.4,15.5
			c-5.4,2.6-11.9,4-19.6,4h-31.6c-8.3,0-15.2-1.2-20.9-3.6c-7.8-3.3-11.7-8.5-11.7-15.6V35.3c0-6.9,4-11.9,11.9-15.2
			c6.3-2.5,13.2-3.7,20.8-3.7h12.5"/>
		<path class="st1" d="M851.7,27.6l46,0.3c2.7,0,4-1.9,4-5.8c0-3.8-1.3-5.7-4-5.7l-27.3-0.2h-19.3"/>
		<path class="st1" d="M896.8,60.8l-51.5-0.4c-2.7,0-4-1.9-4-5.7c0-3.8,1.4-5.8,4.1-5.7l48.4,0.3"/>
	</g>
</g>
<g>
	<path class="st1" d="M922.2,83.6c0,2.1-0.9,3.8-2.8,5.1c-1.6,1.1-3.6,1.7-5.8,1.7c-2.3,0-4.3-0.5-5.9-1.6c-1.8-1.3-2.8-3-2.8-5.2
		c0-2.2,0.9-3.9,2.8-5.1c1.7-1.1,3.7-1.6,5.8-1.6c2.2,0,4.2,0.5,5.9,1.6C921.2,79.7,922.2,81.4,922.2,83.6z"/>
	<path class="st1" d="M214.1,71.9c0,13.7-11.8,20.5-35.4,20.5h-21.7c-9.6,0-17.1-1.2-22.6-3.6c-8.4-3.4-12.7-9-12.7-16.8V36.7
		c0-13.8,11.8-20.7,35.3-20.7h21.7c11,0,18.8,1,23.3,2.9c8.1,3.1,12.2,9.1,12.2,17.8V71.9z M200.1,71.6V37c0-6.4-7-9.7-21.2-9.7
		h-22.1c-14.2,0-21.3,3.2-21.3,9.7v34.6c0,6.2,7.1,9.3,21.3,9.3H179C193.1,80.9,200.1,77.8,200.1,71.6z"/>
	<path class="st1" d="M314.6,87.4c0,3.3-1.6,5-4.9,5h-44.7c-10.2,0-18.2-0.9-23.9-2.8c-8.8-3.1-13.2-8.9-13.2-17.4V20.9
		c0-3.3,1.6-4.9,4.9-4.9c3.1,0,5.1,0.1,6,0.4c2,0.6,3,2.1,3,4.5v51.4c0,4,3.2,6.6,9.7,7.8c2,0.5,6.8,0.8,14.3,0.8h43.9
		C313,80.9,314.6,83.1,314.6,87.4z"/>
	<path class="st1" d="M411.7,54.2c0,3.8-1.2,6.1-4.6,6.1h-66.7v27.1c0,3.3-1.6,5-4.9,5c-3.5,0-5.5-0.2-6-0.4c-2-0.6-3-2.1-3-4.5
		V33.8c0-6.1,3.9-10.8,11.8-14c6-2.5,12.6-3.8,19.8-3.8h10.4c3.3,0,4.9,2.1,4.9,6.4c0,3.3-1.6,4.9-4.9,4.9c-18.7,0-28.1,2.3-28.1,7
		v14.5h66.7C410.5,48.8,411.7,50.4,411.7,54.2z"/>
	<path class="st1" d="M661.7,20.6c0,0.8-0.2,1.6-0.6,2.4l-30.2,63.8c-1.8,3.8-4.7,5.6-8.7,5.6c-3.8,0-6.6-1.8-8.2-5.3L590,35.6
		l-24.9,51.6c-1.5,3.1-4.2,4.6-8.2,4.6c-4.2,0-7.1-1.6-8.6-4.9l-30-64c-0.4-0.8-0.6-1.5-0.6-2.1c0-1.7,0.9-3,2.6-3.9
		c1.5-0.8,3.1-1.3,4.9-1.3c3,0,5,1,6,3.1l25.7,54.6l24.5-52.5c1.8-3.8,4.6-5.6,8.4-5.6c1.3,0,2.9,0.5,4.6,1.6c1.7,1,2.8,2.2,3.5,3.5
		l24.8,53L648,18.8c1-2.1,3.1-3.1,6.5-3.1c1.7,0,3.3,0.4,4.6,1.1C660.8,17.7,661.7,19,661.7,20.6z"/>
	<path class="st1" d="M685.1,87.4c0,3.3-1.6,5-4.9,5c-1.4,0-2.6,0-3.6-0.1c-1-0.1-1.8-0.1-2.4-0.2c-2-0.6-3-2.2-3-4.6V20.9
		c0-2.5,1-4,2.9-4.6c0.5-0.1,1.2-0.2,2.2-0.2c1-0.1,2.3-0.1,3.9-0.1c3.3,0,4.9,1.6,4.9,4.9V87.4z"/>
	<path class="st1" d="M793,84.2c0,5.8-2.6,8.7-7.7,8.7c-2.3,0-5-1.2-8-3.7l-65-55.2v53.5c0,2.5-1,4-3,4.6c-0.6,0.1-1.4,0.2-2.4,0.2
		c-1,0.1-2.2,0.1-3.6,0.1c-3.3,0-4.9-1.7-4.9-5V23.7c0-5.5,2.4-8.3,7.2-8.3c3,0,6.1,1.3,9.3,4L779,74.1V20.9c0-2.4,1-4,3-4.6
		c0.6-0.1,1.4-0.2,2.4-0.2c1-0.1,2.2-0.1,3.6-0.1c3.3,0,4.9,1.6,4.9,4.9V84.2z"/>
	<path class="st1" d="M1016.7,22.4c0,3.3-1.6,4.9-4.9,4.9h-49.6c-12,0-18.1,2.4-18.1,7.2v37.8c0,5.7,6.7,8.5,20,8.5h47.3
		c3.4,0,5.1,1.9,5.1,5.7c0,3.8-1.7,5.8-5.1,5.8h-47.3c-6.4,0-11-0.3-13.8-0.8c-3-0.6-6.2-1.7-9.5-3.4c-3.8-2-6.4-4-7.9-6.1
		c-1.8-2.4-2.7-5.6-2.7-9.5v-38c0-4.8,2.2-8.9,6.6-12.3c3.7-2.8,8.1-4.7,13.4-5.6c1.3-0.2,3-0.4,4.9-0.5c1.9-0.1,4.2-0.2,6.8-0.2
		h49.9C1015.1,16,1016.7,18.1,1016.7,22.4z"/>
	<path class="st1" d="M1120,71.9c0,13.7-11.8,20.5-35.4,20.5h-21.7c-9.6,0-17.1-1.2-22.7-3.6c-8.4-3.4-12.7-9-12.7-16.8V36.7
		c0-13.8,11.8-20.7,35.3-20.7h21.7c11,0,18.7,1,23.3,2.9C1116,22,1120,28,1120,36.7V71.9z M1106.1,71.6V37c0-6.4-7.1-9.7-21.2-9.7
		h-22.1c-14.2,0-21.3,3.2-21.3,9.7v34.6c0,6.2,7.1,9.3,21.3,9.3h22.2C1099.1,80.9,1106.1,77.8,1106.1,71.6z"/>
	<path class="st1" d="M1261.4,87.4c0,2.4-1,4-3,4.6c-0.8,0.3-2.9,0.4-6,0.4c-3.3,0-4.9-1.7-4.9-5V38l-41.1,50.7
		c-2.2,2.7-5.1,4-8.8,4c-3.8,0-6.7-1.3-8.9-4l-41.8-50.9v49.7c0,3.3-1.6,5-4.9,5c-3.2,0-5.2-0.1-6-0.4c-2-0.6-3-2.2-3-4.6V23.3
		c0-4.7,2.6-7.1,7.8-7.1c3.4,0,6.1,1.2,8.2,3.6l48.9,57.9l47.8-58c2-2.4,4.6-3.6,7.9-3.6c5.3,0,8,2.6,8,7.7V87.4z"/>
	<path class="st1" d="M356.2,16l51.5,0.2c2.7,0,4,1.9,4,5.7c0,3.8-1.4,5.8-4,5.8l-51.5-0.2"/>
	<g>
		<path class="st1" d="M510.5,73.4c0,4.1-0.7,7.3-1.9,9.6c-3.5,6.2-14,9.4-31.5,9.4h-48.2c-3.2,0-4.8-1.7-4.8-5
			c0-2.3,0.3-3.8,0.8-4.7c0.7-1.2,2.1-1.8,4.1-1.8h48.2c13,0,19.5-2.4,19.5-7.2v-6.6c0-4.7-6.3-7.2-18.9-7.7l-23.1-0.8
			c-1.1,0-2.6-0.1-4.6-0.2c-2-0.1-4.4-0.3-7.3-0.5c-5-0.6-9.3-2.2-12.9-5c-3.9-3-5.9-7-5.9-11.9v-5.8c0-8.9,4.9-14.8,14.8-17.6
			c4.7-1.2,13.4-1.8,26-1.8c3.3,0,4.9,2.1,4.9,6.4c0,2.5-1,4-3,4.6c-0.3,0.2-2.3,0.2-6,0.2c-15.2,0-22.8,2.7-22.8,8v5.3
			c0,3.3,2.8,5.5,8.5,6.5c1.1,0.2,2.7,0.4,4.7,0.5c2.1,0.1,4.6,0.1,7.6,0.1h18.6c8.9,0,15.9,1.1,21.1,3.4
			c8.1,3.3,12.2,8.5,12.2,15.4V73.4z"/>
		<path class="st1" d="M459.1,16l47.4,0.2c2.5,0,3.7,1.9,3.7,5.7c0,3.8-1.3,5.8-3.7,5.8l-47.4-0.4"/>
	</g>
	<g>
		<path class="st1" d="M57.4,27.3l-7.3-0.2c-15,0-22.5,2.6-22.5,7.8v38.2c0,5.2,6.3,7.8,18.8,7.8h31.4c3,0,6.2-0.5,9.6-1.7
			c4.3-1.4,6.4-3.3,6.4-5.8V53.7c0-2.3,1-3.8,3-4.6c1.2-0.2,3.2-0.3,6-0.3c3.3,0,4.9,1.6,4.9,4.9V73c0,6.9-3.5,12.1-10.4,15.5
			c-5.4,2.6-11.9,4-19.6,4H46.2c-8.3,0-15.2-1.2-20.9-3.6c-7.8-3.3-11.7-8.5-11.7-15.6V34.9c0-6.9,4-11.9,11.9-15.2
			c6.3-2.5,13.2-3.7,20.8-3.7h12.5"/>
		<path class="st1" d="M57.4,27.3l46,0.4c2.7,0,4-1.9,4-5.8c0-3.8-1.3-5.7-4-5.7L76.2,16H56.9"/>
		<path class="st1" d="M102.6,60.4L51,60.1c-2.7,0-4-1.9-4-5.7c0-3.9,1.4-5.8,4.1-5.7l48.4,0.3"/>
	</g>
	<g>
		<path class="st1" d="M848.7,27.6l-7.3-0.2c-15,0-22.5,2.6-22.5,7.8v38.2c0,5.2,6.3,7.8,18.8,7.8h31.4c3,0,6.2-0.6,9.6-1.7
			c4.3-1.4,6.4-3.3,6.4-5.8V54c0-2.3,1-3.8,3-4.6c1.2-0.2,3.2-0.3,6-0.3c3.3,0,4.9,1.6,4.9,4.9v19.3c0,6.9-3.5,12.1-10.4,15.5
			c-5.4,2.6-11.9,4-19.6,4h-31.6c-8.3,0-15.2-1.2-20.9-3.6c-7.8-3.3-11.7-8.5-11.7-15.6V35.3c0-6.9,4-11.9,11.9-15.2
			c6.3-2.5,13.2-3.7,20.8-3.7h12.5"/>
		<path class="st1" d="M848.7,27.6l46,0.3c2.7,0,4-1.9,4-5.8c0-3.8-1.3-5.7-4-5.7l-27.3-0.2h-19.3"/>
		<path class="st1" d="M893.8,60.8l-51.5-0.4c-2.7,0-4-1.9-4-5.7c0-3.8,1.4-5.8,4.1-5.7l48.4,0.3"/>
	</g>
</g>
</svg>
