<?xml version="1.0" encoding="utf-8"?>
<!-- Generator: Adobe Illustrator 22.0.1, SVG Export Plug-In . SVG Version: 6.00 Build 0)  -->
<!DOCTYPE svg PUBLIC "-//W3C//DTD SVG 1.1//EN" "http://www.w3.org/Graphics/SVG/1.1/DTD/svg11.dtd">
<svg version="1.1" id="Layer_1" xmlns="http://www.w3.org/2000/svg" xmlns:xlink="http://www.w3.org/1999/xlink" x="0px" y="0px"
	 viewBox="0 0 48 48" style="enable-background:new 0 0 48 48;" xml:space="preserve">
<style type="text/css">
	.st0{fill:#FFFFFF;}
</style>
<g>
	<path class="st0" d="M24,47C11.3,47,1,36.7,1,24C1,11.3,11.3,1,24,1c12.7,0,23,10.3,23,23C47,36.7,36.7,47,24,47z M24,3
		C12.4,3,3,12.4,3,24c0,11.6,9.4,21,21,21c11.6,0,21-9.4,21-21C45,12.4,35.6,3,24,3z"/>
	<path class="st0" d="M19,33.9V14.1L33.8,24L19,33.9z M21,17.9v12.3l9.2-6.1L21,17.9z"/>
	<polygon class="st0" points="19,14.1 19,33.9 33.8,24 	"/>
</g>
</svg>
