<?xml version="1.0" encoding="utf-8"?>
<!-- Generator: Adobe Illustrator 22.0.1, SVG Export Plug-In . SVG Version: 6.00 Build 0)  -->
<!DOCTYPE svg PUBLIC "-//W3C//DTD SVG 1.1//EN" "http://www.w3.org/Graphics/SVG/1.1/DTD/svg11.dtd">
<svg version="1.1" id="Layer_1" xmlns="http://www.w3.org/2000/svg" xmlns:xlink="http://www.w3.org/1999/xlink" x="0px" y="0px"
	 viewBox="0 0 24 24" style="enable-background:new 0 0 24 24;" xml:space="preserve">
<style type="text/css">
	.st0{fill:#FFFFFF;}
</style>
<g>
	<path class="st0" d="M12,13.5c-2.5,0-4.5-2-4.5-4.5s2-4.5,4.5-4.5s4.5,2,4.5,4.5S14.5,13.5,12,13.5z M12,6c-1.7,0-3,1.3-3,3
		s1.3,3,3,3c1.7,0,3-1.3,3-3S13.7,6,12,6z"/>
	<path class="st0" d="M4.6,21.2c-0.1,0-0.2,0-0.3-0.1c-0.4-0.2-0.5-0.6-0.4-1c0.9-1.8,2.4-3.3,4.2-4.2c4.5-2.1,9.8-0.2,12,4.2
		c0.2,0.4,0,0.8-0.4,1c-0.4,0.2-0.8,0-1-0.4c-1.8-3.7-6.3-5.3-10-3.5c-1.5,0.7-2.8,2-3.5,3.5C5.1,21,4.8,21.2,4.6,21.2z"/>
	<path class="st0" d="M12,24C5.4,24,0,18.6,0,12S5.4,0,12,0s12,5.4,12,12S18.6,24,12,24z M12,1.5C6.2,1.5,1.5,6.2,1.5,12
		c0,5.8,4.7,10.5,10.5,10.5c5.8,0,10.5-4.7,10.5-10.5C22.5,6.2,17.8,1.5,12,1.5z"/>
</g>
</svg>
