<?xml version="1.0" encoding="utf-8"?>
<!-- Generator: Adobe Illustrator 22.0.1, SVG Export Plug-In . SVG Version: 6.00 Build 0)  -->
<!DOCTYPE svg PUBLIC "-//W3C//DTD SVG 1.1//EN" "http://www.w3.org/Graphics/SVG/1.1/DTD/svg11.dtd">
<svg version="1.1" id="Layer_1" xmlns="http://www.w3.org/2000/svg" xmlns:xlink="http://www.w3.org/1999/xlink" x="0px" y="0px"
	 viewBox="0 0 300 300" style="enable-background:new 0 0 300 300;" xml:space="preserve">
<style type="text/css">
	.st0{fill:#FFFFFF;}
	.st1{fill:none;stroke:#FFFFFF;}
	.st2{fill:#FFFFFF;stroke:#FFFFFF;}
</style>
<g transform="translate(1 1)">
	<path class="st0" d="M35.1,143c2.1,0,3.6-0.3,4.4-0.8c0.8-0.5,1.2-1.7,1.2-3.6v-6.4c0-1-0.3-1.9-0.9-2.5s-1.5-1-2.5-1
		c-1.3,0-2.2,0.4-2.7,1.2c-0.5,0.8-0.8,1.6-0.8,2.3v4.1h-7.1v-4.1c0-1.4,0.3-2.8,0.8-4.1c0.6-1.3,1.3-2.4,2.3-3.4
		c1-0.9,2.1-1.7,3.4-2.2c1.3-0.6,2.7-0.8,4.2-0.8c2,0,3.6,0.4,4.9,1.2c1.3,0.8,2.2,1.5,2.9,2.3c0.5,0.6,0.9,1.1,1.2,1.7
		c0.3,0.6,0.6,1.3,0.8,2c0.2,0.8,0.4,1.7,0.5,2.8s0.2,2.4,0.2,4c0,1.7,0,3.1-0.1,4.2c-0.1,1.1-0.3,2-0.6,2.7
		c-0.3,0.7-0.7,1.3-1.3,1.9c-0.6,0.5-1.4,1.1-2.4,1.7c1.1,0.7,2,1.4,2.5,2c0.6,0.6,1,1.3,1.3,2.1c0.3,0.8,0.4,1.8,0.5,2.9
		s0.1,2.6,0.1,4.4c0,1.6,0,3-0.1,4.1c-0.1,1.1-0.2,2-0.3,2.7c-0.1,0.7-0.3,1.3-0.6,1.9s-0.5,1-0.9,1.6c-0.9,1.3-2,2.4-3.4,3.2
		s-3.2,1.3-5.4,1.3c-1.1,0-2.3-0.2-3.6-0.6c-1.3-0.4-2.4-1-3.4-1.8c-1-0.8-1.9-1.9-2.5-3.3c-0.7-1.4-1-3-1-5v-4.1h7.1v3.7
		c0,1.1,0.3,2,0.9,2.8c0.6,0.7,1.5,1.1,2.5,1.1c1.1,0,1.9-0.4,2.5-1.1s0.9-1.7,0.9-2.9V154c0-1-0.1-1.8-0.2-2.4s-0.5-1.1-0.9-1.4
		c-0.4-0.3-1-0.6-1.7-0.7c-0.7-0.1-1.7-0.2-2.8-0.2V143z M61.2,143l0.1,0.1c0.2-0.2,0.6-0.3,1.1-0.5c0.5-0.1,1.1-0.2,1.9-0.2
		c1.3,0,2.4,0.3,3.5,0.9c1.1,0.6,1.9,1.4,2.5,2.3c0.3,0.5,0.6,1,0.8,1.5c0.2,0.5,0.3,1.2,0.5,2c0.1,0.8,0.2,1.9,0.2,3.2
		s0.1,2.9,0.1,4.9c0,1.6,0,3-0.1,4c0,1-0.1,1.9-0.2,2.7c-0.1,0.7-0.3,1.3-0.5,1.9c-0.2,0.5-0.5,1-0.8,1.6c-0.9,1.5-2.2,2.7-3.7,3.6
		c-1.6,0.8-3.3,1.3-5.3,1.3c-2,0-3.7-0.4-5.2-1.3s-2.8-2-3.7-3.5c-0.4-0.6-0.7-1.1-0.9-1.6c-0.2-0.5-0.4-1.1-0.5-1.9
		c-0.1-0.7-0.2-1.6-0.2-2.7c0-1-0.1-2.4-0.1-4c0-1.5,0-2.8,0.1-3.8c0-1,0.1-1.9,0.2-2.6c0.1-0.7,0.2-1.4,0.4-2
		c0.2-0.6,0.4-1.2,0.6-1.9l9.4-25h8L61.2,143z M64.8,152.3c0-1.1-0.3-1.9-1-2.6c-0.7-0.7-1.5-1-2.4-1s-1.7,0.3-2.4,1s-1,1.5-1,2.6
		v9.2c0,1.1,0.3,1.9,1,2.6c0.7,0.7,1.5,1,2.4,1s1.7-0.3,2.4-1c0.7-0.7,1-1.5,1-2.6V152.3z M74.7,132.3c0-1.7,0.3-3.2,0.9-4.5
		c0.6-1.3,1.4-2.4,2.3-3.4c1-0.9,2.1-1.6,3.4-2.1s2.6-0.7,4-0.7c1.4,0,2.7,0.2,4,0.7c1.3,0.5,2.4,1.2,3.4,2.1c1,0.9,1.8,2,2.3,3.4
		c0.6,1.3,0.9,2.8,0.9,4.5v29.2c0,1.7-0.3,3.2-0.9,4.5c-0.6,1.3-1.4,2.4-2.3,3.4c-1,0.9-2.1,1.6-3.4,2.1c-1.3,0.5-2.6,0.7-4,0.7
		c-1.4,0-2.7-0.2-4-0.7s-2.4-1.2-3.4-2.1c-1-0.9-1.8-2-2.3-3.4c-0.6-1.3-0.9-2.8-0.9-4.5V132.3z M81.8,161.5c0,1,0.3,1.9,1,2.5
		s1.5,1,2.5,1c1,0,1.9-0.3,2.5-1s1-1.5,1-2.5v-29.2c0-1-0.3-1.9-1-2.5s-1.5-1-2.5-1c-1,0-1.9,0.3-2.5,1s-1,1.5-1,2.5V161.5z
		 M140.3,120.1h10.5c4.1,0,7.1,1.1,9.3,3.4c2.1,2.3,3.2,5.4,3.2,9.5v23.3c0,4.7-1.1,8.1-3.4,10.3c-2.3,2.2-5.5,3.3-9.7,3.3h-9.9
		V120.1z M147.4,163.2h3.3c2,0,3.4-0.5,4.3-1.5c0.8-1,1.3-2.6,1.3-4.7v-24c0-2-0.4-3.5-1.2-4.5c-0.8-1.1-2.2-1.6-4.3-1.6h-3.3V163.2
		z M168.1,120.1h21.2v6.7h-14.1v14.6h12.3v6.7h-12.3v14.6h14.1v7.1h-21.2V120.1z M191.6,131.9c0-2,0.3-3.8,1-5.3
		c0.7-1.5,1.6-2.8,2.8-3.8c1.1-1,2.4-1.8,3.8-2.3c1.4-0.5,2.9-0.8,4.3-0.8c1.4,0,2.9,0.3,4.3,0.8c1.4,0.5,2.7,1.3,3.8,2.3
		c1.1,1,2.1,2.3,2.8,3.8c0.7,1.5,1,3.3,1,5.3v2.5h-7.1v-2.5c0-1.7-0.5-3-1.4-3.8c-1-0.8-2.1-1.2-3.4-1.2c-1.3,0-2.4,0.4-3.4,1.2
		c-1,0.8-1.4,2.1-1.4,3.8v26.3c0,1.7,0.5,3,1.4,3.8c1,0.8,2.1,1.2,3.4,1.2c1.3,0,2.4-0.4,3.4-1.2c1-0.8,1.4-2.1,1.4-3.8v-9.4h-5.7
		v-6.3h12.8v15.6c0,2-0.3,3.8-1,5.3c-0.7,1.5-1.6,2.8-2.8,3.8c-1.1,1-2.4,1.8-3.8,2.3s-2.9,0.8-4.3,0.8c-1.4,0-2.9-0.3-4.3-0.8
		c-1.4-0.5-2.7-1.3-3.8-2.3c-1.1-1-2.1-2.3-2.8-3.8c-0.7-1.5-1-3.3-1-5.3V131.9z M226.9,142.4h4.1c1.3,0,2.3-0.2,3-0.5
		c0.7-0.3,1.3-0.8,1.7-1.5c0.4-0.7,0.7-1.5,0.8-2.4c0.1-1,0.2-2.1,0.2-3.3c0-1.3-0.1-2.4-0.2-3.3c-0.1-1-0.4-1.8-0.9-2.4
		c-0.4-0.7-1.1-1.2-1.9-1.5c-0.8-0.3-1.8-0.5-3.1-0.5h-3.7V142.4z M219.8,120.1h11.5c8.4,0,12.6,4.9,12.6,14.6
		c0,2.9-0.5,5.4-1.4,7.4c-0.9,2.1-2.5,3.7-4.8,5l7.7,22.7h-7.5l-6.6-21.2h-4.3v21.2h-7.1V120.1z M247.6,120.1h21.2v6.7h-14.1v14.6
		H267v6.7h-12.3v14.6h14.1v7.1h-21.2V120.1z M271.5,120.1h21.2v6.7h-14.1v14.6h12.3v6.7h-12.3v14.6h14.1v7.1h-21.2V120.1z
		 M149.9,197.8c-0.6,0.5-1.3,0.9-2.1,1.1c-0.8,0.3-1.8,0.4-2.9,0.4c-1.1,0-2.2-0.2-3.1-0.7c-0.9-0.5-1.7-1.2-2.3-2.1
		s-1.1-1.9-1.4-3.2s-0.5-2.6-0.5-4.1c0-1.5,0.2-2.8,0.5-4c0.3-1.2,0.8-2.3,1.4-3.2c0.6-0.9,1.4-1.6,2.2-2.1c0.9-0.5,1.8-0.7,2.9-0.7
		c1.1,0,2.1,0.2,3,0.6c0.8,0.4,1.5,1,2,1.7l-1.9,2.3c-0.7-1.1-1.7-1.6-2.9-1.6c-0.7,0-1.3,0.2-1.8,0.6c-0.5,0.4-0.9,0.9-1.2,1.5
		c-0.3,0.6-0.6,1.4-0.7,2.2c-0.2,0.9-0.2,1.7-0.2,2.7c0,1,0.1,1.9,0.2,2.8c0.2,0.9,0.4,1.6,0.7,2.3c0.3,0.6,0.7,1.1,1.2,1.5
		s1.1,0.5,1.8,0.5c0.4,0,0.8,0,1.2-0.1c0.4-0.1,0.6-0.2,0.9-0.4v-5h-2.3V188h5.3V197.8z M168.5,189.3c0,1.5-0.2,2.9-0.5,4.1
		c-0.3,1.2-0.8,2.3-1.4,3.2c-0.6,0.9-1.3,1.6-2.2,2.1c-0.9,0.5-1.8,0.7-2.9,0.7c-1.1,0-2.1-0.2-2.9-0.7c-0.9-0.5-1.6-1.2-2.2-2.1
		c-0.6-0.9-1.1-2-1.4-3.2c-0.3-1.2-0.5-2.6-0.5-4.1s0.2-2.9,0.5-4.1c0.3-1.2,0.8-2.3,1.4-3.2c0.6-0.9,1.3-1.6,2.2-2.1
		c0.9-0.5,1.8-0.7,2.9-0.7c1.1,0,2,0.2,2.9,0.7c0.9,0.5,1.6,1.2,2.2,2.1c0.6,0.9,1.1,1.9,1.4,3.2
		C168.3,186.4,168.5,187.8,168.5,189.3z M165.1,189.3c0-1-0.1-1.9-0.2-2.8s-0.4-1.6-0.7-2.2c-0.3-0.6-0.7-1.1-1.1-1.5
		c-0.4-0.4-1-0.5-1.5-0.5c-0.6,0-1.1,0.2-1.6,0.5c-0.4,0.4-0.8,0.9-1.1,1.5c-0.3,0.6-0.5,1.4-0.7,2.2s-0.2,1.8-0.2,2.8
		c0,1,0.1,1.9,0.2,2.8c0.1,0.9,0.4,1.6,0.7,2.2c0.3,0.6,0.7,1.1,1.1,1.5c0.4,0.4,1,0.5,1.6,0.5s1.1-0.2,1.6-0.5
		c0.4-0.4,0.8-0.9,1.1-1.5c0.3-0.6,0.5-1.4,0.7-2.2C165,191.2,165.1,190.3,165.1,189.3z M173.6,199v-19.2h3.3v16.2h5.3v3H173.6z
		 M189.6,182.7v5.2h4.9v2.8h-4.9v8.3h-3.3v-19.2h8.6v2.9H189.6z M214.7,183.5c-0.7-0.9-1.6-1.3-2.7-1.3c-0.3,0-0.6,0-0.9,0.1
		c-0.3,0.1-0.6,0.3-0.8,0.5c-0.2,0.2-0.4,0.5-0.6,0.8c-0.1,0.3-0.2,0.8-0.2,1.2c0,0.8,0.2,1.4,0.7,1.9c0.5,0.4,1.1,0.9,1.9,1.3
		c0.5,0.2,1,0.5,1.4,0.8s0.9,0.7,1.3,1.1c0.4,0.4,0.7,1,1,1.5c0.3,0.6,0.4,1.3,0.4,2.1c0,0.9-0.1,1.8-0.4,2.5
		c-0.3,0.7-0.7,1.3-1.2,1.8s-1.1,0.9-1.8,1.1c-0.7,0.3-1.4,0.4-2.1,0.4c-1.1,0-2.1-0.2-3-0.6c-0.9-0.4-1.6-0.9-2.2-1.6l1.8-2.4
		c0.4,0.5,0.9,0.9,1.5,1.2c0.6,0.3,1.2,0.4,1.8,0.4c0.7,0,1.3-0.2,1.7-0.7c0.5-0.5,0.7-1.1,0.7-2c0-0.8-0.3-1.5-0.8-2
		s-1.2-0.9-2.1-1.4c-0.5-0.3-1-0.5-1.5-0.8c-0.5-0.3-0.9-0.7-1.2-1.1c-0.4-0.4-0.6-0.9-0.8-1.5s-0.3-1.3-0.3-2.1
		c0-1,0.2-1.9,0.5-2.6c0.3-0.7,0.7-1.3,1.2-1.8c0.5-0.5,1.1-0.8,1.8-1c0.7-0.2,1.3-0.3,2-0.3c1,0,1.9,0.2,2.6,0.5
		c0.8,0.3,1.4,0.8,1.9,1.4L214.7,183.5z M227,191.6v7.4h-3.2v-7.4l-4.8-11.9h3.5l2.9,8.6l0.1-0.1l2.9-8.5h3.4L227,191.6z
		 M243.3,183.5c-0.7-0.9-1.6-1.3-2.7-1.3c-0.3,0-0.6,0-0.9,0.1c-0.3,0.1-0.6,0.3-0.8,0.5s-0.4,0.5-0.6,0.8c-0.1,0.3-0.2,0.8-0.2,1.2
		c0,0.8,0.2,1.4,0.7,1.9c0.5,0.4,1.1,0.9,1.9,1.3c0.5,0.2,1,0.5,1.4,0.8s0.9,0.7,1.3,1.1c0.4,0.4,0.7,1,1,1.5
		c0.3,0.6,0.4,1.3,0.4,2.1c0,0.9-0.1,1.8-0.4,2.5c-0.3,0.7-0.7,1.3-1.2,1.8s-1.1,0.9-1.8,1.1c-0.7,0.3-1.4,0.4-2.1,0.4
		c-1.1,0-2.1-0.2-3-0.6s-1.6-0.9-2.2-1.6l1.8-2.4c0.4,0.5,0.9,0.9,1.5,1.2s1.2,0.4,1.8,0.4c0.7,0,1.3-0.2,1.7-0.7
		c0.5-0.5,0.7-1.1,0.7-2c0-0.8-0.3-1.5-0.8-2s-1.2-0.9-2.1-1.4c-0.5-0.3-1-0.5-1.5-0.8c-0.5-0.3-0.9-0.7-1.2-1.1
		c-0.4-0.4-0.6-0.9-0.8-1.5s-0.3-1.3-0.3-2.1c0-1,0.2-1.9,0.5-2.6c0.3-0.7,0.7-1.3,1.2-1.8c0.5-0.5,1.1-0.8,1.8-1
		c0.7-0.2,1.3-0.3,2-0.3c1,0,1.9,0.2,2.6,0.5c0.8,0.3,1.4,0.8,1.9,1.4L243.3,183.5z M254.6,182.5V199h-3.2v-16.5h-3.6v-2.8h10.4v2.8
		H254.6z M262.2,199v-19.2h8.6v2.9h-5.5v5.1h5.1v2.7h-5.1v5.7h5.8v2.9H262.2z M289.3,199l0.1-14.8h-0.1l-3.9,14.8h-2.6l-3.8-14.8
		H279l0.1,14.8h-3v-19.2h4.4l3.7,14.1h0.1l3.6-14.1h4.6V199H289.3z"/>
	<circle class="st1" cx="61.3" cy="146.6" r="56.3"/>
	<circle class="st2" cx="117.5" cy="144.6" r="7.8"/>
</g>
</svg>
