<?xml version="1.0" encoding="utf-8"?>
<!-- Generator: Adobe Illustrator 22.0.1, SVG Export Plug-In . SVG Version: 6.00 Build 0)  -->
<!DOCTYPE svg PUBLIC "-//W3C//DTD SVG 1.1//EN" "http://www.w3.org/Graphics/SVG/1.1/DTD/svg11.dtd">
<svg version="1.1" id="Layer_1" xmlns="http://www.w3.org/2000/svg" xmlns:xlink="http://www.w3.org/1999/xlink" x="0px" y="0px"
	 viewBox="0 0 300 300" style="enable-background:new 0 0 300 300;" xml:space="preserve">
<style type="text/css">
	.st0{fill:#FFFFFF;}
</style>
<g transform="translate(-59 -1)">
	<g>
		<path id="_x37_-pillar-b" d="M113.5,104.4h14.6c4.4,0,7.5,1.5,9.4,4.3c1.9,2.8,2.8,7,2.8,12.5c0,5.5-0.8,9.6-2.5,12.4
			s-4.7,4.2-9,4.2h-4.5v21.8h-10.9C113.5,159.5,113.5,104.4,113.5,104.4z M125,127.8c1.3,0,2.2-0.2,2.9-0.8c0.7-0.4,1-1.2,1.2-2.1
			c0.2-0.9,0.3-2.2,0.3-3.9c0-2.4-0.2-3.9-0.8-5.1c-0.6-1.1-1.6-1.6-3-1.6h-1.2v13.4h0.6V127.8z M150.1,159.7v-55.2h10.7v55.2H150.1
			z M172.2,159.7v-55.2h11v45.8h11.4v9.3h-22.4V159.7z M204.6,159.7v-55.2h11v45.8H227v9.3h-22.4V159.7z M235.5,159.7l5.3-55.2h18.7
			l5.3,55.2h-10.5l-0.8-8.9h-6.6l-0.7,8.9H235.5z M247.8,141.9h5.1l-2.5-28.1h-0.6L247.8,141.9z M275.1,104.4h17
			c2.7,0,4.8,0.6,6.3,1.8c1.5,1.2,2.5,2.9,3,5.2s0.8,5.1,0.8,8.4c0,3.1-0.4,5.6-1.2,7.3c-0.8,1.8-2.2,2.9-4.3,3.7
			c1.7,0.3,2.9,1.1,3.6,2.5c0.7,1.3,1.1,3.1,1.1,5.4l-0.1,20.9h-10.8v-21.6c0-1.6-0.3-2.5-0.9-2.9c-0.6-0.4-1.7-0.7-3.3-0.7v25.2
			h-11.1v-55.2H275.1z M288.9,124.9c1.6,0,2.4-1.7,2.4-5.1c0-1.5-0.1-2.6-0.2-3.3c-0.1-0.7-0.3-1.2-0.7-1.5s-0.8-0.4-1.5-0.4h-2.6
			v10.2L288.9,124.9L288.9,124.9z"/>
	</g>
	<g>
		<path id="_x37_-pillar-b_1_" class="st0" d="M113.5,104.4h14.6c4.4,0,7.5,1.5,9.4,4.3c1.9,2.8,2.8,7,2.8,12.5
			c0,5.5-0.8,9.6-2.5,12.4s-4.7,4.2-9,4.2h-4.5v21.8h-10.9C113.5,159.5,113.5,104.4,113.5,104.4z M125,127.8c1.3,0,2.2-0.2,2.9-0.8
			c0.7-0.4,1-1.2,1.2-2.1c0.2-0.9,0.3-2.2,0.3-3.9c0-2.4-0.2-3.9-0.8-5.1c-0.6-1.1-1.6-1.6-3-1.6h-1.2v13.4h0.6V127.8z M150.1,159.7
			v-55.2h10.7v55.2H150.1z M172.2,159.7v-55.2h11v45.8h11.4v9.3h-22.4V159.7z M204.6,159.7v-55.2h11v45.8H227v9.3h-22.4V159.7z
			 M235.5,159.7l5.3-55.2h18.7l5.3,55.2h-10.5l-0.8-8.9h-6.6l-0.7,8.9H235.5z M247.8,141.9h5.1l-2.5-28.1h-0.6L247.8,141.9z
			 M275.1,104.4h17c2.7,0,4.8,0.6,6.3,1.8c1.5,1.2,2.5,2.9,3,5.2s0.8,5.1,0.8,8.4c0,3.1-0.4,5.6-1.2,7.3c-0.8,1.8-2.2,2.9-4.3,3.7
			c1.7,0.3,2.9,1.1,3.6,2.5c0.7,1.3,1.1,3.1,1.1,5.4l-0.1,20.9h-10.8v-21.6c0-1.6-0.3-2.5-0.9-2.9c-0.6-0.4-1.7-0.7-3.3-0.7v25.2
			h-11.1v-55.2H275.1z M288.9,124.9c1.6,0,2.4-1.7,2.4-5.1c0-1.5-0.1-2.6-0.2-3.3c-0.1-0.7-0.3-1.2-0.7-1.5s-0.8-0.4-1.5-0.4h-2.6
			v10.2L288.9,124.9L288.9,124.9z"/>
	</g>
	<g>
		<path id="_x37_-pillar-d" d="M134.2,189c1.2,0.6,2.2,1.5,2.8,2.6c0.6,1.1,0.9,2.8,0.9,4.8c0,2.4-0.4,4.3-1.2,5.6
			c-0.9,1.3-2.2,2.4-4,2.9c-1.8,0.6-4.4,0.9-7.5,0.9c-4.3,0-8.3-0.4-11.9-1.5V196h3.3l0.8,5.5c2.6,0.6,5.2,0.9,8,0.9
			c2.4,0,4.2-0.2,5.4-0.6c1.2-0.3,2-0.9,2.5-1.7c0.4-0.8,0.7-1.8,0.7-3c0-1.6-0.2-2.7-0.6-3.4c-0.3-0.7-1.1-1.1-2.2-1.5
			c-1.1-0.3-3.4-0.8-6.6-1.5l-1.2-0.2c-2.6-0.4-4.6-1-6.1-1.7c-1.5-0.7-2.5-1.6-3-2.7s-0.9-2.6-0.9-4.4c0-2.2,0.4-4,1.2-5.4
			c0.8-1.3,2.1-2.2,3.9-2.8c1.8-0.6,4.3-0.9,7.3-0.9c3.7,0,7.5,0.4,11.6,1.2v8.3H134l-0.8-5.3c-2.5-0.6-5.1-0.8-7.9-0.8
			c-2.2,0-3.9,0.1-5.1,0.4c-1.1,0.3-2,0.8-2.4,1.6c-0.4,0.7-0.7,1.6-0.7,2.8c0,1.5,0.2,2.5,0.7,3.1c0.4,0.7,1.2,1.1,2.4,1.5
			c1.1,0.3,3.4,0.8,6.5,1.5l1.5,0.3C130.9,187.9,132.9,188.4,134.2,189z M195.1,173v2.7l-3.3,1.3l-8.5,28.3h-4.8l-7.3-25.4
			l-7.4,25.4h-4.8l-8.5-28.3l-3.3-1.3V173h11.1v2.7l-3.5,1.3l7.1,24.1l7.2-25.5h5.1l7.3,25.5l7-24l-3.5-1.3v-2.7h10.2V173z
			 M216.4,175.8l-3.5,1.3v24.3l3.5,1.5v2.6h-11.1V203l3.5-1.5v-24.3l-3.5-1.3v-2.7h11.1V175.8z M261.8,173v2.7l-3.5,1.3v28.3h-4.8
			l-18.3-27.3v23.3l3.8,1.5v2.6h-10.8v-2.6l3.5-1.5v-24.3l-3.5-1.3V173h8.4l18.3,27.3v-23.2l-3.8-1.3v-2.7h10.7V173z M303,189.3v2.7
			l-3,1.3v11c-1.7,0.6-3.5,1-5.5,1.2c-2,0.3-3.8,0.4-5.6,0.4c-5.5,0-9.7-1.3-12.5-4c-2.7-2.7-4.2-7-4.2-12.8s1.3-10.1,4.2-12.8
			c2.8-2.7,6.9-4,12.4-4c3.5,0,7.2,0.4,11.1,1.2v8.4h-3.4l-0.7-5.2c-2.2-0.6-4.6-0.8-7-0.8c-3,0-5.4,0.4-7.2,1.2
			c-1.8,0.8-3,2.2-3.8,4.2c-0.8,1.9-1.2,4.6-1.2,7.9c0,3.4,0.4,6.1,1.2,8c0.8,1.9,2,3.3,3.8,4c1.7,0.8,4,1.2,7.1,1.2
			c2.7,0,5.2-0.3,7.3-0.9v-8.2l-3-1.3v-2.7h10V189.3z"/>
	</g>
	<g>
		<path id="_x37_-pillar-d_1_" class="st0" d="M134.2,189c1.2,0.6,2.2,1.5,2.8,2.6c0.6,1.1,0.9,2.8,0.9,4.8c0,2.4-0.4,4.3-1.2,5.6
			c-0.9,1.3-2.2,2.4-4,2.9c-1.8,0.6-4.4,0.9-7.5,0.9c-4.3,0-8.3-0.4-11.9-1.5V196h3.3l0.8,5.5c2.6,0.6,5.2,0.9,8,0.9
			c2.4,0,4.2-0.2,5.4-0.6c1.2-0.3,2-0.9,2.5-1.7c0.4-0.8,0.7-1.8,0.7-3c0-1.6-0.2-2.7-0.6-3.4c-0.3-0.7-1.1-1.1-2.2-1.5
			c-1.1-0.3-3.4-0.8-6.6-1.5l-1.2-0.2c-2.6-0.4-4.6-1-6.1-1.7c-1.5-0.7-2.5-1.6-3-2.7s-0.9-2.6-0.9-4.4c0-2.2,0.4-4,1.2-5.4
			c0.8-1.3,2.1-2.2,3.9-2.8c1.8-0.6,4.3-0.9,7.3-0.9c3.7,0,7.5,0.4,11.6,1.2v8.3H134l-0.8-5.3c-2.5-0.6-5.1-0.8-7.9-0.8
			c-2.2,0-3.9,0.1-5.1,0.4c-1.1,0.3-2,0.8-2.4,1.6c-0.4,0.7-0.7,1.6-0.7,2.8c0,1.5,0.2,2.5,0.7,3.1c0.4,0.7,1.2,1.1,2.4,1.5
			c1.1,0.3,3.4,0.8,6.5,1.5l1.5,0.3C130.9,187.9,132.9,188.4,134.2,189z M195.1,173v2.7l-3.3,1.3l-8.5,28.3h-4.8l-7.3-25.4
			l-7.4,25.4h-4.8l-8.5-28.3l-3.3-1.3V173h11.1v2.7l-3.5,1.3l7.1,24.1l7.2-25.5h5.1l7.3,25.5l7-24l-3.5-1.3v-2.7h10.2V173z
			 M216.4,175.8l-3.5,1.3v24.3l3.5,1.5v2.6h-11.1V203l3.5-1.5v-24.3l-3.5-1.3v-2.7h11.1V175.8z M261.8,173v2.7l-3.5,1.3v28.3h-4.8
			l-18.3-27.3v23.3l3.8,1.5v2.6h-10.8v-2.6l3.5-1.5v-24.3l-3.5-1.3V173h8.4l18.3,27.3v-23.2l-3.8-1.3v-2.7h10.7V173z M303,189.3v2.7
			l-3,1.3v11c-1.7,0.6-3.5,1-5.5,1.2c-2,0.3-3.8,0.4-5.6,0.4c-5.5,0-9.7-1.3-12.5-4c-2.7-2.7-4.2-7-4.2-12.8s1.3-10.1,4.2-12.8
			c2.8-2.7,6.9-4,12.4-4c3.5,0,7.2,0.4,11.1,1.2v8.4h-3.4l-0.7-5.2c-2.2-0.6-4.6-0.8-7-0.8c-3,0-5.4,0.4-7.2,1.2
			c-1.8,0.8-3,2.2-3.8,4.2c-0.8,1.9-1.2,4.6-1.2,7.9c0,3.4,0.4,6.1,1.2,8c0.8,1.9,2,3.3,3.8,4c1.7,0.8,4,1.2,7.1,1.2
			c2.7,0,5.2-0.3,7.3-0.9v-8.2l-3-1.3v-2.7h10V189.3z"/>
	</g>
	<g>
		<path id="_x37_-pillar-f" d="M132.9,75.2c1.2,0.6,2.2,1.5,2.8,2.6c0.6,1.1,0.9,2.8,0.9,4.8c0,2.4-0.4,4.3-1.2,5.6
			c-0.9,1.3-2.2,2.4-4,2.9s-4.4,0.9-7.5,0.9c-4.3,0-8.3-0.4-11.9-1.5V82h3.3l0.8,5.5c2.6,0.6,5.2,0.9,8,0.9c2.4,0,4.2-0.2,5.4-0.6
			c1.2-0.3,2-0.9,2.5-1.7c0.4-0.8,0.7-1.8,0.7-3c0-1.6-0.2-2.7-0.6-3.4c-0.3-0.7-1.1-1.1-2.2-1.5c-1.1-0.3-3.4-0.8-6.6-1.5l-1.2-0.2
			c-2.6-0.4-4.6-1-6.1-1.7s-2.5-1.6-3-2.7s-0.9-2.6-0.9-4.4c0-2.2,0.4-4,1.2-5.4c0.8-1.3,2.1-2.2,3.9-2.8c1.8-0.6,4.3-0.9,7.3-0.9
			c3.7,0,7.5,0.4,11.6,1.2v8.3h-3.1l-0.8-5.3c-2.5-0.6-5.1-0.8-7.9-0.8c-2.2,0-3.9,0.1-5.1,0.4c-1.1,0.3-2,0.8-2.4,1.6
			s-0.7,1.6-0.7,2.8c0,1.5,0.2,2.5,0.7,3.1c0.4,0.7,1.2,1.1,2.4,1.5s3.4,0.8,6.5,1.5l1.5,0.3C129.7,74.1,131.7,74.6,132.9,75.2z
			 M176,67.8h-2.8l-1.2-5.1h-16.2v11h9.4l0.7-3.7h2.6v10.8h-2.6l-0.7-3.7h-9.4v11.1H172l1.2-5.5h2.8v8.9h-27.9v-2.5l3.5-1.5V63.4
			l-3.5-1.3v-2.7H176V67.8z M219.5,59.2v2.7l-3.3,1.3l-10.8,28.3h-5.1l-10.8-28.3l-3.3-1.3v-2.7h11.2v2.7l-3.5,1.3l9.3,25l9.3-25
			l-3.5-1.3v-2.7H219.5z M257.8,67.8H255l-1.2-5.1h-16.2v11h9.4l0.7-3.7h2.6v10.8h-2.6l-0.7-3.7h-9.4v11.1h16.2l1.2-5.5h2.8v8.9
			h-27.9v-2.5l3.5-1.5V63.4l-3.5-1.3v-2.7h27.9V67.8z M303.1,59.2v2.7l-3.5,1.3v28.3h-4.9l-18.3-27.2v23.3l3.8,1.5v2.6h-10.8v-2.6
			l3.5-1.5V63.4l-3.5-1.3v-2.7h8.4l18.3,27.3V63.4l-3.8-1.3v-2.7h10.8V59.2z"/>
	</g>
	<g>
		<path id="_x37_-pillar-f_1_" class="st0" d="M132.9,75.2c1.2,0.6,2.2,1.5,2.8,2.6c0.6,1.1,0.9,2.8,0.9,4.8c0,2.4-0.4,4.3-1.2,5.6
			c-0.9,1.3-2.2,2.4-4,2.9s-4.4,0.9-7.5,0.9c-4.3,0-8.3-0.4-11.9-1.5V82h3.3l0.8,5.5c2.6,0.6,5.2,0.9,8,0.9c2.4,0,4.2-0.2,5.4-0.6
			c1.2-0.3,2-0.9,2.5-1.7c0.4-0.8,0.7-1.8,0.7-3c0-1.6-0.2-2.7-0.6-3.4c-0.3-0.7-1.1-1.1-2.2-1.5c-1.1-0.3-3.4-0.8-6.6-1.5l-1.2-0.2
			c-2.6-0.4-4.6-1-6.1-1.7s-2.5-1.6-3-2.7s-0.9-2.6-0.9-4.4c0-2.2,0.4-4,1.2-5.4c0.8-1.3,2.1-2.2,3.9-2.8c1.8-0.6,4.3-0.9,7.3-0.9
			c3.7,0,7.5,0.4,11.6,1.2v8.3h-3.1l-0.8-5.3c-2.5-0.6-5.1-0.8-7.9-0.8c-2.2,0-3.9,0.1-5.1,0.4c-1.1,0.3-2,0.8-2.4,1.6
			s-0.7,1.6-0.7,2.8c0,1.5,0.2,2.5,0.7,3.1c0.4,0.7,1.2,1.1,2.4,1.5s3.4,0.8,6.5,1.5l1.5,0.3C129.7,74.1,131.7,74.6,132.9,75.2z
			 M176,67.8h-2.8l-1.2-5.1h-16.2v11h9.4l0.7-3.7h2.6v10.8h-2.6l-0.7-3.7h-9.4v11.1H172l1.2-5.5h2.8v8.9h-27.9v-2.5l3.5-1.5V63.4
			l-3.5-1.3v-2.7H176V67.8z M219.5,59.2v2.7l-3.3,1.3l-10.8,28.3h-5.1l-10.8-28.3l-3.3-1.3v-2.7h11.2v2.7l-3.5,1.3l9.3,25l9.3-25
			l-3.5-1.3v-2.7H219.5z M257.8,67.8H255l-1.2-5.1h-16.2v11h9.4l0.7-3.7h2.6v10.8h-2.6l-0.7-3.7h-9.4v11.1h16.2l1.2-5.5h2.8v8.9
			h-27.9v-2.5l3.5-1.5V63.4l-3.5-1.3v-2.7h27.9V67.8z M303.1,59.2v2.7l-3.5,1.3v28.3h-4.9l-18.3-27.2v23.3l3.8,1.5v2.6h-10.8v-2.6
			l3.5-1.5V63.4l-3.5-1.3v-2.7h8.4l18.3,27.3V63.4l-3.8-1.3v-2.7h10.8V59.2z"/>
	</g>
	<path class="st0" d="M302.4,224.1h-1.1c-0.6,0-1.1-0.5-1.1-1.1s0.5-1.1,1.1-1.1h1.1c0.6,0,1.1,0.5,1.1,1.1S303.1,224.1,302.4,224.1
		z M295.7,224.1h-1.1c-0.6,0-1.1-0.5-1.1-1.1s0.5-1.1,1.1-1.1h1.1c0.6,0,1.1,0.5,1.1,1.1S296.3,224.1,295.7,224.1z M288.9,224.1
		h-1.1c-0.6,0-1.1-0.5-1.1-1.1s0.5-1.1,1.1-1.1h1.1c0.6,0,1.1,0.5,1.1,1.1S289.6,224.1,288.9,224.1z M282.2,224.1h-1.1
		c-0.6,0-1.1-0.5-1.1-1.1s0.5-1.1,1.1-1.1h1.1c0.6,0,1.1,0.5,1.1,1.1S282.8,224.1,282.2,224.1z M275.4,224.1h-1.1
		c-0.6,0-1.1-0.5-1.1-1.1s0.5-1.1,1.1-1.1h1.1c0.6,0,1.1,0.5,1.1,1.1S276.1,224.1,275.4,224.1z M268.7,224.1h-1.1
		c-0.6,0-1.1-0.5-1.1-1.1s0.5-1.1,1.1-1.1h1.1c0.6,0,1.1,0.5,1.1,1.1S269.3,224.1,268.7,224.1z M262,224.1h-1.1
		c-0.6,0-1.1-0.5-1.1-1.1s0.5-1.1,1.1-1.1h1.1c0.6,0,1.1,0.5,1.1,1.1S262.6,224.1,262,224.1z M255.2,224.1h-1.1
		c-0.6,0-1.1-0.5-1.1-1.1s0.5-1.1,1.1-1.1h1.1c0.6,0,1.1,0.5,1.1,1.1S255.8,224.1,255.2,224.1z M248.5,224.1h-1.1
		c-0.6,0-1.1-0.5-1.1-1.1s0.5-1.1,1.1-1.1h1.1c0.6,0,1.1,0.5,1.1,1.1S249.1,224.1,248.5,224.1z M241.7,224.1h-1.1
		c-0.6,0-1.1-0.5-1.1-1.1s0.5-1.1,1.1-1.1h1.1c0.6,0,1.1,0.5,1.1,1.1S242.3,224.1,241.7,224.1z M235,224.1h-1.1
		c-0.6,0-1.1-0.5-1.1-1.1s0.5-1.1,1.1-1.1h1.1c0.6,0,1.1,0.5,1.1,1.1S235.6,224.1,235,224.1z M228.2,224.1h-1.1
		c-0.6,0-1.1-0.5-1.1-1.1s0.5-1.1,1.1-1.1h1.1c0.6,0,1.1,0.5,1.1,1.1S228.8,224.1,228.2,224.1z M221.5,224.1h-1.1
		c-0.6,0-1.1-0.5-1.1-1.1s0.5-1.1,1.1-1.1h1.1c0.6,0,1.1,0.5,1.1,1.1S222.1,224.1,221.5,224.1z M214.7,224.1h-1.1
		c-0.6,0-1.1-0.5-1.1-1.1s0.5-1.1,1.1-1.1h1.1c0.6,0,1.1,0.5,1.1,1.1S215.3,224.1,214.7,224.1z M208,224.1h-1.1
		c-0.6,0-1.1-0.5-1.1-1.1s0.5-1.1,1.1-1.1h1.1c0.6,0,1.1,0.5,1.1,1.1S208.6,224.1,208,224.1z M201.2,224.1h-1.1
		c-0.6,0-1.1-0.5-1.1-1.1s0.5-1.1,1.1-1.1h1.1c0.6,0,1.1,0.5,1.1,1.1S201.8,224.1,201.2,224.1z M194.5,224.1h-1.1
		c-0.6,0-1.1-0.5-1.1-1.1s0.5-1.1,1.1-1.1h1.1c0.6,0,1.1,0.5,1.1,1.1S195.1,224.1,194.5,224.1z M187.7,224.1h-1.1
		c-0.6,0-1.1-0.5-1.1-1.1s0.5-1.1,1.1-1.1h1.1c0.6,0,1.1,0.5,1.1,1.1S188.3,224.1,187.7,224.1z M181,224.1h-1.1
		c-0.6,0-1.1-0.5-1.1-1.1s0.5-1.1,1.1-1.1h1.1c0.6,0,1.1,0.5,1.1,1.1S181.6,224.1,181,224.1z M174.2,224.1h-1.1
		c-0.6,0-1.1-0.5-1.1-1.1s0.5-1.1,1.1-1.1h1.1c0.6,0,1.1,0.5,1.1,1.1S174.8,224.1,174.2,224.1z M167.5,224.1h-1.1
		c-0.6,0-1.1-0.5-1.1-1.1s0.5-1.1,1.1-1.1h1.1c0.6,0,1.1,0.5,1.1,1.1S168.1,224.1,167.5,224.1z M160.7,224.1h-1.1
		c-0.6,0-1.1-0.5-1.1-1.1s0.5-1.1,1.1-1.1h1.1c0.6,0,1.1,0.5,1.1,1.1S161.3,224.1,160.7,224.1z M154,224.1h-1.1
		c-0.6,0-1.1-0.5-1.1-1.1s0.5-1.1,1.1-1.1h1.1c0.6,0,1.1,0.5,1.1,1.1S154.6,224.1,154,224.1z M147.2,224.1h-1.1
		c-0.6,0-1.1-0.5-1.1-1.1s0.5-1.1,1.1-1.1h1.1c0.6,0,1.1,0.5,1.1,1.1S147.8,224.1,147.2,224.1z M140.5,224.1h-1.1
		c-0.6,0-1.1-0.5-1.1-1.1s0.5-1.1,1.1-1.1h1.1c0.6,0,1.1,0.5,1.1,1.1S141.1,224.1,140.5,224.1z M133.7,224.1h-1.1
		c-0.6,0-1.1-0.5-1.1-1.1s0.5-1.1,1.1-1.1h1.1c0.6,0,1.1,0.5,1.1,1.1S134.3,224.1,133.7,224.1z M127,224.1h-1.1
		c-0.6,0-1.1-0.5-1.1-1.1s0.5-1.1,1.1-1.1h1.1c0.6,0,1.1,0.5,1.1,1.1S127.6,224.1,127,224.1z M120.2,224.1h-1.1
		c-0.6,0-1.1-0.5-1.1-1.1s0.5-1.1,1.1-1.1h1.1c0.6,0,1.1,0.5,1.1,1.1S120.9,224.1,120.2,224.1z M113.5,224.1h-1.1
		c-0.6,0-1.1-0.5-1.1-1.1s0.5-1.1,1.1-1.1h1.1c0.6,0,1.1,0.5,1.1,1.1S114.1,224.1,113.5,224.1z M302.4,44.2h-1.1
		c-0.6,0-1.1-0.5-1.1-1.1c0-0.6,0.5-1.1,1.1-1.1h1.1c0.6,0,1.1,0.5,1.1,1.1C303.6,43.7,303.1,44.2,302.4,44.2z M295.7,44.2h-1.1
		c-0.6,0-1.1-0.5-1.1-1.1c0-0.6,0.5-1.1,1.1-1.1h1.1c0.6,0,1.1,0.5,1.1,1.1C296.8,43.7,296.3,44.2,295.7,44.2z M288.9,44.2h-1.1
		c-0.6,0-1.1-0.5-1.1-1.1c0-0.6,0.5-1.1,1.1-1.1h1.1c0.6,0,1.1,0.5,1.1,1.1C290.1,43.7,289.6,44.2,288.9,44.2z M282.2,44.2h-1.1
		c-0.6,0-1.1-0.5-1.1-1.1c0-0.6,0.5-1.1,1.1-1.1h1.1c0.6,0,1.1,0.5,1.1,1.1C283.3,43.7,282.8,44.2,282.2,44.2z M275.4,44.2h-1.1
		c-0.6,0-1.1-0.5-1.1-1.1c0-0.6,0.5-1.1,1.1-1.1h1.1c0.6,0,1.1,0.5,1.1,1.1C276.6,43.7,276.1,44.2,275.4,44.2z M268.7,44.2h-1.1
		c-0.6,0-1.1-0.5-1.1-1.1c0-0.6,0.5-1.1,1.1-1.1h1.1c0.6,0,1.1,0.5,1.1,1.1C269.8,43.7,269.3,44.2,268.7,44.2z M262,44.2h-1.1
		c-0.6,0-1.1-0.5-1.1-1.1c0-0.6,0.5-1.1,1.1-1.1h1.1c0.6,0,1.1,0.5,1.1,1.1C263.1,43.7,262.6,44.2,262,44.2z M255.2,44.2h-1.1
		c-0.6,0-1.1-0.5-1.1-1.1c0-0.6,0.5-1.1,1.1-1.1h1.1c0.6,0,1.1,0.5,1.1,1.1C256.3,43.7,255.8,44.2,255.2,44.2z M248.5,44.2h-1.1
		c-0.6,0-1.1-0.5-1.1-1.1c0-0.6,0.5-1.1,1.1-1.1h1.1c0.6,0,1.1,0.5,1.1,1.1C249.6,43.7,249.1,44.2,248.5,44.2z M241.7,44.2h-1.1
		c-0.6,0-1.1-0.5-1.1-1.1c0-0.6,0.5-1.1,1.1-1.1h1.1c0.6,0,1.1,0.5,1.1,1.1C242.8,43.7,242.3,44.2,241.7,44.2z M235,44.2h-1.1
		c-0.6,0-1.1-0.5-1.1-1.1c0-0.6,0.5-1.1,1.1-1.1h1.1c0.6,0,1.1,0.5,1.1,1.1C236.1,43.7,235.6,44.2,235,44.2z M228.2,44.2h-1.1
		c-0.6,0-1.1-0.5-1.1-1.1c0-0.6,0.5-1.1,1.1-1.1h1.1c0.6,0,1.1,0.5,1.1,1.1C229.3,43.7,228.8,44.2,228.2,44.2z M221.5,44.2h-1.1
		c-0.6,0-1.1-0.5-1.1-1.1c0-0.6,0.5-1.1,1.1-1.1h1.1c0.6,0,1.1,0.5,1.1,1.1C222.6,43.7,222.1,44.2,221.5,44.2z M214.7,44.2h-1.1
		c-0.6,0-1.1-0.5-1.1-1.1c0-0.6,0.5-1.1,1.1-1.1h1.1c0.6,0,1.1,0.5,1.1,1.1C215.8,43.7,215.3,44.2,214.7,44.2z M208,44.2h-1.1
		c-0.6,0-1.1-0.5-1.1-1.1c0-0.6,0.5-1.1,1.1-1.1h1.1c0.6,0,1.1,0.5,1.1,1.1C209.1,43.7,208.6,44.2,208,44.2z M201.2,44.2h-1.1
		c-0.6,0-1.1-0.5-1.1-1.1c0-0.6,0.5-1.1,1.1-1.1h1.1c0.6,0,1.1,0.5,1.1,1.1C202.3,43.7,201.8,44.2,201.2,44.2z M194.5,44.2h-1.1
		c-0.6,0-1.1-0.5-1.1-1.1c0-0.6,0.5-1.1,1.1-1.1h1.1c0.6,0,1.1,0.5,1.1,1.1C195.6,43.7,195.1,44.2,194.5,44.2z M187.7,44.2h-1.1
		c-0.6,0-1.1-0.5-1.1-1.1c0-0.6,0.5-1.1,1.1-1.1h1.1c0.6,0,1.1,0.5,1.1,1.1C188.8,43.7,188.3,44.2,187.7,44.2z M181,44.2h-1.1
		c-0.6,0-1.1-0.5-1.1-1.1c0-0.6,0.5-1.1,1.1-1.1h1.1c0.6,0,1.1,0.5,1.1,1.1C182.1,43.7,181.6,44.2,181,44.2z M174.2,44.2h-1.1
		c-0.6,0-1.1-0.5-1.1-1.1c0-0.6,0.5-1.1,1.1-1.1h1.1c0.6,0,1.1,0.5,1.1,1.1C175.3,43.7,174.8,44.2,174.2,44.2z M167.5,44.2h-1.1
		c-0.6,0-1.1-0.5-1.1-1.1c0-0.6,0.5-1.1,1.1-1.1h1.1c0.6,0,1.1,0.5,1.1,1.1C168.6,43.7,168.1,44.2,167.5,44.2z M160.7,44.2h-1.1
		c-0.6,0-1.1-0.5-1.1-1.1c0-0.6,0.5-1.1,1.1-1.1h1.1c0.6,0,1.1,0.5,1.1,1.1C161.8,43.7,161.3,44.2,160.7,44.2z M154,44.2h-1.1
		c-0.6,0-1.1-0.5-1.1-1.1c0-0.6,0.5-1.1,1.1-1.1h1.1c0.6,0,1.1,0.5,1.1,1.1C155.1,43.7,154.6,44.2,154,44.2z M147.2,44.2h-1.1
		c-0.6,0-1.1-0.5-1.1-1.1c0-0.6,0.5-1.1,1.1-1.1h1.1c0.6,0,1.1,0.5,1.1,1.1C148.3,43.7,147.8,44.2,147.2,44.2z M140.5,44.2h-1.1
		c-0.6,0-1.1-0.5-1.1-1.1c0-0.6,0.5-1.1,1.1-1.1h1.1c0.6,0,1.1,0.5,1.1,1.1C141.6,43.7,141.1,44.2,140.5,44.2z M133.7,44.2h-1.1
		c-0.6,0-1.1-0.5-1.1-1.1c0-0.6,0.5-1.1,1.1-1.1h1.1c0.6,0,1.1,0.5,1.1,1.1C134.9,43.7,134.3,44.2,133.7,44.2z M127,44.2h-1.1
		c-0.6,0-1.1-0.5-1.1-1.1c0-0.6,0.5-1.1,1.1-1.1h1.1c0.6,0,1.1,0.5,1.1,1.1C128.1,43.7,127.6,44.2,127,44.2z M120.2,44.2h-1.1
		c-0.6,0-1.1-0.5-1.1-1.1c0-0.6,0.5-1.1,1.1-1.1h1.1c0.6,0,1.1,0.5,1.1,1.1C121.4,43.7,120.9,44.2,120.2,44.2z M113.5,44.2h-1.1
		c-0.6,0-1.1-0.5-1.1-1.1c0-0.6,0.5-1.1,1.1-1.1h1.1c0.6,0,1.1,0.5,1.1,1.1C114.6,43.7,114.1,44.2,113.5,44.2z"/>
</g>
</svg>
