<?xml version="1.0" encoding="utf-8"?>
<!-- Generator: Adobe Illustrator 22.0.1, SVG Export Plug-In . SVG Version: 6.00 Build 0)  -->
<!DOCTYPE svg PUBLIC "-//W3C//DTD SVG 1.1//EN" "http://www.w3.org/Graphics/SVG/1.1/DTD/svg11.dtd">
<svg version="1.1" id="Layer_1" xmlns="http://www.w3.org/2000/svg" xmlns:xlink="http://www.w3.org/1999/xlink" x="0px" y="0px"
	 viewBox="0 0 300 300" style="enable-background:new 0 0 300 300;" xml:space="preserve">
<style type="text/css">
	.st0{fill:#FFFFFF;}
</style>
<g transform="translate(-72 -6)">
	<path class="st0" d="M162.2,115.7h-8.2v-4.8h13v16.4l-6.2,6.6h-15.6l-6.2-6.6V95.7l6.2-6.6h15.6l6.2,6.6v7.5h-4.8v-5.1l-3.8-3.9
		h-10.9l-3.1,3.2v28.1l3,3.2h10.9l3.8-3.9V115.7z M182.7,89.2h15.9V94h-2.7l10.5,35.1h3v4.8h-12.6v-4.8h4.2l-2.7-9.2h-14.9l-2.7,9.2
		h4.2v4.8H172v-4.8h3L185.4,94h-2.7V89.2z M190.6,94.8l-6,20.3h12.1L190.6,94.8z M215,89.2h12.1l11.3,33.1l11.3-33.1h12.1V94h-4.2
		v35.1h4.2v4.8H248v-4.8h4.2v-32l-11.1,32h-5.2l-11.1-32v32h4.2v4.8H215v-4.8h4.2V94H215V89.2z M271.3,89.2h28.3v11.7h-4.8V94H281
		v15.2h13.9v4.8H281v15.2h13.9v-6.9h4.8v11.7h-28.3v-4.8h4.2V94h-4.2V89.2z M138.4,143.8h38.4l9.4,9.9v47.8l-9.4,9.9h-38.4v-7.2h6.3
		V151h-6.3V143.8z M153,203.7h20.2l4.7-4.8v-42.6l-4.6-4.8H153V203.7z M211,143.8h24.1v7.2h-4.2l15.9,53.2h4.5v7.2h-19.1v-7.2h6.3
		l-4.2-13.9h-22.6l-4.2,13.9h6.3v7.2h-19.1v-7.2h4.5l15.9-53.2H211V143.8z M223,152.3l-9.1,30.8h18.3L223,152.3z M292.4,211.4h-24.5
		v-7.2h8.1v-13.9L259,151h-4.5v-7.2h19.1v7.2h-6.7l13.1,30.4l13.1-30.4h-6.6v-7.2h19.1v7.2H301l-16.8,39.1v14.2h8.1V211.4z"/>
</g>
</svg>
