<?xml version="1.0" encoding="utf-8"?>
<!-- Generator: Adobe Illustrator 22.0.1, SVG Export Plug-In . SVG Version: 6.00 Build 0)  -->
<!DOCTYPE svg PUBLIC "-//W3C//DTD SVG 1.1//EN" "http://www.w3.org/Graphics/SVG/1.1/DTD/svg11.dtd">
<svg version="1.1" id="Layer_1" xmlns="http://www.w3.org/2000/svg" xmlns:xlink="http://www.w3.org/1999/xlink" x="0px" y="0px"
	 viewBox="0 0 300 300" style="enable-background:new 0 0 300 300;" xml:space="preserve">
<style type="text/css">
	.st0{fill:#FFFFFF;}
	.st1{fill:none;stroke:#FFFFFF;}
</style>
<g transform="translate(0 1)">
	<path class="st0" d="M45.1,133.1h-1.4c0-3.5-0.1-5.9-0.2-7.2c1.6,0.1,4.1,0.1,7.5,0.2c2.8,0.1,4.6,0.1,5.5,0.1c1,0,3.2,0,6.9-0.1
		c2.6-0.1,4.5-0.1,5.7-0.2c-0.2,1.6-0.3,4-0.3,7.2h-1.4l-0.2-2.1c-0.1-1.3-0.2-1.9-0.2-2.2c0-0.2-0.1-0.3-0.2-0.3s-0.2-0.1-0.3-0.2
		c-0.2,0-1-0.1-2.2-0.2c-1.3-0.1-2.3-0.1-3-0.1h-2.7c-0.1,1.4-0.2,3.2-0.2,5.6v12.8c0,1.9,0,3.9,0.1,5.8c0,1.4,0.1,2.2,0.3,2.5
		c0.2,0.2,0.4,0.4,0.8,0.5c0.3,0.1,1.4,0.2,3.1,0.2v1.4c-2.6-0.1-4.5-0.2-5.8-0.2c-0.5,0-2.8,0.1-6.8,0.2v-1.4
		c1.7,0,2.8-0.1,3.1-0.2c0.3-0.1,0.6-0.3,0.8-0.5c0.2-0.3,0.3-1,0.3-2.2c0-0.3,0-2.4,0.1-6.3v-12.8c0-0.6,0-1.3,0-2.1l-0.1-3.7H51
		c-1.8,0-3.4,0.1-4.5,0.2c-0.3,0-0.5,0.1-0.6,0.3c-0.1,0.2-0.3,1.1-0.4,2.4L45.1,133.1z M69.4,127.3v-1.4l6.7,0.1l6.2-0.1v1.4
		c-1.7,0-2.8,0.1-3.1,0.2c-0.3,0.1-0.6,0.3-0.8,0.5c-0.2,0.3-0.3,1-0.3,2.2c0,0.3,0,2.4-0.1,6.3v3c2.9,0.1,6.4,0.1,10.5,0.1
		c3.1,0,5.7,0,7.6-0.1v-3.1c0-1.9,0-3.9-0.1-5.8c0-1.4-0.1-2.2-0.3-2.5c-0.2-0.2-0.4-0.4-0.8-0.5s-1.4-0.2-3.1-0.2v-1.4
		c3.1,0.1,5.3,0.1,6.5,0.1c0.4,0,2.6,0,6.4-0.1v1.4c-1.7,0-2.8,0.1-3.1,0.2c-0.3,0.1-0.6,0.3-0.8,0.5c-0.2,0.3-0.3,1-0.3,2.2
		c0,0.3,0,2.4-0.1,6.3v10.2c0,1.9,0,3.9,0.1,5.8c0,1.4,0.1,2.2,0.3,2.5c0.2,0.2,0.4,0.4,0.9,0.5s1.4,0.2,3.1,0.2v1.4
		c-2.8-0.1-5.1-0.2-6.9-0.2c-1.9,0-3.9,0.1-5.9,0.2v-1.4c1.7,0,2.8-0.1,3.1-0.2c0.3-0.1,0.6-0.3,0.8-0.5c0.2-0.3,0.3-1,0.3-2.2
		c0-0.3,0-2.4,0.1-6.3v-5c-4.1-0.1-7.1-0.1-9.3-0.1c-2.3,0-5.2,0-8.8,0.1v5c0,1.9,0,3.9,0.1,5.8c0,1.4,0.1,2.2,0.3,2.5
		c0.2,0.2,0.4,0.4,0.8,0.5c0.3,0.1,1.4,0.2,3.1,0.2v1.4c-1.9-0.1-4-0.2-6.1-0.2c-2.3,0-4.5,0.1-6.8,0.2v-1.4c1.7,0,2.8-0.1,3.1-0.2
		c0.3-0.1,0.6-0.3,0.8-0.5c0.2-0.3,0.3-1,0.3-2.2c0-0.3,0-2.4,0.1-6.3v-10.1c0-1.9,0-3.9-0.1-5.8c0-1.4-0.1-2.2-0.3-2.5
		c-0.2-0.2-0.4-0.4-0.8-0.5S71.2,127.3,69.4,127.3z M105.5,157v-1.4c1.5,0,2.5-0.1,3-0.3c0.2-0.1,0.3-0.2,0.4-0.4
		c0.1-0.3,0.2-1.1,0.3-2.3c0.1-1.9,0.1-3.6,0.1-5v-11.2c0-1.9,0-3.9-0.1-5.8c0-1.4-0.1-2.2-0.3-2.5c-0.2-0.2-0.4-0.4-0.8-0.5
		s-1.4-0.2-3.1-0.2v-1.4l6.3,0.1l6.6-0.1c3.1,0,5.5-0.1,6.9-0.1s2.8,0.1,4.1,0.2c-0.2,0.9-0.4,1.5-0.4,2.2c0,0.1-0.1,1.6-0.4,4.5
		h-1.4c0-1.5-0.1-2.8-0.3-4.1c-0.8-0.3-1.7-0.5-2.7-0.6c-1.6-0.2-3.2-0.3-4.9-0.3c-0.3,0-1.1,0-2.4,0.1c-1.2,0.1-2.1,0.1-2.6,0.1
		c-0.1,1.6-0.1,3.1-0.1,4.5l-0.1,7.3c1.7,0.1,3.2,0.1,4.8,0.1c1.7,0,3.2-0.1,4.4-0.2c0.4-0.1,0.8-0.2,0.9-0.3
		c0.1-0.2,0.2-0.8,0.3-1.8l0.1-1.5h1.3v0.4l-0.1,4.5l0.1,5.1h-1.5l-0.1-1.5c0-1.1-0.1-1.7-0.3-2.1c-0.2-0.2-0.4-0.4-1-0.5
		c-0.9-0.2-2.5-0.2-4.9-0.2c-1,0-2.4,0-4.1,0.1c-0.1,1.5-0.1,3.7-0.1,6.5c0,2.7,0,4.8,0.1,6.2c2.1,0.1,4.4,0.2,7,0.2
		c1.8,0,3.1-0.1,4-0.2c0.8-0.1,1.5-0.3,2.2-0.5c0.2-0.4,0.3-1.1,0.5-1.8c0.3-1.3,0.5-2.3,0.6-2.9h1.4c-0.4,2.9-0.5,5.4-0.5,7.3
		c-1.3,0.2-2.8,0.3-4.5,0.3l-13.1-0.2C111.1,156.8,109.2,156.9,105.5,157z M170.4,155.3c-2.3,0.8-4,1.3-5.4,1.6
		c-2.5,0.4-4.9,0.8-7.1,0.8c-3.4,0-6.4-0.6-9-1.9c-2.6-1.3-4.6-3.1-6.1-5.5c-1.4-2.4-2.2-5.2-2.2-8.4c0-2.8,0.5-5.3,1.5-7.2
		s2.3-3.7,3.9-4.9c1.5-1.3,3-2.3,4.6-2.8c2.4-1,5.3-1.4,8.8-1.4c1.6,0,3.4,0.2,5.1,0.5c1.8,0.3,3.8,0.9,6.1,1.5
		c-0.2,0.8-0.4,1.5-0.5,2.2c-0.1,0.8-0.2,2.2-0.4,4.4h-1.3l-0.1-2.5c0-0.4,0-0.6,0-1c0-0.2-0.1-0.5-0.3-0.9c-0.4-0.5-1-1-1.8-1.4
		c-1.5-0.5-2.7-1-3.7-1.2c-1-0.2-2.2-0.3-3.5-0.3c-2.8,0-5.2,0.5-7.2,1.7c-2.1,1.2-3.6,2.9-4.6,5.1s-1.5,4.6-1.5,7.2
		c0,2.9,0.6,5.5,1.8,7.8c1.2,2.3,2.8,4.1,4.9,5.3c2.1,1.2,4.4,1.8,7.1,1.8c1.3,0,2.5-0.1,3.8-0.3c1.3-0.2,2.3-0.5,3-1.1
		c0.1-0.5,0.2-1.5,0.2-2.8v-2.4c0-1.3-0.1-2.1-0.2-2.3c-0.1-0.2-0.4-0.4-1.1-0.5c-0.5-0.1-1.9-0.2-4-0.2v-1.3l6.8,0.1
		c1.3,0,2.7,0,4.1-0.1l0.1,1.1l-1.6,1c-0.2,1.5-0.2,3-0.2,4.3S170.3,153.8,170.4,155.3z M172.9,141.7c0-2.3,0.3-4.4,1.1-6.4
		c0.6-1.9,1.8-3.7,3.5-5.3c1.6-1.6,3.5-2.7,5.4-3.6c2.1-0.8,4.3-1.2,6.9-1.2c2.4,0,4.6,0.3,6.6,1c1.9,0.6,3.6,1.6,4.9,2.7
		c1.3,1.1,2.3,2.4,3,3.7c0.5,1,1,2.2,1.3,3.5c0.3,1.3,0.5,2.8,0.5,4.3c0,4.9-1.6,9-5,12.3c-3.4,3.2-7.5,4.9-12.5,4.9
		c-2.3,0-4.4-0.3-6.4-1.1c-1.9-0.8-3.7-1.8-5.1-3.4c-1.4-1.5-2.4-3.2-3.1-5.3C173.2,145.8,172.9,143.7,172.9,141.7z M177.4,139.8
		c0,1.4,0.1,2.8,0.4,4.2c0.3,1.4,0.6,2.7,1.1,3.7c0.6,1.7,1.6,3.2,2.7,4.4c1.1,1.2,2.4,2.1,3.8,2.6c1.4,0.5,2.9,0.9,4.6,0.9
		c2.4,0,4.4-0.5,6.2-1.7c1.7-1.2,3-2.8,3.9-4.9c0.9-2.1,1.3-4.4,1.3-7.2c0-2.3-0.3-4.4-1-6.4c-0.4-1.2-0.9-2.3-1.5-3.2
		c-0.6-1-1.4-1.8-2.3-2.5c-0.9-0.8-1.9-1.3-3.4-1.8c-1.4-0.5-2.9-0.8-4.5-0.8c-2.3,0-4.3,0.5-6.1,1.5c-1.7,1-3,2.5-4,4.5
		C177.9,135.2,177.4,137.4,177.4,139.8z M208.2,157v-1.2c0.9-0.4,1.5-0.8,1.7-1c0.1-0.1,0.2-0.3,0.3-0.5c0.1-0.4,0.2-1.3,0.2-2.6
		c0.1-1.9,0.1-3.1,0.1-3.6v-11.8c0-1.9,0-3.9-0.1-5.8c0-1.4-0.1-2.2-0.3-2.5c-0.2-0.2-0.4-0.4-0.8-0.5s-1.4-0.2-3.1-0.2v-1.4
		c3.6,0.1,5.7,0.2,6.6,0.2c1,0,3-0.1,6.3-0.2v1.4c-1.7,0-2.8,0.1-3.1,0.2c-0.3,0.1-0.6,0.3-0.8,0.5c-0.2,0.3-0.3,1-0.3,2.2
		c0,0.3,0,2.4-0.1,6.3v14.7c0,1.5,0,2.8,0.1,3.8c1.6,0.1,3.4,0.1,5,0.1c4.1,0,7-0.2,8.6-0.8c0.2-0.4,0.3-1,0.5-1.5l0.9-3.7h1.5
		c-0.3,2.2-0.6,4.8-1,7.7c-0.6,0.1-1.1,0.2-1.4,0.2c-0.8,0-1.9,0.1-3.5,0.1l-13-0.2C211,156.8,209.6,156.9,208.2,157z M232.1,127.3
		v-1.4c2.3,0.1,4.1,0.1,5.6,0.1c1.1,0,3,0,5.8-0.1c2.8-0.1,4.8-0.1,5.7-0.1c1.1,0,2.1,0,2.9,0s1.7,0.1,2.4,0.1
		c-0.3,1.2-0.6,3.5-0.6,6.6h-1.4c-0.1-1.7-0.3-3.1-0.5-4.1c-0.8-0.2-1.7-0.4-2.8-0.5s-2.4-0.2-3.9-0.2c-1.5,0-3,0.1-4.5,0.2
		c-0.1,0.8-0.1,1.5-0.2,2.2c0,0.4,0,2.1-0.1,5v4.9c1.6,0,3,0.1,4.3,0.1c1.8,0,3.4-0.1,4.4-0.3c0.4-0.1,0.6-0.2,0.9-0.3
		c0.1-0.2,0.2-0.8,0.4-1.8l0.2-1.4h1.4l-0.1,5l0.1,5.4h-1.4l-0.1-1.4c-0.1-1.6-0.3-2.5-0.3-2.6c-0.1-0.2-0.4-0.3-0.9-0.4
		c-0.9-0.2-2.7-0.3-5.6-0.3c-1.1,0-2.1,0-3.2,0.1v4.4c0,1.9,0,3.9,0.1,5.8c0,1.4,0.1,2.2,0.3,2.5c0.2,0.2,0.4,0.4,0.9,0.5
		c0.4,0.1,1.4,0.2,3.1,0.2v1.4c-1.8-0.1-3.7-0.2-5.5-0.2c-1.6,0-4.1,0.1-7.2,0.2v-1.4c1.7,0,2.8-0.1,3.1-0.2
		c0.3-0.1,0.6-0.3,0.8-0.5c0.2-0.3,0.3-1,0.3-2.2c0-0.3,0-2.4,0.1-6.3v-9.7c0-1.9,0-3.9-0.1-5.8c0-1.4-0.1-2.2-0.3-2.5
		c-0.2-0.2-0.4-0.4-0.8-0.5C234.9,127.4,233.8,127.3,232.1,127.3z M29.6,204.4c0.2-1.4,0.3-3.7,0.4-6.8h1.5c0.1,2.2,0.2,3.4,0.3,3.8
		c0.2,0.4,0.5,0.8,1.2,1.2s1.5,0.9,2.6,1.2s2.2,0.5,3.1,0.5c1.5,0,2.8-0.3,4.1-1c1.2-0.6,2.2-1.6,2.7-2.7c0.5-1.1,0.9-2.3,0.9-3.6
		c0-1-0.1-1.8-0.4-2.5c-0.3-0.6-0.8-1.3-1.3-1.7s-1.3-0.8-2.2-0.9c-0.5-0.1-1.6-0.2-3.2-0.4s-3-0.4-4.1-0.6c-1.5-0.4-2.6-1-3.4-1.6
		c-0.8-0.6-1.3-1.4-1.7-2.5c-0.4-1-0.6-2.2-0.6-3.4c0-1.7,0.4-3.4,1.3-4.9c0.9-1.5,2.3-2.7,4-3.6c1.7-0.9,3.7-1.3,5.7-1.3
		c1.2,0,2.6,0.2,4.1,0.5c1.5,0.3,2.8,0.8,4.1,1.4c-0.2,1-0.3,1.7-0.4,2.6c-0.1,0.8-0.1,1.9-0.2,3.6h-1.5c0-2.3-0.1-3.5-0.2-3.7
		c-0.3-0.5-0.9-1-1.5-1.4c-1.5-0.9-3-1.3-4.8-1.3c-2.2,0-3.8,0.6-5.1,1.9c-1.3,1.3-1.9,2.9-1.9,5c0,1.2,0.2,2.2,0.6,2.9
		s1.3,1.2,2.4,1.6c0.8,0.3,2.2,0.5,3.9,0.8c1.8,0.2,3.5,0.5,5,0.8c1.4,0.4,2.4,0.9,3,1.4c0.6,0.5,1.2,1.3,1.6,2.2s0.6,1.9,0.6,3.2
		c0,2.9-1.2,5.4-3.6,7.6c-2.4,2.2-5.5,3.2-9.3,3.2C34.5,206.1,31.9,205.6,29.6,204.4z M52.5,181.6h-1.4c0-3.5-0.1-5.9-0.2-7.2
		c1.6,0.1,4.1,0.1,7.5,0.2c2.8,0.1,4.6,0.1,5.5,0.1c1,0,3.2,0,6.9-0.1c2.6-0.1,4.5-0.1,5.7-0.2c-0.2,1.6-0.3,4-0.3,7.2h-1.4
		l-0.2-2.1c-0.1-1.3-0.2-1.9-0.2-2.2c0-0.2-0.1-0.3-0.2-0.3c-0.1-0.1-0.2-0.1-0.3-0.2c-0.2,0-1-0.1-2.2-0.2c-1.3-0.1-2.3-0.1-3-0.1
		h-2.7c-0.1,1.4-0.2,3.2-0.2,5.6v12.8c0,1.9,0,3.9,0.1,5.8c0,1.4,0.1,2.2,0.3,2.5c0.2,0.2,0.4,0.4,0.8,0.5s1.4,0.2,3.1,0.2v1.4
		c-2.6-0.1-4.5-0.2-5.8-0.2c-0.5,0-2.8,0.1-6.8,0.2v-1.4c1.7,0,2.8-0.1,3.1-0.2s0.6-0.3,0.8-0.5c0.2-0.3,0.3-1,0.3-2.2
		c0-0.3,0-2.4,0.1-6.3V182c0-0.6,0-1.3,0-2.1l-0.1-3.7h-3.2c-1.8,0-3.4,0.1-4.5,0.2c-0.3,0-0.5,0.1-0.6,0.3
		c-0.1,0.2-0.3,1.1-0.4,2.4L52.5,181.6z M73.2,205.4v-1.5c1.2,0,1.8-0.1,2.2-0.1c0.3-0.1,0.5-0.2,0.8-0.4c0.2-0.2,0.5-0.9,1.1-1.7
		c0.2-0.5,1.2-2.6,2.8-6.2l5.5-12.3c0.6-1.4,1.8-4.4,3.8-9.1h1.4L100,196c1.5,3.6,2.5,5.8,3,6.7c0.3,0.5,0.5,0.9,0.9,1
		c0.3,0.1,1.1,0.2,2.3,0.2v1.5c-2.3-0.1-3.9-0.2-4.8-0.2l-7,0.2v-1.5c1.6,0,2.6-0.1,3-0.1c0.3-0.1,0.5-0.2,0.8-0.3
		c0.2-0.1,0.2-0.3,0.2-0.5c0-0.3-0.1-0.8-0.3-1.3l-2.7-6.7H82.7l-2.4,5.6c-0.4,1-0.6,1.7-0.6,2.2c0,0.2,0.1,0.3,0.2,0.5
		c0.1,0.2,0.4,0.3,0.8,0.4c0.5,0.1,1.5,0.2,2.8,0.2v1.5c-2.5-0.1-4.3-0.2-5.5-0.2C76.5,205.2,75,205.3,73.2,205.4z M83.4,193.1h11
		l-5.5-13.2L83.4,193.1z M107,205.4V204c1.5,0,2.5-0.1,3-0.3c0.2-0.1,0.3-0.2,0.4-0.4c0.1-0.3,0.2-1.1,0.3-2.3
		c0.1-1.9,0.1-3.6,0.1-5v-17.8c0-0.4,0-0.8-0.1-1c-0.1-0.2-0.4-0.5-0.8-1c-0.2-0.2-0.5-0.4-0.9-0.4c-0.3-0.1-1.1-0.1-2.3-0.1v-1.4
		c2.5,0.1,4,0.1,4.6,0.1c1.1,0,2.2,0,3.1-0.1c1.2,1.6,2.2,2.8,2.7,3.6l4.5,5.6l6.6,8c2.2,2.5,3.8,4.5,5.1,5.9c0.9,1,1.5,1.7,2.1,2.3
		v-16c0-1.4,0-3.1-0.1-5.1c-0.1-1.2-0.1-1.9-0.3-2.3c-0.1-0.2-0.2-0.3-0.4-0.4c-0.4-0.2-1.5-0.3-3-0.3v-1.4c1.7,0.1,3.5,0.1,5.2,0.1
		c1.6,0,3.1,0,4.5-0.1v1.4c-1.5,0-2.5,0.1-3,0.3c-0.2,0.1-0.3,0.2-0.4,0.4c-0.1,0.3-0.2,1.1-0.3,2.3c-0.1,1.9-0.1,3.6-0.1,5v10.5
		c0,2.2,0,6.1,0.1,11.9l-2.3-0.6l-0.5-0.1c-0.1,0-0.2-0.1-0.2-0.1c-0.1-0.1-0.4-0.3-0.9-0.9c-1.2-1.4-2.1-2.4-2.7-3.1l-2.8-3.6
		L112.7,179v16.8c0,1.4,0,3.1,0.1,5.1c0.1,1.2,0.1,1.9,0.3,2.3c0.1,0.2,0.2,0.3,0.4,0.4c0.4,0.2,1.5,0.3,3,0.3v1.4
		c-1.3-0.1-2.7-0.1-4.2-0.1C110.7,205.2,108.9,205.3,107,205.4z M143.3,205.4v-1.1c0.9-0.4,1.5-1,2.2-1.3c0.1-1,0.1-2.4,0.2-4.1
		c0.1-3,0.1-5.1,0.1-6.3v-9c0-1.4,0-3.1-0.1-5.1c-0.1-1.2-0.1-1.9-0.3-2.3c-0.1-0.2-0.2-0.3-0.4-0.4c-0.4-0.2-1.5-0.3-3-0.3v-1.4
		c2.2,0.1,4,0.1,5.6,0.1c1.3,0,2.9,0,5.1-0.1s3.9-0.1,5.1-0.1c3.6,0,6.5,0.4,8.6,1.4c2.2,0.9,4,2.5,5.5,4.5c1.5,2.1,2.3,4.8,2.3,7.9
		c0,2.3-0.3,4.3-1.1,6.3s-1.7,3.7-2.9,5.1c-1.2,1.4-2.5,2.6-3.9,3.5c-1.4,0.9-2.9,1.5-4.4,1.9c-1.5,0.4-3.7,0.6-6.4,0.6
		c-0.9,0-2.1,0-3.6-0.1c-1.9-0.1-3.2-0.1-3.9-0.1C147.1,205.2,145.5,205.3,143.3,205.4z M150.1,203.1c1.6,0.3,3.4,0.4,5.1,0.4
		c1.8,0,3.5-0.1,4.9-0.4c1.4-0.3,2.6-0.8,3.6-1.4c1-0.5,1.9-1.4,2.9-2.6s1.6-2.6,2.2-4.3c0.5-1.7,0.8-3.6,0.8-5.5
		c0-2.7-0.4-5.1-1.4-7s-2.5-3.5-4.4-4.4c-1.9-1.1-4.6-1.5-8.1-1.5c-1.8,0-3.6,0.1-5.5,0.4c0,0.8-0.1,1.9-0.1,3.8l-0.1,3.1v8.8
		l0.1,6.8C150,200.1,150,201.4,150.1,203.1z M175,205.4v-1.5c1.2,0,1.8-0.1,2.2-0.1c0.3-0.1,0.5-0.2,0.8-0.4
		c0.2-0.2,0.5-0.9,1.1-1.7c0.2-0.5,1.2-2.6,2.8-6.2l5.5-12.3c0.6-1.4,1.8-4.4,3.8-9.1h1.4l9.3,21.9c1.5,3.6,2.5,5.8,3,6.7
		c0.3,0.5,0.5,0.9,0.9,1s1.1,0.2,2.3,0.2v1.5c-2.3-0.1-3.9-0.2-4.8-0.2l-7,0.2v-1.5c1.6,0,2.6-0.1,3-0.1c0.3-0.1,0.5-0.2,0.8-0.3
		c0.2-0.1,0.2-0.3,0.2-0.5c0-0.3-0.1-0.8-0.3-1.3l-2.7-6.7h-12.6l-2.4,5.6c-0.4,1-0.6,1.7-0.6,2.2c0,0.2,0.1,0.3,0.2,0.5
		c0.1,0.2,0.4,0.3,0.8,0.4c0.5,0.1,1.5,0.2,2.8,0.2v1.5c-2.5-0.1-4.3-0.2-5.5-0.2C178.3,205.2,176.8,205.3,175,205.4z M185.3,193.1
		h11l-5.5-13.2L185.3,193.1z M208.6,175.7v-1.4c0.5,0,1.4,0,2.6,0.1l4.2,0.1c0.9,0,2.2,0,3.9-0.1c2.3-0.1,3.6-0.1,4-0.1
		c2.8,0,4.9,0.2,6.1,0.8c1.3,0.5,2.3,1.3,2.9,2.4c0.6,1.1,1.1,2.4,1.1,3.7c0,1.2-0.3,2.5-1,3.7c-0.6,1.2-1.6,2.3-2.8,3
		c-1.2,0.8-2.9,1.4-4.9,1.8c0.3,0.5,1.2,1.6,2.6,3.5l5.5,7.2c1.6,2.1,2.5,3.1,2.8,3.4c0.1,0.1,0.2,0.2,0.4,0.2
		c0.2,0.1,0.6,0.1,1.4,0.1v1.4c-1.1-0.1-2.1-0.1-2.9-0.1s-1.9,0-3.1,0.1c-1-1.1-2.5-3.2-4.8-6.4c-1.2-1.7-2.4-3.2-3.2-4.4
		c-1.5-1.9-3-3.7-4.4-5.3l0.2-0.6c0.8,0,1.3,0.1,1.7,0.1c2.7,0,4.6-0.6,6.1-1.8c1.4-1.2,2.1-2.9,2.1-5c0-1.8-0.5-3.2-1.7-4.3
		s-2.9-1.6-5.4-1.6c-1.5,0-3,0.2-4.4,0.6c-0.1,0.8-0.1,1.5-0.1,2.2c0,0.2-0.1,2.4-0.1,6.4v9.7c0,1.9,0,3.9,0.1,5.8
		c0,1.4,0.1,2.2,0.3,2.5c0.2,0.3,0.4,0.4,0.9,0.5s1.4,0.2,3.1,0.2v1.4c-2.1-0.1-4-0.2-5.7-0.2c-1.4,0-3.8,0.1-7,0.2V204
		c1.7,0,2.8-0.1,3.1-0.2s0.6-0.3,0.8-0.5c0.2-0.3,0.3-1,0.3-2.2c0-0.3,0-2.4,0.1-6.3v-10.2c0-1.9,0-3.9-0.1-5.8
		c0-1.4-0.1-2.2-0.3-2.5c-0.2-0.2-0.4-0.4-0.8-0.5C211.4,175.8,210.3,175.7,208.6,175.7z M237.7,205.4v-1.1c0.9-0.4,1.5-1,2.2-1.3
		c0.1-1,0.1-2.4,0.2-4.1c0.1-3,0.1-5.1,0.1-6.3v-9c0-1.4,0-3.1-0.1-5.1c-0.1-1.2-0.1-1.9-0.3-2.3c-0.1-0.2-0.2-0.3-0.4-0.4
		c-0.4-0.2-1.5-0.3-3-0.3v-1.4c2.2,0.1,4,0.1,5.6,0.1c1.3,0,2.9,0,5.1-0.1c2.2-0.1,3.9-0.1,5.1-0.1c3.6,0,6.5,0.4,8.6,1.4
		c2.2,0.9,4,2.5,5.5,4.5c1.5,2.1,2.3,4.8,2.3,7.9c0,2.3-0.3,4.3-1.1,6.3c-0.8,1.9-1.7,3.7-2.9,5.1c-1.2,1.4-2.5,2.6-3.9,3.5
		c-1.4,0.9-2.9,1.5-4.4,1.9c-1.5,0.4-3.7,0.6-6.4,0.6c-0.9,0-2.1,0-3.6-0.1c-1.9-0.1-3.2-0.1-3.9-0.1
		C241.6,205.2,240,205.3,237.7,205.4z M244.5,203.1c1.6,0.3,3.4,0.4,5.1,0.4c1.8,0,3.5-0.1,4.9-0.4c1.4-0.3,2.6-0.8,3.6-1.4
		c1-0.5,1.9-1.4,2.9-2.6c1-1.2,1.6-2.6,2.2-4.3c0.5-1.7,0.8-3.6,0.8-5.5c0-2.7-0.4-5.1-1.4-7c-1-1.9-2.5-3.5-4.4-4.4
		c-1.9-1.1-4.6-1.5-8.1-1.5c-1.8,0-3.6,0.1-5.5,0.4c0,0.8-0.1,1.9-0.1,3.8l-0.1,3.1v8.8l0.1,6.8
		C244.4,200.1,244.5,201.4,244.5,203.1z"/>
	<g transform="translate(53)">
		<g transform="translate(5 5)">
			<path class="st0" d="M84.3,87.6l8.4-15.8c6.7-11.9,7.3-11.5,8.1-11.1c0.8,0.4,1.1,1.2-5.7,12.6l-9.2,17.2
				c-0.2,0.3-0.5,0.5-0.9,0.5h-9.6c-0.5,0-1.1-0.5-1.1-1.2v-3.7c0-1.1,1-1.7,1.8-1.5L84.3,87.6z"/>
			<path class="st0" d="M98.6,87.6l-8.4-15.8c-6.7-11.9-7.3-11.5-8.1-11.1c-0.8,0.4-1.1,1.2,5.7,12.6l9.2,17.2
				c0.2,0.3,0.5,0.5,0.9,0.5h9.6c0.5,0,1.1-0.5,1.1-1.2v-3.7c0-1.1-1-1.7-1.8-1.5L98.6,87.6z"/>
		</g>
		<circle class="st1" cx="96.4" cy="82.7" r="26"/>
	</g>
</g>
</svg>
