<?xml version="1.0" encoding="utf-8"?>
<!-- Generator: Adobe Illustrator 22.0.1, SVG Export Plug-In . SVG Version: 6.00 Build 0)  -->
<!DOCTYPE svg PUBLIC "-//W3C//DTD SVG 1.1//EN" "http://www.w3.org/Graphics/SVG/1.1/DTD/svg11.dtd">
<svg version="1.1" id="Layer_1" xmlns="http://www.w3.org/2000/svg" xmlns:xlink="http://www.w3.org/1999/xlink" x="0px" y="0px"
	 viewBox="0 0 300 300" style="enable-background:new 0 0 300 300;" xml:space="preserve">
<style type="text/css">
	.st0{fill:#FFFFFF;}
</style>
<g transform="translate(-49 -7)">
	<path class="st0" d="M70.6,110.3h11.2l8.5,14.1l6.7-11.5v15.9l-7.6,13.1L70.6,110.3z M98.6,141.9v-31.7h10.5v31.7H98.6z
		 M70.6,141.9v-28.7l9.9,16.5v12.2H70.6z M136.3,138.5h-10.4l2.2-6.3h5.7l-8.5-21.9h10.3l12.6,31.7h-10.7L136.3,138.5z M123.1,141.9
		h-10.2l11.3-30.2l4.7,12.6L123.1,141.9z M172.1,124.6l-5.6-8.2l3.7-6.1h11.3L172.1,124.6z M148.7,141.9l10.1-14.7l5.7,8.6l-3.7,6.2
		H148.7z M182,141.9h-11.5l-21.1-31.7h11.4L182,141.9z M184.5,135.2h3.2V117h-3.2v-6.7h16.9v6.7h-3.2v18.2h3.2v6.8h-16.9V135.2z
		 M207.3,110.3h11.2l8.5,14.1l6.7-11.5v15.9l-7.6,13.1L207.3,110.3z M235.3,141.9v-31.7h10.5v31.7H235.3z M207.3,141.9v-28.7
		l9.9,16.5v12.2H207.3z M282.5,135.6l-6.3,6.3h-8.1v-6.3h3.9v-25.3h10.5V135.6z M262.5,135.6h3.9v6.3h-8.1l-6.3-6.3v-25.3h10.6
		V135.6z M288.7,110.3h11.2l8.5,14.1l6.7-11.5v15.9l-7.6,13.1L288.7,110.3z M316.7,141.9v-31.7h10.5v31.7H316.7z M288.7,141.9v-28.7
		l9.9,16.5v12.2H288.7z M82.9,154.7c2.2,0,4.1,0.4,5.8,1.1c1.7,0.7,3.1,1.8,4.3,3.2c1.2,1.4,2.1,3.1,2.7,5.2c0.6,2,0.9,4.3,0.9,6.9
		c0,1.1-0.1,2.3-0.3,3.5c-0.2,1.2-0.5,2.5-1,3.7c-0.5,1.2-1.1,2.4-1.8,3.5c-0.7,1.1-1.6,2.1-2.6,2.9c-1,0.8-2.2,1.5-3.6,2
		c-1.4,0.5-2.9,0.8-4.7,0.8h-5.9c0.1,3.3,0.1,6.6,0.2,10.1c0.1,3.4,0.2,6.8,0.4,10.1H70c0.2-2.2,0.3-4.4,0.4-6.7
		c0.1-2.3,0.2-4.6,0.2-6.9c0.1-2.3,0.1-4.5,0.1-6.7c0-2.2,0-4.3,0-6.2s0-4.1,0-6.2c0-2.2-0.1-4.4-0.1-6.7c-0.1-2.3-0.1-4.5-0.2-6.8
		c-0.1-2.3-0.2-4.5-0.4-6.7H82.9z M77,159.1c-0.2,3.8-0.3,7.6-0.4,11.4c-0.1,3.8-0.1,7.4-0.1,10.7v2.1h5.9c2.3,0,4.1-1.1,5.4-3.2
		c1.3-2.1,1.9-5.1,1.9-9c0-3.9-0.6-6.9-1.8-9c-1.2-2.1-3-3.1-5.5-3.1H77z M134.4,181.3c0,4.8-0.4,8.9-1.3,12.3
		c-0.8,3.5-2,6.3-3.5,8.6c-1.5,2.2-3.3,3.9-5.3,5c-2,1.1-4.2,1.6-6.6,1.6c-2.4,0-4.6-0.5-6.6-1.6c-2-1.1-3.8-2.7-5.3-5
		c-1.5-2.2-2.7-5.1-3.5-8.6s-1.3-7.6-1.3-12.3c0-4.7,0.4-8.8,1.3-12.3c0.9-3.5,2-6.3,3.5-8.6c1.5-2.3,3.3-3.9,5.3-5
		c2-1.1,4.2-1.6,6.6-1.6c2.3,0,4.5,0.5,6.6,1.6c2,1.1,3.8,2.7,5.3,5c1.5,2.3,2.7,5.1,3.5,8.6C134,172.4,134.4,176.5,134.4,181.3z
		 M127.8,181.3c0-4-0.3-7.4-0.8-10.3c-0.5-2.9-1.2-5.2-2.1-7.1c-0.9-1.9-2-3.2-3.2-4.1c-1.2-0.9-2.5-1.3-4-1.3c-1.4,0-2.8,0.4-4,1.3
		c-1.2,0.9-2.3,2.3-3.2,4.1c-0.9,1.9-1.6,4.2-2.1,7.1s-0.8,6.3-0.8,10.3c0,4,0.3,7.4,0.8,10.3c0.5,2.9,1.2,5.2,2.1,7.1
		c0.9,1.9,2,3.2,3.2,4.1c1.2,0.9,2.6,1.3,4,1.3c1.4,0,2.7-0.4,4-1.3c1.2-0.9,2.3-2.3,3.2-4.1c0.9-1.9,1.6-4.2,2.1-7.1
		C127.6,188.7,127.8,185.2,127.8,181.3z M161.8,164.4c-0.3,2.3-0.6,4.7-1,7.4s-0.7,5.4-1.1,8.1c-0.4,2.8-0.7,5.5-1.1,8.2
		c-0.4,2.7-0.7,5.3-1,7.8c-0.3,2.5-0.6,4.7-0.8,6.7c-0.2,2-0.4,3.7-0.6,5h-9.1c-0.3-1.9-0.6-4.1-1-6.6c-0.4-2.5-0.8-5.2-1.2-8.1
		c-0.4-2.9-0.9-5.9-1.5-9.1c-0.5-3.2-1.1-6.4-1.7-9.7c-0.6-3.3-1.2-6.6-1.9-9.8c-0.7-3.3-1.3-6.5-2-9.6h7.4c1,7.7,2,15.3,3,22.8
		c1,7.5,2.1,14.9,3.3,22.4h0.5c0.6-3.7,1.1-7.5,1.7-11.2c0.5-3.7,1-7.5,1.5-11.2c0.5-3.8,0.9-7.5,1.4-11.3c0.5-3.8,0.9-7.6,1.4-11.4
		h7.9c1,7.7,1.9,15.3,2.8,22.8c0.9,7.5,2,15,3.2,22.4h0.5c1.2-7.5,2.3-14.9,3.4-22.4c1-7.5,2-15.1,3-22.8h7.4
		c-0.7,3.1-1.4,6.3-2,9.6c-0.7,3.3-1.3,6.6-1.9,9.8c-0.6,3.3-1.2,6.5-1.7,9.7c-0.5,3.2-1,6.2-1.5,9.1c-0.4,2.9-0.9,5.6-1.3,8.1
		c-0.4,2.5-0.7,4.7-1,6.6h-9.1c-0.1-1.3-0.3-3-0.6-5c-0.2-2-0.5-4.3-0.8-6.7c-0.3-2.5-0.6-5-1-7.8s-0.7-5.5-1.1-8.2
		c-0.4-2.8-0.7-5.5-1.1-8.1c-0.4-2.7-0.7-5.1-1-7.4H161.8z M213.2,154.7v4.5h-15.3c-0.2,3-0.3,5.9-0.3,8.8c-0.1,2.9-0.1,5.8-0.1,8.6
		h14.7v4.5h-14.7c0,3.3,0,6.9,0.1,10.7c0.1,3.8,0.2,7.6,0.3,11.4h15.6v4.5h-22.6c0.2-2.2,0.3-4.4,0.4-6.7c0.1-2.3,0.2-4.6,0.2-6.9
		c0.1-2.3,0.1-4.5,0.1-6.7s0-4.3,0-6.2s0-4.1,0-6.2c0-2.2-0.1-4.4-0.1-6.7c-0.1-2.3-0.1-4.5-0.2-6.8c-0.1-2.3-0.2-4.5-0.4-6.7H213.2
		z M232.9,154.7c4.3,0,7.7,1.3,10.1,3.8c2.4,2.5,3.6,6.4,3.6,11.6c0,3.3-0.6,6.1-1.7,8.3c-1.2,2.2-2.9,3.8-5.1,5
		c0.6,2.2,1.3,4.6,2.1,7.2c0.7,2.2,1.7,4.8,2.8,7.7c1.1,2.9,2.5,6.1,4.1,9.4h-8.1c-1.2-3.8-2.1-7.2-2.9-10c-0.8-2.8-1.4-5.2-1.8-7.1
		c-0.5-2.2-0.9-4.1-1.2-5.7h-7.8c0,1.8,0,3.7,0.1,5.6c0,1.9,0.1,3.8,0.1,5.8c0.1,1.9,0.1,3.9,0.2,5.8s0.2,3.9,0.3,5.7h-7.2
		c0.2-2.2,0.3-4.4,0.4-6.7c0.1-2.3,0.2-4.6,0.2-6.9c0.1-2.3,0.1-4.5,0.1-6.7s0-4.3,0-6.2s0-4.1,0-6.2c0-2.2-0.1-4.4-0.1-6.7
		c-0.1-2.3-0.1-4.5-0.2-6.8c-0.1-2.3-0.2-4.5-0.4-6.7H232.9z M227.3,159.1c-0.2,3.7-0.3,7.4-0.4,11c-0.1,3.7-0.1,7.2-0.1,10.4h5.6
		c1.2,0,2.2-0.2,3.1-0.5c0.9-0.4,1.7-1,2.3-1.8s1.1-1.9,1.4-3.2c0.3-1.3,0.5-2.9,0.5-4.9c0-3.9-0.6-6.7-1.8-8.5
		c-1.2-1.7-3.1-2.6-5.5-2.6H227.3z M265.8,155.4l12.2-1.6c-0.2,2.2-0.3,4.5-0.4,6.9c-0.1,2.4-0.2,4.8-0.2,7.2
		c-0.1,2.4-0.1,4.7-0.1,7c0,2.3,0,4.4,0,6.4s0,4.1,0,6.2s0.1,4.4,0.1,6.7c0.1,2.3,0.1,4.6,0.2,6.9c0.1,2.3,0.2,4.5,0.3,6.7h-7.2
		c0.2-2.2,0.3-4.4,0.4-6.7c0.1-2.3,0.2-4.6,0.2-6.9c0.1-2.3,0.1-4.5,0.1-6.7s0-4.3,0-6.2c0-2,0-4.1-0.1-6.4c0-2.3-0.1-4.4-0.1-6.5
		s-0.1-4-0.2-5.7c-0.1-1.7-0.1-3-0.1-3.9l-5.2,0.5V155.4z M285.3,204.5c0-0.5,0.1-1.1,0.3-1.5c0.2-0.5,0.5-0.9,0.8-1.3
		c0.4-0.4,0.8-0.7,1.3-0.9c0.5-0.2,1-0.3,1.6-0.3c0.5,0,1.1,0.1,1.5,0.3c0.5,0.2,0.9,0.5,1.3,0.9c0.4,0.4,0.7,0.8,0.9,1.3
		c0.2,0.5,0.3,1,0.3,1.5c0,0.6-0.1,1.1-0.3,1.6c-0.2,0.5-0.5,0.9-0.9,1.3c-0.4,0.4-0.8,0.6-1.3,0.8c-0.5,0.2-1,0.3-1.5,0.3
		c-1.1,0-2.1-0.4-2.9-1.2S285.3,205.7,285.3,204.5z M326.7,181.3c0,4.9-0.4,9.1-1.1,12.6c-0.7,3.5-1.7,6.3-3,8.5
		c-1.3,2.2-2.8,3.8-4.6,4.9c-1.8,1-3.7,1.5-5.8,1.5c-2.1,0-4-0.5-5.8-1.5c-1.8-1-3.3-2.6-4.6-4.9c-1.3-2.2-2.3-5-3-8.5
		s-1.1-7.7-1.1-12.6c0-4.9,0.4-9.1,1.1-12.5c0.7-3.5,1.7-6.3,3-8.5s2.8-3.8,4.6-4.9c1.8-1,3.7-1.6,5.8-1.6c2.1,0,4,0.5,5.8,1.6
		c1.8,1,3.3,2.7,4.6,4.9c1.3,2.2,2.3,5,3,8.5C326.4,172.2,326.7,176.4,326.7,181.3z M320.2,181.3c-0.1-4.1-0.3-7.7-0.6-10.6
		c-0.4-2.9-0.9-5.3-1.6-7.1c-0.7-1.8-1.5-3.1-2.4-4c-1-0.8-2-1.2-3.2-1.2c-1.2,0-2.3,0.4-3.3,1.2c-1,0.8-1.8,2.1-2.5,3.9
		c-0.7,1.8-1.2,4.2-1.6,7.1c-0.4,2.9-0.6,6.4-0.6,10.6c0,4.2,0.2,7.8,0.6,10.7c0.4,2.9,0.9,5.2,1.6,7.1c0.7,1.8,1.5,3.1,2.5,3.9
		c1,0.8,2.1,1.2,3.3,1.2c1.2,0,2.3-0.4,3.3-1.2c1-0.8,1.8-2.1,2.5-3.9c0.7-1.8,1.2-4.2,1.6-7.1S320.2,185.5,320.2,181.3z"/>
</g>
</svg>
