<?xml version="1.0" encoding="utf-8"?>
<!-- Generator: Adobe Illustrator 22.0.1, SVG Export Plug-In . SVG Version: 6.00 Build 0)  -->
<!DOCTYPE svg PUBLIC "-//W3C//DTD SVG 1.1//EN" "http://www.w3.org/Graphics/SVG/1.1/DTD/svg11.dtd">
<svg version="1.1" id="Layer_1" xmlns="http://www.w3.org/2000/svg" xmlns:xlink="http://www.w3.org/1999/xlink" x="0px" y="0px"
	 viewBox="0 0 300 300" style="enable-background:new 0 0 300 300;" xml:space="preserve">
<style type="text/css">
	.st0{fill:#FFFFFF;}
</style>
<g transform="translate(-36 -11)">
	<path class="st0" d="M81.1,156.5h-6.5v-21.1l-11.4,20.1c-0.3,0.5-0.7,0.9-1.2,1.2c-0.5,0.3-1,0.4-1.6,0.4c-0.6,0-1.1-0.1-1.6-0.4
		c-0.5-0.3-0.9-0.7-1.2-1.2l-11.5-20.1v21.1h-6.4v-32.7c0-0.7,0.2-1.4,0.7-2c0.4-0.6,1-1,1.7-1.2c0.3-0.1,0.7-0.1,1-0.1
		c0.3,0,0.7,0.1,1,0.2c0.3,0.1,0.6,0.3,0.9,0.5c0.3,0.2,0.5,0.5,0.7,0.8l14.7,25.5L75,122.1c0.4-0.6,0.9-1.1,1.6-1.3
		c0.7-0.3,1.4-0.3,2.1-0.1c0.7,0.2,1.3,0.6,1.7,1.2c0.4,0.6,0.7,1.2,0.7,2V156.5z M123.4,156.5h-6.4v-8.7H94.3v8.7h-6.4v-17.7
		c0-2.6,0.4-5,1.3-7.2c0.9-2.2,2.1-4.1,3.7-5.6c1.6-1.6,3.5-2.8,5.6-3.7s4.5-1.3,7.1-1.3h14.5c0.4,0,0.9,0.1,1.3,0.2
		c0.4,0.2,0.7,0.4,1,0.7s0.5,0.6,0.7,1c0.2,0.4,0.2,0.8,0.2,1.3V156.5z M94.3,141.3h22.6v-13.9h-11.3c-0.2,0-0.6,0-1.3,0.1
		c-0.6,0.1-1.4,0.2-2.2,0.4c-0.8,0.2-1.7,0.6-2.6,1.1c-0.9,0.5-1.8,1.1-2.5,2c-0.8,0.8-1.4,1.9-1.9,3.2c-0.5,1.3-0.8,2.8-0.8,4.6
		V141.3z M73.9,192.6c0,1.9-0.3,3.7-1,5.3c-0.7,1.6-1.6,3-2.8,4.2c-1.2,1.2-2.6,2.1-4.2,2.8c-1.6,0.7-3.4,1-5.3,1h-7.8
		c-1.9,0-3.7-0.3-5.3-1s-3-1.6-4.2-2.8c-1.2-1.2-2.1-2.6-2.8-4.2c-0.7-1.6-1-3.4-1-5.3v-6.1c0-1.9,0.3-3.7,1-5.3
		c0.7-1.6,1.6-3,2.8-4.2c1.2-1.2,2.6-2.1,4.2-2.8c1.6-0.7,3.4-1,5.3-1h7.8c1.9,0,3.7,0.3,5.3,1c1.6,0.7,3,1.6,4.2,2.8
		c1.2,1.2,2.1,2.6,2.8,4.2c0.7,1.6,1,3.4,1,5.3V192.6z M68.2,186.5c0-1.1-0.2-2.2-0.5-3.1s-0.9-1.7-1.5-2.4
		c-0.7-0.7-1.4-1.2-2.4-1.5c-0.9-0.4-1.9-0.5-3-0.5h-7.8c-1.1,0-2.1,0.2-3.1,0.5c-0.9,0.4-1.7,0.9-2.4,1.5c-0.7,0.7-1.2,1.4-1.5,2.4
		c-0.4,0.9-0.5,1.9-0.5,3.1v6.1c0,1.1,0.2,2.2,0.5,3.1c0.4,0.9,0.9,1.7,1.5,2.4c0.7,0.7,1.5,1.2,2.4,1.5c0.9,0.4,1.9,0.5,3.1,0.5
		h7.7c1.1,0,2.1-0.2,3.1-0.5c0.9-0.4,1.7-0.9,2.4-1.5c0.7-0.7,1.2-1.4,1.5-2.4s0.5-1.9,0.5-3.1V186.5z M110.2,173.7l-15,30.6
		c-0.2,0.5-0.6,0.9-1,1.1c-0.5,0.3-1,0.4-1.5,0.4c-0.5,0-1-0.1-1.5-0.4c-0.5-0.3-0.8-0.7-1.1-1.1l-15-30.6h6.4l11.1,22.8l11.2-22.8
		H110.2z M139,192.4h-18.1v-5.8H139V192.4z M141.5,205.4h-20.7c-0.8,0-1.7-0.1-2.6-0.4c-0.9-0.3-1.8-0.7-2.6-1.4
		c-0.8-0.6-1.5-1.5-2-2.5c-0.5-1-0.8-2.3-0.8-3.8v-20.7c0-0.4,0.1-0.8,0.2-1.1c0.1-0.4,0.3-0.7,0.6-0.9c0.3-0.3,0.6-0.5,0.9-0.6
		s0.7-0.2,1.1-0.2h25.9v5.7h-23v17.9c0,0.8,0.2,1.3,0.6,1.7s1,0.6,1.7,0.6h20.7V205.4z M178.3,184.3c0,1.3-0.2,2.5-0.5,3.5
		c-0.3,1-0.8,1.9-1.3,2.7c-0.6,0.8-1.2,1.5-1.9,2s-1.5,1-2.3,1.4c-0.8,0.4-1.6,0.6-2.4,0.8c-0.8,0.2-1.6,0.2-2.3,0.2l12,10.4h-8.9
		l-12-10.4h-4.1v-5.7h13c0.7-0.1,1.4-0.2,2-0.5c0.6-0.2,1.1-0.6,1.5-1c0.4-0.4,0.8-0.9,1-1.5c0.2-0.6,0.4-1.2,0.4-2v-3.6
		c0-0.3,0-0.6-0.1-0.7c-0.1-0.2-0.2-0.3-0.3-0.4c-0.1-0.1-0.3-0.1-0.4-0.1c-0.1,0-0.3,0-0.4,0h-19v25.9h-5.7v-28.8
		c0-0.4,0.1-0.8,0.2-1.1s0.3-0.7,0.6-0.9s0.6-0.5,0.9-0.6s0.7-0.2,1.1-0.2h21.8c1.3,0,2.4,0.2,3.2,0.7c0.9,0.5,1.6,1,2.2,1.7
		c0.6,0.7,1,1.5,1.2,2.3c0.2,0.8,0.4,1.6,0.4,2.3V184.3z M215.2,192.1c0,1.9-0.3,3.7-1,5.3c-0.7,1.6-1.6,3-2.8,4.2s-2.6,2.1-4.2,2.8
		c-1.6,0.7-3.4,1-5.3,1h-15.5c-0.4,0-0.8-0.1-1.1-0.2c-0.4-0.1-0.7-0.3-0.9-0.6c-0.3-0.3-0.5-0.6-0.6-0.9c-0.1-0.4-0.2-0.7-0.2-1.1
		v-25.9c0-0.4,0.1-0.8,0.2-1.1c0.1-0.4,0.3-0.7,0.6-0.9c0.3-0.3,0.6-0.5,0.9-0.6s0.7-0.2,1.1-0.2h15.5c1.9,0,3.7,0.3,5.3,1
		c1.6,0.7,3,1.6,4.2,2.8s2.1,2.6,2.8,4.2c0.7,1.6,1,3.4,1,5.3V192.1z M209.4,186.9c0-1.1-0.2-2.1-0.5-3.1c-0.4-0.9-0.9-1.7-1.5-2.4
		c-0.7-0.7-1.5-1.2-2.4-1.5c-0.9-0.4-1.9-0.5-3.1-0.5h-12.7v20.2h12.7c1.1,0,2.1-0.2,3.1-0.5c0.9-0.4,1.7-0.9,2.4-1.5
		c0.7-0.7,1.2-1.4,1.5-2.4c0.4-0.9,0.5-1.9,0.5-3.1V186.9z M252,184.3c0,1.3-0.2,2.5-0.5,3.5c-0.3,1-0.8,1.9-1.3,2.7
		c-0.6,0.8-1.2,1.5-1.9,2c-0.7,0.6-1.5,1-2.3,1.4c-0.8,0.4-1.6,0.6-2.4,0.8c-0.8,0.2-1.6,0.2-2.3,0.2l12,10.4h-8.9l-12-10.4h-4.1
		v-5.7h13c0.7-0.1,1.4-0.2,2-0.5c0.6-0.2,1.1-0.6,1.5-1c0.4-0.4,0.8-0.9,1-1.5c0.2-0.6,0.4-1.2,0.4-2v-3.6c0-0.3,0-0.6-0.1-0.7
		c-0.1-0.2-0.2-0.3-0.3-0.4c-0.1-0.1-0.3-0.1-0.4-0.1c-0.1,0-0.3,0-0.4,0h-19v25.9h-5.7v-28.8c0-0.4,0.1-0.8,0.2-1.1
		c0.1-0.4,0.3-0.7,0.6-0.9c0.3-0.3,0.6-0.5,0.9-0.6s0.7-0.2,1.1-0.2H245c1.3,0,2.4,0.2,3.2,0.7c0.9,0.5,1.6,1,2.2,1.7
		c0.6,0.7,1,1.5,1.2,2.3c0.2,0.8,0.4,1.6,0.4,2.3V184.3z M263,205.4h-5.7v-31.7h5.7V205.4z M300.9,173.7l-15,30.6
		c-0.2,0.5-0.6,0.9-1,1.1c-0.5,0.3-1,0.4-1.5,0.4c-0.5,0-1-0.1-1.5-0.4c-0.5-0.3-0.8-0.7-1.1-1.1l-15-30.6h6.4l11.1,22.8l11.2-22.8
		H300.9z M329.7,192.4h-18.1v-5.8h18.1V192.4z M332.3,205.4h-20.7c-0.8,0-1.7-0.1-2.6-0.4c-0.9-0.3-1.8-0.7-2.6-1.4
		c-0.8-0.6-1.5-1.5-2-2.5c-0.5-1-0.8-2.3-0.8-3.8v-20.7c0-0.4,0.1-0.8,0.2-1.1c0.1-0.4,0.3-0.7,0.6-0.9c0.3-0.3,0.6-0.5,0.9-0.6
		c0.4-0.1,0.7-0.2,1.1-0.2h25.9v5.7h-23v17.9c0,0.8,0.2,1.3,0.6,1.7s1,0.6,1.7,0.6h20.7V205.4z"/>
	<polygon class="st0" points="154.9,131.1 170.4,113 182.9,113 161.1,138.5 182.8,163.7 170.3,163.7 154.9,145.8 139.6,163.7 
		127,163.7 148.7,138.5 127,113 139.4,113 	"/>
	<path class="st0" d="M192.3,156.5h-6.4V121h6.4V156.5z M241.1,156.5h-6.5v-21.1l-11.4,20.1c-0.3,0.5-0.7,0.9-1.2,1.2
		c-0.5,0.3-1,0.4-1.6,0.4c-0.6,0-1.1-0.1-1.6-0.4c-0.5-0.3-0.9-0.7-1.2-1.2l-11.5-20.1v21.1h-6.4v-32.7c0-0.7,0.2-1.4,0.7-2
		c0.4-0.6,1-1,1.7-1.2c0.3-0.1,0.7-0.1,1-0.1c0.3,0,0.7,0.1,1,0.2c0.3,0.1,0.6,0.3,0.9,0.5c0.3,0.2,0.5,0.5,0.7,0.8l14.7,25.5
		l14.7-25.5c0.4-0.6,0.9-1.1,1.6-1.3c0.7-0.3,1.4-0.3,2.1-0.1c0.7,0.2,1.3,0.6,1.7,1.2c0.4,0.6,0.7,1.2,0.7,2V156.5z M283.4,153.3
		c0,0.5-0.1,0.9-0.2,1.3c-0.2,0.4-0.4,0.7-0.7,1c-0.3,0.3-0.6,0.5-1,0.7s-0.8,0.2-1.3,0.2h-14.5c-1.4,0-2.8-0.1-4.2-0.4
		c-1.4-0.3-2.8-0.8-4.1-1.4c-1.3-0.6-2.5-1.4-3.7-2.4c-1.2-1-2.2-2.1-3-3.4s-1.5-2.8-2-4.5c-0.5-1.7-0.7-3.6-0.7-5.7V121h6.4v17.7
		c0,1.8,0.3,3.3,0.8,4.6c0.5,1.3,1.1,2.3,1.9,3.1s1.6,1.5,2.5,2c0.9,0.5,1.8,0.8,2.6,1.1c0.8,0.2,1.6,0.4,2.2,0.4
		c0.6,0.1,1.1,0.1,1.3,0.1H277V121h6.4V153.3z M332.2,156.5h-6.5v-21.1l-11.4,20.1c-0.3,0.5-0.7,0.9-1.2,1.2c-0.5,0.3-1,0.4-1.6,0.4
		c-0.6,0-1.1-0.1-1.6-0.4c-0.5-0.3-0.9-0.7-1.2-1.2l-11.5-20.1v21.1h-6.4v-32.7c0-0.7,0.2-1.4,0.7-2c0.4-0.6,1-1,1.7-1.2
		c0.3-0.1,0.7-0.1,1-0.1c0.3,0,0.7,0.1,1,0.2c0.3,0.1,0.6,0.3,0.9,0.5c0.3,0.2,0.5,0.5,0.7,0.8l14.7,25.5l14.7-25.5
		c0.4-0.6,0.9-1.1,1.6-1.3c0.7-0.3,1.4-0.3,2.1-0.1c0.7,0.2,1.3,0.6,1.7,1.2c0.4,0.6,0.7,1.2,0.7,2V156.5z"/>
</g>
</svg>
