<?xml version="1.0" encoding="utf-8"?>
<!-- Generator: Adobe Illustrator 22.0.1, SVG Export Plug-In . SVG Version: 6.00 Build 0)  -->
<!DOCTYPE svg PUBLIC "-//W3C//DTD SVG 1.1//EN" "http://www.w3.org/Graphics/SVG/1.1/DTD/svg11.dtd">
<svg version="1.1" id="Layer_1" xmlns="http://www.w3.org/2000/svg" xmlns:xlink="http://www.w3.org/1999/xlink" x="0px" y="0px"
	 viewBox="0 0 300 300" style="enable-background:new 0 0 300 300;" xml:space="preserve">
<style type="text/css">
	.st0{fill:#FFFFFF;}
</style>
<g>
	<path class="st0" d="M101.6,121.9c0,1.5-0.2,2.9-0.6,4.1c-0.4,1.2-0.9,2.3-1.5,3.2c-0.6,0.9-1.4,1.7-2.2,2.3
		c-0.8,0.6-1.7,1.2-2.6,1.6c-0.9,0.4-1.8,0.7-2.8,0.9c-0.9,0.2-1.8,0.3-2.6,0.3H74.2v-6.7h15.1c0.9-0.1,1.6-0.2,2.3-0.5
		c0.7-0.3,1.3-0.7,1.8-1.1s0.9-1.1,1.2-1.7c0.3-0.7,0.4-1.4,0.4-2.3v-3c-0.1-0.8-0.3-1.6-0.5-2.3c-0.3-0.7-0.6-1.3-1.1-1.8
		c-0.5-0.5-1-0.9-1.7-1.2c-0.7-0.3-1.4-0.4-2.3-0.4h-15c-0.9,0-1.6,0.2-2,0.7c-0.5,0.5-0.7,1.1-0.7,2v27.4h-6.7v-27.4
		c0-1.7,0.3-3.2,0.9-4.4c0.6-1.2,1.4-2.2,2.3-2.9s1.9-1.3,3-1.6s2.1-0.5,3-0.5h15.1c1.5,0,2.9,0.2,4.1,0.6c1.2,0.4,2.3,0.9,3.2,1.5
		c0.9,0.6,1.7,1.4,2.3,2.2s1.2,1.7,1.6,2.6c0.4,0.9,0.7,1.8,0.9,2.8c0.2,0.9,0.3,1.8,0.3,2.6V121.9z M114,143.3h-6.7v-36.8h6.7
		V143.3z M155,113.2h-14.7v30.1h-6.7v-30.1H119v-6.7H155V113.2z M192.8,143.3h-24.1c-0.6,0-1.3-0.1-2-0.2c-0.7-0.1-1.4-0.4-2.1-0.7
		c-0.7-0.3-1.4-0.7-2-1.2s-1.2-1.1-1.7-1.8c-0.5-0.7-0.9-1.5-1.2-2.4c-0.3-0.9-0.4-1.9-0.4-3.1v-18.1c0-0.6,0.1-1.3,0.2-2
		c0.1-0.7,0.4-1.4,0.7-2.1c0.3-0.7,0.7-1.4,1.2-2c0.5-0.6,1.1-1.2,1.8-1.7c0.7-0.5,1.5-0.9,2.4-1.2s1.9-0.4,3.1-0.4h24.1v6.7h-24.1
		c-0.9,0-1.5,0.2-2,0.7c-0.5,0.5-0.7,1.1-0.7,2.1v18c0,0.9,0.2,1.5,0.7,2c0.5,0.5,1.1,0.7,2,0.7h24.1V143.3z M205.9,121.5h23.4v-15
		h6.7v36.8h-6.7v-15h-23.4v15h-6.7v-36.8h6.7V121.5z M88,164.7c0,1-0.1,1.8-0.4,2.6s-0.6,1.4-1,2c-0.4,0.6-0.9,1.1-1.4,1.5
		s-1.1,0.7-1.7,1c-0.6,0.3-1.2,0.4-1.8,0.6s-1.1,0.2-1.7,0.2h-9.5v-4.2h9.5c0.5,0,1-0.2,1.5-0.3c0.4-0.2,0.8-0.4,1.1-0.7
		c0.3-0.3,0.6-0.7,0.7-1.1c0.2-0.4,0.3-0.9,0.3-1.5v-1.9c-0.1-0.5-0.2-1-0.3-1.5c-0.2-0.4-0.4-0.8-0.7-1.1c-0.3-0.3-0.7-0.6-1.1-0.7
		s-0.9-0.3-1.5-0.3h-9.5c-0.6,0-1,0.1-1.3,0.4c-0.3,0.3-0.4,0.7-0.4,1.3v17.4h-4.2v-17.4c0-1.1,0.2-2,0.6-2.8s0.9-1.4,1.5-1.8
		c0.6-0.5,1.2-0.8,1.9-1c0.7-0.2,1.3-0.3,1.9-0.3h9.5c1,0,1.8,0.1,2.6,0.4c0.8,0.2,1.4,0.6,2,1c0.6,0.4,1.1,0.9,1.5,1.4
		c0.4,0.5,0.7,1.1,1,1.7c0.3,0.6,0.5,1.2,0.6,1.8c0.1,0.6,0.2,1.1,0.2,1.7V164.7z M110.8,168.8H97.4v-4.3h13.3V168.8z M112.7,178.3
		H97.4c-0.6,0-1.2-0.1-1.9-0.3c-0.7-0.2-1.3-0.5-1.9-1c-0.6-0.5-1.1-1.1-1.5-1.8c-0.4-0.8-0.6-1.7-0.6-2.8v-15.2
		c0-0.3,0.1-0.6,0.2-0.8c0.1-0.3,0.3-0.5,0.4-0.7c0.2-0.2,0.4-0.3,0.7-0.5s0.5-0.2,0.8-0.2h19v4.2H95.8v13.1c0,0.6,0.1,1,0.4,1.3
		c0.3,0.3,0.7,0.4,1.3,0.4h15.2V178.3z M140,162.8c0,1-0.1,1.8-0.4,2.6c-0.2,0.8-0.6,1.4-1,2c-0.4,0.6-0.9,1.1-1.4,1.5
		c-0.5,0.4-1.1,0.7-1.7,1c-0.6,0.3-1.2,0.5-1.8,0.6s-1.1,0.2-1.7,0.2l8.8,7.6h-6.5l-8.8-7.6h-3v-4.2h9.5c0.5,0,1-0.2,1.5-0.3
		c0.4-0.2,0.8-0.4,1.1-0.7s0.6-0.7,0.7-1.1c0.2-0.4,0.3-0.9,0.3-1.5v-2.7c0-0.2,0-0.4-0.1-0.5s-0.1-0.2-0.2-0.3
		c-0.1-0.1-0.2-0.1-0.3-0.1c-0.1,0-0.2,0-0.3,0H121v19.1h-4.2v-21.2c0-0.3,0.1-0.6,0.2-0.8c0.1-0.3,0.3-0.5,0.4-0.7
		c0.2-0.2,0.4-0.3,0.7-0.5s0.5-0.2,0.8-0.2h16c0.9,0,1.7,0.2,2.4,0.5c0.6,0.3,1.2,0.8,1.6,1.3c0.4,0.5,0.7,1.1,0.9,1.7
		s0.3,1.2,0.3,1.7V162.8z M163.5,168.8h-13.3v-4.3h13.3V168.8z M165.4,159.2h-16.9v19.1h-4.2v-21.2c0-0.3,0.1-0.6,0.2-0.8
		c0.1-0.3,0.3-0.5,0.4-0.7c0.2-0.2,0.4-0.3,0.7-0.5c0.3-0.1,0.5-0.2,0.8-0.2h19V159.2z M188,168.8h-13.3v-4.3H188V168.8z
		 M189.9,178.3h-15.2c-0.6,0-1.2-0.1-1.9-0.3c-0.7-0.2-1.3-0.5-1.9-1c-0.6-0.5-1.1-1.1-1.5-1.8c-0.4-0.8-0.6-1.7-0.6-2.8v-15.2
		c0-0.3,0.1-0.6,0.2-0.8c0.1-0.3,0.3-0.5,0.4-0.7c0.2-0.2,0.4-0.3,0.7-0.5c0.3-0.1,0.5-0.2,0.8-0.2h19v4.2h-16.9v13.1
		c0,0.6,0.1,1,0.4,1.3s0.7,0.4,1.3,0.4h15.2V178.3z M214.6,178.3h-15.2c-0.4,0-0.8,0-1.3-0.1c-0.4-0.1-0.9-0.2-1.3-0.4
		c-0.4-0.2-0.9-0.4-1.3-0.8c-0.4-0.3-0.8-0.7-1.1-1.1c-0.3-0.4-0.6-0.9-0.7-1.5c-0.2-0.6-0.3-1.2-0.3-2v-11.4c0-0.4,0-0.8,0.1-1.3
		c0.1-0.4,0.2-0.9,0.4-1.3c0.2-0.4,0.4-0.9,0.8-1.3s0.7-0.8,1.1-1.1c0.4-0.3,0.9-0.6,1.5-0.7s1.2-0.3,1.9-0.3h15.2v4.2h-15.2
		c-0.6,0-1,0.1-1.3,0.4s-0.4,0.7-0.4,1.3v11.4c0,0.5,0.1,1,0.4,1.3c0.3,0.3,0.7,0.4,1.3,0.4h15.2V178.3z M239.7,159.2h-9.3v19.1
		h-4.2v-19.1h-9.3V155h22.8V159.2z"/>
	<path class="st0" d="M241.5,198.4H57.7c-9.6,0-17.5-7.8-17.5-17.5v-73.5c0-9.6,7.8-17.5,17.5-17.5h183.8c9.6,0,17.5,7.8,17.5,17.5
		v73.5C259,190.6,251.2,198.4,241.5,198.4z M57.7,93.4c-7.7,0-14,6.3-14,14v73.5c0,7.7,6.3,14,14,14h183.8c7.7,0,14-6.3,14-14v-73.5
		c0-7.7-6.3-14-14-14H57.7z"/>
</g>
</svg>
