<?xml version="1.0" encoding="utf-8"?>
<!-- Generator: Adobe Illustrator 22.0.1, SVG Export Plug-In . SVG Version: 6.00 Build 0)  -->
<!DOCTYPE svg PUBLIC "-//W3C//DTD SVG 1.1//EN" "http://www.w3.org/Graphics/SVG/1.1/DTD/svg11.dtd">
<svg version="1.1" id="Layer_1" xmlns="http://www.w3.org/2000/svg" xmlns:xlink="http://www.w3.org/1999/xlink" x="0px" y="0px"
	 viewBox="0 0 300 300" style="enable-background:new 0 0 300 300;" xml:space="preserve">
<style type="text/css">
	.st0{clip-path:url(#SVGID_2_);}
	.st1{clip-path:url(#SVGID_4_);fill:#FFFFFF;}
	.st2{clip-path:url(#SVGID_6_);}
	.st3{clip-path:url(#SVGID_8_);fill:#FFFFFF;}
</style>
<g>
	<defs>
		<path id="SVGID_1_" d="M272.2,109.2c5.1,0,8.5-0.8,10.4-2.4s2.7-4.1,2.7-7.6s-0.9-5.9-2.8-7.2s-5.2-1.9-10.1-1.9H261v19.1H272.2z
			 M294.6,99.3c0,8.8-3.8,14.3-11.5,16.6l14,19.4h-11.4l-12.7-17.9H261v17.9h-9V82h19.8c8.1,0,14,1.4,17.5,4.1
			S294.6,93.3,294.6,99.3z M239.6,82v8.5h-28.4v14.1h25.5v8h-25.5v14.3h29.4v8.5h-38.3V82H239.6z M138.9,120.4L150.8,82h8.1
			l11.9,38.3L184.2,82h9.7l-18.6,53.3h-8.9l-11.2-36.5h-0.6l-11.2,36.5h-8.9L115.8,82h9.7L138.9,120.4z M103.4,128
			c-5.4,5.2-12,7.9-20,7.9s-14.6-2.6-20-7.9c-5.4-5.3-8.1-11.8-8.1-19.7s2.7-14.4,8.1-19.7c5.4-5.3,12-7.9,20-7.9s14.6,2.6,20,7.9
			c5.4,5.3,8.1,11.8,8.1,19.7S108.8,122.7,103.4,128z M96.7,94.6c-3.6-3.8-8.1-5.6-13.3-5.6c-5.3,0-9.7,1.9-13.4,5.6
			c-3.6,3.8-5.5,8.3-5.5,13.7s1.8,9.9,5.5,13.7c3.6,3.8,8.1,5.6,13.4,5.6c5.3,0,9.7-1.9,13.4-5.6c3.6-3.8,5.5-8.3,5.5-13.7
			S100.4,98.4,96.7,94.6z M26.1,111.5c5,0,8.4-1,10.2-2.9c1.8-1.9,2.7-4.7,2.7-8.4s-1.1-6.3-3.4-7.8c-2.3-1.5-5.9-2.3-10.7-2.3h-9.1
			v21.3H26.1z M24.9,82c8.1,0,14,1.6,17.7,4.7c3.7,3.1,5.6,7.9,5.6,14.3c0,6.5-1.9,11.2-5.7,14.2c-3.8,3-9.6,4.5-17.4,4.5h-9.5v15.6
			h-9V82H24.9z"/>
	</defs>
	<clipPath id="SVGID_2_">
		<use xlink:href="#SVGID_1_"  style="overflow:visible;"/>
	</clipPath>
	<g class="st0">
		<defs>
			<rect id="SVGID_3_" x="-280.8" y="-7400.6" width="4035.9" height="35874.9"/>
		</defs>
		<clipPath id="SVGID_4_">
			<use xlink:href="#SVGID_3_"  style="overflow:visible;"/>
		</clipPath>
		<rect x="-4.6" y="69.5" class="st1" width="312.8" height="77.5"/>
	</g>
</g>
<g>
	<defs>
		<path id="SVGID_5_" d="M237,147.6h51.8v11.8h-38.2v17.5h34.3v11.8h-34.3v17.8H290v11.8h-53V147.6z M188.7,206.4
			c4.3,0,8.2-1,11.7-3c3.5-2,6.2-4.7,8.1-8.3c2-3.5,2.9-7.6,2.9-12.1c0-4.5-1-8.6-3-12.2c-2-3.6-4.8-6.4-8.3-8.4
			c-3.5-2-7.5-3-11.9-3h-15.6v46.8H188.7z M188.3,147.6c7.1,0,13.4,1.5,19,4.5s10,7.2,13.1,12.6c3.2,5.4,4.7,11.5,4.7,18.3
			s-1.6,12.9-4.8,18.2c-3.2,5.3-7.6,9.5-13.3,12.6c-5.7,3-12.1,4.5-19.3,4.5H159v-70.6H188.3z M109.6,158.8c-4.3,0-8.3,1.1-12,3.2
			c-3.7,2.1-6.6,5-8.8,8.7s-3.2,7.7-3.2,12.2c0,4.4,1.1,8.5,3.3,12.2c2.2,3.7,5.1,6.6,8.8,8.8c3.7,2.2,7.7,3.2,12,3.2
			c4.2,0,8.2-1.1,11.8-3.2c3.6-2.2,6.5-5.1,8.6-8.8s3.2-7.8,3.2-12.2c0-4.4-1.1-8.5-3.2-12.2s-5-6.6-8.6-8.7
			C117.8,159.9,113.9,158.8,109.6,158.8z M109.4,146.7c7,0,13.4,1.6,19.1,4.7c5.8,3.2,10.3,7.5,13.6,13s4.9,11.6,4.9,18.4
			c0,6.7-1.6,12.9-4.9,18.4c-3.3,5.5-7.8,9.9-13.6,13.2c-5.8,3.2-12.1,4.8-19.1,4.8c-7,0-13.4-1.6-19.1-4.8
			c-5.8-3.2-10.3-7.6-13.6-13.2c-3.3-5.5-4.9-11.7-4.9-18.4c0-6.7,1.6-12.8,4.9-18.4c3.3-5.5,7.8-9.9,13.6-13
			C96.1,148.3,102.5,146.7,109.4,146.7z M59.7,168c-2.5-2.9-5.4-5.1-8.8-6.8c-3.4-1.6-6.8-2.4-10.3-2.4c-4.4,0-8.4,1-12,3.1
			c-3.6,2.1-6.5,5-8.6,8.6c-2.1,3.7-3.1,7.7-3.1,12.1c0,4.4,1,8.4,3.1,12.1c2.1,3.7,4.9,6.6,8.6,8.7c3.6,2.1,7.6,3.2,12,3.2
			c3.4,0,6.7-0.7,10.1-2.2c3.4-1.5,6.4-3.5,9-6.2l8,8.9c-3.7,3.8-8,6.7-12.9,8.9c-4.9,2.2-9.9,3.3-14.9,3.3c-6.8,0-13-1.6-18.7-4.8
			c-5.7-3.2-10.1-7.6-13.3-13.2C4.6,195.7,3,189.6,3,182.9c0-6.7,1.6-12.8,4.9-18.4s7.8-9.9,13.5-13c5.7-3.2,12-4.7,18.9-4.7
			c5,0,10,1,14.8,3c4.8,2,9,4.8,12.4,8.4L59.7,168z"/>
	</defs>
	<clipPath id="SVGID_6_">
		<use xlink:href="#SVGID_5_"  style="overflow:visible;"/>
	</clipPath>
	<g class="st2">
		<defs>
			<rect id="SVGID_7_" x="-280.8" y="-7400.6" width="4035.9" height="35874.9"/>
		</defs>
		<clipPath id="SVGID_8_">
			<use xlink:href="#SVGID_7_"  style="overflow:visible;"/>
		</clipPath>
		<rect x="-8.2" y="135.5" class="st3" width="309.4" height="95"/>
	</g>
</g>
</svg>
