<?xml version="1.0" encoding="utf-8"?>
<!-- Generator: Adobe Illustrator 21.1.0, SVG Export Plug-In . SVG Version: 6.00 Build 0)  -->
<!DOCTYPE svg PUBLIC "-//W3C//DTD SVG 1.1//EN" "http://www.w3.org/Graphics/SVG/1.1/DTD/svg11.dtd">
<svg version="1.1" xmlns="http://www.w3.org/2000/svg" xmlns:xlink="http://www.w3.org/1999/xlink" x="0px" y="0px"
	 viewBox="0 0 100 100" style="enable-background:new 0 0 100 100;" xml:space="preserve">
<style type="text/css">
	.st0{display:none;}
	.st1{display:inline;}
	.st2{clip-path:url(#SVGID_2_);}
	.st3{clip-path:url(#SVGID_4_);fill:#454545;}
	.st4{clip-path:url(#SVGID_6_);}
	.st5{clip-path:url(#SVGID_8_);fill:#E96C60;}
	.st6{clip-path:url(#SVGID_10_);}
	.st7{clip-path:url(#SVGID_12_);fill:#F0D458;}
	.st8{clip-path:url(#SVGID_14_);}
	.st9{clip-path:url(#SVGID_16_);fill:#45A6DD;}
	.st10{clip-path:url(#SVGID_18_);}
	.st11{clip-path:url(#SVGID_20_);fill:#454545;}
	.st12{clip-path:url(#SVGID_22_);}
	.st13{clip-path:url(#SVGID_24_);fill:#DBDADA;}
	.st14{clip-path:url(#SVGID_26_);}
	.st15{clip-path:url(#SVGID_28_);fill:#FFFFFF;}
	.st16{clip-path:url(#SVGID_30_);}
	.st17{clip-path:url(#SVGID_32_);fill:#B4B4B4;}
	.st18{clip-path:url(#SVGID_34_);}
	.st19{clip-path:url(#SVGID_36_);fill:#74C273;}
	.st20{clip-path:url(#SVGID_38_);}
	.st21{clip-path:url(#SVGID_40_);fill:#E6E6E5;}
	.st22{clip-path:url(#SVGID_42_);}
	.st23{clip-path:url(#SVGID_44_);fill:#E96C60;}
	.st24{clip-path:url(#SVGID_46_);}
	.st25{clip-path:url(#SVGID_48_);fill:#E96C60;}
	.st26{clip-path:url(#SVGID_50_);}
	.st27{clip-path:url(#SVGID_52_);fill:#454545;}
	.st28{clip-path:url(#SVGID_54_);}
	.st29{clip-path:url(#SVGID_56_);fill:#B4B4B4;}
	.st30{clip-path:url(#SVGID_58_);}
	.st31{clip-path:url(#SVGID_60_);fill:#454545;}
	.st32{clip-path:url(#SVGID_62_);}
	.st33{clip-path:url(#SVGID_64_);fill:#EAD8C6;}
	.st34{clip-path:url(#SVGID_66_);}
	.st35{clip-path:url(#SVGID_68_);fill:#E96C60;}
	.st36{clip-path:url(#SVGID_70_);}
	.st37{clip-path:url(#SVGID_72_);fill:#CA514C;}
	.st38{clip-path:url(#SVGID_74_);}
	.st39{clip-path:url(#SVGID_76_);fill:#5B7B85;}
	.st40{clip-path:url(#SVGID_78_);}
	.st41{clip-path:url(#SVGID_80_);fill:#223E49;}
	.st42{clip-path:url(#SVGID_82_);}
	.st43{clip-path:url(#SVGID_84_);fill:#B4B4B4;}
	.st44{clip-path:url(#SVGID_86_);}
	.st45{clip-path:url(#SVGID_88_);fill:#F0D458;}
	.st46{clip-path:url(#SVGID_90_);}
	.st47{clip-path:url(#SVGID_92_);fill:#A48C31;}
	.st48{fill:#282828;}
	.st49{fill:#454545;}
	.st50{fill:#59C2EF;}
	.st51{fill:#D1D3D4;}
	.st52{fill:#8F8F8F;}
	.st53{clip-path:url(#SVGID_94_);}
	.st54{clip-path:url(#SVGID_96_);fill:#45A6DD;}
	.st55{clip-path:url(#SVGID_98_);}
	.st56{clip-path:url(#SVGID_100_);fill:#FFFFFF;}
	.st57{clip-path:url(#SVGID_102_);}
	.st58{clip-path:url(#SVGID_104_);fill:#FFFFFF;}
	.st59{clip-path:url(#SVGID_106_);}
	.st60{clip-path:url(#SVGID_108_);fill:#FFFFFF;}
	.st61{clip-path:url(#SVGID_110_);}
	.st62{clip-path:url(#SVGID_112_);fill:#BDDDF5;}
	.st63{clip-path:url(#SVGID_114_);}
	.st64{clip-path:url(#SVGID_116_);fill:#FFFFFF;}
</style>
<g id="design" class="st0">
	<g class="st1">
		<defs>
			<path id="SVGID_1_" d="M82.4,25.9c-10.8-5.2-20.7-2.1-28.6,0.4c-7.1,2.3-11.2,3.4-13.8,0.1c-0.8-1.1-0.2-3.1,0.5-5.3
				c0.9-3.2,2.1-7.1-0.5-10.6c-3.3-4.4-10.8-3.8-15.7-0.4c-12,8.5-19.1,22.4-19.1,37.2c0,25.1,20.2,45.5,45,45.5
				c20.1,0,37.9-13.6,43.4-33.1C94.2,57.3,99.2,34.5,82.4,25.9 M69.8,55.4c-4.3,0-7.8-3.5-7.8-7.9s3.5-7.9,7.8-7.9
				c4.3,0,7.8,3.5,7.8,7.9S74.1,55.4,69.8,55.4"/>
		</defs>
		<clipPath id="SVGID_2_">
			<use xlink:href="#SVGID_1_"  style="overflow:visible;"/>
		</clipPath>
		<g class="st2">
			<defs>
				<rect id="SVGID_3_" x="-1927.3" y="-2271.9" width="3427.8" height="18595.8"/>
			</defs>
			<clipPath id="SVGID_4_">
				<use xlink:href="#SVGID_3_"  style="overflow:visible;"/>
			</clipPath>
			<rect x="-5.6" y="-3.1" class="st3" width="111" height="106.8"/>
		</g>
	</g>
	<g class="st1">
		<defs>
			<path id="SVGID_5_" d="M21.7,40.8c3.4,0,6.1,2.8,6.1,6.2c0,3.4-2.7,6.2-6.1,6.2s-6.1-2.8-6.1-6.2C15.6,43.6,18.3,40.8,21.7,40.8"
				/>
		</defs>
		<clipPath id="SVGID_6_">
			<use xlink:href="#SVGID_5_"  style="overflow:visible;"/>
		</clipPath>
		<g class="st4">
			<defs>
				<rect id="SVGID_7_" x="-2004.5" y="-2362.6" width="3561.7" height="19322.1"/>
			</defs>
			<clipPath id="SVGID_8_">
				<use xlink:href="#SVGID_7_"  style="overflow:visible;"/>
			</clipPath>
			<rect x="4.5" y="29.7" class="st5" width="34.5" height="34.6"/>
		</g>
	</g>
	<g class="st1">
		<defs>
			<path id="SVGID_9_" d="M31.9,61.4c3.4,0,6.1,2.8,6.1,6.2s-2.7,6.2-6.1,6.2c-3.4,0-6.1-2.8-6.1-6.2S28.5,61.4,31.9,61.4"/>
		</defs>
		<clipPath id="SVGID_10_">
			<use xlink:href="#SVGID_9_"  style="overflow:visible;"/>
		</clipPath>
		<g class="st6">
			<defs>
				<rect id="SVGID_11_" x="-2004.5" y="-2362.6" width="3561.7" height="19322.1"/>
			</defs>
			<clipPath id="SVGID_12_">
				<use xlink:href="#SVGID_11_"  style="overflow:visible;"/>
			</clipPath>
			<rect x="14.6" y="50.2" class="st7" width="34.5" height="34.6"/>
		</g>
	</g>
	<g class="st1">
		<defs>
			<path id="SVGID_13_" d="M54.3,69.6c3.4,0,6.1,2.8,6.1,6.2c0,3.4-2.7,6.2-6.1,6.2c-3.4,0-6.1-2.8-6.1-6.2
				C48.2,72.3,50.9,69.6,54.3,69.6"/>
		</defs>
		<clipPath id="SVGID_14_">
			<use xlink:href="#SVGID_13_"  style="overflow:visible;"/>
		</clipPath>
		<g class="st8">
			<defs>
				<rect id="SVGID_15_" x="-2004.5" y="-2362.6" width="3561.7" height="19322.1"/>
			</defs>
			<clipPath id="SVGID_16_">
				<use xlink:href="#SVGID_15_"  style="overflow:visible;"/>
			</clipPath>
			<rect x="37" y="58.5" class="st9" width="34.5" height="34.6"/>
		</g>
	</g>
</g>
<g id="diagnosis" class="st0">
	<g class="st1">
		<defs>
			<path id="SVGID_17_" d="M83.6,12H16.3c-3.5,0-6.3,3.3-6.3,7.4v59.2c0,1.4,0.9,2.5,2.1,2.5h75.7c1.2,0,2.1-1.1,2.1-2.5V19.4
				C89.9,15.3,87.1,12,83.6,12"/>
		</defs>
		<clipPath id="SVGID_18_">
			<use xlink:href="#SVGID_17_"  style="overflow:visible;"/>
		</clipPath>
		<g class="st10">
			<defs>
				<rect id="SVGID_19_" x="-1501.1" y="-2286.5" width="2689.3" height="17243.7"/>
			</defs>
			<clipPath id="SVGID_20_">
				<use xlink:href="#SVGID_19_"  style="overflow:visible;"/>
			</clipPath>
			<rect x="1.6" y="2.1" class="st11" width="96.8" height="88.9"/>
		</g>
	</g>
	<g class="st1">
		<defs>
			<path id="SVGID_21_" d="M1.6,73.7v4.9C1.6,85.4,6.3,91,12.1,91h75.7c5.8,0,10.5-5.5,10.5-12.3v-4.9H1.6z"/>
		</defs>
		<clipPath id="SVGID_22_">
			<use xlink:href="#SVGID_21_"  style="overflow:visible;"/>
		</clipPath>
		<g class="st12">
			<defs>
				<rect id="SVGID_23_" x="-1501.1" y="-2286.5" width="2689.3" height="17243.7"/>
			</defs>
			<clipPath id="SVGID_24_">
				<use xlink:href="#SVGID_23_"  style="overflow:visible;"/>
			</clipPath>
			<rect x="-6.8" y="63.7" class="st13" width="113.6" height="37.1"/>
		</g>
	</g>
	<g class="st1">
		<defs>
			<rect id="SVGID_25_" x="16.3" y="19.4" width="67.3" height="46.9"/>
		</defs>
		<clipPath id="SVGID_26_">
			<use xlink:href="#SVGID_25_"  style="overflow:visible;"/>
		</clipPath>
		<g class="st14">
			<defs>
				<rect id="SVGID_27_" x="-1501.1" y="-2286.5" width="2689.3" height="17243.7"/>
			</defs>
			<clipPath id="SVGID_28_">
				<use xlink:href="#SVGID_27_"  style="overflow:visible;"/>
			</clipPath>
			<rect x="7.9" y="9.5" class="st15" width="84.1" height="66.7"/>
		</g>
	</g>
	<g class="st1">
		<defs>
			<path id="SVGID_29_" d="M56.3,81.1H43.6c-2.3,0-4.2-2.2-4.2-4.9v-2.5h21v2.5C60.5,78.9,58.6,81.1,56.3,81.1"/>
		</defs>
		<clipPath id="SVGID_30_">
			<use xlink:href="#SVGID_29_"  style="overflow:visible;"/>
		</clipPath>
		<g class="st16">
			<defs>
				<rect id="SVGID_31_" x="-1501.1" y="-2286.5" width="2689.3" height="17243.7"/>
			</defs>
			<clipPath id="SVGID_32_">
				<use xlink:href="#SVGID_31_"  style="overflow:visible;"/>
			</clipPath>
			<rect x="31" y="63.7" class="st17" width="37.8" height="27.3"/>
		</g>
	</g>
	<g class="st1">
		<defs>
			<path id="SVGID_33_" d="M72.9,30.8c-0.2-0.6-0.6-1.1-1.1-1.3c-0.3-0.1-0.5-0.2-0.8-0.2H58.4c-1.2,0-2.1,1.1-2.1,2.5
				c0,1.4,0.9,2.5,2.1,2.5h7.5l-16,18.7L38.8,39.9c-0.8-1-2.2-1-3,0l-8.4,9.9c-0.8,1-0.8,2.5,0,3.5c0.8,1,2.2,1,3,0l6.9-8.1
				l11.1,13.1c0.4,0.5,0.9,0.7,1.5,0.7c0.5,0,1.1-0.2,1.5-0.7l17.4-20.5v8.8c0,1.4,0.9,2.5,2.1,2.5c1.2,0,2.1-1.1,2.1-2.5V31.7
				C73.1,31.4,73,31.1,72.9,30.8"/>
		</defs>
		<clipPath id="SVGID_34_">
			<use xlink:href="#SVGID_33_"  style="overflow:visible;"/>
		</clipPath>
		<g class="st18">
			<defs>
				<rect id="SVGID_35_" x="-1501.1" y="-2286.5" width="2689.3" height="17243.7"/>
			</defs>
			<clipPath id="SVGID_36_">
				<use xlink:href="#SVGID_35_"  style="overflow:visible;"/>
			</clipPath>
			<rect x="18.4" y="19.3" class="st19" width="63.1" height="49.5"/>
		</g>
	</g>
</g>
<g id="future-proofed" class="st0">
	<g class="st1">
		<defs>
			<path id="SVGID_37_" d="M50,8.8C38.2,16.9,22.5,21,10.7,21c0,28.5,11.8,56.9,39.3,69.1C77.5,77.9,89.3,49.4,89.3,21
				C77.5,21,61.8,16.9,50,8.8"/>
		</defs>
		<clipPath id="SVGID_38_">
			<use xlink:href="#SVGID_37_"  style="overflow:visible;"/>
		</clipPath>
		<g class="st20">
			<defs>
				<rect id="SVGID_39_" x="-2137.3" y="-2949.8" width="3791.3" height="20568"/>
			</defs>
			<clipPath id="SVGID_40_">
				<use xlink:href="#SVGID_39_"  style="overflow:visible;"/>
			</clipPath>
			<rect x="-1.1" y="-3.1" class="st21" width="102.2" height="105"/>
		</g>
	</g>
	<g class="st1">
		<defs>
			<path id="SVGID_41_" d="M14.7,49.4c5.6,17.5,16.8,32.6,35,40.6V49.4H14.7z"/>
		</defs>
		<clipPath id="SVGID_42_">
			<use xlink:href="#SVGID_41_"  style="overflow:visible;"/>
		</clipPath>
		<g class="st22">
			<defs>
				<rect id="SVGID_43_" x="-2137.3" y="-2949.8" width="3791.3" height="20568"/>
			</defs>
			<clipPath id="SVGID_44_">
				<use xlink:href="#SVGID_43_"  style="overflow:visible;"/>
			</clipPath>
			<rect x="2.8" y="37.6" class="st23" width="58.7" height="64.3"/>
		</g>
	</g>
	<g class="st1">
		<defs>
			<path id="SVGID_45_" d="M85,49.4c2.9-9.1,4.3-18.7,4.3-28.5C77.5,21,61.8,16.9,50,8.8v40.6H85z"/>
		</defs>
		<clipPath id="SVGID_46_">
			<use xlink:href="#SVGID_45_"  style="overflow:visible;"/>
		</clipPath>
		<g class="st24">
			<defs>
				<rect id="SVGID_47_" x="-2137.3" y="-2949.8" width="3791.3" height="20568"/>
			</defs>
			<clipPath id="SVGID_48_">
				<use xlink:href="#SVGID_47_"  style="overflow:visible;"/>
			</clipPath>
			<rect x="38.2" y="-3.1" class="st25" width="63" height="64.3"/>
		</g>
	</g>
	<g class="st1">
		<defs>
			<path id="SVGID_49_" d="M93.2,15.7h-3.9c-12,0-26.2-4.4-36-11.2L51.1,3c-0.7-0.5-1.5-0.5-2.2,0l-2.2,1.5
				c-9.8,6.8-24,11.2-36,11.2H6.8c-1.1,0-2,0.9-2,2v4.1c0,34.9,16,62.8,42.8,74.7l1.5,0.7c0.2,0.1,0.5,0.2,0.8,0.2
				c0.3,0,0.5-0.1,0.8-0.2l1.5-0.7c26.8-11.9,42.8-39.8,42.8-74.7v-4.1C95.2,16.6,94.3,15.7,93.2,15.7 M50,88.7
				C27.1,78.1,13.3,54,12.7,23.8C25.5,23.4,39.4,18.9,50,12c10.6,6.9,24.5,11.3,37.3,11.8C86.7,54,72.9,78.1,50,88.7"/>
		</defs>
		<clipPath id="SVGID_50_">
			<use xlink:href="#SVGID_49_"  style="overflow:visible;"/>
		</clipPath>
		<g class="st26">
			<defs>
				<rect id="SVGID_51_" x="-2137.3" y="-2949.8" width="3791.3" height="20568"/>
			</defs>
			<clipPath id="SVGID_52_">
				<use xlink:href="#SVGID_51_"  style="overflow:visible;"/>
			</clipPath>
			<rect x="-7" y="-9.2" class="st27" width="114" height="118.4"/>
		</g>
	</g>
</g>
<g id="on-page-editing" class="st0">
	<g class="st1">
		<defs>
			<path id="SVGID_53_" d="M77.2,94.7H7.6c-1.1,0-1.9-0.9-1.9-1.9V23.1c0-1.1,0.9-1.9,1.9-1.9h30.9c1.1,0,1.9,0.9,1.9,1.9
				c0,1.1-0.9,1.9-1.9,1.9h-29v65.7h65.7v-29c0-1.1,0.9-1.9,1.9-1.9c1.1,0,1.9,0.9,1.9,1.9v30.9C79.1,93.8,78.2,94.7,77.2,94.7"/>
		</defs>
		<clipPath id="SVGID_54_">
			<use xlink:href="#SVGID_53_"  style="overflow:visible;"/>
		</clipPath>
		<g class="st28">
			<defs>
				<rect id="SVGID_55_" x="-2007" y="-2958.7" width="3558.2" height="19303.1"/>
			</defs>
			<clipPath id="SVGID_56_">
				<use xlink:href="#SVGID_55_"  style="overflow:visible;"/>
			</clipPath>
			<rect x="-5.5" y="10.1" class="st29" width="95.7" height="95.7"/>
		</g>
	</g>
	<g class="st1">
		<defs>
			<path id="SVGID_57_" d="M35.2,73.2l-2.8-4.8l-4.8-2.8l-0.7,6.2c-0.2,1.2,0.9,2.3,2.2,2.2L35.2,73.2z"/>
		</defs>
		<clipPath id="SVGID_58_">
			<use xlink:href="#SVGID_57_"  style="overflow:visible;"/>
		</clipPath>
		<g class="st30">
			<defs>
				<rect id="SVGID_59_" x="-2007" y="-2958.7" width="3558.2" height="19303.1"/>
			</defs>
			<clipPath id="SVGID_60_">
				<use xlink:href="#SVGID_59_"  style="overflow:visible;"/>
			</clipPath>
			<rect x="15.8" y="54.5" class="st31" width="30.6" height="30.6"/>
		</g>
	</g>
	<g class="st1">
		<defs>
			<polygon id="SVGID_61_" points="48.5,72.3 47,55.4 30.3,54.1 28.8,66.1 36.4,73.7 			"/>
		</defs>
		<clipPath id="SVGID_62_">
			<use xlink:href="#SVGID_61_"  style="overflow:visible;"/>
		</clipPath>
		<g class="st32">
			<defs>
				<rect id="SVGID_63_" x="-2007" y="-2958.7" width="3558.2" height="19303.1"/>
			</defs>
			<clipPath id="SVGID_64_">
				<use xlink:href="#SVGID_63_"  style="overflow:visible;"/>
			</clipPath>
			<rect x="17.7" y="42.9" class="st33" width="41.9" height="41.9"/>
		</g>
	</g>
	<g class="st1">
		<defs>
			<polygon id="SVGID_65_" points="65.6,17.3 28.8,54.1 39.4,64.6 75.9,27.7 			"/>
		</defs>
		<clipPath id="SVGID_66_">
			<use xlink:href="#SVGID_65_"  style="overflow:visible;"/>
		</clipPath>
		<g class="st34">
			<defs>
				<rect id="SVGID_67_" x="-2007" y="-2958.7" width="3558.2" height="19303.1"/>
			</defs>
			<clipPath id="SVGID_68_">
				<use xlink:href="#SVGID_67_"  style="overflow:visible;"/>
			</clipPath>
			<rect x="17.7" y="6.2" class="st35" width="69.4" height="69.5"/>
		</g>
	</g>
	<g class="st1">
		<defs>
			
				<rect id="SVGID_69_" x="35.4" y="41.5" transform="matrix(0.7071 -0.7071 0.7071 0.7071 -15.9341 57.4764)" width="52" height="12.9"/>
		</defs>
		<clipPath id="SVGID_70_">
			<use xlink:href="#SVGID_69_"  style="overflow:visible;"/>
		</clipPath>
		<g class="st36">
			<defs>
				<rect id="SVGID_71_" x="-2007" y="-2958.7" width="3558.2" height="19303.1"/>
			</defs>
			<clipPath id="SVGID_72_">
				<use xlink:href="#SVGID_71_"  style="overflow:visible;"/>
			</clipPath>
			<rect x="27.4" y="13.9" class="st37" width="68.1" height="68.1"/>
		</g>
	</g>
	<g class="st1">
		<defs>
			<path id="SVGID_73_" d="M93.4,21.7L78,6.3c-0.8-0.8-2-0.8-2.7,0l-9.7,9.7l18.2,18.2l9.7-9.7C94.2,23.7,94.2,22.5,93.4,21.7"/>
		</defs>
		<clipPath id="SVGID_74_">
			<use xlink:href="#SVGID_73_"  style="overflow:visible;"/>
		</clipPath>
		<g class="st38">
			<defs>
				<rect id="SVGID_75_" x="-2007" y="-2958.7" width="3558.2" height="19303.1"/>
			</defs>
			<clipPath id="SVGID_76_">
				<use xlink:href="#SVGID_75_"  style="overflow:visible;"/>
			</clipPath>
			<rect x="54.4" y="-5.4" class="st39" width="50.7" height="50.7"/>
		</g>
	</g>
	<g class="st1">
		<defs>
			
				<rect id="SVGID_77_" x="74.1" y="13" transform="matrix(0.7071 -0.7071 0.7071 0.7071 3.9903 61.3349)" width="3.9" height="25.7"/>
		</defs>
		<clipPath id="SVGID_78_">
			<use xlink:href="#SVGID_77_"  style="overflow:visible;"/>
		</clipPath>
		<g class="st40">
			<defs>
				<rect id="SVGID_79_" x="-2007" y="-2958.7" width="3558.2" height="19303.1"/>
			</defs>
			<clipPath id="SVGID_80_">
				<use xlink:href="#SVGID_79_"  style="overflow:visible;"/>
			</clipPath>
			<rect x="54.4" y="4.3" class="st41" width="43.2" height="43.2"/>
		</g>
	</g>
</g>
<g id="hipaa" class="st0">
	<g class="st1">
		<defs>
			<path id="SVGID_81_" d="M33.8,36.6V27c0-7.4,7.3-13.4,16.2-13.4c8.9,0,16.2,6,16.2,13.4v9.6h9.3V27C75.5,15.4,64,6,50,6
				c-14,0-25.5,9.4-25.5,21v9.6H33.8z"/>
		</defs>
		<clipPath id="SVGID_82_">
			<use xlink:href="#SVGID_81_"  style="overflow:visible;"/>
		</clipPath>
		<g class="st42">
			<defs>
				<rect id="SVGID_83_" x="-1984.8" y="-3133.4" width="3520" height="19096"/>
			</defs>
			<clipPath id="SVGID_84_">
				<use xlink:href="#SVGID_83_"  style="overflow:visible;"/>
			</clipPath>
			<rect x="13.5" y="-5" class="st43" width="73" height="52.6"/>
		</g>
	</g>
	<g class="st1">
		<defs>
			<path id="SVGID_85_" d="M84.7,94H15.3c-2.6,0-4.6-1.7-4.6-3.8V40.4c0-2.1,2.1-3.8,4.6-3.8h69.5c2.6,0,4.6,1.7,4.6,3.8v49.7
				C89.4,92.3,87.3,94,84.7,94"/>
		</defs>
		<clipPath id="SVGID_86_">
			<use xlink:href="#SVGID_85_"  style="overflow:visible;"/>
		</clipPath>
		<g class="st44">
			<defs>
				<rect id="SVGID_87_" x="-1984.8" y="-3133.4" width="3520" height="19096"/>
			</defs>
			<clipPath id="SVGID_88_">
				<use xlink:href="#SVGID_87_"  style="overflow:visible;"/>
			</clipPath>
			<rect x="-0.4" y="25.6" class="st45" width="100.8" height="79.4"/>
		</g>
	</g>
	<g class="st1">
		<defs>
			<path id="SVGID_89_" d="M59.3,59.6c0-4.2-4.1-7.7-9.3-7.7c-5.1,0-9.3,3.4-9.3,7.7c0,2.8,1.9,5.3,4.6,6.6v12.5h9.3V66.2
				C57.4,64.8,59.3,62.4,59.3,59.6"/>
		</defs>
		<clipPath id="SVGID_90_">
			<use xlink:href="#SVGID_89_"  style="overflow:visible;"/>
		</clipPath>
		<g class="st46">
			<defs>
				<rect id="SVGID_91_" x="-1984.8" y="-3133.4" width="3520" height="19096"/>
			</defs>
			<clipPath id="SVGID_92_">
				<use xlink:href="#SVGID_91_"  style="overflow:visible;"/>
			</clipPath>
			<rect x="29.7" y="40.9" class="st47" width="40.5" height="48.8"/>
		</g>
	</g>
</g>
<g id="responsive" class="st0">
	<g class="st1">
		<rect x="42.1" y="67.9" class="st48" width="15.9" height="15.9"/>
		<path class="st49" d="M93.7,14.3H6.3c-1.1,0-2,0.9-2,2v57.6c0,1.1,0.9,2,2,2h87.3c1.1,0,2-0.9,2-2V16.3
			C95.7,15.2,94.8,14.3,93.7,14.3z"/>
		<path class="st49" d="M65.9,85.7H34.1c-1.1,0-2-0.9-2-2s0.9-2,2-2h31.8c1.1,0,2,0.9,2,2S67,85.7,65.9,85.7z"/>
		<path class="st50" d="M87.7,69.9H12.3c-1.1,0-2-0.9-2-2V22.2c0-1.1,0.9-2,2-2h75.4c1.1,0,2,0.9,2,2v45.7
			C89.7,69,88.8,69.9,87.7,69.9z"/>
		<path class="st51" d="M75.8,58.9H59.9c-2.2,0-4,1.8-4,4v27.8c0,2.2,1.8,4,4,4h15.9c2.2,0,4-1.8,4-4V62.9
			C79.8,60.7,78,58.9,75.8,58.9z"/>
		<path class="st52" d="M74.9,91.3h-14c-1.3,0-2.3-1-2.3-2.2V64.5c0-1.2,1-2.2,2.3-2.2h14c1.3,0,2.3,1,2.3,2.2v24.6
			C77.2,90.3,76.1,91.3,74.9,91.3z"/>
	</g>
</g>
<g id="doctor_profiles">
	<g>
		<defs>
			<path id="SVGID_93_" d="M90.2,28.1H9.8c-2.1,0-3.8,1.5-3.8,3.4v53.9c0,1.9,1.7,3.4,3.8,3.4h80.5c2.1,0,3.8-1.5,3.8-3.4V31.5
				C94.1,29.6,92.4,28.1,90.2,28.1 M59.6,41.6H40.4c-2.1,0-3.8-1.5-3.8-3.4s1.7-3.4,3.8-3.4h19.2c2.1,0,3.8,1.5,3.8,3.4
				S61.7,41.6,59.6,41.6"/>
		</defs>
		<clipPath id="SVGID_94_">
			<use xlink:href="#SVGID_93_"  style="overflow:visible;"/>
		</clipPath>
		<g class="st53">
			<defs>
				<rect id="SVGID_95_" x="-433.9" y="-4177.6" width="3100" height="16817.5"/>
			</defs>
			<clipPath id="SVGID_96_">
				<use xlink:href="#SVGID_95_"  style="overflow:visible;"/>
			</clipPath>
			<rect x="-3.8" y="18.4" class="st54" width="107.5" height="80"/>
		</g>
	</g>
	<g>
		<defs>
			<path id="SVGID_97_" d="M32.8,65.2L32.8,65.2c-3.2,0-5.7-2.3-5.7-5.1v-3.4c0-2.8,2.6-5.1,5.7-5.1c3.2,0,5.7,2.3,5.7,5.1v3.4
				C38.5,62.9,35.9,65.2,32.8,65.2"/>
		</defs>
		<clipPath id="SVGID_98_">
			<use xlink:href="#SVGID_97_"  style="overflow:visible;"/>
		</clipPath>
		<g class="st55">
			<defs>
				<rect id="SVGID_99_" x="-433.9" y="-4177.6" width="3100" height="16817.5"/>
			</defs>
			<clipPath id="SVGID_100_">
				<use xlink:href="#SVGID_99_"  style="overflow:visible;"/>
			</clipPath>
			<rect x="17.3" y="42" class="st56" width="30.9" height="32.9"/>
		</g>
	</g>
	<g>
		<defs>
			<path id="SVGID_101_" d="M80.7,60.1h-23c-1.1,0-1.9-0.8-1.9-1.7s0.9-1.7,1.9-1.7h23c1.1,0,1.9,0.8,1.9,1.7S81.7,60.1,80.7,60.1"
				/>
		</defs>
		<clipPath id="SVGID_102_">
			<use xlink:href="#SVGID_101_"  style="overflow:visible;"/>
		</clipPath>
		<g class="st57">
			<defs>
				<rect id="SVGID_103_" x="-433.9" y="-4177.6" width="3100" height="16817.5"/>
			</defs>
			<clipPath id="SVGID_104_">
				<use xlink:href="#SVGID_103_"  style="overflow:visible;"/>
			</clipPath>
			<rect x="46.1" y="47.1" class="st58" width="46.2" height="22.7"/>
		</g>
	</g>
	<g>
		<defs>
			<path id="SVGID_105_" d="M71.1,70.2H57.7c-1.1,0-1.9-0.8-1.9-1.7c0-0.9,0.9-1.7,1.9-1.7h13.4c1.1,0,1.9,0.8,1.9,1.7
				C73,69.5,72.1,70.2,71.1,70.2"/>
		</defs>
		<clipPath id="SVGID_106_">
			<use xlink:href="#SVGID_105_"  style="overflow:visible;"/>
		</clipPath>
		<g class="st59">
			<defs>
				<rect id="SVGID_107_" x="-433.9" y="-4177.6" width="3100" height="16817.5"/>
			</defs>
			<clipPath id="SVGID_108_">
				<use xlink:href="#SVGID_107_"  style="overflow:visible;"/>
			</clipPath>
			<rect x="46.1" y="57.2" class="st60" width="36.6" height="22.7"/>
		</g>
	</g>
	<g>
		<defs>
			<path id="SVGID_109_" d="M50,11.2c-5.3,0-9.6,3.8-9.6,8.4v16.8c0,0.9,0.9,1.7,1.9,1.7h15.3c1.1,0,1.9-0.8,1.9-1.7V19.7
				C59.6,15,55.3,11.2,50,11.2 M50,23c-2.1,0-3.8-1.5-3.8-3.4c0-1.9,1.7-3.4,3.8-3.4c2.1,0,3.8,1.5,3.8,3.4C53.8,21.5,52.1,23,50,23
				"/>
		</defs>
		<clipPath id="SVGID_110_">
			<use xlink:href="#SVGID_109_"  style="overflow:visible;"/>
		</clipPath>
		<g class="st61">
			<defs>
				<rect id="SVGID_111_" x="-433.9" y="-4177.6" width="3100" height="16817.5"/>
			</defs>
			<clipPath id="SVGID_112_">
				<use xlink:href="#SVGID_111_"  style="overflow:visible;"/>
			</clipPath>
			<rect x="30.7" y="1.6" class="st62" width="38.5" height="46.3"/>
		</g>
	</g>
	<g>
		<defs>
			<path id="SVGID_113_" d="M39.5,66.8h-1c-1.6,1-3.6,1.7-5.7,1.7c-2.1,0-4.1-0.6-5.7-1.7h-1c-3.7,0-6.7,2.6-6.7,5.9
				c0,1.4,1.3,2.5,2.9,2.5h21.1c1.6,0,2.9-1.1,2.9-2.5C46.2,69.5,43.2,66.8,39.5,66.8"/>
		</defs>
		<clipPath id="SVGID_114_">
			<use xlink:href="#SVGID_113_"  style="overflow:visible;"/>
		</clipPath>
		<g class="st63">
			<defs>
				<rect id="SVGID_115_" x="-433.9" y="-4177.6" width="3100" height="16817.5"/>
			</defs>
			<clipPath id="SVGID_116_">
				<use xlink:href="#SVGID_115_"  style="overflow:visible;"/>
			</clipPath>
			<rect x="9.7" y="57.2" class="st64" width="46.2" height="27.8"/>
		</g>
	</g>
</g>
</svg>
