<?xml version="1.0" encoding="utf-8"?>
<!-- Generator: Adobe Illustrator 21.1.0, SVG Export Plug-In . SVG Version: 6.00 Build 0)  -->
<!DOCTYPE svg PUBLIC "-//W3C//DTD SVG 1.1//EN" "http://www.w3.org/Graphics/SVG/1.1/DTD/svg11.dtd">
<svg version="1.1" xmlns="http://www.w3.org/2000/svg" xmlns:xlink="http://www.w3.org/1999/xlink" x="0px" y="0px"
	 viewBox="0 0 100 100" style="enable-background:new 0 0 100 100;" xml:space="preserve">
<style type="text/css">
	.st0{display:none;}
	.st1{display:inline;}
	.st2{clip-path:url(#SVGID_2_);}
	.st3{clip-path:url(#SVGID_4_);fill:#454545;}
	.st4{clip-path:url(#SVGID_6_);}
	.st5{clip-path:url(#SVGID_8_);fill:#E96C60;}
	.st6{clip-path:url(#SVGID_10_);}
	.st7{clip-path:url(#SVGID_12_);fill:#F0D458;}
	.st8{clip-path:url(#SVGID_14_);}
	.st9{clip-path:url(#SVGID_16_);fill:#45A6DD;}
	.st10{clip-path:url(#SVGID_18_);}
	.st11{clip-path:url(#SVGID_20_);fill:#454545;}
	.st12{clip-path:url(#SVGID_22_);}
	.st13{clip-path:url(#SVGID_24_);fill:#DBDADA;}
	.st14{clip-path:url(#SVGID_26_);}
	.st15{clip-path:url(#SVGID_28_);fill:#FFFFFF;}
	.st16{clip-path:url(#SVGID_30_);}
	.st17{clip-path:url(#SVGID_32_);fill:#B4B4B4;}
	.st18{clip-path:url(#SVGID_34_);}
	.st19{clip-path:url(#SVGID_36_);fill:#74C273;}
	.st20{clip-path:url(#SVGID_38_);}
	.st21{clip-path:url(#SVGID_40_);fill:#E6E6E5;}
	.st22{clip-path:url(#SVGID_42_);}
	.st23{clip-path:url(#SVGID_44_);fill:#E96C60;}
	.st24{clip-path:url(#SVGID_46_);}
	.st25{clip-path:url(#SVGID_48_);fill:#E96C60;}
	.st26{clip-path:url(#SVGID_50_);}
	.st27{clip-path:url(#SVGID_52_);fill:#454545;}
	.st28{clip-path:url(#SVGID_54_);}
	.st29{clip-path:url(#SVGID_56_);fill:#B4B4B4;}
	.st30{clip-path:url(#SVGID_58_);}
	.st31{clip-path:url(#SVGID_60_);fill:#454545;}
	.st32{clip-path:url(#SVGID_62_);}
	.st33{clip-path:url(#SVGID_64_);fill:#EAD8C6;}
	.st34{clip-path:url(#SVGID_66_);}
	.st35{clip-path:url(#SVGID_68_);fill:#E96C60;}
	.st36{clip-path:url(#SVGID_70_);}
	.st37{clip-path:url(#SVGID_72_);fill:#CA514C;}
	.st38{clip-path:url(#SVGID_74_);}
	.st39{clip-path:url(#SVGID_76_);fill:#5B7B85;}
	.st40{clip-path:url(#SVGID_78_);}
	.st41{clip-path:url(#SVGID_80_);fill:#223E49;}
	.st42{clip-path:url(#SVGID_82_);}
	.st43{clip-path:url(#SVGID_84_);fill:#B4B4B4;}
	.st44{clip-path:url(#SVGID_86_);}
	.st45{clip-path:url(#SVGID_88_);fill:#F0D458;}
	.st46{clip-path:url(#SVGID_90_);}
	.st47{clip-path:url(#SVGID_92_);fill:#A48C31;}
</style>
<g id="design" class="st0">
	<g class="st1">
		<defs>
			<path id="SVGID_1_" d="M86.1,23.1C74,17.3,63,20.8,54.2,23.6c-7.9,2.5-12.5,3.8-15.3,0.2c-0.9-1.2-0.2-3.5,0.5-5.9
				c1.1-3.5,2.4-8-0.5-11.8c-3.7-4.9-12.1-4.2-17.5-0.5C8,15.2,0,30.7,0,47.2c0,27.9,22.5,50.7,50.2,50.7
				c22.4,0,42.2-15.2,48.3-36.9C99.3,58.1,104.9,32.6,86.1,23.1 M72,56c-4.8,0-8.7-3.9-8.7-8.8s3.9-8.8,8.7-8.8
				c4.8,0,8.7,3.9,8.7,8.8S76.9,56,72,56"/>
		</defs>
		<clipPath id="SVGID_2_">
			<use xlink:href="#SVGID_1_"  style="overflow:visible;"/>
		</clipPath>
		<g class="st2">
			<defs>
				<rect id="SVGID_3_" x="-2154.1" y="-2538.3" width="3821" height="20728.7"/>
			</defs>
			<clipPath id="SVGID_4_">
				<use xlink:href="#SVGID_3_"  style="overflow:visible;"/>
			</clipPath>
			<rect x="-11.9" y="-9.3" class="st3" width="123.8" height="119.1"/>
		</g>
	</g>
	<g class="st1">
		<defs>
			<path id="SVGID_5_" d="M19.6,40.1c3.6,0,6.5,3,6.5,6.6c0,3.7-2.9,6.6-6.5,6.6c-3.6,0-6.5-3-6.5-6.6C13.1,43.1,16,40.1,19.6,40.1"
				/>
		</defs>
		<clipPath id="SVGID_6_">
			<use xlink:href="#SVGID_5_"  style="overflow:visible;"/>
		</clipPath>
		<g class="st4">
			<defs>
				<rect id="SVGID_7_" x="-2154.1" y="-2538.3" width="3821" height="20728.7"/>
			</defs>
			<clipPath id="SVGID_8_">
				<use xlink:href="#SVGID_7_"  style="overflow:visible;"/>
			</clipPath>
			<rect x="1.2" y="28.2" class="st5" width="37" height="37.1"/>
		</g>
	</g>
	<g class="st1">
		<defs>
			<path id="SVGID_9_" d="M30.6,62.2c3.6,0,6.5,3,6.5,6.6c0,3.7-2.9,6.6-6.5,6.6c-3.6,0-6.5-3-6.5-6.6C24,65.1,26.9,62.2,30.6,62.2"
				/>
		</defs>
		<clipPath id="SVGID_10_">
			<use xlink:href="#SVGID_9_"  style="overflow:visible;"/>
		</clipPath>
		<g class="st6">
			<defs>
				<rect id="SVGID_11_" x="-2154.1" y="-2538.3" width="3821" height="20728.7"/>
			</defs>
			<clipPath id="SVGID_12_">
				<use xlink:href="#SVGID_11_"  style="overflow:visible;"/>
			</clipPath>
			<rect x="12.1" y="50.2" class="st7" width="37" height="37.1"/>
		</g>
	</g>
	<g class="st1">
		<defs>
			<path id="SVGID_13_" d="M54.6,71c3.6,0,6.5,3,6.5,6.6s-2.9,6.6-6.5,6.6c-3.6,0-6.5-3-6.5-6.6S51,71,54.6,71"/>
		</defs>
		<clipPath id="SVGID_14_">
			<use xlink:href="#SVGID_13_"  style="overflow:visible;"/>
		</clipPath>
		<g class="st8">
			<defs>
				<rect id="SVGID_15_" x="-2154.1" y="-2538.3" width="3821" height="20728.7"/>
			</defs>
			<clipPath id="SVGID_16_">
				<use xlink:href="#SVGID_15_"  style="overflow:visible;"/>
			</clipPath>
			<rect x="36.1" y="59" class="st9" width="37" height="37.1"/>
		</g>
	</g>
</g>
<g id="diagnosis" class="st0">
	<g class="st1">
		<defs>
			<path id="SVGID_17_" d="M83.6,12H16.3c-3.5,0-6.3,3.3-6.3,7.4v59.2c0,1.4,0.9,2.5,2.1,2.5h75.7c1.2,0,2.1-1.1,2.1-2.5V19.4
				C89.9,15.3,87.1,12,83.6,12"/>
		</defs>
		<clipPath id="SVGID_18_">
			<use xlink:href="#SVGID_17_"  style="overflow:visible;"/>
		</clipPath>
		<g class="st10">
			<defs>
				<rect id="SVGID_19_" x="-1501.1" y="-2286.5" width="2689.3" height="17243.7"/>
			</defs>
			<clipPath id="SVGID_20_">
				<use xlink:href="#SVGID_19_"  style="overflow:visible;"/>
			</clipPath>
			<rect x="1.6" y="2.1" class="st11" width="96.8" height="88.9"/>
		</g>
	</g>
	<g class="st1">
		<defs>
			<path id="SVGID_21_" d="M1.6,73.7v4.9C1.6,85.4,6.3,91,12.1,91h75.7c5.8,0,10.5-5.5,10.5-12.3v-4.9H1.6z"/>
		</defs>
		<clipPath id="SVGID_22_">
			<use xlink:href="#SVGID_21_"  style="overflow:visible;"/>
		</clipPath>
		<g class="st12">
			<defs>
				<rect id="SVGID_23_" x="-1501.1" y="-2286.5" width="2689.3" height="17243.7"/>
			</defs>
			<clipPath id="SVGID_24_">
				<use xlink:href="#SVGID_23_"  style="overflow:visible;"/>
			</clipPath>
			<rect x="-6.8" y="63.7" class="st13" width="113.6" height="37.1"/>
		</g>
	</g>
	<g class="st1">
		<defs>
			<rect id="SVGID_25_" x="16.3" y="19.4" width="67.3" height="46.9"/>
		</defs>
		<clipPath id="SVGID_26_">
			<use xlink:href="#SVGID_25_"  style="overflow:visible;"/>
		</clipPath>
		<g class="st14">
			<defs>
				<rect id="SVGID_27_" x="-1501.1" y="-2286.5" width="2689.3" height="17243.7"/>
			</defs>
			<clipPath id="SVGID_28_">
				<use xlink:href="#SVGID_27_"  style="overflow:visible;"/>
			</clipPath>
			<rect x="7.9" y="9.5" class="st15" width="84.1" height="66.7"/>
		</g>
	</g>
	<g class="st1">
		<defs>
			<path id="SVGID_29_" d="M56.3,81.1H43.6c-2.3,0-4.2-2.2-4.2-4.9v-2.5h21v2.5C60.5,78.9,58.6,81.1,56.3,81.1"/>
		</defs>
		<clipPath id="SVGID_30_">
			<use xlink:href="#SVGID_29_"  style="overflow:visible;"/>
		</clipPath>
		<g class="st16">
			<defs>
				<rect id="SVGID_31_" x="-1501.1" y="-2286.5" width="2689.3" height="17243.7"/>
			</defs>
			<clipPath id="SVGID_32_">
				<use xlink:href="#SVGID_31_"  style="overflow:visible;"/>
			</clipPath>
			<rect x="31" y="63.7" class="st17" width="37.8" height="27.3"/>
		</g>
	</g>
	<g class="st1">
		<defs>
			<path id="SVGID_33_" d="M72.9,30.8c-0.2-0.6-0.6-1.1-1.1-1.3c-0.3-0.1-0.5-0.2-0.8-0.2H58.4c-1.2,0-2.1,1.1-2.1,2.5
				c0,1.4,0.9,2.5,2.1,2.5h7.5l-16,18.7L38.8,39.9c-0.8-1-2.2-1-3,0l-8.4,9.9c-0.8,1-0.8,2.5,0,3.5c0.8,1,2.2,1,3,0l6.9-8.1
				l11.1,13.1c0.4,0.5,0.9,0.7,1.5,0.7c0.5,0,1.1-0.2,1.5-0.7l17.4-20.5v8.8c0,1.4,0.9,2.5,2.1,2.5c1.2,0,2.1-1.1,2.1-2.5V31.7
				C73.1,31.4,73,31.1,72.9,30.8"/>
		</defs>
		<clipPath id="SVGID_34_">
			<use xlink:href="#SVGID_33_"  style="overflow:visible;"/>
		</clipPath>
		<g class="st18">
			<defs>
				<rect id="SVGID_35_" x="-1501.1" y="-2286.5" width="2689.3" height="17243.7"/>
			</defs>
			<clipPath id="SVGID_36_">
				<use xlink:href="#SVGID_35_"  style="overflow:visible;"/>
			</clipPath>
			<rect x="18.4" y="19.3" class="st19" width="63.1" height="49.5"/>
		</g>
	</g>
</g>
<g id="future-proofed" class="st0">
	<g class="st1">
		<defs>
			<path id="SVGID_37_" d="M50,8.8C38.2,16.9,22.5,21,10.7,21c0,28.5,11.8,56.9,39.3,69.1C77.5,77.9,89.3,49.4,89.3,21
				C77.5,21,61.8,16.9,50,8.8"/>
		</defs>
		<clipPath id="SVGID_38_">
			<use xlink:href="#SVGID_37_"  style="overflow:visible;"/>
		</clipPath>
		<g class="st20">
			<defs>
				<rect id="SVGID_39_" x="-2137.3" y="-2949.8" width="3791.3" height="20568"/>
			</defs>
			<clipPath id="SVGID_40_">
				<use xlink:href="#SVGID_39_"  style="overflow:visible;"/>
			</clipPath>
			<rect x="-1.1" y="-3.1" class="st21" width="102.2" height="105"/>
		</g>
	</g>
	<g class="st1">
		<defs>
			<path id="SVGID_41_" d="M14.7,49.4c5.6,17.5,16.8,32.6,35,40.6V49.4H14.7z"/>
		</defs>
		<clipPath id="SVGID_42_">
			<use xlink:href="#SVGID_41_"  style="overflow:visible;"/>
		</clipPath>
		<g class="st22">
			<defs>
				<rect id="SVGID_43_" x="-2137.3" y="-2949.8" width="3791.3" height="20568"/>
			</defs>
			<clipPath id="SVGID_44_">
				<use xlink:href="#SVGID_43_"  style="overflow:visible;"/>
			</clipPath>
			<rect x="2.8" y="37.6" class="st23" width="58.7" height="64.3"/>
		</g>
	</g>
	<g class="st1">
		<defs>
			<path id="SVGID_45_" d="M85,49.4c2.9-9.1,4.3-18.7,4.3-28.5C77.5,21,61.8,16.9,50,8.8v40.6H85z"/>
		</defs>
		<clipPath id="SVGID_46_">
			<use xlink:href="#SVGID_45_"  style="overflow:visible;"/>
		</clipPath>
		<g class="st24">
			<defs>
				<rect id="SVGID_47_" x="-2137.3" y="-2949.8" width="3791.3" height="20568"/>
			</defs>
			<clipPath id="SVGID_48_">
				<use xlink:href="#SVGID_47_"  style="overflow:visible;"/>
			</clipPath>
			<rect x="38.2" y="-3.1" class="st25" width="63" height="64.3"/>
		</g>
	</g>
	<g class="st1">
		<defs>
			<path id="SVGID_49_" d="M93.2,15.7h-3.9c-12,0-26.2-4.4-36-11.2L51.1,3c-0.7-0.5-1.5-0.5-2.2,0l-2.2,1.5
				c-9.8,6.8-24,11.2-36,11.2H6.8c-1.1,0-2,0.9-2,2v4.1c0,34.9,16,62.8,42.8,74.7l1.5,0.7c0.2,0.1,0.5,0.2,0.8,0.2
				c0.3,0,0.5-0.1,0.8-0.2l1.5-0.7c26.8-11.9,42.8-39.8,42.8-74.7v-4.1C95.2,16.6,94.3,15.7,93.2,15.7 M50,88.7
				C27.1,78.1,13.3,54,12.7,23.8C25.5,23.4,39.4,18.9,50,12c10.6,6.9,24.5,11.3,37.3,11.8C86.7,54,72.9,78.1,50,88.7"/>
		</defs>
		<clipPath id="SVGID_50_">
			<use xlink:href="#SVGID_49_"  style="overflow:visible;"/>
		</clipPath>
		<g class="st26">
			<defs>
				<rect id="SVGID_51_" x="-2137.3" y="-2949.8" width="3791.3" height="20568"/>
			</defs>
			<clipPath id="SVGID_52_">
				<use xlink:href="#SVGID_51_"  style="overflow:visible;"/>
			</clipPath>
			<rect x="-7" y="-9.2" class="st27" width="114" height="118.4"/>
		</g>
	</g>
</g>
<g id="on-page-editing" class="st0">
	<g class="st1">
		<defs>
			<path id="SVGID_53_" d="M77.2,94.7H7.6c-1.1,0-1.9-0.9-1.9-1.9V23.1c0-1.1,0.9-1.9,1.9-1.9h30.9c1.1,0,1.9,0.9,1.9,1.9
				c0,1.1-0.9,1.9-1.9,1.9h-29v65.7h65.7v-29c0-1.1,0.9-1.9,1.9-1.9c1.1,0,1.9,0.9,1.9,1.9v30.9C79.1,93.8,78.2,94.7,77.2,94.7"/>
		</defs>
		<clipPath id="SVGID_54_">
			<use xlink:href="#SVGID_53_"  style="overflow:visible;"/>
		</clipPath>
		<g class="st28">
			<defs>
				<rect id="SVGID_55_" x="-2007" y="-2958.7" width="3558.2" height="19303.1"/>
			</defs>
			<clipPath id="SVGID_56_">
				<use xlink:href="#SVGID_55_"  style="overflow:visible;"/>
			</clipPath>
			<rect x="-5.5" y="10.1" class="st29" width="95.7" height="95.7"/>
		</g>
	</g>
	<g class="st1">
		<defs>
			<path id="SVGID_57_" d="M35.2,73.2l-2.8-4.8l-4.8-2.8l-0.7,6.2c-0.2,1.2,0.9,2.3,2.2,2.2L35.2,73.2z"/>
		</defs>
		<clipPath id="SVGID_58_">
			<use xlink:href="#SVGID_57_"  style="overflow:visible;"/>
		</clipPath>
		<g class="st30">
			<defs>
				<rect id="SVGID_59_" x="-2007" y="-2958.7" width="3558.2" height="19303.1"/>
			</defs>
			<clipPath id="SVGID_60_">
				<use xlink:href="#SVGID_59_"  style="overflow:visible;"/>
			</clipPath>
			<rect x="15.8" y="54.5" class="st31" width="30.6" height="30.6"/>
		</g>
	</g>
	<g class="st1">
		<defs>
			<polygon id="SVGID_61_" points="48.5,72.3 47,55.4 30.3,54.1 28.8,66.1 36.4,73.7 			"/>
		</defs>
		<clipPath id="SVGID_62_">
			<use xlink:href="#SVGID_61_"  style="overflow:visible;"/>
		</clipPath>
		<g class="st32">
			<defs>
				<rect id="SVGID_63_" x="-2007" y="-2958.7" width="3558.2" height="19303.1"/>
			</defs>
			<clipPath id="SVGID_64_">
				<use xlink:href="#SVGID_63_"  style="overflow:visible;"/>
			</clipPath>
			<rect x="17.7" y="42.9" class="st33" width="41.9" height="41.9"/>
		</g>
	</g>
	<g class="st1">
		<defs>
			<polygon id="SVGID_65_" points="65.6,17.3 28.8,54.1 39.4,64.6 75.9,27.7 			"/>
		</defs>
		<clipPath id="SVGID_66_">
			<use xlink:href="#SVGID_65_"  style="overflow:visible;"/>
		</clipPath>
		<g class="st34">
			<defs>
				<rect id="SVGID_67_" x="-2007" y="-2958.7" width="3558.2" height="19303.1"/>
			</defs>
			<clipPath id="SVGID_68_">
				<use xlink:href="#SVGID_67_"  style="overflow:visible;"/>
			</clipPath>
			<rect x="17.7" y="6.2" class="st35" width="69.4" height="69.5"/>
		</g>
	</g>
	<g class="st1">
		<defs>
			
				<rect id="SVGID_69_" x="35.4" y="41.5" transform="matrix(0.7071 -0.7071 0.7071 0.7071 -15.9341 57.4764)" width="52" height="12.9"/>
		</defs>
		<clipPath id="SVGID_70_">
			<use xlink:href="#SVGID_69_"  style="overflow:visible;"/>
		</clipPath>
		<g class="st36">
			<defs>
				<rect id="SVGID_71_" x="-2007" y="-2958.7" width="3558.2" height="19303.1"/>
			</defs>
			<clipPath id="SVGID_72_">
				<use xlink:href="#SVGID_71_"  style="overflow:visible;"/>
			</clipPath>
			<rect x="27.4" y="13.9" class="st37" width="68.1" height="68.1"/>
		</g>
	</g>
	<g class="st1">
		<defs>
			<path id="SVGID_73_" d="M93.4,21.7L78,6.3c-0.8-0.8-2-0.8-2.7,0l-9.7,9.7l18.2,18.2l9.7-9.7C94.2,23.7,94.2,22.5,93.4,21.7"/>
		</defs>
		<clipPath id="SVGID_74_">
			<use xlink:href="#SVGID_73_"  style="overflow:visible;"/>
		</clipPath>
		<g class="st38">
			<defs>
				<rect id="SVGID_75_" x="-2007" y="-2958.7" width="3558.2" height="19303.1"/>
			</defs>
			<clipPath id="SVGID_76_">
				<use xlink:href="#SVGID_75_"  style="overflow:visible;"/>
			</clipPath>
			<rect x="54.4" y="-5.4" class="st39" width="50.7" height="50.7"/>
		</g>
	</g>
	<g class="st1">
		<defs>
			
				<rect id="SVGID_77_" x="74.1" y="13" transform="matrix(0.7071 -0.7071 0.7071 0.7071 3.9903 61.3349)" width="3.9" height="25.7"/>
		</defs>
		<clipPath id="SVGID_78_">
			<use xlink:href="#SVGID_77_"  style="overflow:visible;"/>
		</clipPath>
		<g class="st40">
			<defs>
				<rect id="SVGID_79_" x="-2007" y="-2958.7" width="3558.2" height="19303.1"/>
			</defs>
			<clipPath id="SVGID_80_">
				<use xlink:href="#SVGID_79_"  style="overflow:visible;"/>
			</clipPath>
			<rect x="54.4" y="4.3" class="st41" width="43.2" height="43.2"/>
		</g>
	</g>
</g>
<g id="Layer_5">
	<g>
		<defs>
			<path id="SVGID_81_" d="M33.8,36.6V27c0-7.4,7.3-13.4,16.2-13.4c8.9,0,16.2,6,16.2,13.4v9.6h9.3V27C75.5,15.4,64,6,50,6
				c-14,0-25.5,9.4-25.5,21v9.6H33.8z"/>
		</defs>
		<clipPath id="SVGID_82_">
			<use xlink:href="#SVGID_81_"  style="overflow:visible;"/>
		</clipPath>
		<g class="st42">
			<defs>
				<rect id="SVGID_83_" x="-1984.8" y="-3133.4" width="3520" height="19096"/>
			</defs>
			<clipPath id="SVGID_84_">
				<use xlink:href="#SVGID_83_"  style="overflow:visible;"/>
			</clipPath>
			<rect x="13.5" y="-5" class="st43" width="73" height="52.6"/>
		</g>
	</g>
	<g>
		<defs>
			<path id="SVGID_85_" d="M84.7,94H15.3c-2.6,0-4.6-1.7-4.6-3.8V40.4c0-2.1,2.1-3.8,4.6-3.8h69.5c2.6,0,4.6,1.7,4.6,3.8v49.7
				C89.4,92.3,87.3,94,84.7,94"/>
		</defs>
		<clipPath id="SVGID_86_">
			<use xlink:href="#SVGID_85_"  style="overflow:visible;"/>
		</clipPath>
		<g class="st44">
			<defs>
				<rect id="SVGID_87_" x="-1984.8" y="-3133.4" width="3520" height="19096"/>
			</defs>
			<clipPath id="SVGID_88_">
				<use xlink:href="#SVGID_87_"  style="overflow:visible;"/>
			</clipPath>
			<rect x="-0.4" y="25.6" class="st45" width="100.8" height="79.4"/>
		</g>
	</g>
	<g>
		<defs>
			<path id="SVGID_89_" d="M59.3,59.6c0-4.2-4.1-7.7-9.3-7.7c-5.1,0-9.3,3.4-9.3,7.7c0,2.8,1.9,5.3,4.6,6.6v12.5h9.3V66.2
				C57.4,64.8,59.3,62.4,59.3,59.6"/>
		</defs>
		<clipPath id="SVGID_90_">
			<use xlink:href="#SVGID_89_"  style="overflow:visible;"/>
		</clipPath>
		<g class="st46">
			<defs>
				<rect id="SVGID_91_" x="-1984.8" y="-3133.4" width="3520" height="19096"/>
			</defs>
			<clipPath id="SVGID_92_">
				<use xlink:href="#SVGID_91_"  style="overflow:visible;"/>
			</clipPath>
			<rect x="29.7" y="40.9" class="st47" width="40.5" height="48.8"/>
		</g>
	</g>
</g>
</svg>
