<?xml version="1.0" encoding="utf-8"?>
<!-- Generator: Adobe Illustrator 22.0.1, SVG Export Plug-In . SVG Version: 6.00 Build 0)  -->
<!DOCTYPE svg PUBLIC "-//W3C//DTD SVG 1.1//EN" "http://www.w3.org/Graphics/SVG/1.1/DTD/svg11.dtd">
<svg version="1.1" id="Layer_1" xmlns="http://www.w3.org/2000/svg" xmlns:xlink="http://www.w3.org/1999/xlink" x="0px" y="0px"
	 viewBox="0 0 1000 151" style="enable-background:new 0 0 1000 151;" xml:space="preserve">
<style type="text/css">
	.st0{fill:#FFFFFF;}
	.st1{fill:#1CB24B;}
	.st2{fill:#A7A9AC;}
	.st3{fill-rule:evenodd;clip-rule:evenodd;fill:#1CB24B;}
</style>
<g>
	<path class="st0" d="M767.6,93.8c0,1.4-0.6,2.5-1.8,3.3c-1.1,0.7-2.3,1.1-3.8,1.1c-1.5,0-2.8-0.4-3.8-1.1c-1.2-0.8-1.8-1.9-1.8-3.4
		c0-1.4,0.6-2.5,1.8-3.3c1.1-0.7,2.4-1.1,3.8-1.1c1.4,0,2.7,0.4,3.8,1.1C767,91.3,767.6,92.4,767.6,93.8z"/>
	<path class="st1" d="M306.8,86.2c0,8.9-7.7,13.4-23.1,13.4h-14.1c-6.2,0-11.1-0.8-14.7-2.4c-5.5-2.2-8.2-5.9-8.2-10.9V63.3
		c0-9,7.7-13.5,23-13.5h14.1c7.2,0,12.2,0.6,15.1,1.9c5.3,2,7.9,5.9,7.9,11.6V86.2z M297.7,86V63.5c0-4.2-4.6-6.3-13.8-6.3h-14.4
		c-9.3,0-13.9,2.1-13.9,6.3V86c0,4.1,4.6,6.1,13.9,6.1H284C293.1,92.1,297.7,90.1,297.7,86z"/>
	<path class="st1" d="M372.2,96.3c0,2.1-1.1,3.2-3.2,3.2H340c-6.6,0-11.8-0.6-15.5-1.8c-5.7-2-8.6-5.8-8.6-11.3V53
		c0-2.1,1.1-3.2,3.2-3.2c2,0,3.3,0.1,3.9,0.2c1.3,0.4,2,1.4,2,2.9v33.4c0,2.6,2.1,4.3,6.3,5.1c1.3,0.4,4.4,0.5,9.3,0.5h28.6
		C371.2,92.1,372.2,93.5,372.2,96.3z"/>
	<path class="st1" d="M435.4,74.7c0,2.5-0.8,4-3,4H389v17.7c0,2.1-1.1,3.2-3.2,3.2c-2.3,0-3.6-0.1-3.9-0.3c-1.3-0.4-2-1.4-2-2.9
		V61.5c0-4,2.6-7,7.7-9.1c3.9-1.6,8.2-2.4,12.9-2.4h6.8c2.1,0,3.2,1.4,3.2,4.2c0,2.1-1.1,3.2-3.2,3.2c-12.2,0-18.3,1.5-18.3,4.5v9.4
		h43.4C434.6,71.2,435.4,72.2,435.4,74.7z"/>
	<path class="st0" d="M598,52.8c0,0.5-0.1,1-0.4,1.5l-19.6,41.5c-1.2,2.5-3.1,3.7-5.6,3.7c-2.5,0-4.3-1.1-5.4-3.4l-15.7-33.5
		l-16.2,33.6c-1,2-2.7,3-5.3,3c-2.7,0-4.6-1.1-5.6-3.2l-19.5-41.6c-0.2-0.5-0.4-1-0.4-1.4c0-1.1,0.6-1.9,1.7-2.6
		c1-0.5,2-0.8,3.2-0.8c2,0,3.3,0.7,3.9,2l16.7,35.5L545.8,53c1.1-2.5,3-3.7,5.5-3.7c0.9,0,1.9,0.4,3,1.1c1.1,0.7,1.8,1.4,2.2,2.3
		l16.2,34.5l16.5-35.5c0.6-1.4,2-2,4.2-2c1.1,0,2.1,0.2,3,0.7C597.5,51,598,51.8,598,52.8z"/>
	<path class="st0" d="M613.3,96.3c0,2.1-1.1,3.2-3.2,3.2c-0.9,0-1.7,0-2.4-0.1c-0.7,0-1.2-0.1-1.6-0.1c-1.3-0.4-2-1.4-2-3V53
		c0-1.6,0.6-2.6,1.9-3c0.3-0.1,0.8-0.1,1.4-0.1c0.7,0,1.5-0.1,2.5-0.1c2.1,0,3.2,1.1,3.2,3.2V96.3z"/>
	<path class="st0" d="M683.5,94.2c0,3.8-1.7,5.7-5,5.7c-1.5,0-3.2-0.8-5.2-2.4l-42.3-36v34.8c0,1.6-0.7,2.6-2,3
		c-0.4,0.1-0.9,0.1-1.5,0.1c-0.7,0-1.4,0.1-2.4,0.1c-2.1,0-3.2-1.1-3.2-3.2V54.9c0-3.6,1.6-5.4,4.7-5.4c2,0,4,0.9,6,2.6l41.8,35.6
		V53c0-1.6,0.7-2.6,2-3c0.4-0.1,0.9-0.1,1.5-0.1c0.7,0,1.4-0.1,2.4-0.1c2.1,0,3.2,1.1,3.2,3.2V94.2z"/>
	<path class="st2" d="M829.1,54c0,2.1-1.1,3.2-3.2,3.2h-32.3c-7.8,0-11.8,1.6-11.8,4.7v24.6c0,3.7,4.3,5.5,13,5.5h30.8
		c2.2,0,3.3,1.2,3.3,3.7c0,2.5-1.1,3.8-3.3,3.8h-30.8c-4.2,0-7.2-0.2-9-0.5c-2-0.4-4.1-1.1-6.2-2.2c-2.5-1.3-4.2-2.6-5.1-4
		c-1.2-1.6-1.8-3.6-1.8-6.2V62c0-3.1,1.4-5.8,4.3-8c2.4-1.8,5.3-3,8.7-3.7c0.9-0.1,1.9-0.2,3.2-0.3c1.2-0.1,2.7-0.1,4.4-0.1h32.4
		C828.1,49.9,829.1,51.3,829.1,54z"/>
	<path class="st2" d="M896.3,86.2c0,8.9-7.7,13.4-23.1,13.4h-14.1c-6.2,0-11.1-0.8-14.7-2.4c-5.5-2.2-8.2-5.9-8.2-10.9V63.3
		c0-9,7.7-13.5,23-13.5h14.1c7.2,0,12.2,0.6,15.1,1.9c5.3,2,7.9,5.9,7.9,11.6V86.2z M887.3,86V63.5c0-4.2-4.6-6.3-13.8-6.3h-14.4
		c-9.3,0-13.9,2.1-13.9,6.3V86c0,4.1,4.6,6.1,13.9,6.1h14.4C882.7,92.1,887.3,90.1,887.3,86z"/>
	<path class="st2" d="M988.3,96.3c0,1.6-0.6,2.6-2,3c-0.6,0.2-1.9,0.2-3.9,0.2c-2.1,0-3.2-1.1-3.2-3.2V64.2l-26.7,33
		c-1.4,1.7-3.3,2.6-5.7,2.6c-2.5,0-4.4-0.9-5.8-2.6L913.8,64v32.3c0,2.1-1.1,3.2-3.2,3.2c-2.1,0-3.4-0.1-3.9-0.2c-1.3-0.4-2-1.4-2-3
		V54.6c0-3.1,1.7-4.6,5.1-4.6c2.2,0,4,0.8,5.3,2.4l31.8,37.7L978,52.4c1.3-1.6,3-2.4,5.1-2.4c3.5,0,5.2,1.7,5.2,5V96.3z"/>
	<path class="st1" d="M399.3,49.9l33.5,0.1c1.7,0,2.6,1.3,2.6,3.7c0,2.5-0.9,3.7-2.6,3.7l-33.5-0.1"/>
	<g>
		<path class="st0" d="M499.7,87.2c0,2.7-0.4,4.7-1.3,6.2c-2.3,4.1-9.1,6.1-20.5,6.1h-31.4c-2.1,0-3.1-1.1-3.1-3.2
			c0-1.5,0.2-2.5,0.5-3.1c0.5-0.8,1.4-1.2,2.7-1.2H478c8.5,0,12.7-1.6,12.7-4.7v-4.3c0-3-4.1-4.7-12.3-5l-15.1-0.5
			c-0.7,0-1.7-0.1-3-0.1c-1.3-0.1-2.9-0.2-4.7-0.3c-3.3-0.4-6.1-1.5-8.4-3.2c-2.6-2-3.8-4.5-3.8-7.7v-3.8c0-5.8,3.2-9.6,9.6-11.5
			c3.1-0.8,8.7-1.2,16.9-1.2c2.1,0,3.2,1.4,3.2,4.2c0,1.6-0.6,2.6-1.9,3c-0.2,0.1-1.5,0.2-3.9,0.2c-9.9,0-14.9,1.7-14.9,5.2v3.5
			c0,2.1,1.8,3.6,5.5,4.2c0.7,0.1,1.7,0.2,3.1,0.3c1.3,0.1,3,0.1,5,0.1h12.1c5.8,0,10.4,0.7,13.7,2.2c5.3,2.2,7.9,5.5,7.9,10V87.2z"
			/>
		<path class="st0" d="M466.2,49.9l30.9,0.1c1.6,0,2.4,1.3,2.4,3.7c0,2.5-0.8,3.7-2.4,3.7l-30.9-0.2"/>
	</g>
	<g>
		<path class="st1" d="M204.8,57.2l-4.8-0.1c-9.7,0-14.6,1.7-14.6,5.1V87c0,3.4,4.1,5.1,12.2,5.1h20.4c2,0,4-0.4,6.2-1.1
			c2.8-0.9,4.2-2.2,4.2-3.8V74.4c0-1.5,0.7-2.5,2-3c0.8-0.1,2.1-0.2,3.9-0.2c2.1,0,3.2,1.1,3.2,3.2v12.5c0,4.5-2.3,7.9-6.7,10.1
			c-3.5,1.7-7.7,2.6-12.7,2.6h-20.6c-5.4,0-9.9-0.8-13.6-2.3c-5.1-2.1-7.6-5.5-7.6-10.2V62.2c0-4.5,2.6-7.8,7.8-9.9
			c4.1-1.6,8.6-2.4,13.5-2.4h8.2"/>
		<path class="st1" d="M204.8,57.2l30,0.2c1.7,0,2.6-1.2,2.6-3.7c0-2.5-0.9-3.7-2.6-3.7l-17.8-0.1h-12.6"/>
		<path class="st1" d="M234.2,78.8l-33.5-0.2c-1.7,0-2.6-1.3-2.6-3.7c0-2.5,0.9-3.7,2.6-3.7l31.5,0.2"/>
	</g>
	<g>
		<path class="st0" d="M719.8,57.4l-4.8-0.1c-9.7,0-14.6,1.7-14.6,5.1v24.9c0,3.4,4.1,5.1,12.2,5.1h20.4c2,0,4-0.4,6.2-1.1
			c2.8-0.9,4.2-2.2,4.2-3.8V74.6c0-1.5,0.7-2.5,2-3c0.8-0.1,2.1-0.2,3.9-0.2c2.1,0,3.2,1.1,3.2,3.2v12.5c0,4.5-2.3,7.9-6.7,10.1
			c-3.5,1.7-7.7,2.6-12.7,2.6h-20.6c-5.4,0-9.9-0.8-13.6-2.3c-5.1-2.1-7.6-5.5-7.6-10.2V62.4c0-4.5,2.6-7.8,7.8-9.9
			c4.1-1.6,8.6-2.4,13.5-2.4h8.2"/>
		<path class="st0" d="M719.8,57.4l30,0.2c1.7,0,2.6-1.2,2.6-3.7c0-2.5-0.9-3.7-2.6-3.7L732,50.1h-12.6"/>
		<path class="st0" d="M749.1,79l-33.5-0.2c-1.7,0-2.6-1.3-2.6-3.7c0-2.5,0.9-3.7,2.6-3.7l31.5,0.2"/>
	</g>
</g>
<g>
	<g>
		<path class="st3" d="M66.6,48.6C80.9,58.6,94.8,68.2,109,78c-5,2.6-9.8,5.1-14.5,7.6c-4.6,2.4-9.1,4.8-13.7,7.1
			c-1.5,0.7-1.9,1.6-1.9,3.1c0.1,14.7,0,46.8,0,46.8s-1.4,0-2.5,0c-32.1-1-59.4-25.1-64.4-56.9c-6-38,19.4-72.6,57.5-78.4
			c36-5.5,70.8,20.1,76.5,56.2c5.4,34.6-15.4,67-49,76.6c-5.3,1.9-10.3-8.1-2.9-11.7c25-7.1,42.3-31.3,40.7-57.2
			c-1.7-27.2-22.7-49.2-49.8-52.1c-30.6-3.3-58.1,18.8-61.3,49.4c-2.9,27.4,14.4,52.8,40.7,60c2.2,0.6,2.7,0.3,2.7-2
			c-0.1-25-0.1-49.9-0.2-74.9C66.6,50.8,66.6,50,66.6,48.6z"/>
	</g>
</g>
</svg>
