<?xml version="1.0" encoding="utf-8"?>
<!-- Generator: Adobe Illustrator 21.1.0, SVG Export Plug-In . SVG Version: 6.00 Build 0)  -->
<!DOCTYPE svg PUBLIC "-//W3C//DTD SVG 1.1//EN" "http://www.w3.org/Graphics/SVG/1.1/DTD/svg11.dtd">
<svg version="1.1" id="Layer_1" xmlns="http://www.w3.org/2000/svg" xmlns:xlink="http://www.w3.org/1999/xlink" x="0px" y="0px"
	 viewBox="0 0 64 64" style="enable-background:new 0 0 64 64;" xml:space="preserve">
<style type="text/css">
	.st0{fill:#FFFFFF;}
</style>
<g>
	<path class="st0" d="M61.3,0H2.7C1.2,0,0,1.2,0,2.7v58.7C0,62.8,1.2,64,2.7,64h58.7c1.5,0,2.7-1.2,2.7-2.7V2.7
		C64,1.2,62.8,0,61.3,0z M19,54.5H9.5V24H19V54.5z M14.2,19.8c-3,0-5.5-2.5-5.5-5.5s2.5-5.5,5.5-5.5s5.5,2.5,5.5,5.5
		C19.7,17.4,17.3,19.8,14.2,19.8z M54.5,54.5H45V39.7c0-3.5-0.1-8.1-4.9-8.1c-4.9,0-5.7,3.9-5.7,7.8v15.1h-9.5V24H34v4.2h0.1
		c1.3-2.4,4.4-4.9,9-4.9c9.6,0,11.4,6.3,11.4,14.5V54.5z"/>
</g>
</svg>
