<?xml version="1.0" encoding="utf-8"?>
<!-- Generator: Adobe Illustrator 21.1.0, SVG Export Plug-In . SVG Version: 6.00 Build 0)  -->
<!DOCTYPE svg PUBLIC "-//W3C//DTD SVG 1.1//EN" "http://www.w3.org/Graphics/SVG/1.1/DTD/svg11.dtd">
<svg version="1.1" xmlns="http://www.w3.org/2000/svg" xmlns:xlink="http://www.w3.org/1999/xlink" x="0px" y="0px"
	 viewBox="0 0 50 50" style="enable-background:new 0 0 50 50;" xml:space="preserve">
<style type="text/css">
	.st0{fill:#A6A4A4;}
	.st1{display:none;}
	.st2{display:inline;}
	.st3{fill:#FFFFFF;}
</style>
<g id="Layer_1">
	<circle class="st0" cx="25" cy="25" r="24.4"/>
</g>
<g id="Layer_3" class="st1">
	<g class="st2">
		<path class="st3" d="M20.8,42.7V27.4h-5.3v-7.1h5.3v-4.9c0-5.4,3.4-8,8.2-8c2.3,0,4.3,0.2,4.8,0.2v5.6l-3.3,0
			c-2.6,0-3.2,1.2-3.2,3.1v4h7.1l-2.4,7.1h-4.7v15.3H20.8z"/>
	</g>
</g>
<g id="Layer_2">
	<g>
		<path class="st3" d="M42,14.5c-1.3,0.5-2.6,1-4,1.1c1.4-0.8,2.5-2.2,3.1-3.9c-1.3,0.8-2.8,1.4-4.4,1.7c-1.3-1.4-3.1-2.2-5.1-2.2
			c-3.9,0-6.9,3.1-6.9,6.9c0,0.5,0.1,1.1,0.2,1.6c-5.8-0.3-10.9-3.1-14.3-7.2c-0.6,1-1,2.2-1,3.5c0,2.4,1.2,4.5,3.1,5.8
			c-1.2-0.1-2.2-0.4-3.1-0.8c0,0.1,0,0.1,0,0.1c0,3.4,2.4,6.2,5.6,6.8c-0.6,0.2-1.2,0.3-1.9,0.3c-0.4,0-0.9-0.1-1.3-0.1
			c0.9,2.8,3.4,4.8,6.5,4.8c-2.4,1.9-5.4,3-8.6,3c-0.6,0-1.1-0.1-1.6-0.1c3.1,1.9,6.7,3.1,10.6,3.1c12.8,0,19.8-10.6,19.8-19.8
			c0-0.3,0-0.6,0-0.9C39.9,17.1,41.1,15.9,42,14.5z"/>
	</g>
</g>
</svg>
